<svg width="100" height="100" viewBox="0 0 100 100" fill="none" xmlns="http://www.w3.org/2000/svg">
<circle cx="50" cy="50" r="49.5" stroke="#060915"/>
<circle cx="50" cy="50" r="49.5" stroke="black" stroke-opacity="0.2"/>
<path d="M42.7 45.2499L37.45 50.4999L42.7 55.7499L41.65 57.8499L34.3 50.4999L41.65 43.1499L42.7 45.2499Z" fill="#060915"/>
<path d="M42.7 45.2499L37.45 50.4999L42.7 55.7499L41.65 57.8499L34.3 50.4999L41.65 43.1499L42.7 45.2499Z" fill="black" fill-opacity="0.2"/>
<path d="M57.3 55.7501L62.55 50.5001L57.3 45.2501L58.35 43.1501L65.7 50.5001L58.35 57.8501L57.3 55.7501Z" fill="#060915"/>
<path d="M57.3 55.7501L62.55 50.5001L57.3 45.2501L58.35 43.1501L65.7 50.5001L58.35 57.8501L57.3 55.7501Z" fill="black" fill-opacity="0.2"/>
</svg>
