<svg width="201" height="60" viewBox="0 0 201 60" fill="none" xmlns="http://www.w3.org/2000/svg">
<path d="M75.6409 14.9573V27.6139V36.9399H79.9998V28.1849C79.9998 25.7107 82.034 23.7123 84.5525 23.7123H93.0766V19.7154H83.5838C82.3246 19.7154 81.0653 20.0009 79.9998 20.5719V15.5283C79.9998 13.0541 82.034 11.0557 84.5525 11.0557H97.4355V7.05882H83.5838C79.2249 7.15398 75.6409 10.675 75.6409 14.9573Z" fill="#060915"/>
<path d="M75.6409 14.9573V27.6139V36.9399H79.9998V28.1849C79.9998 25.7107 82.034 23.7123 84.5525 23.7123H93.0766V19.7154H83.5838C82.3246 19.7154 81.0653 20.0009 79.9998 20.5719V15.5283C79.9998 13.0541 82.034 11.0557 84.5525 11.0557H97.4355V7.05882H83.5838C79.2249 7.15398 75.6409 10.675 75.6409 14.9573Z" fill="black" fill-opacity="0.2"/>
<path d="M115.162 7.15355H109.931C105.282 7.15355 101.601 10.8649 101.601 15.3375V27.9941V37.0346H105.96V28.47C105.96 25.8054 108.188 23.6167 110.9 23.6167H114.29C117.002 23.6167 119.23 25.8054 119.23 28.47V37.0346H123.589V27.9941V15.3375C123.492 10.7697 119.811 7.15355 115.162 7.15355ZM119.133 20.7618C117.971 20.0957 116.615 19.8102 115.162 19.8102H109.931C108.478 19.8102 107.122 20.1908 105.96 20.7618V15.8133C105.96 13.1488 108.188 10.96 110.9 10.96H114.29C117.002 10.96 119.23 13.1488 119.23 15.8133V20.7618H119.133Z" fill="#060915"/>
<path d="M115.162 7.15355H109.931C105.282 7.15355 101.601 10.8649 101.601 15.3375V27.9941V37.0346H105.96V28.47C105.96 25.8054 108.188 23.6167 110.9 23.6167H114.29C117.002 23.6167 119.23 25.8054 119.23 28.47V37.0346H123.589V27.9941V15.3375C123.492 10.7697 119.811 7.15355 115.162 7.15355ZM119.133 20.7618C117.971 20.0957 116.615 19.8102 115.162 19.8102H109.931C108.478 19.8102 107.122 20.1908 105.96 20.7618V15.8133C105.96 13.1488 108.188 10.96 110.9 10.96H114.29C117.002 10.96 119.23 13.1488 119.23 15.8133V20.7618H119.133Z" fill="black" fill-opacity="0.2"/>
<path d="M127.366 11.1504H135.987V36.9394H140.346V11.1504H148.967V7.15355H127.366V11.1504Z" fill="#060915"/>
<path d="M127.366 11.1504H135.987V36.9394H140.346V11.1504H148.967V7.15355H127.366V11.1504Z" fill="black" fill-opacity="0.2"/>
<path d="M153.231 11.1504H161.852V36.9394H166.211V11.1504H174.832V7.15355H153.231V11.1504Z" fill="#060915"/>
<path d="M153.231 11.1504H161.852V36.9394H166.211V11.1504H174.832V7.15355H153.231V11.1504Z" fill="black" fill-opacity="0.2"/>
<path d="M192.17 7.15355H186.939C182.29 7.15355 178.609 10.8649 178.609 15.3375V22.3796V25.0441V28.8506C178.609 33.4184 182.386 37.0346 186.939 37.0346H192.17C196.819 37.0346 200.5 33.3233 200.5 28.8506V25.0441V22.4747V15.4327C200.5 10.7697 196.722 7.15355 192.17 7.15355ZM196.141 18.2876V20.7618V22.3796V23.3312V25.0441V25.9006V28.3748C196.141 31.0394 193.913 33.2281 191.201 33.2281H187.811C185.099 33.2281 182.871 31.0394 182.871 28.3748V25.9006V25.0441V23.4263V22.4747V20.857V18.3827V15.9085C182.871 13.244 185.099 11.0552 187.811 11.0552H191.201C193.913 11.0552 196.141 13.244 196.141 15.9085V18.2876Z" fill="#060915"/>
<path d="M192.17 7.15355H186.939C182.29 7.15355 178.609 10.8649 178.609 15.3375V22.3796V25.0441V28.8506C178.609 33.4184 182.386 37.0346 186.939 37.0346H192.17C196.819 37.0346 200.5 33.3233 200.5 28.8506V25.0441V22.4747V15.4327C200.5 10.7697 196.722 7.15355 192.17 7.15355ZM196.141 18.2876V20.7618V22.3796V23.3312V25.0441V25.9006V28.3748C196.141 31.0394 193.913 33.2281 191.201 33.2281H187.811C185.099 33.2281 182.871 31.0394 182.871 28.3748V25.9006V25.0441V23.4263V22.4747V20.857V18.3827V15.9085C182.871 13.244 185.099 11.0552 187.811 11.0552H191.201C193.913 11.0552 196.141 13.244 196.141 15.9085V18.2876Z" fill="black" fill-opacity="0.2"/>
<path d="M0.500244 0.000106812V59.9999H65.5309V0.000106812H0.500244ZM64.3039 58.7754H1.72724V1.27365L64.3039 1.17676V58.7754Z" fill="#DDDDDD"/>
<path d="M79.2246 43.6965H77.9653C76.5124 43.6965 75.35 44.8384 75.35 46.2659V52.8321H76.5124V50.2627H79.2246C80.6776 50.2627 81.7431 49.1208 81.7431 47.7885V46.2659C81.7431 44.7433 80.5807 43.6965 79.2246 43.6965ZM80.7744 47.7885C80.7744 48.4546 80.1932 49.0256 79.5152 49.0256H76.6092V46.1707C76.6092 45.5046 77.1904 44.9336 77.8685 44.9336H79.5152C80.1932 44.9336 80.7744 45.5046 80.7744 46.4562V47.7885Z" fill="#060915"/>
<path d="M79.2246 43.6965H77.9653C76.5124 43.6965 75.35 44.8384 75.35 46.2659V52.8321H76.5124V50.2627H79.2246C80.6776 50.2627 81.7431 49.1208 81.7431 47.7885V46.2659C81.7431 44.7433 80.5807 43.6965 79.2246 43.6965ZM80.7744 47.7885C80.7744 48.4546 80.1932 49.0256 79.5152 49.0256H76.6092V46.1707C76.6092 45.5046 77.1904 44.9336 77.8685 44.9336H79.5152C80.1932 44.9336 80.7744 45.5046 80.7744 46.4562V47.7885Z" fill="black" fill-opacity="0.2"/>
<path d="M99.7594 43.6965H97.0472C95.5942 43.6965 94.5287 44.8384 94.5287 46.1707V47.6933C94.5287 49.1208 95.6911 50.2627 97.144 50.2627H98.4033C99.8563 50.2627 101.019 49.1208 101.019 47.6933V41.1271H99.8563V43.6965H99.7594ZM99.7594 47.5982C99.7594 48.2643 99.1782 48.8353 98.5002 48.8353H96.8535C96.1754 48.8353 95.5942 48.2643 95.5942 47.3127V45.9804C95.5942 45.3143 96.1754 44.7433 96.8535 44.7433H99.7594V47.5982Z" fill="#060915"/>
<path d="M99.7594 43.6965H97.0472C95.5942 43.6965 94.5287 44.8384 94.5287 46.1707V47.6933C94.5287 49.1208 95.6911 50.2627 97.144 50.2627H98.4033C99.8563 50.2627 101.019 49.1208 101.019 47.6933V41.1271H99.8563V43.6965H99.7594ZM99.7594 47.5982C99.7594 48.2643 99.1782 48.8353 98.5002 48.8353H96.8535C96.1754 48.8353 95.5942 48.2643 95.5942 47.3127V45.9804C95.5942 45.3143 96.1754 44.7433 96.8535 44.7433H99.7594V47.5982Z" fill="black" fill-opacity="0.2"/>
<path d="M83.099 46.1703V50.1671H84.2614V48.8348V46.7412V46.2654C84.2614 45.5993 84.8426 45.0283 85.5206 45.0283H86.1987V43.7912H85.6175C84.2614 43.696 83.099 44.7428 83.099 46.1703Z" fill="#060915"/>
<path d="M83.099 46.1703V50.1671H84.2614V48.8348V46.7412V46.2654C84.2614 45.5993 84.8426 45.0283 85.5206 45.0283H86.1987V43.7912H85.6175C84.2614 43.696 83.099 44.7428 83.099 46.1703Z" fill="black" fill-opacity="0.2"/>
<path d="M150.71 43.3155V46.2656V47.3123V50.2624H151.873V48.9301V47.3123V46.7414V46.2656C151.873 45.5994 152.454 45.0284 153.132 45.0284H153.81V43.7913H153.229C152.744 43.7913 152.26 43.9816 151.873 44.172V43.9816V43.5058C151.873 42.8397 152.454 42.2687 153.132 42.2687H154.294V41.0316H153.229C151.873 40.8413 150.71 41.9832 150.71 43.3155Z" fill="#060915"/>
<path d="M150.71 43.3155V46.2656V47.3123V50.2624H151.873V48.9301V47.3123V46.7414V46.2656C151.873 45.5994 152.454 45.0284 153.132 45.0284H153.81V43.7913H153.229C152.744 43.7913 152.26 43.9816 151.873 44.172V43.9816V43.5058C151.873 42.8397 152.454 42.2687 153.132 42.2687H154.294V41.0316H153.229C151.873 40.8413 150.71 41.9832 150.71 43.3155Z" fill="black" fill-opacity="0.2"/>
<path d="M140.831 43.3155V46.2656V47.3123V50.2624H141.994V48.9301V47.3123V46.7414V46.2656C141.994 45.5994 142.575 45.0284 143.253 45.0284H143.931V43.7913H143.35C142.866 43.7913 142.381 43.9816 141.994 44.172V43.9816V43.5058C141.994 42.8397 142.575 42.2687 143.253 42.2687H144.415V41.0316H143.35C141.994 40.8413 140.831 41.9832 140.831 43.3155Z" fill="#060915"/>
<path d="M140.831 43.3155V46.2656V47.3123V50.2624H141.994V48.9301V47.3123V46.7414V46.2656C141.994 45.5994 142.575 45.0284 143.253 45.0284H143.931V43.7913H143.35C142.866 43.7913 142.381 43.9816 141.994 44.172V43.9816V43.5058C141.994 42.8397 142.575 42.2687 143.253 42.2687H144.415V41.0316H143.35C141.994 40.8413 140.831 41.9832 140.831 43.3155Z" fill="black" fill-opacity="0.2"/>
<path d="M124.267 46.1703V50.1671H125.429V48.8348V46.7412V46.2654C125.429 45.5993 126.011 45.0283 126.689 45.0283H127.367V43.7912H126.785C125.429 43.696 124.267 44.7428 124.267 46.1703Z" fill="#060915"/>
<path d="M124.267 46.1703V50.1671H125.429V48.8348V46.7412V46.2654C125.429 45.5993 126.011 45.0283 126.689 45.0283H127.367V43.7912H126.785C125.429 43.696 124.267 44.7428 124.267 46.1703Z" fill="black" fill-opacity="0.2"/>
<path d="M163.11 46.1703V50.1671H164.272V48.8348V46.7412V46.2654C164.272 45.5993 164.853 45.0283 165.531 45.0283H166.209V43.7912H165.628C164.272 43.696 163.11 44.7428 163.11 46.1703Z" fill="#060915"/>
<path d="M163.11 46.1703V50.1671H164.272V48.8348V46.7412V46.2654C164.272 45.5993 164.853 45.0283 165.531 45.0283H166.209V43.7912H165.628C164.272 43.696 163.11 44.7428 163.11 46.1703Z" fill="black" fill-opacity="0.2"/>
<path d="M190.329 46.1703V50.1671H191.492V48.8348V46.7412V46.2654C191.492 45.5993 192.073 45.0283 192.751 45.0283H193.429V43.7912H192.848C191.492 43.696 190.329 44.7428 190.329 46.1703Z" fill="#060915"/>
<path d="M190.329 46.1703V50.1671H191.492V48.8348V46.7412V46.2654C191.492 45.5993 192.073 45.0283 192.751 45.0283H193.429V43.7912H192.848C191.492 43.696 190.329 44.7428 190.329 46.1703Z" fill="black" fill-opacity="0.2"/>
<path d="M90.6547 43.6965H89.8798C88.3299 43.6965 87.0707 44.9336 87.0707 46.3611V47.5982C87.0707 49.1208 88.3299 50.2627 89.8798 50.2627H90.6547C92.2045 50.2627 93.4638 49.0256 93.4638 47.5982V46.3611C93.4638 44.8385 92.2045 43.6965 90.6547 43.6965ZM92.3014 47.2175C92.3014 48.2643 91.4296 49.1208 90.3641 49.1208H90.2672C89.2017 49.1208 88.3299 48.2643 88.3299 47.2175V46.8369C88.3299 45.7901 89.2017 44.9336 90.2672 44.9336H90.3641C91.4296 44.9336 92.3014 45.7901 92.3014 46.8369V47.2175Z" fill="#060915"/>
<path d="M90.6547 43.6965H89.8798C88.3299 43.6965 87.0707 44.9336 87.0707 46.3611V47.5982C87.0707 49.1208 88.3299 50.2627 89.8798 50.2627H90.6547C92.2045 50.2627 93.4638 49.0256 93.4638 47.5982V46.3611C93.4638 44.8385 92.2045 43.6965 90.6547 43.6965ZM92.3014 47.2175C92.3014 48.2643 91.4296 49.1208 90.3641 49.1208H90.2672C89.2017 49.1208 88.3299 48.2643 88.3299 47.2175V46.8369C88.3299 45.7901 89.2017 44.9336 90.2672 44.9336H90.3641C91.4296 44.9336 92.3014 45.7901 92.3014 46.8369V47.2175Z" fill="black" fill-opacity="0.2"/>
<path d="M136.956 43.6965H136.182C134.632 43.6965 133.372 44.9336 133.372 46.3611V47.5982C133.372 49.1208 134.632 50.2627 136.182 50.2627H136.956C138.506 50.2627 139.766 49.0256 139.766 47.5982V46.3611C139.766 44.8385 138.506 43.6965 136.956 43.6965ZM138.603 47.2175C138.603 48.2643 137.731 49.1208 136.666 49.1208H136.569C135.503 49.1208 134.632 48.2643 134.632 47.2175V46.8369C134.632 45.7901 135.503 44.9336 136.569 44.9336H136.666C137.731 44.9336 138.603 45.7901 138.603 46.8369V47.2175Z" fill="#060915"/>
<path d="M136.956 43.6965H136.182C134.632 43.6965 133.372 44.9336 133.372 46.3611V47.5982C133.372 49.1208 134.632 50.2627 136.182 50.2627H136.956C138.506 50.2627 139.766 49.0256 139.766 47.5982V46.3611C139.766 44.8385 138.506 43.6965 136.956 43.6965ZM138.603 47.2175C138.603 48.2643 137.731 49.1208 136.666 49.1208H136.569C135.503 49.1208 134.632 48.2643 134.632 47.2175V46.8369C134.632 45.7901 135.503 44.9336 136.569 44.9336H136.666C137.731 44.9336 138.603 45.7901 138.603 46.8369V47.2175Z" fill="black" fill-opacity="0.2"/>
<path d="M107.218 44.9339V46.8371V47.0275V47.5984C107.218 48.2646 106.637 48.8355 105.959 48.8355H104.603C103.925 48.8355 103.344 48.2646 103.344 47.5984V47.0275V46.3613V45.6V43.8871V43.6016H101.988V47.5984C101.988 49.0259 103.15 50.1678 104.603 50.1678H105.862C106.347 50.1678 106.831 49.9775 107.218 49.7872V50.1678H108.381V47.5984V46.9323V43.6968H107.218V44.9339Z" fill="#060915"/>
<path d="M107.218 44.9339V46.8371V47.0275V47.5984C107.218 48.2646 106.637 48.8355 105.959 48.8355H104.603C103.925 48.8355 103.344 48.2646 103.344 47.5984V47.0275V46.3613V45.6V43.8871V43.6016H101.988V47.5984C101.988 49.0259 103.15 50.1678 104.603 50.1678H105.862C106.347 50.1678 106.831 49.9775 107.218 49.7872V50.1678H108.381V47.5984V46.9323V43.6968H107.218V44.9339Z" fill="black" fill-opacity="0.2"/>
<path d="M171.15 43.6965H169.891C169.407 43.6965 168.922 43.8868 168.535 44.0772V43.6965H167.372V46.2659V47.0272V50.2627H168.535V48.8353V46.932V46.7417V46.1707C168.535 45.5046 169.116 44.9336 169.794 44.9336H171.15C171.828 44.9336 172.409 45.5046 172.409 46.1707V46.7417V47.4079V48.1692V49.8821V50.1676H173.766V46.1707C173.669 44.7433 172.603 43.6965 171.15 43.6965Z" fill="#060915"/>
<path d="M171.15 43.6965H169.891C169.407 43.6965 168.922 43.8868 168.535 44.0772V43.6965H167.372V46.2659V47.0272V50.2627H168.535V48.8353V46.932V46.7417V46.1707C168.535 45.5046 169.116 44.9336 169.794 44.9336H171.15C171.828 44.9336 172.409 45.5046 172.409 46.1707V46.7417V47.4079V48.1692V49.8821V50.1676H173.766V46.1707C173.669 44.7433 172.603 43.6965 171.15 43.6965Z" fill="black" fill-opacity="0.2"/>
<path d="M160.687 44.9339V46.8371V47.0275V47.5984C160.687 48.2646 160.106 48.8355 159.428 48.8355H158.072C157.394 48.8355 156.813 48.2646 156.813 47.5984V47.0275V46.3613V45.6V43.8871V43.6016H155.456V47.5984C155.456 49.0259 156.619 50.1678 158.072 50.1678H159.331C159.815 50.1678 160.3 49.9775 160.687 49.7872V50.1678H161.85V47.5984V46.9323V43.6968H160.687V44.9339Z" fill="#060915"/>
<path d="M160.687 44.9339V46.8371V47.0275V47.5984C160.687 48.2646 160.106 48.8355 159.428 48.8355H158.072C157.394 48.8355 156.813 48.2646 156.813 47.5984V47.0275V46.3613V45.6V43.8871V43.6016H155.456V47.5984C155.456 49.0259 156.619 50.1678 158.072 50.1678H159.331C159.815 50.1678 160.3 49.9775 160.687 49.7872V50.1678H161.85V47.5984V46.9323V43.6968H160.687V44.9339Z" fill="black" fill-opacity="0.2"/>
<path d="M188.101 44.9339V46.8371V47.0275V47.5984C188.101 48.2646 187.52 48.8355 186.842 48.8355H185.486C184.808 48.8355 184.227 48.2646 184.227 47.5984V47.0275V46.3613V45.6V43.8871V43.6016H182.87V47.5984C182.87 49.0259 184.033 50.1678 185.486 50.1678H186.745C187.229 50.1678 187.714 49.9775 188.101 49.7872V50.1678H189.264V47.5984V46.9323V43.6968H188.101V44.9339Z" fill="#060915"/>
<path d="M188.101 44.9339V46.8371V47.0275V47.5984C188.101 48.2646 187.52 48.8355 186.842 48.8355H185.486C184.808 48.8355 184.227 48.2646 184.227 47.5984V47.0275V46.3613V45.6V43.8871V43.6016H182.87V47.5984C182.87 49.0259 184.033 50.1678 185.486 50.1678H186.745C187.229 50.1678 187.714 49.9775 188.101 49.7872V50.1678H189.264V47.5984V46.9323V43.6968H188.101V44.9339Z" fill="black" fill-opacity="0.2"/>
<path d="M112.643 44.9339C113.515 44.9339 114.193 45.4097 114.483 46.0758H115.839C115.743 44.7436 114.58 43.6016 113.127 43.6016H112.352C110.802 43.6016 109.64 44.8387 109.64 46.2662V47.4081C109.64 48.9307 110.899 50.0727 112.352 50.0727H113.127C114.483 50.0727 115.646 49.0259 115.839 47.7888H114.58C114.29 48.4549 113.611 48.9307 112.837 48.9307H112.74C111.674 48.9307 110.899 48.0742 110.899 47.1226V46.742C110.706 45.7903 111.577 44.9339 112.643 44.9339Z" fill="#060915"/>
<path d="M112.643 44.9339C113.515 44.9339 114.193 45.4097 114.483 46.0758H115.839C115.743 44.7436 114.58 43.6016 113.127 43.6016H112.352C110.802 43.6016 109.64 44.8387 109.64 46.2662V47.4081C109.64 48.9307 110.899 50.0727 112.352 50.0727H113.127C114.483 50.0727 115.646 49.0259 115.839 47.7888H114.58C114.29 48.4549 113.611 48.9307 112.837 48.9307H112.74C111.674 48.9307 110.899 48.0742 110.899 47.1226V46.742C110.706 45.7903 111.577 44.9339 112.643 44.9339Z" fill="black" fill-opacity="0.2"/>
<path d="M120.392 43.6016H119.617C118.067 43.6016 116.905 44.8387 116.905 46.2662V47.4081C116.905 48.9307 118.164 50.0727 119.617 50.0727H119.907H120.392H122.717V48.9307H122.62H120.101H119.907C118.842 48.9307 118.067 48.2646 118.067 47.3129V47.1226H123.104V45.9807C122.91 44.6484 121.748 43.6016 120.392 43.6016ZM118.164 45.9807C118.164 45.2194 119.133 44.6484 119.907 44.6484H120.004C120.779 44.6484 121.748 45.2194 121.748 45.9807H118.164Z" fill="#060915"/>
<path d="M120.392 43.6016H119.617C118.067 43.6016 116.905 44.8387 116.905 46.2662V47.4081C116.905 48.9307 118.164 50.0727 119.617 50.0727H119.907H120.392H122.717V48.9307H122.62H120.101H119.907C118.842 48.9307 118.067 48.2646 118.067 47.3129V47.1226H123.104V45.9807C122.91 44.6484 121.748 43.6016 120.392 43.6016ZM118.164 45.9807C118.164 45.2194 119.133 44.6484 119.907 44.6484H120.004C120.779 44.6484 121.748 45.2194 121.748 45.9807H118.164Z" fill="black" fill-opacity="0.2"/>
<path d="M200.5 47.1221V45.9801C200.403 44.6478 199.24 43.5059 197.787 43.5059H197.012C195.463 43.5059 194.3 44.743 194.3 46.1704V47.3124C194.3 48.835 195.559 49.9769 197.012 49.9769H197.303H197.787H200.112V48.835H200.015H197.497H197.4C196.334 48.835 195.559 48.1689 195.559 47.2172V47.0269H200.5V47.1221ZM197.4 44.743C198.272 44.743 199.24 45.314 199.24 46.0753H195.656C195.656 45.314 196.625 44.743 197.4 44.743Z" fill="#060915"/>
<path d="M200.5 47.1221V45.9801C200.403 44.6478 199.24 43.5059 197.787 43.5059H197.012C195.463 43.5059 194.3 44.743 194.3 46.1704V47.3124C194.3 48.835 195.559 49.9769 197.012 49.9769H197.303H197.787H200.112V48.835H200.015H197.497H197.4C196.334 48.835 195.559 48.1689 195.559 47.2172V47.0269H200.5V47.1221ZM197.4 44.743C198.272 44.743 199.24 45.314 199.24 46.0753H195.656C195.656 45.314 196.625 44.743 197.4 44.743Z" fill="black" fill-opacity="0.2"/>
<path d="M176.381 43.6965H175.121V50.2627H176.381V43.6965Z" fill="#060915"/>
<path d="M176.381 43.6965H175.121V50.2627H176.381V43.6965Z" fill="black" fill-opacity="0.2"/>
<path d="M175.799 41.9836C176.227 41.9836 176.574 41.6427 176.574 41.2223C176.574 40.8018 176.227 40.461 175.799 40.461C175.371 40.461 175.024 40.8018 175.024 41.2223C175.024 41.6427 175.371 41.9836 175.799 41.9836Z" fill="#060915"/>
<path d="M175.799 41.9836C176.227 41.9836 176.574 41.6427 176.574 41.2223C176.574 40.8018 176.227 40.461 175.799 40.461C175.371 40.461 175.024 40.8018 175.024 41.2223C175.024 41.6427 175.371 41.9836 175.799 41.9836Z" fill="black" fill-opacity="0.2"/>
<path d="M179.383 47.8836V47.4078V47.2175V45.0288V44.6481C179.771 44.9336 180.255 45.0288 180.739 45.0288H181.321V43.7917H180.643C179.965 43.7917 179.383 43.2207 179.383 42.5545V42.4594V41.9836V41.7932V41.1271H178.221V41.7932V42.5545V44.0771V45.1239V48.074C178.221 49.5014 179.383 50.6434 180.836 50.6434H181.805V49.4062H180.739C179.965 49.1208 179.383 48.5498 179.383 47.8836Z" fill="#060915"/>
<path d="M179.383 47.8836V47.4078V47.2175V45.0288V44.6481C179.771 44.9336 180.255 45.0288 180.739 45.0288H181.321V43.7917H180.643C179.965 43.7917 179.383 43.2207 179.383 42.5545V42.4594V41.9836V41.7932V41.1271H178.221V41.7932V42.5545V44.0771V45.1239V48.074C178.221 49.5014 179.383 50.6434 180.836 50.6434H181.805V49.4062H180.739C179.965 49.1208 179.383 48.5498 179.383 47.8836Z" fill="black" fill-opacity="0.2"/>
<path d="M24.6916 15.5111C26.3383 16.6531 28.6631 16.0821 28.6631 16.0821C28.6631 16.0821 27.985 14.274 26.6289 13.5127C25.2728 12.6563 22.6575 12.7514 22.6575 12.7514C22.8512 13.2272 23.0449 14.4643 24.6916 15.5111Z" fill="#060915"/>
<path d="M24.6916 15.5111C26.3383 16.6531 28.6631 16.0821 28.6631 16.0821C28.6631 16.0821 27.985 14.274 26.6289 13.5127C25.2728 12.6563 22.6575 12.7514 22.6575 12.7514C22.8512 13.2272 23.0449 14.4643 24.6916 15.5111Z" fill="black" fill-opacity="0.2"/>
<path d="M26.9185 20.745C27.6934 22.4579 30.0182 23.2192 30.0182 23.2192C30.0182 23.2192 30.3088 21.316 29.6307 19.9837C28.9526 18.5562 26.6279 17.4143 26.6279 17.4143C26.531 17.8901 26.0467 19.0321 26.9185 20.745Z" fill="#060915"/>
<path d="M26.9185 20.745C27.6934 22.4579 30.0182 23.2192 30.0182 23.2192C30.0182 23.2192 30.3088 21.316 29.6307 19.9837C28.9526 18.5562 26.6279 17.4143 26.6279 17.4143C26.531 17.8901 26.0467 19.0321 26.9185 20.745Z" fill="black" fill-opacity="0.2"/>
<path d="M35.2502 21.507C35.7346 21.6973 36.7032 22.4586 38.6405 22.1731C40.5778 21.8876 41.9339 19.8892 41.9339 19.8892C41.9339 19.8892 40.1904 19.0328 38.6405 19.3183C37.0907 19.6989 35.2502 21.507 35.2502 21.507Z" fill="#060915"/>
<path d="M35.2502 21.507C35.7346 21.6973 36.7032 22.4586 38.6405 22.1731C40.5778 21.8876 41.9339 19.8892 41.9339 19.8892C41.9339 19.8892 40.1904 19.0328 38.6405 19.3183C37.0907 19.6989 35.2502 21.507 35.2502 21.507Z" fill="black" fill-opacity="0.2"/>
<path d="M33.6028 26.7411C33.0216 28.1685 33.6997 30.6427 33.6997 30.6427C34.0871 30.3572 35.2495 29.8814 36.0244 28.1685C36.7994 26.3604 35.7338 24.2668 35.7338 24.2668C35.7338 24.2668 34.184 25.3136 33.6028 26.7411Z" fill="#060915"/>
<path d="M33.6028 26.7411C33.0216 28.1685 33.6997 30.6427 33.6997 30.6427C34.0871 30.3572 35.2495 29.8814 36.0244 28.1685C36.7994 26.3604 35.7338 24.2668 35.7338 24.2668C35.7338 24.2668 34.184 25.3136 33.6028 26.7411Z" fill="black" fill-opacity="0.2"/>
<path d="M38.2532 27.5019C38.7375 27.4067 39.9967 27.5019 41.4497 26.1696C42.9027 24.8374 42.9027 22.4583 42.9027 22.4583C42.9027 22.4583 40.9654 22.7438 39.8999 23.7906C38.6406 25.0277 38.2532 27.5019 38.2532 27.5019Z" fill="#060915"/>
<path d="M38.2532 27.5019C38.7375 27.4067 39.9967 27.5019 41.4497 26.1696C42.9027 24.8374 42.9027 22.4583 42.9027 22.4583C42.9027 22.4583 40.9654 22.7438 39.8999 23.7906C38.6406 25.0277 38.2532 27.5019 38.2532 27.5019Z" fill="black" fill-opacity="0.2"/>
<path d="M42.4177 15.3208C43.3864 13.6079 42.6115 11.4192 42.6115 11.4192C42.6115 11.4192 40.8679 12.2756 40.1898 13.7031C39.5118 15.1305 39.8024 17.6047 39.8024 17.6047C40.1898 17.4144 41.4491 17.0338 42.4177 15.3208Z" fill="#060915"/>
<path d="M42.4177 15.3208C43.3864 13.6079 42.6115 11.4192 42.6115 11.4192C42.6115 11.4192 40.8679 12.2756 40.1898 13.7031C39.5118 15.1305 39.8024 17.6047 39.8024 17.6047C40.1898 17.4144 41.4491 17.0338 42.4177 15.3208Z" fill="black" fill-opacity="0.2"/>
<path d="M35.2497 15.8921C35.5402 15.5114 36.412 14.5598 36.3152 12.6565C36.2183 10.7533 34.3779 9.23069 34.3779 9.23069C34.3779 9.23069 33.4092 10.8485 33.5061 12.3711C33.6029 13.8937 35.2497 15.8921 35.2497 15.8921Z" fill="#060915"/>
<path d="M35.2497 15.8921C35.5402 15.5114 36.412 14.5598 36.3152 12.6565C36.2183 10.7533 34.3779 9.23069 34.3779 9.23069C34.3779 9.23069 33.4092 10.8485 33.5061 12.3711C33.6029 13.8937 35.2497 15.8921 35.2497 15.8921Z" fill="black" fill-opacity="0.2"/>
<path d="M50.7488 19.3175C51.1363 17.4142 49.7802 15.511 49.7802 15.511C49.7802 15.511 48.4241 16.8432 48.1335 18.3658C47.8429 19.8884 48.9084 22.2675 48.9084 22.2675C49.2959 21.8869 50.3614 21.2207 50.7488 19.3175Z" fill="#060915"/>
<path d="M50.7488 19.3175C51.1363 17.4142 49.7802 15.511 49.7802 15.511C49.7802 15.511 48.4241 16.8432 48.1335 18.3658C47.8429 19.8884 48.9084 22.2675 48.9084 22.2675C49.2959 21.8869 50.3614 21.2207 50.7488 19.3175Z" fill="black" fill-opacity="0.2"/>
<path d="M51.6196 25.5035C50.3603 26.4551 49.4885 28.8342 49.4885 28.8342C49.9729 28.8342 51.2321 29.0245 52.8788 27.9777C54.5255 26.9309 54.8161 24.5518 54.8161 24.5518C54.8161 24.5518 52.8788 24.5518 51.6196 25.5035Z" fill="#060915"/>
<path d="M51.6196 25.5035C50.3603 26.4551 49.4885 28.8342 49.4885 28.8342C49.9729 28.8342 51.2321 29.0245 52.8788 27.9777C54.5255 26.9309 54.8161 24.5518 54.8161 24.5518C54.8161 24.5518 52.8788 24.5518 51.6196 25.5035Z" fill="black" fill-opacity="0.2"/>
<path d="M51.3292 31.6886C49.8763 32.1644 48.3264 34.258 48.3264 34.258C48.8107 34.4483 49.9731 35.0193 51.8136 34.4483C53.654 33.8773 54.7195 31.6886 54.7195 31.6886C54.7195 31.6886 52.8791 31.1176 51.3292 31.6886Z" fill="#060915"/>
<path d="M51.3292 31.6886C49.8763 32.1644 48.3264 34.258 48.3264 34.258C48.8107 34.4483 49.9731 35.0193 51.8136 34.4483C53.654 33.8773 54.7195 31.6886 54.7195 31.6886C54.7195 31.6886 52.8791 31.1176 51.3292 31.6886Z" fill="black" fill-opacity="0.2"/>
<path d="M39.6084 35.6856C38.1555 35.1146 35.637 35.7807 35.637 35.7807C35.9276 36.1614 36.4119 37.3033 38.1555 38.0646C39.9959 38.8259 42.1269 37.7791 42.1269 37.7791C42.1269 37.7791 41.0614 36.2565 39.6084 35.6856Z" fill="#060915"/>
<path d="M39.6084 35.6856C38.1555 35.1146 35.637 35.7807 35.637 35.7807C35.9276 36.1614 36.4119 37.3033 38.1555 38.0646C39.9959 38.8259 42.1269 37.7791 42.1269 37.7791C42.1269 37.7791 41.0614 36.2565 39.6084 35.6856Z" fill="black" fill-opacity="0.2"/>
<path d="M25.4662 31.2129C27.3066 31.8791 29.4377 30.7371 29.4377 30.7371C29.4377 30.7371 28.2753 29.2145 26.8223 28.7387C25.2725 28.2629 22.8508 29.0242 22.8508 29.0242C23.0446 29.4048 23.6258 30.5468 25.4662 31.2129Z" fill="#060915"/>
<path d="M25.4662 31.2129C27.3066 31.8791 29.4377 30.7371 29.4377 30.7371C29.4377 30.7371 28.2753 29.2145 26.8223 28.7387C25.2725 28.2629 22.8508 29.0242 22.8508 29.0242C23.0446 29.4048 23.6258 30.5468 25.4662 31.2129Z" fill="black" fill-opacity="0.2"/>
<path d="M16.9431 34.7343C18.8804 34.6391 20.4302 32.7359 20.4302 32.7359C20.4302 32.7359 18.7835 31.7842 17.2337 31.9745C15.6838 32.1649 13.6497 33.7826 13.6497 33.7826C14.0371 34.0681 15.0058 34.9246 16.9431 34.7343Z" fill="#060915"/>
<path d="M16.9431 34.7343C18.8804 34.6391 20.4302 32.7359 20.4302 32.7359C20.4302 32.7359 18.7835 31.7842 17.2337 31.9745C15.6838 32.1649 13.6497 33.7826 13.6497 33.7826C14.0371 34.0681 15.0058 34.9246 16.9431 34.7343Z" fill="black" fill-opacity="0.2"/>
<path d="M19.3638 21.7922C19.4606 22.268 19.4606 23.5051 20.8167 24.9325C22.1729 26.36 24.5945 26.2648 24.5945 26.2648C24.5945 26.2648 24.3039 24.3616 23.1415 23.3148C21.9791 22.1728 19.3638 21.7922 19.3638 21.7922Z" fill="#060915"/>
<path d="M19.3638 21.7922C19.4606 22.268 19.4606 23.5051 20.8167 24.9325C22.1729 26.36 24.5945 26.2648 24.5945 26.2648C24.5945 26.2648 24.3039 24.3616 23.1415 23.3148C21.9791 22.1728 19.3638 21.7922 19.3638 21.7922Z" fill="black" fill-opacity="0.2"/>
<path d="M15.1983 27.0261C15.1983 27.0261 15.6826 25.218 15.1014 23.7906C14.5202 22.3631 12.2923 20.9357 12.2923 20.9357C12.1955 21.4115 11.6143 22.5535 12.2923 24.3615C12.9704 26.1696 15.1983 27.0261 15.1983 27.0261Z" fill="#060915"/>
<path d="M15.1983 27.0261C15.1983 27.0261 15.6826 25.218 15.1014 23.7906C14.5202 22.3631 12.2923 20.9357 12.2923 20.9357C12.1955 21.4115 11.6143 22.5535 12.2923 24.3615C12.9704 26.1696 15.1983 27.0261 15.1983 27.0261Z" fill="black" fill-opacity="0.2"/>
<path d="M11.8087 30.3568C10.6463 30.6423 9.29016 32.3552 9.29016 32.3552C9.67762 32.5455 10.5494 33.0213 12.0993 32.6407C13.6491 32.26 14.5209 30.5471 14.5209 30.5471C14.5209 30.5471 13.0679 29.9761 11.8087 30.3568Z" fill="#060915"/>
<path d="M11.8087 30.3568C10.6463 30.6423 9.29016 32.3552 9.29016 32.3552C9.67762 32.5455 10.5494 33.0213 12.0993 32.6407C13.6491 32.26 14.5209 30.5471 14.5209 30.5471C14.5209 30.5471 13.0679 29.9761 11.8087 30.3568Z" fill="black" fill-opacity="0.2"/>
<path d="M24.8851 35.7815C23.6259 36.1621 22.2698 37.7799 22.2698 37.7799C22.6572 37.9702 23.529 38.446 25.0789 38.0654C26.6287 37.6847 27.5005 35.9718 27.5005 35.9718C27.5005 35.9718 26.1444 35.4008 24.8851 35.7815Z" fill="#060915"/>
<path d="M24.8851 35.7815C23.6259 36.1621 22.2698 37.7799 22.2698 37.7799C22.6572 37.9702 23.529 38.446 25.0789 38.0654C26.6287 37.6847 27.5005 35.9718 27.5005 35.9718C27.5005 35.9718 26.1444 35.4008 24.8851 35.7815Z" fill="black" fill-opacity="0.2"/>
<path d="M19.9457 18.4619C20.2363 17.2248 19.3645 15.3215 19.3645 15.3215C19.0739 15.607 18.2021 16.0828 17.8147 17.6054C17.4272 19.128 18.5896 20.7458 18.5896 20.7458C18.5896 20.7458 19.6551 19.699 19.9457 18.4619Z" fill="#060915"/>
<path d="M19.9457 18.4619C20.2363 17.2248 19.3645 15.3215 19.3645 15.3215C19.0739 15.607 18.2021 16.0828 17.8147 17.6054C17.4272 19.128 18.5896 20.7458 18.5896 20.7458C18.5896 20.7458 19.6551 19.699 19.9457 18.4619Z" fill="black" fill-opacity="0.2"/>
<path d="M41.2551 32.1648C41.2551 32.1648 42.805 32.4503 43.9674 31.7842C45.1297 31.2132 46.0984 29.4051 46.0984 29.4051C45.7109 29.31 44.7423 29.0245 43.2893 29.5954C41.8363 30.2616 41.2551 32.1648 41.2551 32.1648Z" fill="#060915"/>
<path d="M41.2551 32.1648C41.2551 32.1648 42.805 32.4503 43.9674 31.7842C45.1297 31.2132 46.0984 29.4051 46.0984 29.4051C45.7109 29.31 44.7423 29.0245 43.2893 29.5954C41.8363 30.2616 41.2551 32.1648 41.2551 32.1648Z" fill="black" fill-opacity="0.2"/>
<path d="M56.6568 33.2113C56.6568 33.2113 53.4603 36.1614 50.1669 35.971C47.8421 35.7807 46.0017 35.0194 44.4518 34.3533C44.4518 34.3533 44.355 34.3533 44.355 34.2581C47.1641 33.1162 48.5202 30.2613 48.617 30.071L47.5515 29.5952C47.5515 29.5952 45.808 33.3065 42.4177 33.4968L42.0302 33.4017C40.6741 33.021 38.6399 32.5452 35.5402 32.9258C36.0246 32.45 36.5089 31.9742 37.0901 31.5936C38.5431 30.3565 40.5772 29.5952 42.2239 28.929C43.3863 28.4532 44.1612 28.0726 44.6456 27.6919C53.1697 24.5515 53.4603 19.0321 53.4603 18.8418H52.2979C52.2979 18.8418 52.0073 23.2193 45.5174 26.1693C46.2923 24.266 46.9703 21.1257 47.1641 18.7466C47.3578 15.3208 45.2268 11.6094 45.1299 11.5143L44.1612 12.0852C44.1612 12.0852 46.2923 15.6063 46.0017 18.6515C45.8079 21.9821 44.5487 26.1693 43.8707 26.8354C43.6769 27.1209 42.7083 27.5016 41.7396 27.8822C39.996 28.5484 37.9619 29.4048 36.3152 30.7371C35.0559 31.7839 33.8935 32.8307 32.9249 34.2581C32.6343 33.9726 32.4406 33.4968 32.4406 33.4968C31.1813 27.6919 31.4719 26.6451 31.9562 25.0273C32.0531 24.6467 32.15 24.3612 32.2468 23.8854C32.6343 22.2676 33.6998 21.1257 35.1528 19.6982C35.734 19.0321 36.5089 18.366 37.187 17.5095C39.318 15.0353 39.1243 12.3707 38.9305 10.3723C38.9305 10.0868 38.8337 9.80134 38.8337 9.51585H37.6713C37.6713 9.80134 37.6713 10.0868 37.7681 10.4675C37.9619 12.2756 38.1556 14.6546 36.3152 16.7482C35.8308 17.3192 35.4434 17.795 34.9591 18.2708C32.6343 12.9417 28.3722 12.0852 28.1785 12.0852L27.9848 13.2272C27.9848 13.2272 32.0531 13.9885 34.0873 19.2224C32.7312 20.6499 31.5688 21.887 31.1813 23.6951C31.0845 24.0757 30.9876 24.4564 30.8907 24.7419C30.7939 25.0274 30.7939 25.2177 30.697 25.5032C23.6258 22.7434 21.9791 16.1772 21.9791 16.1772L20.8168 16.4627C20.9136 16.7482 22.5603 23.7902 30.4064 26.7403C30.3095 27.9774 30.4064 29.7855 31.1813 33.2113C30.4064 33.021 29.244 33.021 27.9848 33.1162C26.7255 33.2113 25.2726 33.2113 24.6914 32.9258C23.529 32.3549 21.0105 30.071 20.0418 29.2145L19.945 29.1193C16.0704 25.8838 16.2641 15.9869 16.2641 15.8917H15.1017C15.1017 16.2724 14.908 25.1225 18.2983 29.2145C17.1359 29.3097 15.3923 29.1193 13.6487 28.1677C11.1302 26.6451 10.6459 24.9322 10.6459 24.9322L10.0647 25.0273L9.48354 25.1225C9.48354 25.2177 10.0647 27.3113 13.1644 29.1193C15.7798 30.6419 18.492 30.3565 19.4606 30.2613C20.1387 30.9274 22.4635 33.021 23.9164 33.7823C22.076 34.7339 18.3951 36.3517 15.586 36.1614C11.7114 35.971 9.28981 33.592 9.28981 33.592L8.51489 34.3533C8.61176 34.4484 11.2271 37.0178 15.586 37.2082C15.6829 37.2082 15.8766 37.2082 15.9735 37.2082C19.8481 37.2082 24.6914 34.6388 25.5631 34.0678C26.3381 34.163 27.2099 34.0678 28.0816 34.0678C29.244 33.9726 30.7939 33.9726 31.1813 34.2581C31.5688 34.4484 31.9562 34.8291 32.2468 35.2097C31.6657 36.1614 31.2782 37.3033 31.0845 38.5404C30.697 41.0147 30.2127 43.9647 32.3437 48.0567C31.6656 49.389 30.8907 50.4358 30.8907 50.4358L31.8594 51.0067C31.8594 50.9116 32.4406 50.1503 33.0218 49.1986C33.4092 49.8648 33.8935 50.6261 34.4747 51.3874L35.4434 50.7212C34.7653 49.7696 34.1841 48.9132 33.6998 48.0567C34.281 46.9147 34.8622 45.7728 35.0559 44.9163C35.6371 42.3469 34.9591 38.5404 34.8622 37.7791C34.6685 36.8275 34.281 35.8759 33.7967 35.1146C33.9904 34.8291 34.1841 34.5436 34.4747 34.2581C38.1556 33.4968 40.3835 34.0678 41.9333 34.4484L42.4177 34.5436C42.902 34.6388 43.4832 34.9243 44.2581 35.2097C45.8079 35.8759 47.8421 36.7323 50.3606 36.9227C50.5543 36.9227 50.6512 36.9227 50.8449 36.9227C54.5258 36.9227 57.6255 33.9726 57.7224 33.8775L56.6568 33.2113ZM33.7967 44.8212C33.6998 45.3921 33.3124 46.1534 32.9249 46.9147C31.3751 43.4889 31.7625 41.0147 32.15 38.8259C32.2468 37.9695 32.5374 37.113 32.9249 36.4469C33.2155 37.0178 33.4092 37.5888 33.5061 38.1598C33.9904 40.063 34.1841 43.0131 33.7967 44.8212Z" fill="#060915"/>
<path d="M56.6568 33.2113C56.6568 33.2113 53.4603 36.1614 50.1669 35.971C47.8421 35.7807 46.0017 35.0194 44.4518 34.3533C44.4518 34.3533 44.355 34.3533 44.355 34.2581C47.1641 33.1162 48.5202 30.2613 48.617 30.071L47.5515 29.5952C47.5515 29.5952 45.808 33.3065 42.4177 33.4968L42.0302 33.4017C40.6741 33.021 38.6399 32.5452 35.5402 32.9258C36.0246 32.45 36.5089 31.9742 37.0901 31.5936C38.5431 30.3565 40.5772 29.5952 42.2239 28.929C43.3863 28.4532 44.1612 28.0726 44.6456 27.6919C53.1697 24.5515 53.4603 19.0321 53.4603 18.8418H52.2979C52.2979 18.8418 52.0073 23.2193 45.5174 26.1693C46.2923 24.266 46.9703 21.1257 47.1641 18.7466C47.3578 15.3208 45.2268 11.6094 45.1299 11.5143L44.1612 12.0852C44.1612 12.0852 46.2923 15.6063 46.0017 18.6515C45.8079 21.9821 44.5487 26.1693 43.8707 26.8354C43.6769 27.1209 42.7083 27.5016 41.7396 27.8822C39.996 28.5484 37.9619 29.4048 36.3152 30.7371C35.0559 31.7839 33.8935 32.8307 32.9249 34.2581C32.6343 33.9726 32.4406 33.4968 32.4406 33.4968C31.1813 27.6919 31.4719 26.6451 31.9562 25.0273C32.0531 24.6467 32.15 24.3612 32.2468 23.8854C32.6343 22.2676 33.6998 21.1257 35.1528 19.6982C35.734 19.0321 36.5089 18.366 37.187 17.5095C39.318 15.0353 39.1243 12.3707 38.9305 10.3723C38.9305 10.0868 38.8337 9.80134 38.8337 9.51585H37.6713C37.6713 9.80134 37.6713 10.0868 37.7681 10.4675C37.9619 12.2756 38.1556 14.6546 36.3152 16.7482C35.8308 17.3192 35.4434 17.795 34.9591 18.2708C32.6343 12.9417 28.3722 12.0852 28.1785 12.0852L27.9848 13.2272C27.9848 13.2272 32.0531 13.9885 34.0873 19.2224C32.7312 20.6499 31.5688 21.887 31.1813 23.6951C31.0845 24.0757 30.9876 24.4564 30.8907 24.7419C30.7939 25.0274 30.7939 25.2177 30.697 25.5032C23.6258 22.7434 21.9791 16.1772 21.9791 16.1772L20.8168 16.4627C20.9136 16.7482 22.5603 23.7902 30.4064 26.7403C30.3095 27.9774 30.4064 29.7855 31.1813 33.2113C30.4064 33.021 29.244 33.021 27.9848 33.1162C26.7255 33.2113 25.2726 33.2113 24.6914 32.9258C23.529 32.3549 21.0105 30.071 20.0418 29.2145L19.945 29.1193C16.0704 25.8838 16.2641 15.9869 16.2641 15.8917H15.1017C15.1017 16.2724 14.908 25.1225 18.2983 29.2145C17.1359 29.3097 15.3923 29.1193 13.6487 28.1677C11.1302 26.6451 10.6459 24.9322 10.6459 24.9322L10.0647 25.0273L9.48354 25.1225C9.48354 25.2177 10.0647 27.3113 13.1644 29.1193C15.7798 30.6419 18.492 30.3565 19.4606 30.2613C20.1387 30.9274 22.4635 33.021 23.9164 33.7823C22.076 34.7339 18.3951 36.3517 15.586 36.1614C11.7114 35.971 9.28981 33.592 9.28981 33.592L8.51489 34.3533C8.61176 34.4484 11.2271 37.0178 15.586 37.2082C15.6829 37.2082 15.8766 37.2082 15.9735 37.2082C19.8481 37.2082 24.6914 34.6388 25.5631 34.0678C26.3381 34.163 27.2099 34.0678 28.0816 34.0678C29.244 33.9726 30.7939 33.9726 31.1813 34.2581C31.5688 34.4484 31.9562 34.8291 32.2468 35.2097C31.6657 36.1614 31.2782 37.3033 31.0845 38.5404C30.697 41.0147 30.2127 43.9647 32.3437 48.0567C31.6656 49.389 30.8907 50.4358 30.8907 50.4358L31.8594 51.0067C31.8594 50.9116 32.4406 50.1503 33.0218 49.1986C33.4092 49.8648 33.8935 50.6261 34.4747 51.3874L35.4434 50.7212C34.7653 49.7696 34.1841 48.9132 33.6998 48.0567C34.281 46.9147 34.8622 45.7728 35.0559 44.9163C35.6371 42.3469 34.9591 38.5404 34.8622 37.7791C34.6685 36.8275 34.281 35.8759 33.7967 35.1146C33.9904 34.8291 34.1841 34.5436 34.4747 34.2581C38.1556 33.4968 40.3835 34.0678 41.9333 34.4484L42.4177 34.5436C42.902 34.6388 43.4832 34.9243 44.2581 35.2097C45.8079 35.8759 47.8421 36.7323 50.3606 36.9227C50.5543 36.9227 50.6512 36.9227 50.8449 36.9227C54.5258 36.9227 57.6255 33.9726 57.7224 33.8775L56.6568 33.2113ZM33.7967 44.8212C33.6998 45.3921 33.3124 46.1534 32.9249 46.9147C31.3751 43.4889 31.7625 41.0147 32.15 38.8259C32.2468 37.9695 32.5374 37.113 32.9249 36.4469C33.2155 37.0178 33.4092 37.5888 33.5061 38.1598C33.9904 40.063 34.1841 43.0131 33.7967 44.8212Z" fill="black" fill-opacity="0.2"/>
</svg>
