<svg width="944" height="513" viewBox="0 0 944 513" fill="none" xmlns="http://www.w3.org/2000/svg">
<mask id="path-1-inside-1_1127_48218" fill="white">
<path d="M809.796 510.883C812.573 508.857 812.581 508.412 809.982 500.607C808.488 496.12 805.995 490.884 804.442 488.97C801.983 485.942 801.893 484.964 803.742 481.408C804.911 479.161 806.592 477.234 807.479 477.125C808.365 477.016 810.438 476.838 812.084 476.729C815.702 476.489 817.489 470.819 815.257 466.659C814.109 464.52 814.203 462.965 815.578 461.312C817.547 458.946 817.491 458.716 812.243 447.647C810.684 444.36 810.638 442.815 812.05 441.119C813.48 439.4 813.354 438.446 811.494 436.907C810.172 435.812 809.09 433.22 809.09 431.147C809.09 429.073 808.547 427.377 807.883 427.377C806.497 427.377 801.926 434.028 802.319 435.474C802.463 436.003 800.807 437.382 798.639 438.539C796.472 439.697 794.282 442.296 793.774 444.316C793.266 446.337 792.263 447.99 791.546 447.99C790.829 447.99 789.212 449.018 787.952 450.274C784.614 453.604 779.644 451.634 776.446 445.711C774.46 442.031 772.461 440.489 769.516 440.362C767.239 440.264 762.662 439.919 759.344 439.597C756.026 439.274 752.971 439.56 752.555 440.231C751.441 442.029 745.686 440.575 741.112 437.34C735.448 433.335 734 432.509 730.405 431.237C727.386 430.168 727.414 430.062 730.945 429.129L734.664 428.147L730.548 423.716C728.284 421.279 726.431 418.608 726.431 417.781C726.431 416.954 725.685 416.277 724.772 416.277C723.86 416.277 721.177 414.459 718.811 412.236C714.785 408.453 713.745 408.247 702.587 409.019C685.491 410.202 683.515 410.543 683.493 412.313C683.482 413.185 680.978 415.511 677.929 417.481C671.626 421.554 670.981 424.154 675.564 427.009C679.119 429.223 679.887 436.701 676.868 439.712C675.833 440.745 674.923 446.395 674.837 452.318C674.7 461.771 674.152 463.615 670.248 467.759L665.814 472.466L658.79 469.946C653.029 467.879 651.268 467.79 648.991 469.451C646.725 471.104 645.423 471.067 641.9 469.25C638.02 467.249 637.013 467.36 631.925 470.355C628.812 472.187 625.852 475.328 625.347 477.335C624.699 479.91 622.893 481.272 619.218 481.96C616.351 482.496 612.74 484.332 611.191 486.038C609.643 487.745 607.642 488.688 606.744 488.135C605.846 487.581 600.995 487.276 595.964 487.457C588.357 487.731 586.273 487.205 583.588 484.33C581.487 482.08 579.212 481.172 577.074 481.73C574.863 482.307 573.257 481.596 572.164 479.559C570.131 475.77 558.883 475.399 552.155 478.899C549.651 480.202 546.279 481.273 544.663 481.278C541.332 481.289 532.5 472.568 532.5 469.269C532.5 466.911 524.638 462.26 520.652 462.26C516.716 462.26 506.417 456.178 505.212 453.141C504.317 450.887 504.09 451.067 504 454.103C503.938 456.158 502.1 459.958 499.914 462.549C495.78 467.45 494.697 474.657 497.652 477.605C498.876 478.825 498.187 480.487 495.241 483.426C491.894 486.764 490.148 487.357 485.978 486.569C483.151 486.035 479.976 484.924 478.921 484.099C477.867 483.275 476.353 483.002 475.557 483.492C473.917 484.503 469.912 480.344 468.374 476.033C467.612 473.893 466.023 473.285 462.172 473.655C459.324 473.928 456.279 473.296 455.405 472.25C454.187 470.791 451.773 471.121 445.073 473.663C440.264 475.487 434.295 476.902 431.809 476.807C428.568 476.684 427.526 477.257 428.132 478.83C429.076 481.285 426.587 482.547 418.187 483.873C415.051 484.368 411.993 485.074 411.39 485.443C410.787 485.811 408.641 484.361 406.621 482.219C404.412 479.876 400.752 478.125 397.435 477.824C392.748 477.399 391.701 476.551 390.449 472.17C389.639 469.336 388.007 467.017 386.823 467.017C385.486 467.017 384.668 465.202 384.668 462.235C384.668 458.327 383.647 456.966 379.089 454.798C375.112 452.906 373.019 452.633 371.801 453.848C369.109 456.533 364.096 454.353 361.514 449.374C359.024 444.569 354.466 443.162 354.466 447.197C354.466 448.505 353.393 449.575 352.081 449.575C350.213 449.575 349.697 447.405 349.697 439.557C349.697 434.046 348.575 425.77 347.204 421.166C345.833 416.561 345.043 412.463 345.448 412.059C345.853 411.655 344.471 409.481 342.377 407.227C337.663 402.153 337.631 401.092 342.146 399.647C345.255 398.652 344.903 398.343 339.449 397.282C334.929 396.403 332.571 396.665 331.013 398.218C328.84 400.386 322.795 400.303 317.374 398.031C315.098 397.076 314.922 396.523 316.572 395.506C318.23 394.484 318.003 393.69 315.513 391.813C313.769 390.499 311.47 389.4 310.404 389.372C309.339 389.345 308.879 388.252 309.382 386.943C310.051 385.204 309.184 384.565 306.153 384.565C302.194 384.565 300.613 381.729 303.158 379.19C303.79 378.56 304.465 375.587 304.658 372.584C304.944 368.114 304.447 367.123 301.919 367.123C300.22 367.123 297.438 365.735 295.737 364.038C293.262 361.569 291.685 361.227 287.846 362.325C282.609 363.824 268.366 361.296 251.937 355.954C246.691 354.248 241.382 352.852 240.14 352.852C238.897 352.853 236.618 351.713 235.074 350.319C233.53 348.925 231.592 348.201 230.767 348.71C228.321 350.218 227.433 358.213 229.426 360.781C231.019 362.833 230.902 362.871 228.578 361.055C224.343 357.749 218.478 359.273 218.934 363.561C219.362 367.587 215.072 368.506 211.557 365.141C209.866 363.522 209.647 364.32 210.362 369.502C212.275 383.371 212.258 383.661 209.493 384.22C208.006 384.521 205.241 382.992 203.349 380.822C201.458 378.652 199.034 377.212 197.963 377.622C195.431 378.59 192.775 375.288 192.082 370.311C191.744 367.888 190.311 366.13 188.37 365.761C186.63 365.43 184.231 363.769 183.038 362.07C181.82 360.336 179.841 359.376 178.524 359.88C177.234 360.374 174.447 360.344 172.331 359.815C169.393 359.079 168.483 357.789 168.483 354.36C168.483 348.869 166.078 347.033 163.869 350.837C162.628 352.975 162.365 351.833 162.766 346.057C163.195 339.894 162.727 338.167 160.274 336.857C158.613 335.971 157.362 334.391 157.493 333.346C158.08 328.681 157.166 327.31 153.779 327.78C151.108 328.15 150.076 327.388 149.703 324.769C149.258 321.65 148.511 321.359 142.947 322.135C139.274 322.648 136.691 322.357 136.691 321.432C136.691 320.565 133.651 320.008 129.935 320.195C124.414 320.473 123.09 321.145 122.689 323.875C122.419 325.712 121.14 327.62 119.847 328.115C117.25 329.109 115.223 325.515 116.504 322.186C118.047 318.174 115.339 316.565 108.569 317.47C103.425 318.159 101.769 319.145 101.066 321.936C100.141 325.615 93.7719 328.636 93.7719 325.396C93.7719 324.411 92.6368 325.222 91.2495 327.198C89.3264 329.937 89.1585 331.309 90.5428 332.973C91.9492 334.663 91.7115 335.518 89.4886 336.766C86.792 338.279 86.8429 338.585 90.3313 341.839C92.8653 344.202 93.7553 346.374 93.1348 348.68C92.6348 350.539 92.2159 352.952 92.204 354.042C92.192 355.132 91.1093 356.024 89.7979 356.024C86.9252 356.024 86.6078 361.683 89.3844 363.394C93.8138 366.125 83.2207 366.475 76.8651 363.808C71.1117 361.393 69.7581 361.324 66.0247 363.256C63.6784 364.471 61.272 365.396 60.6771 365.313C55.596 364.604 54.0026 365.815 54.3327 370.137C54.526 372.666 53.7758 375.827 52.6658 377.161C50.9916 379.173 51.1714 379.867 53.7203 381.227C55.4103 382.13 57.2448 382.417 57.7969 381.867C58.349 381.316 58.8007 381.698 58.8007 382.715C58.8007 383.81 56.2572 384.565 52.5686 384.565C45.814 384.565 46.2232 383.898 43.577 399.232C42.8016 403.726 41.7921 405.178 39.4442 405.178C32.8234 405.178 30.188 402.254 30.188 394.909C30.188 391.067 29.4262 387.454 28.4951 386.88C27.564 386.306 26.9245 383.945 27.074 381.633C27.7835 370.656 27.0107 367.929 22.4599 365.347C18.7256 363.228 17.7787 361.429 17.0627 355.092C16.5851 350.865 15.3936 347.141 14.4149 346.815C12.0259 346.021 7.93363 337.926 7.93363 333.994C7.93363 332.256 6.57993 329.888 4.92541 328.732C2.35347 326.935 1.77814 323.807 0.958584 307.162L0 287.695L3.83846 291.826C7.22192 295.468 8.06901 295.713 10.9845 293.897C13.642 292.241 14.9168 292.226 17.4712 293.817C20.3255 295.595 20.6504 295.4 20.6504 291.913C20.6504 289.777 21.3657 287.589 22.24 287.05C23.1143 286.511 23.8352 286.647 23.842 287.352C23.8544 288.637 31.2877 292.599 33.6841 292.599C36.0846 292.599 34.9574 288 32.175 286.442C29.7167 285.066 29.6848 284.772 31.9009 283.92C35.0277 282.718 42.9048 285.574 42.9048 287.91C42.9048 290.224 49.6672 288.094 51.3291 285.256C52.0283 284.062 53.6378 283.086 54.9057 283.086C56.1737 283.086 57.2111 282.455 57.2111 281.685C57.2111 280.915 58.6418 279.911 60.3903 279.455C64.3158 278.431 64.7228 270.265 61.1856 263.5C59.8853 261.013 59.2344 257.337 59.7391 255.331C60.5088 252.272 59.8968 251.517 55.9463 250.652C51.8853 249.762 51.2872 248.966 51.6093 244.882C51.8148 242.276 53.5169 238.718 55.3918 236.976C59.4617 233.194 59.5324 232.508 56.3234 227.938C53.9837 224.606 54.0696 224.325 57.8686 222.884C60.2528 221.98 62.3304 219.613 62.9697 217.072C63.8763 213.469 63.1 211.919 58.0978 207.346L52.1475 201.907L56.5663 197.306C61.7935 191.864 62.9214 191.648 64.0301 195.877C64.6397 198.202 66.1983 199.048 69.8729 199.048C73.1308 199.048 74.5039 198.434 73.7972 197.293C72.2726 194.833 76.2165 183.102 79.9952 178.859C81.729 176.911 84.465 174.901 86.0753 174.391C89.1253 173.426 90.2001 166.675 87.5627 165.049C86.7705 164.561 86.4752 162.815 86.9064 161.17C87.3376 159.526 86.9128 157.7 85.9623 157.114C83.3817 155.523 83.8771 151.479 86.6527 151.479C87.9829 151.479 89.886 149.696 90.8819 147.515C91.8778 145.335 93.6507 143.551 94.8218 143.551C95.9929 143.551 96.951 142.863 96.951 142.021C96.951 141.18 98.4902 139.67 100.371 138.666C103.285 137.111 103.645 137.22 102.806 139.403C101.491 142.82 104.186 142.677 106.796 139.191C107.938 137.665 112.305 134.804 116.499 132.833C124.786 128.938 128.722 129.659 131.942 135.66C134.793 140.974 136.804 139.264 135.712 132.452C135.005 128.045 135.271 126.11 136.582 126.11C137.619 126.11 137.979 125.32 137.381 124.354C136.671 123.209 137.329 122.924 139.274 123.534C145.593 125.519 159.68 127.695 166.202 127.695C173.021 127.695 178.97 124.168 177.138 121.211C175.442 118.474 178.148 113.629 181.672 113.091C183.598 112.797 184.995 111.682 184.776 110.612C184.558 109.543 185.81 108.668 187.558 108.668C189.521 108.668 190.742 107.607 190.75 105.893C190.762 103.22 197.157 99.1541 201.35 99.1541C202.467 99.1541 204.639 97.1919 206.177 94.7936C210.034 88.781 213.102 86.5828 217.76 86.4953C223.328 86.3906 225.146 84.8382 226.387 79.1314C227.296 74.9516 228.364 74.0266 233.183 73.2465C237.386 72.5661 240.044 73.1326 243.214 75.3841C245.586 77.0689 247.881 78.0944 248.313 77.6631C248.745 77.2317 250.049 78.0207 251.211 79.4164C252.592 81.0773 252.76 82.3231 251.695 83.0223C249.559 84.425 247.86 91.226 249.645 91.226C250.407 91.226 251.888 92.8258 252.938 94.7812C255.282 99.1512 254.867 132.264 252.431 135.192C251.515 136.293 248.09 137.994 244.82 138.971C239.924 140.434 238.192 140.301 235.001 138.215C229.189 134.417 224.033 118.359 224.084 104.22C224.101 99.6944 221.388 101.089 218.988 106.84C216.71 112.296 216.605 112.718 216.37 117.282C216.24 119.805 214.934 121.513 212.594 122.221C206.44 124.082 201.864 129.443 201.864 134.79C201.864 137.516 201.006 140.602 199.957 141.649C198.701 142.901 198.638 143.551 199.772 143.551C200.719 143.551 201.868 144.978 202.325 146.723C203.253 150.263 207.344 150.959 209.321 147.912C210.029 146.822 210.607 144.161 210.607 142C210.607 139.548 211.636 137.868 213.345 137.532C215.53 137.102 216.041 138.073 215.88 142.353C215.474 153.126 222.95 158.468 226.044 149.615C227.708 144.853 227.772 144.831 236.587 145.929C241.948 146.597 246.223 148.071 247.393 149.653C248.477 151.119 248.675 152.506 247.842 152.804C245.347 153.696 247.943 156.236 251.349 156.236C255.176 156.236 258.528 153.193 259.332 148.989C259.66 147.276 261.471 145.708 263.446 145.427C265.387 145.151 268.348 143.184 270.026 141.055C271.955 138.609 274.012 137.544 275.621 138.16C278.601 139.301 278.72 140.303 276.549 145.999C275.326 149.208 274.437 149.827 272.89 148.547C269.307 145.581 264.24 148.166 263.478 153.349C262.565 159.551 266.098 163.211 271.66 161.827C281.593 159.356 294.492 160.473 298.446 164.148C300.427 165.989 302.247 166.649 302.814 165.734C303.349 164.871 305.285 164.164 307.118 164.164C310.339 164.164 310.355 164.269 307.6 167.306C305.211 169.938 305.088 170.854 306.838 172.957C308.112 174.488 310.28 175.129 312.398 174.598C314.593 174.049 316.817 174.774 318.448 176.571C320.053 178.34 322.889 179.285 325.959 179.073C330.396 178.766 330.798 179.105 329.959 182.44C329.168 185.584 329.58 186.088 332.673 185.759C337.925 185.201 340.159 183.445 340.159 179.877C340.159 174.193 344.573 174.702 350.44 181.061C356.003 187.091 358.691 192.191 357.128 193.75C356.684 194.193 357.714 195.945 359.417 197.644C361.12 199.343 362.938 202.851 363.457 205.44C363.976 208.029 365.297 210.147 366.392 210.147C369.665 210.147 372.29 205.78 371.156 202.219C370.572 200.382 370.956 197.866 372.015 196.593C373.366 194.969 373.405 194.291 372.146 194.291C369.34 194.291 370.056 189.629 373.541 185.21C375.289 182.993 376.72 179.491 376.72 177.428C376.72 174.768 377.62 173.678 379.819 173.678C381.523 173.678 386.325 170.467 390.49 166.543C394.655 162.618 398.221 159.407 398.415 159.407C398.609 159.407 400.602 160.103 402.845 160.954C408.352 163.042 408.147 168.382 402.294 175.324C398.935 179.307 397.885 181.939 398.466 184.914C398.963 187.456 398.305 189.975 396.737 191.54C395.345 192.928 394.206 194.695 394.206 195.466C394.206 196.236 392.76 199.851 390.994 203.498C388.967 207.683 388.149 211.589 388.778 214.087C389.498 216.947 389.04 218.327 387.13 219.058C385.675 219.615 384.87 221.071 385.341 222.295C385.869 223.666 384.684 225.093 382.253 226.015C380.084 226.837 378.31 228.189 378.31 229.019C378.31 229.849 375.996 231.679 373.169 233.086C368.385 235.466 367.888 235.453 366.016 232.899C364.909 231.389 364.003 230.735 364.003 231.444C364.003 232.154 362.93 231.846 361.619 230.76C360.175 229.565 359.234 229.437 359.234 230.436C359.234 234.476 361.599 237.383 366.571 239.455C371.405 241.47 372.636 241.379 379.092 238.531C388.434 234.408 394.921 228.294 395.321 223.233C395.743 217.901 397.457 216.391 401.801 217.524C405.865 218.584 408.256 225.307 405.534 228.022C403.317 230.234 403.165 237.103 405.333 237.103C406.207 237.103 408.424 238.6 410.259 240.43L413.595 243.758L412.412 240.04C411.761 237.995 410.09 235.492 408.699 234.477C406.399 232.8 406.42 232.356 408.931 229.589C410.449 227.916 411.691 225.003 411.691 223.116C411.691 218.964 405.723 211.742 402.264 211.709C400.892 211.695 398.847 211.101 397.721 210.388C395.158 208.766 397.595 201.535 402.445 196.37C404.784 193.879 405.525 191.378 405.072 187.502C404.442 182.126 406.574 178.435 410.307 178.435C411.368 178.435 413.723 177.186 415.54 175.66C418.759 172.957 418.781 172.967 416.374 176.056C415.016 177.801 413.711 181.538 413.475 184.361C413.124 188.55 413.799 189.837 417.137 191.355C419.388 192.378 421.229 193.813 421.229 194.546C421.229 195.278 422.279 195.877 423.563 195.877C426.559 195.877 424.917 191.113 420.936 188.255C417.444 185.748 417.131 181.606 420.434 181.606C421.745 181.606 422.818 182.32 422.818 183.192C422.818 184.064 423.975 184.777 425.388 184.777C427.144 184.777 427.704 183.808 427.156 181.718C426.569 179.481 427.131 178.717 429.245 178.876C430.835 178.995 431.785 179.659 431.357 180.35C430.929 181.041 431.68 181.606 433.027 181.606C434.373 181.606 435.925 183.396 436.475 185.584C437.082 187.995 438.973 189.936 441.275 190.513C445.903 191.671 446.189 193.63 441.894 194.75C439.722 195.317 438.714 196.913 438.714 199.786C438.714 202.44 439.359 203.594 440.463 202.914C441.5 202.275 441.363 203.364 440.125 205.595C438.978 207.663 438.266 210.068 438.544 210.94C439.147 212.835 440.013 216.815 440.182 218.472C440.361 220.217 445.073 219.925 445.073 218.169C445.073 217.348 444.385 216.253 443.544 215.734C442.565 215.131 442.565 213.349 443.544 210.781C444.385 208.575 445.073 204.628 445.073 202.012C445.073 199.395 445.854 195.797 446.81 194.017C448.066 191.675 448.066 190.3 446.81 189.047C445.854 188.094 445.073 186.287 445.073 185.031C445.073 183.776 444.008 181.956 442.707 180.988C441.008 179.724 440.612 177.587 441.304 173.412L442.267 167.597L453.207 167.863C460.92 168.05 464.146 168.729 464.147 170.166C464.148 171.665 464.934 171.785 467.12 170.618C469.37 169.416 470.005 167.498 469.734 162.715C469.494 158.467 470.115 156.117 471.632 155.536C472.872 155.061 473.49 154.033 473.005 153.25C471.745 151.217 481.99 146.723 487.885 146.723C490.841 146.723 493.232 145.757 493.775 144.344C494.792 141.7 499.119 141.058 499.119 143.551C499.119 144.423 500.407 145.137 501.981 145.137C505.534 145.137 513.396 141.593 513.413 139.984C513.42 139.33 515.09 138.794 517.124 138.794C520.293 138.794 520.727 138.142 520.153 134.241C519.302 128.458 526.964 120.329 530.503 123.259C532.253 124.707 532.269 125.283 530.589 126.366C528.938 127.43 529.002 128.007 530.911 129.257C532.222 130.115 534.189 130.829 535.282 130.842C536.375 130.855 537.269 132.293 537.269 134.038C537.269 137.745 540.134 138.286 541.463 134.83C542.88 131.148 549.906 132.015 555.958 136.619C560.166 139.821 560.938 141.114 559.288 142.199C557.541 143.348 557.659 144.009 559.921 145.738C563.917 148.793 563.411 150.945 557.153 157.531C554.101 160.743 551.597 164.111 551.589 165.016C551.582 165.92 548.357 170.059 544.423 174.213C540.488 178.368 537.292 182.622 537.32 183.668C537.348 184.735 538.298 184.351 539.482 182.795C540.644 181.269 543.076 180.02 544.888 180.02C546.824 180.02 548.613 178.666 549.228 176.735C549.844 174.797 551.174 173.793 552.468 174.289C553.675 174.751 555.705 174.089 556.98 172.818C559.99 169.815 565.29 169.853 566.457 172.885C566.96 174.193 568.152 175.264 569.105 175.264C570.058 175.264 570.445 174.628 569.964 173.851C568.679 171.779 576.234 167.336 581.041 167.336C583.32 167.336 586.257 168.406 587.569 169.714C590.641 172.778 598.14 172.754 604.138 169.66C608.16 167.585 608.606 166.763 607.165 164.077C604.828 159.722 606.524 157.764 611.734 158.803C614.657 159.387 616.829 158.844 618.209 157.185C620.082 154.934 620.747 155.016 624.977 158.021C627.686 159.945 629.31 162.281 628.822 163.551C628.337 164.811 628.973 165.75 630.311 165.75C632.983 165.75 633.434 168.248 631.03 169.73C628.706 171.163 630.952 174.057 633.601 173.043C635.048 172.489 635.824 173.296 635.824 175.353C635.824 177.311 637.488 179.193 640.196 180.3C646.391 182.831 651.046 182.652 650.354 179.908C650.04 178.662 649.539 175.308 649.241 172.454C648.786 168.098 649.105 167.493 651.23 168.679C654.882 170.718 659.668 169.026 659.668 165.697C659.668 162.053 662.65 161.03 667.262 163.093C671.835 165.139 676.301 161.86 672.372 159.341C670.401 158.078 670.586 157.661 673.471 156.872C676.575 156.022 676.747 155.477 675.093 151.719C674.076 149.407 672.589 147.052 671.788 146.486C670.987 145.92 670.908 144.136 671.611 142.522C672.314 140.908 672.815 139.168 672.723 138.655C672.632 138.143 675.558 136.196 679.227 134.33C684.777 131.507 685.983 131.33 686.411 133.28C687.035 136.128 689.808 136.404 690.029 133.641C690.116 132.551 690.685 133.443 691.293 135.623C693.007 141.769 695.382 140.308 695.927 132.773C696.331 127.186 697.137 125.687 700.402 124.449C706.247 122.232 707.684 122.58 706.611 125.954C705.724 128.741 706.158 128.856 712.334 127.472C716.009 126.648 720.08 126.382 721.381 126.88C723.989 127.878 731.2 121.958 731.2 118.82C731.2 117.73 733.052 114.644 735.315 111.961C738.737 107.905 740.584 107.082 746.273 107.082C750.888 107.082 753.412 107.856 754.029 109.461C755.999 114.581 768.352 110.663 767.666 105.136C767.128 100.8 769.968 95.6702 773.686 94.2602C775.831 93.4466 778.408 90.6088 779.413 87.9538C780.712 84.5213 782.047 83.3375 784.036 83.8563C785.574 84.2575 787.272 83.8771 787.809 83.0109C788.345 82.1447 790.108 81.7813 791.726 82.2033C793.344 82.6252 795.496 81.9739 796.51 80.7558C799.14 77.594 795.578 73.7842 789.991 73.7842C783.727 73.7842 783.067 69.9924 788.35 64.3516C790.841 61.6907 792.553 59.5136 792.153 59.5136C791.752 59.5136 792.717 57.2243 794.297 54.4262C798.653 46.7083 804.803 41.8282 819.423 34.4882C822.046 33.1714 825.398 31.0582 826.873 29.7923C828.348 28.5264 830.24 27.9132 831.078 28.4297C831.916 28.9462 833.04 28.2285 833.576 26.8349C834.168 25.2953 835.551 24.6838 837.099 25.2764C838.987 25.9992 839.386 25.5735 838.639 23.6318C837.749 21.3196 838.755 21.1136 847.205 21.8778C854.779 22.563 856.778 22.2786 856.778 20.5157C856.778 19.1962 855.158 18.2876 852.804 18.2876C848.19 18.2876 847.886 17.4176 851.306 14.0059C852.668 12.6476 853.42 10.5945 852.977 9.44345C852.514 8.24016 853.657 6.89074 855.667 6.26863C857.59 5.67353 861.13 3.80459 863.534 2.11545C868.131 -1.11401 867.96 -1.24628 868.541 5.99907C868.629 7.08919 869.416 8.51625 870.29 9.17032C871.289 9.91756 871.01 10.9168 869.541 11.8589C868.255 12.6836 867.583 13.7378 868.048 14.2015C868.893 15.044 874.799 16.3616 878.729 16.5842C879.902 16.6506 880.308 17.5115 879.66 18.5571C878.888 19.8044 879.378 20.0804 881.156 19.3996C882.883 18.7385 883.801 19.1953 883.801 20.7158C883.801 21.9966 883.086 23.0445 882.212 23.0445C881.338 23.0445 880.77 23.5796 880.951 24.2337C881.132 24.8877 879.156 27.6357 876.56 30.3403C872.745 34.315 871.319 34.9296 869.121 33.5465C866.984 32.202 865.892 32.5073 864.025 34.9716C862.718 36.6965 861.625 39.7133 861.598 41.6755C861.559 44.3871 860.616 45.2431 857.667 45.2431C855.533 45.2431 853.345 44.5296 852.804 43.6575C851.342 41.2974 849.299 41.7363 848.178 44.6517C846.949 47.8458 851.753 51.7719 855.511 50.6452C857.464 50.0598 859.137 51.6307 861.516 56.2818C865.126 63.3393 864.22 67.4889 858.391 70.6008C856.432 71.6463 855.669 73.1871 856.298 74.8236C857.211 77.1967 857.44 77.1948 859.196 74.7995C860.245 73.369 862.633 72.1986 864.504 72.1986C866.375 72.1986 867.905 71.437 867.905 70.5061C867.905 68.5327 874.53 70.2204 876.052 72.5816C876.677 73.5508 877.438 73.4903 878.102 72.4185C879.452 70.2383 890.596 70.5555 892.074 72.8162C893.388 74.8262 887.385 81.7123 884.319 81.7123C881.699 81.7123 881.535 84.3944 884.104 85.2484C885.281 85.6398 886.157 90.2479 886.422 97.4442C886.656 103.806 887.614 111.326 888.55 114.157C889.487 116.987 890.531 120.745 890.872 122.508C891.212 124.272 892.206 128.301 893.081 131.462C894.589 136.909 894.474 137.209 890.867 137.209C886.131 137.209 882.296 143.987 881.943 152.983C881.728 158.456 881.353 159.086 879.31 157.405C877.24 155.7 877.046 156.324 877.829 162.182C878.485 167.088 878.173 168.921 876.682 168.921C873.265 168.921 872.538 175.647 875.51 179.753C877.01 181.826 880.026 186.83 882.212 190.874C886.171 198.199 891.749 201.657 891.749 196.786C891.749 195.414 892.906 194.291 894.319 194.291C896.071 194.291 896.635 195.26 896.091 197.336C895.496 199.604 896.362 200.682 899.482 201.56C901.786 202.209 904.282 202.598 905.028 202.425C905.774 202.251 907.742 202.539 909.4 203.064C912.968 204.194 913.469 208.562 910.03 208.562C908.718 208.562 907.645 209.892 907.645 211.519C907.645 215.777 913.696 222.832 917.348 222.832C921.076 222.832 923.1 227.078 920.573 229.598C919.583 230.586 918.773 234.006 918.773 237.198C918.773 241.472 919.777 243.754 922.586 245.857C926.211 248.573 926.292 249.013 924.246 254.8C922.532 259.645 922.504 260.887 924.109 260.887C926.75 260.887 933.079 275.442 933.079 281.515C933.079 287.75 928.981 287.817 923.172 281.677C920.788 279.158 915.795 275.515 912.075 273.581C898.822 266.69 874.264 244.073 874.264 238.758C874.264 234.531 870.943 227.589 868.922 227.589C867.92 227.589 868.021 226.84 869.177 225.686C871.998 222.872 871.636 206.235 868.7 203.805C867.389 202.719 866.316 200.533 866.316 198.947C866.316 197.361 865.566 195.601 864.649 195.036C863.487 194.32 863.49 193.399 864.656 191.996C865.851 190.561 865.543 187.863 863.581 182.584C861.293 176.426 861.174 174.638 862.87 171.929C865.184 168.233 864.218 166.374 856.25 159.19C853.378 156.602 851.612 153.431 851.612 150.866C851.612 146.084 849.319 145.496 846.274 149.497C843.327 153.37 843.559 155.83 847.241 159.773C849.041 161.7 850.42 165.368 850.42 168.229C850.42 171.008 850.857 175.46 851.39 178.122C852.172 182.02 851.855 182.889 849.762 182.582C848.333 182.373 846.067 180.641 844.727 178.733C841.912 174.724 839.293 174.198 839.293 177.642C839.293 178.95 838.153 180.02 836.76 180.02C835.366 180.02 833.852 181.448 833.395 183.192C832.938 184.936 831.988 186.363 831.286 186.363C829.032 186.363 827.774 195.874 829.718 198.211C830.727 199.423 831.962 204.567 832.463 209.641C832.964 214.716 834.399 220.894 835.653 223.371C837.843 227.697 838.052 227.765 840.997 225.107C842.792 223.486 844.061 223.104 844.061 224.183C844.061 225.196 842.273 227.575 840.087 229.471C837.902 231.367 836.114 233.907 836.114 235.117C836.114 236.563 835.07 236.986 833.068 236.352C831.393 235.822 829.604 236.064 829.092 236.889C828.581 237.715 826.732 238.018 824.985 237.562C822.775 236.985 821.807 237.514 821.807 239.296C821.807 240.706 821.271 241.775 820.615 241.672C815.889 240.927 813.688 242.316 812.833 246.581C811.859 251.438 809.681 253.927 803.755 256.954C801.881 257.911 800.451 259.926 800.578 261.432C800.737 263.325 800.244 263.703 798.981 262.657C797.739 261.629 795.263 262.873 791.257 266.535C782.339 274.687 779.962 279.054 781.113 285.174C781.659 288.074 781.566 290.985 780.907 291.642C780.249 292.299 779.581 296.389 779.424 300.73C779.266 305.071 778.373 309.542 777.438 310.666C776.504 311.789 775.809 317.363 775.895 323.053C775.98 328.743 775.258 334.874 774.29 336.678C773.322 338.483 772.53 341.748 772.53 343.934C772.53 346.12 771.814 348.35 770.94 348.889C770.066 349.428 769.35 351.254 769.35 352.946C769.35 355.295 770.458 356.024 774.025 356.024C776.597 356.024 779.139 355.316 779.675 354.45C780.214 353.581 782.368 354.823 784.488 357.225C787.564 360.711 788.335 361.023 788.375 358.799C788.436 355.428 791.605 355.039 791.605 358.402C791.605 359.711 792.678 360.781 793.989 360.781C795.301 360.781 796.374 359.711 796.374 358.402C796.374 357.094 797.447 356.024 798.758 356.024C801.474 356.024 801.992 351.978 799.476 350.427C796.387 348.523 801.427 344.588 805.821 345.473C815.455 347.414 820.372 348.966 820.323 350.051C820.294 350.691 822.824 353.761 825.945 356.875C829.515 360.436 831.269 363.448 830.674 364.995C829.418 368.258 832.724 378.985 836.098 382.598C837.576 384.18 840.698 389.274 843.037 393.919C847.276 402.337 847.287 402.452 846.576 431.122C845.823 461.506 845.394 466.754 843.407 469.962C842.728 471.058 842.592 473.62 843.104 475.656C844.307 480.438 838.643 493.268 833.157 498.188C829.661 501.323 827.838 501.799 822.238 501.041L815.516 500.131L814.484 506.565C813.665 511.676 812.778 513 810.173 513C807.048 513 807.03 512.9 809.796 510.883ZM886.326 432.01C883.928 429.326 882.357 426.115 882.834 424.875C883.311 423.635 883.061 422.62 882.278 422.62C880.656 422.62 875.853 413.644 875.853 410.613C875.853 409.51 873.434 407.116 870.477 405.293C867.52 403.47 864.164 399.666 863.02 396.84C861.876 394.013 858.511 388.489 855.542 384.565C852.573 380.641 849.169 375.111 847.979 372.277C846.534 368.84 844.727 367.123 842.553 367.123C839.291 367.123 832.934 362.012 832.934 359.389C832.934 358.624 831.861 357.11 830.55 356.024C829.239 354.938 828.166 352.945 828.166 351.594C828.166 350.243 826.942 347.79 825.447 346.142C823.333 343.812 823.177 342.869 824.744 341.903C827.579 340.155 825.285 332.021 821.693 331.084C820.045 330.654 819.208 329.407 819.703 328.119C821.029 324.673 823.319 325.486 825.045 330.015C825.908 332.279 828.036 334.503 829.774 334.956C831.512 335.41 832.934 336.79 832.934 338.024C832.934 339.258 834.186 340.712 835.716 341.257C840.587 342.989 842.615 345.221 841.04 347.117C839.151 349.392 843.361 354.566 849.228 357.18C851.632 358.251 853.599 359.856 853.599 360.747C853.599 361.638 854.383 362.366 855.342 362.366C856.3 362.366 861.486 366.218 866.866 370.926C872.246 375.633 879.152 380.57 882.212 381.896L887.775 384.306L880.175 384.436C870.924 384.593 869.953 386.369 873.472 396.706C877.008 407.094 881.909 414.681 885.123 414.742C886.582 414.77 889.169 415.844 890.871 417.128C892.574 418.413 895.137 419.093 896.567 418.64C900.012 417.55 904.095 425.646 901.047 427.525C899.951 428.2 898.407 428.354 897.617 427.867C896.826 427.379 897.149 426.367 898.335 425.617C899.922 424.614 899.967 424.248 898.505 424.23C895.075 424.188 890.393 429.95 891.913 432.343C895.843 438.531 891.943 438.298 886.326 432.01ZM879.158 426.716C879.089 425.045 879.465 424.108 879.993 424.635C880.521 425.162 880.578 426.529 880.119 427.674C879.611 428.939 879.234 428.563 879.158 426.716ZM923.541 419.935C923.541 415.426 924.324 413.146 926.106 412.464C928.294 411.626 928.51 412.359 927.572 417.447C925.963 426.184 923.541 427.679 923.541 419.935ZM929.414 408.922C927.177 406.69 928.218 392.868 930.694 391.92C932.006 391.418 933.079 389.914 933.079 388.579C933.079 387.243 933.794 386.151 934.669 386.151C936.836 386.151 936.67 387.951 933.889 394.589C932.587 397.699 931.931 401.311 932.433 402.615C933.499 405.387 931.034 410.538 929.414 408.922ZM937.959 377.127C937.898 374.344 938.563 371.626 939.437 371.087C941.344 369.912 941.344 374.59 939.437 379.015C938.286 381.689 938.054 381.392 937.959 377.127ZM942.867 352.853C942.867 350.672 943.228 349.781 943.669 350.871C944.11 351.961 944.11 353.745 943.669 354.835C943.228 355.925 942.867 355.033 942.867 352.853ZM784.452 344.925C783.911 344.053 784.227 343.339 785.153 343.339C786.078 343.339 786.836 344.053 786.836 344.925C786.836 345.797 786.521 346.51 786.135 346.51C785.749 346.51 784.992 345.797 784.452 344.925ZM937.004 324.232C935.544 321.876 936.705 321.041 939.256 322.614C940.622 323.457 940.785 324.274 939.717 324.932C938.81 325.491 937.589 325.176 937.004 324.232ZM934.669 313.212C934.669 312.34 935.384 311.627 936.258 311.627C937.132 311.627 937.848 312.34 937.848 313.212C937.848 314.084 937.132 314.798 936.258 314.798C935.384 314.798 934.669 314.084 934.669 313.212ZM932.947 304.491C932.812 303.619 932.797 302.342 932.912 301.652C933.027 300.963 932.43 299.11 931.585 297.535C930.544 295.594 930.64 294.081 931.882 292.842C934.168 290.561 936.806 290.432 935.42 292.669C934.856 293.579 935.113 295.187 935.99 296.241C937.077 297.547 936.885 299.42 935.388 302.118C934.18 304.295 933.081 305.364 932.947 304.491ZM829.755 241.16C829.755 240.776 830.47 240.02 831.345 239.481C832.219 238.942 832.934 239.257 832.934 240.18C832.934 241.104 832.219 241.86 831.345 241.86C830.47 241.86 829.755 241.545 829.755 241.16ZM340.159 168.921C340.159 166.305 340.875 164.164 341.749 164.164C342.623 164.164 343.339 166.305 343.339 168.921C343.339 171.537 342.623 173.678 341.749 173.678C340.875 173.678 340.159 171.537 340.159 168.921ZM560.437 162.771C559.945 161.976 560.611 160.916 561.917 160.416C563.224 159.916 564.292 160.156 564.292 160.949C564.292 163.099 561.468 164.433 560.437 162.771ZM403.971 156.384C402.372 155.393 402.296 154.75 403.679 153.897C405.861 152.553 407.498 153.743 406.691 156.086C406.36 157.046 405.238 157.169 403.971 156.384ZM333.357 151.613C329.916 147.529 329.34 145.885 330.752 144.187C333.122 141.34 331.25 134.038 328.151 134.038C326.272 134.038 326.099 133.371 327.366 131.009C328.387 129.107 330.098 128.27 331.971 128.759C333.782 129.231 336.686 127.932 339.377 125.444C344.464 120.741 346.296 120.451 350.585 123.665C353.551 125.888 353.401 126.22 346.725 132.196C340.439 137.825 339.684 139.291 338.777 147.637L337.775 156.859L333.357 151.613ZM293.531 150.422C291.686 148.582 292.372 146.887 295.674 145.124C298.227 143.761 299.08 143.943 299.88 146.021C301.207 149.471 296.115 153 293.531 150.422ZM664.047 130.47C662.209 125.485 666.64 123.033 673.05 125.486C676.651 126.865 676.162 128.5 671.515 130.612C666.362 132.954 664.952 132.927 664.047 130.47ZM354.466 122.938C353.312 120.788 353.294 119.767 354.41 119.767C355.315 119.767 355.876 118.875 355.658 117.785C355.436 116.678 356.488 116.009 358.042 116.269C359.572 116.525 360.824 116.077 360.824 115.272C360.824 114.468 362.97 112.923 365.593 111.839C368.216 110.755 370.362 109.397 370.362 108.821C370.362 108.245 372.208 107.621 374.464 107.435C376.72 107.249 379.723 106.451 381.136 105.662C382.67 104.806 385.235 104.807 387.5 105.666C389.586 106.457 391.98 106.682 392.819 106.164C393.658 105.647 395.4 106.097 396.689 107.164C398.243 108.451 402.002 108.8 407.837 108.199C414.736 107.489 416.836 107.799 417.542 109.634C418.037 110.922 417.986 112.431 417.428 112.987C415.895 114.516 400.849 116.166 398.974 115.01C398.073 114.454 393.591 114.625 389.015 115.389C384.438 116.154 378.66 116.982 376.175 117.229C373.689 117.476 371.186 118.327 370.611 119.119C370.037 119.912 367.779 120.752 365.593 120.987C363.407 121.221 360.825 122.47 359.854 123.761C357.51 126.88 356.497 126.725 354.466 122.938ZM658.079 125.41C658.079 125.026 658.794 124.27 659.668 123.731C660.542 123.192 661.258 123.507 661.258 124.43C661.258 125.354 660.542 126.11 659.668 126.11C658.794 126.11 658.079 125.795 658.079 125.41ZM43.4027 122.61C42.526 121.482 41.3624 119.311 40.817 117.785C40.2353 116.157 38.2007 115.01 35.8953 115.01C33.7337 115.01 31.5054 114.268 30.9434 113.361C30.2808 112.292 31.3655 112.073 34.0288 112.74C37.4206 113.589 38.136 113.216 38.136 110.595C38.136 104.872 45.9425 104.926 46.0596 110.65C46.073 111.304 47.2001 111.839 48.5643 111.839C50.4577 111.839 50.9279 113.243 50.5513 117.772C50.0321 124.016 46.4048 126.471 43.4027 122.61ZM644.198 120.677C640.316 118.885 637.023 111.53 638.446 107.83C639.514 105.053 641.275 104.9 645.603 107.211C649.381 109.228 651.539 107.853 648.833 105.153C645.805 102.133 646.568 101.551 653.99 101.218C661.096 100.9 665.749 103.681 663.685 107.013C662.073 109.616 656.825 108.948 654.886 105.893C653.696 104.017 653.325 103.889 653.741 105.497C654.079 106.805 655.935 108.667 657.866 109.636L661.376 111.397L656.945 114.349C654.509 115.973 651.891 117.113 651.128 116.884C650.365 116.654 650.141 117.507 650.63 118.778C651.795 121.807 648.655 122.734 644.198 120.677ZM516.485 110.889C518.299 107.513 519.784 103.848 519.784 102.745C519.784 101.642 520.499 100.74 521.373 100.74C522.248 100.74 522.963 101.453 522.963 102.325C522.963 103.197 523.729 103.911 524.666 103.911C527.434 103.911 531.287 108.575 530.407 110.861C529.96 112.023 527.566 113.415 525.087 113.954C522.607 114.493 518.915 115.405 516.883 115.981L513.187 117.028L516.485 110.889ZM503.49 104.59C498.056 101.649 497.649 95.6038 502.652 92.1087C507.163 88.9566 509.258 88.962 508.042 92.1225C507.319 94.0022 507.824 94.3714 510.122 93.6436C513.754 92.4937 515.753 95.0907 514.117 98.8336C513.468 100.318 513.092 102.781 513.281 104.307C513.707 107.741 509.536 107.861 503.49 104.59ZM667.068 99.5284C666.156 98.0243 669.31 95.2754 672.385 94.8951C673.696 94.7329 676.552 94.0695 678.73 93.4209C682.571 92.2771 682.616 92.3524 680.24 95.9218C677.852 99.5097 668.595 102.044 667.068 99.5284ZM493.82 93.3401C491.89 91.4141 492.722 89.7251 495.145 90.6526C496.456 91.1545 497.529 92.2024 497.529 92.9812C497.529 94.6436 495.34 94.8555 493.82 93.3401ZM496.956 87.265C495.699 83.9992 498.497 78.541 501.427 78.541C502.635 78.541 503.942 77.6491 504.333 76.559C505.28 73.9125 506.601 75.293 507.748 80.1299C508.931 85.1128 507.369 87.5207 502.1 88.8398C499.063 89.6002 497.693 89.1808 496.956 87.265ZM777.298 79.5035C777.298 79.1608 778.371 78.4696 779.683 77.9676C780.994 77.4657 782.067 77.7461 782.067 78.5908C782.067 79.4355 780.994 80.1267 779.683 80.1267C778.371 80.1267 777.298 79.8462 777.298 79.5035ZM421.938 57.7899C421.351 56.8418 421.493 55.4444 422.255 54.6847C424.135 52.8094 428.272 55.5392 426.902 57.7508C425.514 59.9919 423.313 60.0092 421.938 57.7899ZM430.766 57.928C430.766 57.0559 432.239 56.3424 434.039 56.3424C435.84 56.3424 436.87 57.0559 436.33 57.928C435.79 58.8001 434.317 59.5136 433.057 59.5136C431.797 59.5136 430.766 58.8001 430.766 57.928ZM417.266 46.8469C416.709 45.948 417.347 45.6822 418.762 46.2237C421.516 47.2778 422.02 48.4143 419.733 48.4143C418.91 48.4143 417.8 47.709 417.266 46.8469ZM398.18 40.4862C393.281 39.2428 394.191 38.7022 401.65 38.4249C403.996 38.3377 406.202 39.1226 406.551 40.1691C407.248 42.254 405.417 42.3233 398.18 40.4862ZM395.265 34.6723C394.682 34.0909 394.206 33.0874 394.206 32.4423C394.206 30.9179 400.351 32.5176 401.477 34.3352C402.477 35.9482 396.851 36.2535 395.265 34.6723ZM785.521 28.5625C782.872 22.7637 783.197 20.2305 786.836 18.2876C790.346 16.4141 790.465 16.6501 790.046 24.6301C789.659 31.9888 787.817 33.5896 785.521 28.5625Z"/>
</mask>
<path d="M809.796 510.883C812.573 508.857 812.581 508.412 809.982 500.607C808.488 496.12 805.995 490.884 804.442 488.97C801.983 485.942 801.893 484.964 803.742 481.408C804.911 479.161 806.592 477.234 807.479 477.125C808.365 477.016 810.438 476.838 812.084 476.729C815.702 476.489 817.489 470.819 815.257 466.659C814.109 464.52 814.203 462.965 815.578 461.312C817.547 458.946 817.491 458.716 812.243 447.647C810.684 444.36 810.638 442.815 812.05 441.119C813.48 439.4 813.354 438.446 811.494 436.907C810.172 435.812 809.09 433.22 809.09 431.147C809.09 429.073 808.547 427.377 807.883 427.377C806.497 427.377 801.926 434.028 802.319 435.474C802.463 436.003 800.807 437.382 798.639 438.539C796.472 439.697 794.282 442.296 793.774 444.316C793.266 446.337 792.263 447.99 791.546 447.99C790.829 447.99 789.212 449.018 787.952 450.274C784.614 453.604 779.644 451.634 776.446 445.711C774.46 442.031 772.461 440.489 769.516 440.362C767.239 440.264 762.662 439.919 759.344 439.597C756.026 439.274 752.971 439.56 752.555 440.231C751.441 442.029 745.686 440.575 741.112 437.34C735.448 433.335 734 432.509 730.405 431.237C727.386 430.168 727.414 430.062 730.945 429.129L734.664 428.147L730.548 423.716C728.284 421.279 726.431 418.608 726.431 417.781C726.431 416.954 725.685 416.277 724.772 416.277C723.86 416.277 721.177 414.459 718.811 412.236C714.785 408.453 713.745 408.247 702.587 409.019C685.491 410.202 683.515 410.543 683.493 412.313C683.482 413.185 680.978 415.511 677.929 417.481C671.626 421.554 670.981 424.154 675.564 427.009C679.119 429.223 679.887 436.701 676.868 439.712C675.833 440.745 674.923 446.395 674.837 452.318C674.7 461.771 674.152 463.615 670.248 467.759L665.814 472.466L658.79 469.946C653.029 467.879 651.268 467.79 648.991 469.451C646.725 471.104 645.423 471.067 641.9 469.25C638.02 467.249 637.013 467.36 631.925 470.355C628.812 472.187 625.852 475.328 625.347 477.335C624.699 479.91 622.893 481.272 619.218 481.96C616.351 482.496 612.74 484.332 611.191 486.038C609.643 487.745 607.642 488.688 606.744 488.135C605.846 487.581 600.995 487.276 595.964 487.457C588.357 487.731 586.273 487.205 583.588 484.33C581.487 482.08 579.212 481.172 577.074 481.73C574.863 482.307 573.257 481.596 572.164 479.559C570.131 475.77 558.883 475.399 552.155 478.899C549.651 480.202 546.279 481.273 544.663 481.278C541.332 481.289 532.5 472.568 532.5 469.269C532.5 466.911 524.638 462.26 520.652 462.26C516.716 462.26 506.417 456.178 505.212 453.141C504.317 450.887 504.09 451.067 504 454.103C503.938 456.158 502.1 459.958 499.914 462.549C495.78 467.45 494.697 474.657 497.652 477.605C498.876 478.825 498.187 480.487 495.241 483.426C491.894 486.764 490.148 487.357 485.978 486.569C483.151 486.035 479.976 484.924 478.921 484.099C477.867 483.275 476.353 483.002 475.557 483.492C473.917 484.503 469.912 480.344 468.374 476.033C467.612 473.893 466.023 473.285 462.172 473.655C459.324 473.928 456.279 473.296 455.405 472.25C454.187 470.791 451.773 471.121 445.073 473.663C440.264 475.487 434.295 476.902 431.809 476.807C428.568 476.684 427.526 477.257 428.132 478.83C429.076 481.285 426.587 482.547 418.187 483.873C415.051 484.368 411.993 485.074 411.39 485.443C410.787 485.811 408.641 484.361 406.621 482.219C404.412 479.876 400.752 478.125 397.435 477.824C392.748 477.399 391.701 476.551 390.449 472.17C389.639 469.336 388.007 467.017 386.823 467.017C385.486 467.017 384.668 465.202 384.668 462.235C384.668 458.327 383.647 456.966 379.089 454.798C375.112 452.906 373.019 452.633 371.801 453.848C369.109 456.533 364.096 454.353 361.514 449.374C359.024 444.569 354.466 443.162 354.466 447.197C354.466 448.505 353.393 449.575 352.081 449.575C350.213 449.575 349.697 447.405 349.697 439.557C349.697 434.046 348.575 425.77 347.204 421.166C345.833 416.561 345.043 412.463 345.448 412.059C345.853 411.655 344.471 409.481 342.377 407.227C337.663 402.153 337.631 401.092 342.146 399.647C345.255 398.652 344.903 398.343 339.449 397.282C334.929 396.403 332.571 396.665 331.013 398.218C328.84 400.386 322.795 400.303 317.374 398.031C315.098 397.076 314.922 396.523 316.572 395.506C318.23 394.484 318.003 393.69 315.513 391.813C313.769 390.499 311.47 389.4 310.404 389.372C309.339 389.345 308.879 388.252 309.382 386.943C310.051 385.204 309.184 384.565 306.153 384.565C302.194 384.565 300.613 381.729 303.158 379.19C303.79 378.56 304.465 375.587 304.658 372.584C304.944 368.114 304.447 367.123 301.919 367.123C300.22 367.123 297.438 365.735 295.737 364.038C293.262 361.569 291.685 361.227 287.846 362.325C282.609 363.824 268.366 361.296 251.937 355.954C246.691 354.248 241.382 352.852 240.14 352.852C238.897 352.853 236.618 351.713 235.074 350.319C233.53 348.925 231.592 348.201 230.767 348.71C228.321 350.218 227.433 358.213 229.426 360.781C231.019 362.833 230.902 362.871 228.578 361.055C224.343 357.749 218.478 359.273 218.934 363.561C219.362 367.587 215.072 368.506 211.557 365.141C209.866 363.522 209.647 364.32 210.362 369.502C212.275 383.371 212.258 383.661 209.493 384.22C208.006 384.521 205.241 382.992 203.349 380.822C201.458 378.652 199.034 377.212 197.963 377.622C195.431 378.59 192.775 375.288 192.082 370.311C191.744 367.888 190.311 366.13 188.37 365.761C186.63 365.43 184.231 363.769 183.038 362.07C181.82 360.336 179.841 359.376 178.524 359.88C177.234 360.374 174.447 360.344 172.331 359.815C169.393 359.079 168.483 357.789 168.483 354.36C168.483 348.869 166.078 347.033 163.869 350.837C162.628 352.975 162.365 351.833 162.766 346.057C163.195 339.894 162.727 338.167 160.274 336.857C158.613 335.971 157.362 334.391 157.493 333.346C158.08 328.681 157.166 327.31 153.779 327.78C151.108 328.15 150.076 327.388 149.703 324.769C149.258 321.65 148.511 321.359 142.947 322.135C139.274 322.648 136.691 322.357 136.691 321.432C136.691 320.565 133.651 320.008 129.935 320.195C124.414 320.473 123.09 321.145 122.689 323.875C122.419 325.712 121.14 327.62 119.847 328.115C117.25 329.109 115.223 325.515 116.504 322.186C118.047 318.174 115.339 316.565 108.569 317.47C103.425 318.159 101.769 319.145 101.066 321.936C100.141 325.615 93.7719 328.636 93.7719 325.396C93.7719 324.411 92.6368 325.222 91.2495 327.198C89.3264 329.937 89.1585 331.309 90.5428 332.973C91.9492 334.663 91.7115 335.518 89.4886 336.766C86.792 338.279 86.8429 338.585 90.3313 341.839C92.8653 344.202 93.7553 346.374 93.1348 348.68C92.6348 350.539 92.2159 352.952 92.204 354.042C92.192 355.132 91.1093 356.024 89.7979 356.024C86.9252 356.024 86.6078 361.683 89.3844 363.394C93.8138 366.125 83.2207 366.475 76.8651 363.808C71.1117 361.393 69.7581 361.324 66.0247 363.256C63.6784 364.471 61.272 365.396 60.6771 365.313C55.596 364.604 54.0026 365.815 54.3327 370.137C54.526 372.666 53.7758 375.827 52.6658 377.161C50.9916 379.173 51.1714 379.867 53.7203 381.227C55.4103 382.13 57.2448 382.417 57.7969 381.867C58.349 381.316 58.8007 381.698 58.8007 382.715C58.8007 383.81 56.2572 384.565 52.5686 384.565C45.814 384.565 46.2232 383.898 43.577 399.232C42.8016 403.726 41.7921 405.178 39.4442 405.178C32.8234 405.178 30.188 402.254 30.188 394.909C30.188 391.067 29.4262 387.454 28.4951 386.88C27.564 386.306 26.9245 383.945 27.074 381.633C27.7835 370.656 27.0107 367.929 22.4599 365.347C18.7256 363.228 17.7787 361.429 17.0627 355.092C16.5851 350.865 15.3936 347.141 14.4149 346.815C12.0259 346.021 7.93363 337.926 7.93363 333.994C7.93363 332.256 6.57993 329.888 4.92541 328.732C2.35347 326.935 1.77814 323.807 0.958584 307.162L0 287.695L3.83846 291.826C7.22192 295.468 8.06901 295.713 10.9845 293.897C13.642 292.241 14.9168 292.226 17.4712 293.817C20.3255 295.595 20.6504 295.4 20.6504 291.913C20.6504 289.777 21.3657 287.589 22.24 287.05C23.1143 286.511 23.8352 286.647 23.842 287.352C23.8544 288.637 31.2877 292.599 33.6841 292.599C36.0846 292.599 34.9574 288 32.175 286.442C29.7167 285.066 29.6848 284.772 31.9009 283.92C35.0277 282.718 42.9048 285.574 42.9048 287.91C42.9048 290.224 49.6672 288.094 51.3291 285.256C52.0283 284.062 53.6378 283.086 54.9057 283.086C56.1737 283.086 57.2111 282.455 57.2111 281.685C57.2111 280.915 58.6418 279.911 60.3903 279.455C64.3158 278.431 64.7228 270.265 61.1856 263.5C59.8853 261.013 59.2344 257.337 59.7391 255.331C60.5088 252.272 59.8968 251.517 55.9463 250.652C51.8853 249.762 51.2872 248.966 51.6093 244.882C51.8148 242.276 53.5169 238.718 55.3918 236.976C59.4617 233.194 59.5324 232.508 56.3234 227.938C53.9837 224.606 54.0696 224.325 57.8686 222.884C60.2528 221.98 62.3304 219.613 62.9697 217.072C63.8763 213.469 63.1 211.919 58.0978 207.346L52.1475 201.907L56.5663 197.306C61.7935 191.864 62.9214 191.648 64.0301 195.877C64.6397 198.202 66.1983 199.048 69.8729 199.048C73.1308 199.048 74.5039 198.434 73.7972 197.293C72.2726 194.833 76.2165 183.102 79.9952 178.859C81.729 176.911 84.465 174.901 86.0753 174.391C89.1253 173.426 90.2001 166.675 87.5627 165.049C86.7705 164.561 86.4752 162.815 86.9064 161.17C87.3376 159.526 86.9128 157.7 85.9623 157.114C83.3817 155.523 83.8771 151.479 86.6527 151.479C87.9829 151.479 89.886 149.696 90.8819 147.515C91.8778 145.335 93.6507 143.551 94.8218 143.551C95.9929 143.551 96.951 142.863 96.951 142.021C96.951 141.18 98.4902 139.67 100.371 138.666C103.285 137.111 103.645 137.22 102.806 139.403C101.491 142.82 104.186 142.677 106.796 139.191C107.938 137.665 112.305 134.804 116.499 132.833C124.786 128.938 128.722 129.659 131.942 135.66C134.793 140.974 136.804 139.264 135.712 132.452C135.005 128.045 135.271 126.11 136.582 126.11C137.619 126.11 137.979 125.32 137.381 124.354C136.671 123.209 137.329 122.924 139.274 123.534C145.593 125.519 159.68 127.695 166.202 127.695C173.021 127.695 178.97 124.168 177.138 121.211C175.442 118.474 178.148 113.629 181.672 113.091C183.598 112.797 184.995 111.682 184.776 110.612C184.558 109.543 185.81 108.668 187.558 108.668C189.521 108.668 190.742 107.607 190.75 105.893C190.762 103.22 197.157 99.1541 201.35 99.1541C202.467 99.1541 204.639 97.1919 206.177 94.7936C210.034 88.781 213.102 86.5828 217.76 86.4953C223.328 86.3906 225.146 84.8382 226.387 79.1314C227.296 74.9516 228.364 74.0266 233.183 73.2465C237.386 72.5661 240.044 73.1326 243.214 75.3841C245.586 77.0689 247.881 78.0944 248.313 77.6631C248.745 77.2317 250.049 78.0207 251.211 79.4164C252.592 81.0773 252.76 82.3231 251.695 83.0223C249.559 84.425 247.86 91.226 249.645 91.226C250.407 91.226 251.888 92.8258 252.938 94.7812C255.282 99.1512 254.867 132.264 252.431 135.192C251.515 136.293 248.09 137.994 244.82 138.971C239.924 140.434 238.192 140.301 235.001 138.215C229.189 134.417 224.033 118.359 224.084 104.22C224.101 99.6944 221.388 101.089 218.988 106.84C216.71 112.296 216.605 112.718 216.37 117.282C216.24 119.805 214.934 121.513 212.594 122.221C206.44 124.082 201.864 129.443 201.864 134.79C201.864 137.516 201.006 140.602 199.957 141.649C198.701 142.901 198.638 143.551 199.772 143.551C200.719 143.551 201.868 144.978 202.325 146.723C203.253 150.263 207.344 150.959 209.321 147.912C210.029 146.822 210.607 144.161 210.607 142C210.607 139.548 211.636 137.868 213.345 137.532C215.53 137.102 216.041 138.073 215.88 142.353C215.474 153.126 222.95 158.468 226.044 149.615C227.708 144.853 227.772 144.831 236.587 145.929C241.948 146.597 246.223 148.071 247.393 149.653C248.477 151.119 248.675 152.506 247.842 152.804C245.347 153.696 247.943 156.236 251.349 156.236C255.176 156.236 258.528 153.193 259.332 148.989C259.66 147.276 261.471 145.708 263.446 145.427C265.387 145.151 268.348 143.184 270.026 141.055C271.955 138.609 274.012 137.544 275.621 138.16C278.601 139.301 278.72 140.303 276.549 145.999C275.326 149.208 274.437 149.827 272.89 148.547C269.307 145.581 264.24 148.166 263.478 153.349C262.565 159.551 266.098 163.211 271.66 161.827C281.593 159.356 294.492 160.473 298.446 164.148C300.427 165.989 302.247 166.649 302.814 165.734C303.349 164.871 305.285 164.164 307.118 164.164C310.339 164.164 310.355 164.269 307.6 167.306C305.211 169.938 305.088 170.854 306.838 172.957C308.112 174.488 310.28 175.129 312.398 174.598C314.593 174.049 316.817 174.774 318.448 176.571C320.053 178.34 322.889 179.285 325.959 179.073C330.396 178.766 330.798 179.105 329.959 182.44C329.168 185.584 329.58 186.088 332.673 185.759C337.925 185.201 340.159 183.445 340.159 179.877C340.159 174.193 344.573 174.702 350.44 181.061C356.003 187.091 358.691 192.191 357.128 193.75C356.684 194.193 357.714 195.945 359.417 197.644C361.12 199.343 362.938 202.851 363.457 205.44C363.976 208.029 365.297 210.147 366.392 210.147C369.665 210.147 372.29 205.78 371.156 202.219C370.572 200.382 370.956 197.866 372.015 196.593C373.366 194.969 373.405 194.291 372.146 194.291C369.34 194.291 370.056 189.629 373.541 185.21C375.289 182.993 376.72 179.491 376.72 177.428C376.72 174.768 377.62 173.678 379.819 173.678C381.523 173.678 386.325 170.467 390.49 166.543C394.655 162.618 398.221 159.407 398.415 159.407C398.609 159.407 400.602 160.103 402.845 160.954C408.352 163.042 408.147 168.382 402.294 175.324C398.935 179.307 397.885 181.939 398.466 184.914C398.963 187.456 398.305 189.975 396.737 191.54C395.345 192.928 394.206 194.695 394.206 195.466C394.206 196.236 392.76 199.851 390.994 203.498C388.967 207.683 388.149 211.589 388.778 214.087C389.498 216.947 389.04 218.327 387.13 219.058C385.675 219.615 384.87 221.071 385.341 222.295C385.869 223.666 384.684 225.093 382.253 226.015C380.084 226.837 378.31 228.189 378.31 229.019C378.31 229.849 375.996 231.679 373.169 233.086C368.385 235.466 367.888 235.453 366.016 232.899C364.909 231.389 364.003 230.735 364.003 231.444C364.003 232.154 362.93 231.846 361.619 230.76C360.175 229.565 359.234 229.437 359.234 230.436C359.234 234.476 361.599 237.383 366.571 239.455C371.405 241.47 372.636 241.379 379.092 238.531C388.434 234.408 394.921 228.294 395.321 223.233C395.743 217.901 397.457 216.391 401.801 217.524C405.865 218.584 408.256 225.307 405.534 228.022C403.317 230.234 403.165 237.103 405.333 237.103C406.207 237.103 408.424 238.6 410.259 240.43L413.595 243.758L412.412 240.04C411.761 237.995 410.09 235.492 408.699 234.477C406.399 232.8 406.42 232.356 408.931 229.589C410.449 227.916 411.691 225.003 411.691 223.116C411.691 218.964 405.723 211.742 402.264 211.709C400.892 211.695 398.847 211.101 397.721 210.388C395.158 208.766 397.595 201.535 402.445 196.37C404.784 193.879 405.525 191.378 405.072 187.502C404.442 182.126 406.574 178.435 410.307 178.435C411.368 178.435 413.723 177.186 415.54 175.66C418.759 172.957 418.781 172.967 416.374 176.056C415.016 177.801 413.711 181.538 413.475 184.361C413.124 188.55 413.799 189.837 417.137 191.355C419.388 192.378 421.229 193.813 421.229 194.546C421.229 195.278 422.279 195.877 423.563 195.877C426.559 195.877 424.917 191.113 420.936 188.255C417.444 185.748 417.131 181.606 420.434 181.606C421.745 181.606 422.818 182.32 422.818 183.192C422.818 184.064 423.975 184.777 425.388 184.777C427.144 184.777 427.704 183.808 427.156 181.718C426.569 179.481 427.131 178.717 429.245 178.876C430.835 178.995 431.785 179.659 431.357 180.35C430.929 181.041 431.68 181.606 433.027 181.606C434.373 181.606 435.925 183.396 436.475 185.584C437.082 187.995 438.973 189.936 441.275 190.513C445.903 191.671 446.189 193.63 441.894 194.75C439.722 195.317 438.714 196.913 438.714 199.786C438.714 202.44 439.359 203.594 440.463 202.914C441.5 202.275 441.363 203.364 440.125 205.595C438.978 207.663 438.266 210.068 438.544 210.94C439.147 212.835 440.013 216.815 440.182 218.472C440.361 220.217 445.073 219.925 445.073 218.169C445.073 217.348 444.385 216.253 443.544 215.734C442.565 215.131 442.565 213.349 443.544 210.781C444.385 208.575 445.073 204.628 445.073 202.012C445.073 199.395 445.854 195.797 446.81 194.017C448.066 191.675 448.066 190.3 446.81 189.047C445.854 188.094 445.073 186.287 445.073 185.031C445.073 183.776 444.008 181.956 442.707 180.988C441.008 179.724 440.612 177.587 441.304 173.412L442.267 167.597L453.207 167.863C460.92 168.05 464.146 168.729 464.147 170.166C464.148 171.665 464.934 171.785 467.12 170.618C469.37 169.416 470.005 167.498 469.734 162.715C469.494 158.467 470.115 156.117 471.632 155.536C472.872 155.061 473.49 154.033 473.005 153.25C471.745 151.217 481.99 146.723 487.885 146.723C490.841 146.723 493.232 145.757 493.775 144.344C494.792 141.7 499.119 141.058 499.119 143.551C499.119 144.423 500.407 145.137 501.981 145.137C505.534 145.137 513.396 141.593 513.413 139.984C513.42 139.33 515.09 138.794 517.124 138.794C520.293 138.794 520.727 138.142 520.153 134.241C519.302 128.458 526.964 120.329 530.503 123.259C532.253 124.707 532.269 125.283 530.589 126.366C528.938 127.43 529.002 128.007 530.911 129.257C532.222 130.115 534.189 130.829 535.282 130.842C536.375 130.855 537.269 132.293 537.269 134.038C537.269 137.745 540.134 138.286 541.463 134.83C542.88 131.148 549.906 132.015 555.958 136.619C560.166 139.821 560.938 141.114 559.288 142.199C557.541 143.348 557.659 144.009 559.921 145.738C563.917 148.793 563.411 150.945 557.153 157.531C554.101 160.743 551.597 164.111 551.589 165.016C551.582 165.92 548.357 170.059 544.423 174.213C540.488 178.368 537.292 182.622 537.32 183.668C537.348 184.735 538.298 184.351 539.482 182.795C540.644 181.269 543.076 180.02 544.888 180.02C546.824 180.02 548.613 178.666 549.228 176.735C549.844 174.797 551.174 173.793 552.468 174.289C553.675 174.751 555.705 174.089 556.98 172.818C559.99 169.815 565.29 169.853 566.457 172.885C566.96 174.193 568.152 175.264 569.105 175.264C570.058 175.264 570.445 174.628 569.964 173.851C568.679 171.779 576.234 167.336 581.041 167.336C583.32 167.336 586.257 168.406 587.569 169.714C590.641 172.778 598.14 172.754 604.138 169.66C608.16 167.585 608.606 166.763 607.165 164.077C604.828 159.722 606.524 157.764 611.734 158.803C614.657 159.387 616.829 158.844 618.209 157.185C620.082 154.934 620.747 155.016 624.977 158.021C627.686 159.945 629.31 162.281 628.822 163.551C628.337 164.811 628.973 165.75 630.311 165.75C632.983 165.75 633.434 168.248 631.03 169.73C628.706 171.163 630.952 174.057 633.601 173.043C635.048 172.489 635.824 173.296 635.824 175.353C635.824 177.311 637.488 179.193 640.196 180.3C646.391 182.831 651.046 182.652 650.354 179.908C650.04 178.662 649.539 175.308 649.241 172.454C648.786 168.098 649.105 167.493 651.23 168.679C654.882 170.718 659.668 169.026 659.668 165.697C659.668 162.053 662.65 161.03 667.262 163.093C671.835 165.139 676.301 161.86 672.372 159.341C670.401 158.078 670.586 157.661 673.471 156.872C676.575 156.022 676.747 155.477 675.093 151.719C674.076 149.407 672.589 147.052 671.788 146.486C670.987 145.92 670.908 144.136 671.611 142.522C672.314 140.908 672.815 139.168 672.723 138.655C672.632 138.143 675.558 136.196 679.227 134.33C684.777 131.507 685.983 131.33 686.411 133.28C687.035 136.128 689.808 136.404 690.029 133.641C690.116 132.551 690.685 133.443 691.293 135.623C693.007 141.769 695.382 140.308 695.927 132.773C696.331 127.186 697.137 125.687 700.402 124.449C706.247 122.232 707.684 122.58 706.611 125.954C705.724 128.741 706.158 128.856 712.334 127.472C716.009 126.648 720.08 126.382 721.381 126.88C723.989 127.878 731.2 121.958 731.2 118.82C731.2 117.73 733.052 114.644 735.315 111.961C738.737 107.905 740.584 107.082 746.273 107.082C750.888 107.082 753.412 107.856 754.029 109.461C755.999 114.581 768.352 110.663 767.666 105.136C767.128 100.8 769.968 95.6702 773.686 94.2602C775.831 93.4466 778.408 90.6088 779.413 87.9538C780.712 84.5213 782.047 83.3375 784.036 83.8563C785.574 84.2575 787.272 83.8771 787.809 83.0109C788.345 82.1447 790.108 81.7813 791.726 82.2033C793.344 82.6252 795.496 81.9739 796.51 80.7558C799.14 77.594 795.578 73.7842 789.991 73.7842C783.727 73.7842 783.067 69.9924 788.35 64.3516C790.841 61.6907 792.553 59.5136 792.153 59.5136C791.752 59.5136 792.717 57.2243 794.297 54.4262C798.653 46.7083 804.803 41.8282 819.423 34.4882C822.046 33.1714 825.398 31.0582 826.873 29.7923C828.348 28.5264 830.24 27.9132 831.078 28.4297C831.916 28.9462 833.04 28.2285 833.576 26.8349C834.168 25.2953 835.551 24.6838 837.099 25.2764C838.987 25.9992 839.386 25.5735 838.639 23.6318C837.749 21.3196 838.755 21.1136 847.205 21.8778C854.779 22.563 856.778 22.2786 856.778 20.5157C856.778 19.1962 855.158 18.2876 852.804 18.2876C848.19 18.2876 847.886 17.4176 851.306 14.0059C852.668 12.6476 853.42 10.5945 852.977 9.44345C852.514 8.24016 853.657 6.89074 855.667 6.26863C857.59 5.67353 861.13 3.80459 863.534 2.11545C868.131 -1.11401 867.96 -1.24628 868.541 5.99907C868.629 7.08919 869.416 8.51625 870.29 9.17032C871.289 9.91756 871.01 10.9168 869.541 11.8589C868.255 12.6836 867.583 13.7378 868.048 14.2015C868.893 15.044 874.799 16.3616 878.729 16.5842C879.902 16.6506 880.308 17.5115 879.66 18.5571C878.888 19.8044 879.378 20.0804 881.156 19.3996C882.883 18.7385 883.801 19.1953 883.801 20.7158C883.801 21.9966 883.086 23.0445 882.212 23.0445C881.338 23.0445 880.77 23.5796 880.951 24.2337C881.132 24.8877 879.156 27.6357 876.56 30.3403C872.745 34.315 871.319 34.9296 869.121 33.5465C866.984 32.202 865.892 32.5073 864.025 34.9716C862.718 36.6965 861.625 39.7133 861.598 41.6755C861.559 44.3871 860.616 45.2431 857.667 45.2431C855.533 45.2431 853.345 44.5296 852.804 43.6575C851.342 41.2974 849.299 41.7363 848.178 44.6517C846.949 47.8458 851.753 51.7719 855.511 50.6452C857.464 50.0598 859.137 51.6307 861.516 56.2818C865.126 63.3393 864.22 67.4889 858.391 70.6008C856.432 71.6463 855.669 73.1871 856.298 74.8236C857.211 77.1967 857.44 77.1948 859.196 74.7995C860.245 73.369 862.633 72.1986 864.504 72.1986C866.375 72.1986 867.905 71.437 867.905 70.5061C867.905 68.5327 874.53 70.2204 876.052 72.5816C876.677 73.5508 877.438 73.4903 878.102 72.4185C879.452 70.2383 890.596 70.5555 892.074 72.8162C893.388 74.8262 887.385 81.7123 884.319 81.7123C881.699 81.7123 881.535 84.3944 884.104 85.2484C885.281 85.6398 886.157 90.2479 886.422 97.4442C886.656 103.806 887.614 111.326 888.55 114.157C889.487 116.987 890.531 120.745 890.872 122.508C891.212 124.272 892.206 128.301 893.081 131.462C894.589 136.909 894.474 137.209 890.867 137.209C886.131 137.209 882.296 143.987 881.943 152.983C881.728 158.456 881.353 159.086 879.31 157.405C877.24 155.7 877.046 156.324 877.829 162.182C878.485 167.088 878.173 168.921 876.682 168.921C873.265 168.921 872.538 175.647 875.51 179.753C877.01 181.826 880.026 186.83 882.212 190.874C886.171 198.199 891.749 201.657 891.749 196.786C891.749 195.414 892.906 194.291 894.319 194.291C896.071 194.291 896.635 195.26 896.091 197.336C895.496 199.604 896.362 200.682 899.482 201.56C901.786 202.209 904.282 202.598 905.028 202.425C905.774 202.251 907.742 202.539 909.4 203.064C912.968 204.194 913.469 208.562 910.03 208.562C908.718 208.562 907.645 209.892 907.645 211.519C907.645 215.777 913.696 222.832 917.348 222.832C921.076 222.832 923.1 227.078 920.573 229.598C919.583 230.586 918.773 234.006 918.773 237.198C918.773 241.472 919.777 243.754 922.586 245.857C926.211 248.573 926.292 249.013 924.246 254.8C922.532 259.645 922.504 260.887 924.109 260.887C926.75 260.887 933.079 275.442 933.079 281.515C933.079 287.75 928.981 287.817 923.172 281.677C920.788 279.158 915.795 275.515 912.075 273.581C898.822 266.69 874.264 244.073 874.264 238.758C874.264 234.531 870.943 227.589 868.922 227.589C867.92 227.589 868.021 226.84 869.177 225.686C871.998 222.872 871.636 206.235 868.7 203.805C867.389 202.719 866.316 200.533 866.316 198.947C866.316 197.361 865.566 195.601 864.649 195.036C863.487 194.32 863.49 193.399 864.656 191.996C865.851 190.561 865.543 187.863 863.581 182.584C861.293 176.426 861.174 174.638 862.87 171.929C865.184 168.233 864.218 166.374 856.25 159.19C853.378 156.602 851.612 153.431 851.612 150.866C851.612 146.084 849.319 145.496 846.274 149.497C843.327 153.37 843.559 155.83 847.241 159.773C849.041 161.7 850.42 165.368 850.42 168.229C850.42 171.008 850.857 175.46 851.39 178.122C852.172 182.02 851.855 182.889 849.762 182.582C848.333 182.373 846.067 180.641 844.727 178.733C841.912 174.724 839.293 174.198 839.293 177.642C839.293 178.95 838.153 180.02 836.76 180.02C835.366 180.02 833.852 181.448 833.395 183.192C832.938 184.936 831.988 186.363 831.286 186.363C829.032 186.363 827.774 195.874 829.718 198.211C830.727 199.423 831.962 204.567 832.463 209.641C832.964 214.716 834.399 220.894 835.653 223.371C837.843 227.697 838.052 227.765 840.997 225.107C842.792 223.486 844.061 223.104 844.061 224.183C844.061 225.196 842.273 227.575 840.087 229.471C837.902 231.367 836.114 233.907 836.114 235.117C836.114 236.563 835.07 236.986 833.068 236.352C831.393 235.822 829.604 236.064 829.092 236.889C828.581 237.715 826.732 238.018 824.985 237.562C822.775 236.985 821.807 237.514 821.807 239.296C821.807 240.706 821.271 241.775 820.615 241.672C815.889 240.927 813.688 242.316 812.833 246.581C811.859 251.438 809.681 253.927 803.755 256.954C801.881 257.911 800.451 259.926 800.578 261.432C800.737 263.325 800.244 263.703 798.981 262.657C797.739 261.629 795.263 262.873 791.257 266.535C782.339 274.687 779.962 279.054 781.113 285.174C781.659 288.074 781.566 290.985 780.907 291.642C780.249 292.299 779.581 296.389 779.424 300.73C779.266 305.071 778.373 309.542 777.438 310.666C776.504 311.789 775.809 317.363 775.895 323.053C775.98 328.743 775.258 334.874 774.29 336.678C773.322 338.483 772.53 341.748 772.53 343.934C772.53 346.12 771.814 348.35 770.94 348.889C770.066 349.428 769.35 351.254 769.35 352.946C769.35 355.295 770.458 356.024 774.025 356.024C776.597 356.024 779.139 355.316 779.675 354.45C780.214 353.581 782.368 354.823 784.488 357.225C787.564 360.711 788.335 361.023 788.375 358.799C788.436 355.428 791.605 355.039 791.605 358.402C791.605 359.711 792.678 360.781 793.989 360.781C795.301 360.781 796.374 359.711 796.374 358.402C796.374 357.094 797.447 356.024 798.758 356.024C801.474 356.024 801.992 351.978 799.476 350.427C796.387 348.523 801.427 344.588 805.821 345.473C815.455 347.414 820.372 348.966 820.323 350.051C820.294 350.691 822.824 353.761 825.945 356.875C829.515 360.436 831.269 363.448 830.674 364.995C829.418 368.258 832.724 378.985 836.098 382.598C837.576 384.18 840.698 389.274 843.037 393.919C847.276 402.337 847.287 402.452 846.576 431.122C845.823 461.506 845.394 466.754 843.407 469.962C842.728 471.058 842.592 473.62 843.104 475.656C844.307 480.438 838.643 493.268 833.157 498.188C829.661 501.323 827.838 501.799 822.238 501.041L815.516 500.131L814.484 506.565C813.665 511.676 812.778 513 810.173 513C807.048 513 807.03 512.9 809.796 510.883ZM886.326 432.01C883.928 429.326 882.357 426.115 882.834 424.875C883.311 423.635 883.061 422.62 882.278 422.62C880.656 422.62 875.853 413.644 875.853 410.613C875.853 409.51 873.434 407.116 870.477 405.293C867.52 403.47 864.164 399.666 863.02 396.84C861.876 394.013 858.511 388.489 855.542 384.565C852.573 380.641 849.169 375.111 847.979 372.277C846.534 368.84 844.727 367.123 842.553 367.123C839.291 367.123 832.934 362.012 832.934 359.389C832.934 358.624 831.861 357.11 830.55 356.024C829.239 354.938 828.166 352.945 828.166 351.594C828.166 350.243 826.942 347.79 825.447 346.142C823.333 343.812 823.177 342.869 824.744 341.903C827.579 340.155 825.285 332.021 821.693 331.084C820.045 330.654 819.208 329.407 819.703 328.119C821.029 324.673 823.319 325.486 825.045 330.015C825.908 332.279 828.036 334.503 829.774 334.956C831.512 335.41 832.934 336.79 832.934 338.024C832.934 339.258 834.186 340.712 835.716 341.257C840.587 342.989 842.615 345.221 841.04 347.117C839.151 349.392 843.361 354.566 849.228 357.18C851.632 358.251 853.599 359.856 853.599 360.747C853.599 361.638 854.383 362.366 855.342 362.366C856.3 362.366 861.486 366.218 866.866 370.926C872.246 375.633 879.152 380.57 882.212 381.896L887.775 384.306L880.175 384.436C870.924 384.593 869.953 386.369 873.472 396.706C877.008 407.094 881.909 414.681 885.123 414.742C886.582 414.77 889.169 415.844 890.871 417.128C892.574 418.413 895.137 419.093 896.567 418.64C900.012 417.55 904.095 425.646 901.047 427.525C899.951 428.2 898.407 428.354 897.617 427.867C896.826 427.379 897.149 426.367 898.335 425.617C899.922 424.614 899.967 424.248 898.505 424.23C895.075 424.188 890.393 429.95 891.913 432.343C895.843 438.531 891.943 438.298 886.326 432.01ZM879.158 426.716C879.089 425.045 879.465 424.108 879.993 424.635C880.521 425.162 880.578 426.529 880.119 427.674C879.611 428.939 879.234 428.563 879.158 426.716ZM923.541 419.935C923.541 415.426 924.324 413.146 926.106 412.464C928.294 411.626 928.51 412.359 927.572 417.447C925.963 426.184 923.541 427.679 923.541 419.935ZM929.414 408.922C927.177 406.69 928.218 392.868 930.694 391.92C932.006 391.418 933.079 389.914 933.079 388.579C933.079 387.243 933.794 386.151 934.669 386.151C936.836 386.151 936.67 387.951 933.889 394.589C932.587 397.699 931.931 401.311 932.433 402.615C933.499 405.387 931.034 410.538 929.414 408.922ZM937.959 377.127C937.898 374.344 938.563 371.626 939.437 371.087C941.344 369.912 941.344 374.59 939.437 379.015C938.286 381.689 938.054 381.392 937.959 377.127ZM942.867 352.853C942.867 350.672 943.228 349.781 943.669 350.871C944.11 351.961 944.11 353.745 943.669 354.835C943.228 355.925 942.867 355.033 942.867 352.853ZM784.452 344.925C783.911 344.053 784.227 343.339 785.153 343.339C786.078 343.339 786.836 344.053 786.836 344.925C786.836 345.797 786.521 346.51 786.135 346.51C785.749 346.51 784.992 345.797 784.452 344.925ZM937.004 324.232C935.544 321.876 936.705 321.041 939.256 322.614C940.622 323.457 940.785 324.274 939.717 324.932C938.81 325.491 937.589 325.176 937.004 324.232ZM934.669 313.212C934.669 312.34 935.384 311.627 936.258 311.627C937.132 311.627 937.848 312.34 937.848 313.212C937.848 314.084 937.132 314.798 936.258 314.798C935.384 314.798 934.669 314.084 934.669 313.212ZM932.947 304.491C932.812 303.619 932.797 302.342 932.912 301.652C933.027 300.963 932.43 299.11 931.585 297.535C930.544 295.594 930.64 294.081 931.882 292.842C934.168 290.561 936.806 290.432 935.42 292.669C934.856 293.579 935.113 295.187 935.99 296.241C937.077 297.547 936.885 299.42 935.388 302.118C934.18 304.295 933.081 305.364 932.947 304.491ZM829.755 241.16C829.755 240.776 830.47 240.02 831.345 239.481C832.219 238.942 832.934 239.257 832.934 240.18C832.934 241.104 832.219 241.86 831.345 241.86C830.47 241.86 829.755 241.545 829.755 241.16ZM340.159 168.921C340.159 166.305 340.875 164.164 341.749 164.164C342.623 164.164 343.339 166.305 343.339 168.921C343.339 171.537 342.623 173.678 341.749 173.678C340.875 173.678 340.159 171.537 340.159 168.921ZM560.437 162.771C559.945 161.976 560.611 160.916 561.917 160.416C563.224 159.916 564.292 160.156 564.292 160.949C564.292 163.099 561.468 164.433 560.437 162.771ZM403.971 156.384C402.372 155.393 402.296 154.75 403.679 153.897C405.861 152.553 407.498 153.743 406.691 156.086C406.36 157.046 405.238 157.169 403.971 156.384ZM333.357 151.613C329.916 147.529 329.34 145.885 330.752 144.187C333.122 141.34 331.25 134.038 328.151 134.038C326.272 134.038 326.099 133.371 327.366 131.009C328.387 129.107 330.098 128.27 331.971 128.759C333.782 129.231 336.686 127.932 339.377 125.444C344.464 120.741 346.296 120.451 350.585 123.665C353.551 125.888 353.401 126.22 346.725 132.196C340.439 137.825 339.684 139.291 338.777 147.637L337.775 156.859L333.357 151.613ZM293.531 150.422C291.686 148.582 292.372 146.887 295.674 145.124C298.227 143.761 299.08 143.943 299.88 146.021C301.207 149.471 296.115 153 293.531 150.422ZM664.047 130.47C662.209 125.485 666.64 123.033 673.05 125.486C676.651 126.865 676.162 128.5 671.515 130.612C666.362 132.954 664.952 132.927 664.047 130.47ZM354.466 122.938C353.312 120.788 353.294 119.767 354.41 119.767C355.315 119.767 355.876 118.875 355.658 117.785C355.436 116.678 356.488 116.009 358.042 116.269C359.572 116.525 360.824 116.077 360.824 115.272C360.824 114.468 362.97 112.923 365.593 111.839C368.216 110.755 370.362 109.397 370.362 108.821C370.362 108.245 372.208 107.621 374.464 107.435C376.72 107.249 379.723 106.451 381.136 105.662C382.67 104.806 385.235 104.807 387.5 105.666C389.586 106.457 391.98 106.682 392.819 106.164C393.658 105.647 395.4 106.097 396.689 107.164C398.243 108.451 402.002 108.8 407.837 108.199C414.736 107.489 416.836 107.799 417.542 109.634C418.037 110.922 417.986 112.431 417.428 112.987C415.895 114.516 400.849 116.166 398.974 115.01C398.073 114.454 393.591 114.625 389.015 115.389C384.438 116.154 378.66 116.982 376.175 117.229C373.689 117.476 371.186 118.327 370.611 119.119C370.037 119.912 367.779 120.752 365.593 120.987C363.407 121.221 360.825 122.47 359.854 123.761C357.51 126.88 356.497 126.725 354.466 122.938ZM658.079 125.41C658.079 125.026 658.794 124.27 659.668 123.731C660.542 123.192 661.258 123.507 661.258 124.43C661.258 125.354 660.542 126.11 659.668 126.11C658.794 126.11 658.079 125.795 658.079 125.41ZM43.4027 122.61C42.526 121.482 41.3624 119.311 40.817 117.785C40.2353 116.157 38.2007 115.01 35.8953 115.01C33.7337 115.01 31.5054 114.268 30.9434 113.361C30.2808 112.292 31.3655 112.073 34.0288 112.74C37.4206 113.589 38.136 113.216 38.136 110.595C38.136 104.872 45.9425 104.926 46.0596 110.65C46.073 111.304 47.2001 111.839 48.5643 111.839C50.4577 111.839 50.9279 113.243 50.5513 117.772C50.0321 124.016 46.4048 126.471 43.4027 122.61ZM644.198 120.677C640.316 118.885 637.023 111.53 638.446 107.83C639.514 105.053 641.275 104.9 645.603 107.211C649.381 109.228 651.539 107.853 648.833 105.153C645.805 102.133 646.568 101.551 653.99 101.218C661.096 100.9 665.749 103.681 663.685 107.013C662.073 109.616 656.825 108.948 654.886 105.893C653.696 104.017 653.325 103.889 653.741 105.497C654.079 106.805 655.935 108.667 657.866 109.636L661.376 111.397L656.945 114.349C654.509 115.973 651.891 117.113 651.128 116.884C650.365 116.654 650.141 117.507 650.63 118.778C651.795 121.807 648.655 122.734 644.198 120.677ZM516.485 110.889C518.299 107.513 519.784 103.848 519.784 102.745C519.784 101.642 520.499 100.74 521.373 100.74C522.248 100.74 522.963 101.453 522.963 102.325C522.963 103.197 523.729 103.911 524.666 103.911C527.434 103.911 531.287 108.575 530.407 110.861C529.96 112.023 527.566 113.415 525.087 113.954C522.607 114.493 518.915 115.405 516.883 115.981L513.187 117.028L516.485 110.889ZM503.49 104.59C498.056 101.649 497.649 95.6038 502.652 92.1087C507.163 88.9566 509.258 88.962 508.042 92.1225C507.319 94.0022 507.824 94.3714 510.122 93.6436C513.754 92.4937 515.753 95.0907 514.117 98.8336C513.468 100.318 513.092 102.781 513.281 104.307C513.707 107.741 509.536 107.861 503.49 104.59ZM667.068 99.5284C666.156 98.0243 669.31 95.2754 672.385 94.8951C673.696 94.7329 676.552 94.0695 678.73 93.4209C682.571 92.2771 682.616 92.3524 680.24 95.9218C677.852 99.5097 668.595 102.044 667.068 99.5284ZM493.82 93.3401C491.89 91.4141 492.722 89.7251 495.145 90.6526C496.456 91.1545 497.529 92.2024 497.529 92.9812C497.529 94.6436 495.34 94.8555 493.82 93.3401ZM496.956 87.265C495.699 83.9992 498.497 78.541 501.427 78.541C502.635 78.541 503.942 77.6491 504.333 76.559C505.28 73.9125 506.601 75.293 507.748 80.1299C508.931 85.1128 507.369 87.5207 502.1 88.8398C499.063 89.6002 497.693 89.1808 496.956 87.265ZM777.298 79.5035C777.298 79.1608 778.371 78.4696 779.683 77.9676C780.994 77.4657 782.067 77.7461 782.067 78.5908C782.067 79.4355 780.994 80.1267 779.683 80.1267C778.371 80.1267 777.298 79.8462 777.298 79.5035ZM421.938 57.7899C421.351 56.8418 421.493 55.4444 422.255 54.6847C424.135 52.8094 428.272 55.5392 426.902 57.7508C425.514 59.9919 423.313 60.0092 421.938 57.7899ZM430.766 57.928C430.766 57.0559 432.239 56.3424 434.039 56.3424C435.84 56.3424 436.87 57.0559 436.33 57.928C435.79 58.8001 434.317 59.5136 433.057 59.5136C431.797 59.5136 430.766 58.8001 430.766 57.928ZM417.266 46.8469C416.709 45.948 417.347 45.6822 418.762 46.2237C421.516 47.2778 422.02 48.4143 419.733 48.4143C418.91 48.4143 417.8 47.709 417.266 46.8469ZM398.18 40.4862C393.281 39.2428 394.191 38.7022 401.65 38.4249C403.996 38.3377 406.202 39.1226 406.551 40.1691C407.248 42.254 405.417 42.3233 398.18 40.4862ZM395.265 34.6723C394.682 34.0909 394.206 33.0874 394.206 32.4423C394.206 30.9179 400.351 32.5176 401.477 34.3352C402.477 35.9482 396.851 36.2535 395.265 34.6723ZM785.521 28.5625C782.872 22.7637 783.197 20.2305 786.836 18.2876C790.346 16.4141 790.465 16.6501 790.046 24.6301C789.659 31.9888 787.817 33.5896 785.521 28.5625Z" stroke="#E26D5C" stroke-width="2" mask="url(#path-1-inside-1_1127_48218)"/>
</svg>
