<svg width="335" height="182" viewBox="0 0 335 182" fill="none" xmlns="http://www.w3.org/2000/svg">
<mask id="path-1-inside-1_1127_48264" fill="white">
<path d="M287.375 181.249C288.36 180.53 288.363 180.372 287.441 177.603C286.911 176.011 286.026 174.154 285.475 173.475C284.602 172.4 284.57 172.053 285.226 170.792C285.641 169.995 286.238 169.311 286.552 169.273C286.867 169.234 287.602 169.171 288.187 169.132C289.471 169.047 290.105 167.035 289.313 165.559C288.905 164.801 288.938 164.249 289.427 163.662C290.125 162.823 290.105 162.741 288.243 158.814C287.69 157.648 287.673 157.1 288.174 156.498C288.682 155.889 288.637 155.55 287.977 155.004C287.508 154.616 287.124 153.696 287.124 152.96C287.124 152.225 286.931 151.623 286.696 151.623C286.204 151.623 284.582 153.983 284.721 154.496C284.772 154.683 284.185 155.173 283.415 155.583C282.646 155.994 281.869 156.916 281.689 157.633C281.508 158.349 281.153 158.936 280.898 158.936C280.644 158.936 280.07 159.301 279.623 159.746C278.438 160.928 276.674 160.229 275.54 158.128C274.835 156.822 274.126 156.275 273.08 156.23C272.272 156.195 270.648 156.073 269.471 155.958C268.293 155.844 267.209 155.945 267.061 156.183C266.666 156.821 264.624 156.305 263 155.158C260.991 153.737 260.477 153.444 259.201 152.992C258.13 152.613 258.139 152.576 259.393 152.245L260.712 151.896L259.252 150.324C258.448 149.46 257.791 148.512 257.791 148.219C257.791 147.925 257.526 147.685 257.202 147.685C256.878 147.685 255.926 147.04 255.087 146.251C253.658 144.909 253.289 144.836 249.329 145.11C243.262 145.53 242.561 145.651 242.553 146.279C242.549 146.588 241.661 147.413 240.579 148.112C238.342 149.557 238.113 150.479 239.739 151.492C241.001 152.278 241.273 154.931 240.202 155.999C239.835 156.365 239.512 158.37 239.481 160.471C239.433 163.825 239.238 164.479 237.853 165.95L236.279 167.619L233.787 166.726C231.742 165.992 231.117 165.961 230.309 166.55C229.505 167.136 229.043 167.123 227.793 166.478C226.416 165.768 226.059 165.808 224.253 166.87C223.148 167.52 222.098 168.635 221.919 169.347C221.689 170.26 221.048 170.744 219.744 170.988C218.726 171.178 217.445 171.829 216.895 172.435C216.346 173.04 215.636 173.375 215.317 173.178C214.998 172.982 213.277 172.874 211.491 172.938C208.792 173.035 208.053 172.848 207.1 171.829C206.354 171.03 205.547 170.708 204.788 170.906C204.003 171.111 203.433 170.859 203.045 170.136C202.324 168.792 198.332 168.66 195.945 169.902C195.056 170.364 193.86 170.744 193.286 170.746C192.104 170.75 188.97 167.656 188.97 166.485C188.97 165.649 186.18 163.999 184.765 163.999C183.368 163.999 179.714 161.841 179.286 160.764C178.969 159.964 178.888 160.028 178.856 161.105C178.834 161.834 178.182 163.182 177.406 164.101C175.939 165.84 175.555 168.397 176.603 169.443C177.037 169.876 176.793 170.465 175.748 171.508C174.56 172.692 173.94 172.902 172.46 172.623C171.457 172.434 170.33 172.039 169.956 171.747C169.582 171.454 169.045 171.357 168.762 171.531C168.18 171.89 166.759 170.415 166.213 168.885C165.943 168.126 165.379 167.91 164.012 168.041C163.002 168.138 161.921 167.914 161.611 167.543C161.179 167.025 160.322 167.142 157.944 168.044C156.238 168.691 154.12 169.193 153.237 169.16C152.087 169.116 151.718 169.319 151.932 169.877C152.267 170.748 151.384 171.196 148.403 171.666C147.29 171.842 146.205 172.093 145.991 172.223C145.777 172.354 145.016 171.839 144.299 171.079C143.515 170.248 142.216 169.627 141.039 169.52C139.376 169.369 139.004 169.069 138.56 167.515C138.272 166.509 137.693 165.686 137.273 165.686C136.798 165.686 136.508 165.042 136.508 163.99C136.508 162.603 136.146 162.121 134.528 161.351C133.117 160.68 132.374 160.583 131.942 161.014C130.987 161.967 129.208 161.193 128.292 159.427C127.408 157.722 125.79 157.223 125.79 158.655C125.79 159.119 125.41 159.498 124.944 159.498C124.281 159.498 124.098 158.729 124.098 155.944C124.098 153.989 123.7 151.053 123.213 149.419C122.727 147.786 122.446 146.332 122.59 146.189C122.734 146.045 122.243 145.274 121.5 144.474C119.827 142.674 119.816 142.298 121.418 141.785C122.522 141.432 122.397 141.322 120.461 140.946C118.857 140.634 118.02 140.727 117.468 141.278C116.697 142.047 114.551 142.018 112.628 141.212C111.82 140.873 111.757 140.677 112.343 140.316C112.931 139.953 112.851 139.672 111.967 139.006C111.348 138.539 110.532 138.15 110.154 138.14C109.776 138.13 109.613 137.742 109.791 137.278C110.029 136.661 109.721 136.434 108.645 136.434C107.24 136.434 106.68 135.428 107.583 134.528C107.807 134.304 108.046 133.249 108.115 132.184C108.216 130.598 108.04 130.246 107.143 130.246C106.54 130.246 105.553 129.754 104.949 129.152C104.071 128.276 103.511 128.155 102.149 128.544C100.29 129.076 95.236 128.179 89.4055 126.284C87.544 125.679 85.6601 125.183 85.2191 125.183C84.7782 125.184 83.9692 124.779 83.4213 124.285C82.8735 123.79 82.1858 123.533 81.893 123.714C81.025 124.249 80.7097 127.085 81.417 127.996C81.9823 128.724 81.941 128.738 81.116 128.094C79.6133 126.921 77.532 127.461 77.6937 128.983C77.8456 130.411 76.3231 130.737 75.0759 129.543C74.4756 128.969 74.398 129.252 74.6516 131.09C75.3305 136.011 75.3245 136.114 74.3433 136.312C73.8156 136.419 72.8345 135.876 72.1632 135.106C71.4919 134.336 70.6317 133.826 70.2516 133.971C69.3533 134.315 68.4105 133.143 68.1646 131.377C68.0449 130.518 67.5361 129.894 66.8472 129.763C66.23 129.646 65.3786 129.056 64.9554 128.454C64.5232 127.838 63.8209 127.498 63.3533 127.677C62.8955 127.852 61.9064 127.841 61.1555 127.654C60.113 127.393 59.79 126.935 59.79 125.718C59.79 123.77 58.9364 123.119 58.1526 124.469C57.7123 125.227 57.6188 124.822 57.7613 122.773C57.9133 120.586 57.7472 119.973 56.8769 119.509C56.2876 119.194 55.8435 118.634 55.8902 118.263C56.0984 116.608 55.7738 116.122 54.572 116.288C53.624 116.42 53.2579 116.149 53.1254 115.22C52.9676 114.114 52.7024 114.01 50.7279 114.286C49.4246 114.468 48.5079 114.364 48.5079 114.036C48.5079 113.729 47.4291 113.531 46.1105 113.598C44.1512 113.696 43.6812 113.935 43.539 114.903C43.4433 115.555 42.9895 116.232 42.5305 116.407C41.6088 116.76 40.8896 115.485 41.3441 114.304C41.8918 112.88 40.9307 112.309 38.5281 112.631C36.7028 112.875 36.115 113.225 35.8657 114.215C35.5372 115.52 33.2771 116.592 33.2771 115.443C33.2771 115.093 32.8743 115.381 32.382 116.082C31.6995 117.054 31.6399 117.54 32.1312 118.131C32.6303 118.73 32.5459 119.034 31.7571 119.476C30.8001 120.013 30.8182 120.122 32.0561 121.276C32.9554 122.114 33.2712 122.885 33.051 123.703C32.8736 124.363 32.7249 125.219 32.7207 125.606C32.7164 125.992 32.3322 126.309 31.8668 126.309C30.8474 126.309 30.7348 128.316 31.7201 128.924C33.292 129.892 29.5328 130.016 27.2773 129.07C25.2356 128.214 24.7553 128.189 23.4304 128.875C22.5977 129.305 21.7438 129.634 21.5327 129.604C19.7295 129.353 19.1641 129.782 19.2812 131.315C19.3498 132.213 19.0836 133.334 18.6896 133.808C18.0955 134.522 18.1593 134.768 19.0639 135.25C19.6636 135.57 20.3146 135.672 20.5106 135.477C20.7065 135.282 20.8668 135.417 20.8668 135.778C20.8668 136.167 19.9641 136.434 18.6552 136.434C16.2581 136.434 16.4033 136.198 15.4643 141.638C15.1891 143.232 14.8309 143.747 13.9977 143.747C11.6481 143.747 10.7129 142.71 10.7129 140.104C10.7129 138.741 10.4426 137.459 10.1121 137.256C9.78173 137.052 9.55478 136.214 9.60781 135.394C9.85961 131.5 9.58536 130.532 7.97041 129.616C6.64522 128.865 6.30919 128.226 6.05509 125.978C5.8856 124.479 5.46277 123.157 5.11547 123.042C4.26766 122.76 2.81543 119.888 2.81543 118.493C2.81543 117.876 2.33504 117.036 1.74789 116.626C0.835181 115.989 0.631013 114.879 0.340175 108.974L0 102.067L1.36217 103.533C2.56287 104.825 2.86347 104.912 3.89809 104.268C4.84117 103.68 5.29358 103.675 6.20006 104.239C7.21297 104.87 7.32827 104.801 7.32827 103.564C7.32827 102.806 7.58212 102.029 7.89238 101.838C8.20263 101.647 8.45846 101.695 8.46088 101.946C8.46528 102.401 11.1031 103.807 11.9536 103.807C12.8054 103.807 12.4054 102.176 11.418 101.623C10.5456 101.134 10.5343 101.03 11.3208 100.728C12.4304 100.302 15.2257 101.315 15.2257 102.144C15.2257 102.965 17.6256 102.209 18.2153 101.202C18.4634 100.778 19.0346 100.432 19.4846 100.432C19.9345 100.432 20.3027 100.208 20.3027 99.935C20.3027 99.6617 20.8104 99.3057 21.4309 99.1438C22.8239 98.7806 22.9684 95.8836 21.7131 93.4836C21.2517 92.6012 21.0207 91.297 21.1998 90.5853C21.4729 89.5001 21.2557 89.2322 19.8538 88.9251C18.4127 88.6095 18.2004 88.3272 18.3147 86.8781C18.3877 85.9536 18.9917 84.6914 19.6571 84.0733C21.1014 82.7315 21.1264 82.4882 19.9876 80.8668C19.1573 79.6847 19.1878 79.5851 20.536 79.0739C21.3821 78.7531 22.1194 77.9134 22.3462 77.012C22.668 75.7336 22.3925 75.1837 20.6173 73.5615L18.5057 71.6317L20.0738 69.9995C21.9289 68.0686 22.3291 67.992 22.7225 69.4923C22.9389 70.3173 23.492 70.6174 24.796 70.6174C25.9522 70.6174 26.4394 70.3996 26.1886 69.9949C25.6476 69.1219 27.0472 64.9603 28.3881 63.4547C29.0034 62.7639 29.9743 62.0507 30.5458 61.8698C31.6282 61.5272 32.0096 59.1323 31.0736 58.5554C30.7925 58.3822 30.6877 57.7629 30.8407 57.1794C30.9938 56.5958 30.843 55.9483 30.5057 55.7404C29.5899 55.176 29.7657 53.7412 30.7507 53.7412C31.2227 53.7412 31.8981 53.1084 32.2515 52.3349C32.6049 51.5614 33.2341 50.9285 33.6497 50.9285C34.0653 50.9285 34.4053 50.6843 34.4053 50.3858C34.4053 50.0873 34.9515 49.5515 35.619 49.1953C36.6529 48.6435 36.7809 48.6823 36.4829 49.4567C36.0163 50.6692 36.9728 50.6184 37.899 49.3815C38.3044 48.8401 39.8538 47.825 41.3422 47.1258C44.2831 45.7442 45.68 45.9998 46.8225 48.1287C47.8344 50.0142 48.5479 49.4073 48.1604 46.9908C47.9097 45.4274 48.004 44.7406 48.4691 44.7406C48.8373 44.7406 48.9649 44.4604 48.7526 44.1178C48.5008 43.7114 48.7343 43.6104 49.4245 43.827C51.6671 44.531 56.666 45.3032 58.9806 45.3032C61.4003 45.3032 63.5115 44.0517 62.8614 43.0026C62.2597 42.0319 63.22 40.3128 64.4705 40.122C65.154 40.0177 65.6497 39.6219 65.5721 39.2425C65.4945 38.8631 65.9388 38.5527 66.5593 38.5527C67.256 38.5527 67.6892 38.1762 67.6919 37.5683C67.6961 36.6199 69.9657 35.1775 71.4536 35.1775C71.85 35.1775 72.6209 34.4813 73.1667 33.6305C74.5352 31.4974 75.624 30.7175 77.2773 30.6864C79.253 30.6493 79.8984 30.0985 80.3386 28.0739C80.6611 26.591 81.0402 26.2628 82.7504 25.9861C84.2419 25.7447 85.1852 25.9457 86.3101 26.7445C87.1518 27.3422 87.9661 27.706 88.1196 27.553C88.273 27.3999 88.7357 27.6799 89.1478 28.175C89.6382 28.7643 89.6976 29.2062 89.3198 29.4543C88.5618 29.952 87.9587 32.3648 88.5923 32.3648C88.8626 32.3648 89.3884 32.9324 89.7607 33.6261C90.5927 35.1764 90.4455 46.9239 89.581 47.9627C89.2557 48.3535 88.0403 48.9568 86.88 49.3035C85.1424 49.8227 84.528 49.7754 83.3955 49.0354C81.3331 47.6879 79.5032 41.991 79.5215 36.9748C79.5273 35.3692 78.5647 35.8638 77.7128 37.9042C76.9047 39.8398 76.8671 39.9896 76.7837 41.6087C76.7376 42.5038 76.2741 43.11 75.4439 43.361C73.2601 44.0214 71.6362 45.9231 71.6362 47.8201C71.6362 48.7872 71.3316 49.8822 70.9593 50.2535C70.5138 50.6978 70.4913 50.9285 70.8935 50.9285C71.2296 50.9285 71.6374 51.4348 71.7997 52.0536C72.1291 53.3098 73.5808 53.5565 74.2824 52.4755C74.5334 52.0888 74.7388 51.145 74.7388 50.3782C74.7388 49.5081 75.1039 48.9123 75.7102 48.793C76.4859 48.6404 76.6672 48.9851 76.61 50.5032C76.4659 54.3253 79.119 56.2206 80.2168 53.0799C80.8075 51.3904 80.8302 51.3824 83.9585 51.7722C85.8609 52.0092 87.3778 52.5318 87.7932 53.0934C88.1778 53.6133 88.2479 54.1056 87.9523 54.2112C87.0668 54.5275 87.9883 55.4288 89.197 55.4288C90.555 55.4288 91.7446 54.3492 92.0299 52.8576C92.1461 52.2501 92.7888 51.6938 93.4898 51.594C94.1785 51.496 95.2293 50.798 95.8248 50.043C96.5095 49.175 97.2395 48.7973 97.8104 49.0158C98.8681 49.4205 98.9102 49.7762 98.1398 51.7969C97.7057 52.9355 97.3901 53.1551 96.8412 52.7008C95.5697 51.6485 93.7718 52.5656 93.5011 54.4045C93.1773 56.6047 94.4311 57.9034 96.4048 57.4125C99.9299 56.5356 104.507 56.9321 105.91 58.2358C106.613 58.8888 107.259 59.1232 107.46 58.7984C107.65 58.4921 108.338 58.2415 108.988 58.2415C110.131 58.2415 110.136 58.2787 109.159 59.3561C108.311 60.29 108.267 60.6149 108.888 61.3611C109.34 61.9043 110.11 62.1314 110.861 61.9433C111.641 61.7483 112.43 62.0056 113.008 62.6433C113.578 63.2708 114.584 63.6059 115.674 63.5307C117.249 63.422 117.391 63.542 117.093 64.7252C116.813 65.8406 116.959 66.0196 118.057 65.903C119.92 65.7048 120.713 65.0819 120.713 63.8161C120.713 61.7996 122.28 61.98 124.362 64.2362C126.336 66.3754 127.29 68.1846 126.735 68.7378C126.577 68.8949 126.943 69.5166 127.547 70.1193C128.152 70.722 128.797 71.9666 128.981 72.8851C129.165 73.8036 129.634 74.5552 130.022 74.5552C131.184 74.5552 132.115 73.0058 131.713 71.7425C131.506 71.0906 131.642 70.1981 132.018 69.7466C132.498 69.1702 132.511 68.9298 132.064 68.9298C131.069 68.9298 131.323 67.2759 132.56 65.708C133.18 64.9214 133.688 63.679 133.688 62.9473C133.688 62.0033 134.007 61.6168 134.787 61.6168C135.392 61.6168 137.096 60.4776 138.574 59.0853C140.052 57.6931 141.318 56.5539 141.387 56.5539C141.455 56.5539 142.163 56.8008 142.959 57.1025C144.913 57.8434 144.84 59.7378 142.763 62.2006C141.571 63.6138 141.199 64.5474 141.405 65.6031C141.581 66.5048 141.348 67.3985 140.791 67.9537C140.297 68.4463 139.893 69.0731 139.893 69.3465C139.893 69.6199 139.38 70.9022 138.753 72.1961C138.034 73.681 137.744 75.0665 137.967 75.953C138.222 76.9676 138.06 77.457 137.382 77.7165C136.866 77.914 136.58 78.4307 136.747 78.8648C136.934 79.3513 136.514 79.8575 135.651 80.1846C134.882 80.4764 134.252 80.9561 134.252 81.2505C134.252 81.5449 133.431 82.1942 132.427 82.6933C130.73 83.5378 130.553 83.5332 129.889 82.627C129.496 82.0914 129.175 81.8591 129.175 82.1108C129.175 82.3625 128.794 82.2533 128.329 81.8682C127.816 81.4441 127.483 81.3988 127.483 81.7533C127.483 83.1864 128.322 84.2178 130.086 84.9529C131.802 85.6677 132.238 85.6355 134.529 84.6249C137.845 83.1624 140.147 80.9932 140.289 79.1976C140.438 77.306 141.047 76.7702 142.588 77.1722C144.031 77.5483 144.879 79.9336 143.913 80.8968C143.126 81.6815 143.072 84.1183 143.842 84.1183C144.152 84.1183 144.938 84.6496 145.59 85.2989L146.774 86.4795L146.354 85.1604C146.123 84.4349 145.53 83.5468 145.036 83.1868C144.22 82.5917 144.228 82.4343 145.118 81.4528C145.657 80.859 146.098 79.8255 146.098 79.1561C146.098 77.6832 143.98 75.121 142.753 75.1091C142.266 75.1043 141.54 74.8935 141.14 74.6405C140.231 74.0651 141.096 71.4998 142.817 69.6675C143.647 68.7837 143.91 67.8961 143.749 66.5213C143.526 64.614 144.282 63.3044 145.607 63.3044C145.983 63.3044 146.819 62.8614 147.464 62.3199C148.606 61.3609 148.614 61.3646 147.76 62.4606C147.278 63.0794 146.815 64.4052 146.731 65.407C146.607 66.893 146.846 67.3498 148.031 67.8881C148.829 68.2509 149.483 68.7603 149.483 69.0201C149.483 69.2798 149.855 69.4923 150.311 69.4923C151.374 69.4923 150.792 67.8022 149.379 66.7883C148.14 65.899 148.029 64.4295 149.201 64.4295C149.666 64.4295 150.047 64.6826 150.047 64.992C150.047 65.3014 150.457 65.5545 150.959 65.5545C151.582 65.5545 151.781 65.2108 151.586 64.4692C151.378 63.6755 151.577 63.4045 152.327 63.4609C152.892 63.5033 153.229 63.7385 153.077 63.9837C152.925 64.2289 153.192 64.4295 153.669 64.4295C154.147 64.4295 154.698 65.0645 154.893 65.8407C155.109 66.696 155.779 67.3848 156.596 67.5893C158.239 68.0004 158.34 68.6952 156.816 69.0928C156.046 69.2937 155.688 69.8601 155.688 70.8792C155.688 71.821 155.917 72.2304 156.308 71.989C156.676 71.7621 156.628 72.1487 156.188 72.9403C155.781 73.6738 155.529 74.527 155.627 74.8364C155.841 75.5086 156.149 76.9206 156.209 77.5085C156.272 78.1277 157.944 78.0242 157.944 77.401C157.944 77.1099 157.7 76.7212 157.402 76.5373C157.054 76.3232 157.054 75.6909 157.402 74.7799C157.7 73.9972 157.944 72.5972 157.944 71.6689C157.944 70.7405 158.222 69.4641 158.561 68.8324C159.006 68.0018 159.006 67.5138 158.561 67.0693C158.222 66.7312 157.944 66.0901 157.944 65.6447C157.944 65.1992 157.566 64.5537 157.105 64.2102C156.502 63.7618 156.361 63.0036 156.607 61.5224L156.949 59.4593L160.831 59.5536C163.568 59.6201 164.713 59.8611 164.713 60.3708C164.713 60.9027 164.992 60.945 165.768 60.531C166.567 60.1047 166.792 59.4243 166.696 57.7274C166.611 56.2203 166.831 55.3865 167.369 55.1805C167.81 55.0121 168.029 54.6471 167.857 54.3695C167.41 53.6481 171.045 52.0536 173.137 52.0536C174.186 52.0536 175.035 51.7112 175.227 51.2098C175.588 50.2718 177.124 50.0441 177.124 50.9285C177.124 51.2379 177.581 51.4911 178.14 51.4911C179.4 51.4911 182.19 50.2336 182.196 49.6628C182.199 49.4308 182.791 49.2409 183.513 49.2409C184.638 49.2409 184.792 49.0095 184.588 47.6255C184.286 45.5739 187.005 42.6897 188.261 43.7292C188.882 44.2431 188.888 44.4475 188.292 44.8316C187.706 45.2091 187.728 45.4136 188.406 45.8571C188.871 46.1617 189.569 46.4149 189.957 46.4196C190.345 46.4244 190.662 46.9345 190.662 47.5533C190.662 48.8686 191.679 49.0607 192.151 47.8346C192.653 46.528 195.147 46.8357 197.295 48.4693C198.788 49.605 199.062 50.0639 198.476 50.4488C197.856 50.8563 197.898 51.0909 198.701 51.7044C200.119 52.7881 199.939 53.5518 197.719 55.8883C196.635 57.0279 195.747 58.2227 195.744 58.5435C195.741 58.8643 194.597 60.3327 193.201 61.8066C191.805 63.2805 190.67 64.79 190.68 65.1611C190.69 65.5395 191.027 65.4034 191.448 64.8514C191.86 64.3099 192.723 63.8669 193.366 63.8669C194.053 63.8669 194.688 63.3864 194.906 62.7012C195.125 62.0139 195.597 61.6577 196.056 61.8335C196.484 61.9974 197.205 61.7625 197.657 61.3116C198.725 60.2462 200.606 60.2596 201.02 61.3355C201.199 61.7996 201.622 62.1793 201.96 62.1793C202.298 62.1793 202.435 61.9538 202.265 61.6783C201.809 60.943 204.49 59.3666 206.196 59.3666C207.004 59.3666 208.047 59.7463 208.512 60.2104C209.602 61.2976 212.264 61.2888 214.392 60.1911C215.819 59.4551 215.978 59.1634 215.466 58.2106C214.637 56.6654 215.239 55.9709 217.088 56.3396C218.125 56.5465 218.896 56.354 219.386 55.7654C220.05 54.9668 220.286 54.9959 221.787 56.0619C222.749 56.7446 223.325 57.5735 223.152 58.024C222.98 58.4708 223.206 58.8041 223.68 58.8041C224.628 58.8041 224.788 59.6902 223.935 60.2161C223.111 60.7244 223.908 61.7512 224.848 61.3915C225.361 61.195 225.637 61.4813 225.637 62.2109C225.637 62.9055 226.227 63.5734 227.188 63.966C229.387 64.8642 231.039 64.8005 230.793 63.8271C230.682 63.3849 230.504 62.1949 230.398 61.1826C230.237 59.637 230.35 59.4223 231.104 59.8433C232.4 60.5665 234.098 59.9664 234.098 58.7853C234.098 57.4924 235.157 57.1296 236.793 57.8616C238.416 58.5873 240.001 57.4239 238.606 56.5305C237.907 56.0824 237.973 55.9344 238.997 55.6543C240.098 55.3529 240.159 55.1596 239.572 53.8261C239.211 53.0059 238.684 52.1706 238.399 51.9697C238.115 51.7689 238.087 51.1361 238.337 50.5634C238.586 49.9907 238.764 49.3734 238.731 49.1915C238.699 49.0097 239.737 48.3192 241.039 47.6571C243.009 46.6553 243.437 46.5928 243.589 47.2846C243.81 48.2948 244.794 48.393 244.873 47.4127C244.904 47.0259 245.105 47.3424 245.321 48.1158C245.929 50.2963 246.772 49.778 246.966 47.1047C247.109 45.1227 247.395 44.5907 248.554 44.1514C250.628 43.3648 251.138 43.4884 250.757 44.6854C250.442 45.6741 250.596 45.7149 252.788 45.2239C254.092 44.9317 255.537 44.8371 255.999 45.0138C256.924 45.3679 259.483 43.2677 259.483 42.1543C259.483 41.7679 260.14 40.6729 260.944 39.7209C262.158 38.2819 262.813 37.9902 264.832 37.9902C266.47 37.9902 267.366 38.2648 267.585 38.834C268.284 40.6506 272.667 39.2607 272.424 37.2996C272.233 35.7615 273.241 33.9415 274.56 33.4412C275.321 33.1526 276.236 32.1458 276.592 31.2039C277.053 29.9861 277.527 29.5661 278.233 29.7502C278.779 29.8925 279.381 29.7576 279.572 29.4503C279.762 29.143 280.388 29.014 280.962 29.1637C281.536 29.3134 282.3 29.0824 282.66 28.6502C283.593 27.5285 282.329 26.1768 280.346 26.1768C278.123 26.1768 277.889 24.8316 279.764 22.8304C280.648 21.8864 281.256 21.114 281.113 21.114C280.971 21.114 281.314 20.3018 281.874 19.3091C283.42 16.571 285.603 14.8396 290.791 12.2356C291.722 11.7684 292.911 11.0187 293.435 10.5696C293.958 10.1205 294.63 9.90294 294.927 10.0862C295.224 10.2694 295.623 10.0148 295.814 9.52036C296.024 8.97417 296.514 8.7572 297.064 8.96744C297.734 9.2239 297.875 9.07288 297.61 8.38398C297.295 7.56368 297.652 7.49059 300.65 7.76171C303.338 8.00479 304.047 7.9039 304.047 7.27847C304.047 6.81033 303.472 6.488 302.637 6.488C301 6.488 300.892 6.17934 302.105 4.96894C302.589 4.48705 302.855 3.75867 302.698 3.35031C302.534 2.92341 302.94 2.44467 303.653 2.22396C304.335 2.01283 305.592 1.34978 306.445 0.750509C308.076 -0.395225 308.016 -0.442149 308.222 2.12833C308.253 2.51507 308.532 3.02136 308.842 3.25341C309.197 3.51851 309.098 3.87301 308.577 4.20726C308.12 4.49983 307.882 4.87382 308.047 5.03835C308.346 5.33724 310.443 5.80472 311.837 5.88366C312.253 5.90722 312.398 6.21265 312.168 6.5836C311.893 7.02612 312.067 7.12405 312.698 6.88252C313.311 6.64798 313.637 6.81002 313.637 7.34946C313.637 7.80385 313.383 8.17562 313.073 8.17562C312.763 8.17562 312.561 8.36548 312.626 8.59752C312.69 8.82957 311.989 9.80448 311.068 10.764C309.714 12.1741 309.208 12.3922 308.427 11.9015C307.669 11.4245 307.282 11.5328 306.619 12.4071C306.155 13.019 305.767 14.0893 305.758 14.7854C305.744 15.7475 305.409 16.0512 304.363 16.0512C303.605 16.0512 302.829 15.798 302.637 15.4886C302.118 14.6513 301.393 14.807 300.995 15.8414C300.559 16.9745 302.264 18.3674 303.598 17.9677C304.291 17.76 304.885 18.3173 305.729 19.9674C307.01 22.4713 306.688 23.9434 304.62 25.0475C303.925 25.4184 303.654 25.965 303.877 26.5456C304.201 27.3875 304.282 27.3869 304.905 26.537C305.278 26.0295 306.125 25.6143 306.789 25.6143C307.453 25.6143 307.996 25.3441 307.996 25.0139C307.996 24.3137 310.347 24.9125 310.887 25.7502C311.109 26.094 311.379 26.0726 311.614 25.6923C312.094 24.9189 316.048 25.0314 316.573 25.8334C317.039 26.5465 314.909 28.9895 313.821 28.9895C312.891 28.9895 312.833 29.9411 313.745 30.2441C314.162 30.3829 314.473 32.0178 314.567 34.5708C314.65 36.8278 314.99 39.4959 315.322 40.5C315.655 41.5041 316.025 42.8375 316.146 43.463C316.267 44.0885 316.62 45.5179 316.93 46.6394C317.465 48.572 317.424 48.6784 316.145 48.6784C314.464 48.6784 313.103 51.083 312.978 54.2746C312.901 56.2163 312.768 56.4399 312.043 55.8433C311.309 55.2385 311.24 55.4601 311.518 57.5384C311.751 59.2788 311.64 59.9292 311.111 59.9292C309.898 59.9292 309.64 62.3153 310.695 63.7721C311.227 64.5073 312.297 66.2827 313.073 67.7174C314.478 70.3162 316.458 71.5429 316.458 69.8148C316.458 69.328 316.868 68.9298 317.37 68.9298C317.991 68.9298 318.191 69.2737 317.998 70.01C317.787 70.8146 318.094 71.197 319.202 71.5086C320.019 71.7387 320.905 71.8767 321.17 71.8153C321.435 71.7539 322.133 71.856 322.721 72.0422C323.988 72.443 324.165 73.9926 322.945 73.9926C322.479 73.9926 322.099 74.4648 322.099 75.0418C322.099 76.5524 324.246 79.0555 325.542 79.0555C326.865 79.0555 327.583 80.5617 326.686 81.4559C326.335 81.8064 326.047 83.0196 326.047 84.152C326.047 85.6683 326.404 86.4779 327.401 87.2242C328.687 88.1876 328.716 88.3439 327.99 90.397C327.382 92.1156 327.372 92.5564 327.941 92.5564C328.878 92.5564 331.124 97.7201 331.124 99.8747C331.124 102.087 329.67 102.11 327.609 99.9322C326.763 99.0386 324.991 97.7461 323.671 97.06C318.967 94.6153 310.253 86.5912 310.253 84.7054C310.253 83.206 309.074 80.7431 308.357 80.7431C308.001 80.7431 308.037 80.4772 308.447 80.068C309.449 79.0697 309.32 73.1671 308.278 72.305C307.813 71.9198 307.432 71.1443 307.432 70.5817C307.432 70.0191 307.166 69.3947 306.841 69.1942C306.428 68.9401 306.429 68.6133 306.843 68.1157C307.267 67.6064 307.158 66.6493 306.462 64.7765C305.65 62.5916 305.607 61.9575 306.209 60.9961C307.03 59.685 306.688 59.0256 303.86 56.4769C302.841 55.5585 302.214 54.4336 302.214 53.5236C302.214 51.8271 301.4 51.6185 300.32 53.038C299.274 54.4119 299.356 55.2849 300.663 56.6835C301.302 57.3673 301.791 58.6687 301.791 59.6836C301.791 60.6695 301.946 62.2489 302.135 63.1934C302.413 64.5763 302.3 64.8844 301.558 64.7757C301.05 64.7015 300.246 64.0869 299.771 63.41C298.772 61.9877 297.842 61.8012 297.842 63.0231C297.842 63.4872 297.438 63.8669 296.943 63.8669C296.449 63.8669 295.912 64.3732 295.749 64.992C295.587 65.6108 295.25 66.1171 295.001 66.1171C294.201 66.1171 293.754 69.4912 294.444 70.3203C294.802 70.7504 295.241 72.5753 295.418 74.3757C295.596 76.1761 296.106 78.368 296.551 79.2466C297.328 80.7815 297.402 80.8056 298.447 79.8626C299.084 79.2876 299.535 79.1517 299.535 79.5345C299.535 79.8939 298.9 80.7382 298.124 81.4108C297.349 82.0833 296.714 82.9847 296.714 83.4138C296.714 83.9267 296.344 84.0769 295.633 83.8521C295.039 83.6639 294.404 83.7497 294.222 84.0426C294.041 84.3355 293.385 84.4429 292.765 84.2812C291.981 84.0767 291.637 84.2642 291.637 84.8965C291.637 85.3967 291.447 85.7759 291.214 85.7393C289.537 85.4752 288.756 85.9678 288.452 87.4809C288.107 89.2041 287.334 90.087 285.231 91.161C284.566 91.5005 284.058 92.2154 284.103 92.7497C284.16 93.4214 283.985 93.5555 283.537 93.1843C283.096 92.8197 282.217 93.2609 280.796 94.5601C277.631 97.4522 276.787 99.0017 277.196 101.173C277.389 102.202 277.357 103.234 277.123 103.468C276.889 103.701 276.652 105.152 276.596 106.692C276.541 108.232 276.223 109.818 275.892 110.217C275.56 110.615 275.314 112.593 275.344 114.611C275.374 116.63 275.118 118.805 274.774 119.445C274.431 120.086 274.15 121.244 274.15 122.019C274.15 122.795 273.896 123.586 273.586 123.777C273.275 123.968 273.022 124.616 273.022 125.217C273.022 126.05 273.414 126.309 274.681 126.309C275.593 126.309 276.495 126.057 276.686 125.75C276.877 125.442 277.641 125.883 278.393 126.735C279.485 127.972 279.759 128.082 279.773 127.293C279.795 126.097 280.919 125.959 280.919 127.152C280.919 127.617 281.3 127.996 281.765 127.996C282.231 127.996 282.611 127.617 282.611 127.152C282.611 126.688 282.992 126.309 283.458 126.309C284.421 126.309 284.605 124.873 283.712 124.323C282.616 123.647 284.405 122.252 285.964 122.566C289.383 123.254 291.128 123.805 291.11 124.19C291.1 124.417 291.998 125.506 293.106 126.611C294.372 127.874 294.995 128.942 294.784 129.491C294.338 130.649 295.511 134.455 296.709 135.736C297.233 136.298 298.341 138.105 299.171 139.753C300.675 142.739 300.679 142.78 300.427 152.952C300.16 163.731 300.008 165.593 299.302 166.731C299.061 167.12 299.013 168.029 299.195 168.751C299.622 170.448 297.612 175 295.665 176.745C294.424 177.857 293.777 178.026 291.79 177.757L289.404 177.434L289.038 179.717C288.748 181.53 288.433 182 287.508 182C286.399 182 286.393 181.965 287.375 181.249ZM314.533 153.267C313.682 152.314 313.125 151.175 313.294 150.735C313.463 150.295 313.374 149.935 313.097 149.935C312.521 149.935 310.817 146.751 310.817 145.676C310.817 145.284 309.958 144.435 308.909 143.788C307.859 143.142 306.668 141.792 306.262 140.789C305.856 139.786 304.662 137.827 303.609 136.434C302.555 135.042 301.347 133.08 300.925 132.075C300.412 130.855 299.771 130.246 298.999 130.246C297.842 130.246 295.586 128.433 295.586 127.503C295.586 127.231 295.205 126.694 294.74 126.309C294.274 125.924 293.893 125.216 293.893 124.737C293.893 124.258 293.459 123.387 292.929 122.803C292.179 121.976 292.123 121.642 292.679 121.299C293.685 120.679 292.871 117.793 291.596 117.46C291.012 117.308 290.715 116.866 290.89 116.409C291.361 115.186 292.173 115.474 292.786 117.081C293.092 117.885 293.848 118.674 294.464 118.834C295.081 118.995 295.586 119.485 295.586 119.923C295.586 120.36 296.03 120.877 296.573 121.07C298.302 121.684 299.021 122.476 298.462 123.149C297.792 123.956 299.286 125.791 301.368 126.719C302.221 127.099 302.919 127.668 302.919 127.984C302.919 128.3 303.197 128.559 303.538 128.559C303.878 128.559 305.718 129.925 307.627 131.595C309.537 133.266 311.987 135.017 313.073 135.487L315.047 136.343L312.35 136.388C309.067 136.444 308.723 137.074 309.971 140.742C311.226 144.427 312.965 147.119 314.106 147.141C314.624 147.15 315.542 147.531 316.146 147.987C316.75 148.443 317.66 148.684 318.167 148.524C319.39 148.136 320.839 151.009 319.757 151.675C319.368 151.915 318.82 151.97 318.54 151.797C318.259 151.624 318.374 151.265 318.795 150.999C319.358 150.643 319.374 150.513 318.855 150.506C317.638 150.492 315.976 152.536 316.516 153.385C317.91 155.58 316.526 155.498 314.533 153.267ZM311.989 151.389C311.965 150.796 312.098 150.463 312.286 150.65C312.473 150.837 312.493 151.322 312.33 151.728C312.15 152.177 312.016 152.044 311.989 151.389ZM327.74 148.983C327.74 147.383 328.018 146.574 328.65 146.332C329.426 146.035 329.503 146.295 329.17 148.1C328.599 151.2 327.74 151.73 327.74 148.983ZM329.824 145.076C329.03 144.284 329.399 139.38 330.278 139.044C330.744 138.866 331.124 138.332 331.124 137.858C331.124 137.385 331.378 136.997 331.689 136.997C332.458 136.997 332.399 137.636 331.412 139.991C330.95 141.094 330.717 142.375 330.895 142.838C331.274 143.821 330.399 145.649 329.824 145.076ZM332.856 133.796C332.835 132.808 333.071 131.844 333.381 131.653C334.057 131.236 334.057 132.895 333.381 134.465C332.972 135.414 332.89 135.309 332.856 133.796ZM334.598 125.184C334.598 124.41 334.726 124.094 334.883 124.48C335.039 124.867 335.039 125.5 334.883 125.887C334.726 126.274 334.598 125.957 334.598 125.184ZM278.381 122.371C278.189 122.062 278.301 121.808 278.629 121.808C278.958 121.808 279.227 122.062 279.227 122.371C279.227 122.68 279.115 122.933 278.978 122.933C278.841 122.933 278.572 122.68 278.381 122.371ZM332.517 115.03C331.999 114.194 332.411 113.898 333.316 114.456C333.801 114.755 333.859 115.044 333.48 115.278C333.158 115.476 332.725 115.365 332.517 115.03ZM331.689 111.12C331.689 110.811 331.942 110.558 332.253 110.558C332.563 110.558 332.817 110.811 332.817 111.12C332.817 111.43 332.563 111.683 332.253 111.683C331.942 111.683 331.689 111.43 331.689 111.12ZM331.078 108.026C331.03 107.717 331.024 107.264 331.065 107.019C331.106 106.774 330.894 106.117 330.594 105.558C330.225 104.87 330.259 104.333 330.699 103.893C331.511 103.084 332.447 103.038 331.955 103.832C331.755 104.155 331.846 104.725 332.157 105.099C332.543 105.563 332.475 106.227 331.944 107.184C331.515 107.957 331.125 108.336 331.078 108.026ZM294.458 85.5579C294.458 85.4214 294.711 85.1533 295.022 84.9621C295.332 84.7709 295.586 84.8825 295.586 85.2102C295.586 85.5378 295.332 85.8059 295.022 85.8059C294.711 85.8059 294.458 85.6943 294.458 85.5579ZM120.713 59.9292C120.713 59.001 120.967 58.2415 121.277 58.2415C121.588 58.2415 121.842 59.001 121.842 59.9292C121.842 60.8573 121.588 61.6168 121.277 61.6168C120.967 61.6168 120.713 60.8573 120.713 59.9292ZM198.884 57.7471C198.709 57.4651 198.946 57.0892 199.409 56.9118C199.873 56.7344 200.252 56.8195 200.252 57.1009C200.252 57.8635 199.25 58.337 198.884 57.7471ZM143.358 55.4811C142.791 55.1295 142.764 54.9015 143.255 54.599C144.029 54.122 144.61 54.5443 144.323 55.3757C144.206 55.7161 143.808 55.7597 143.358 55.4811ZM118.299 53.7887C117.078 52.3397 116.874 51.7565 117.375 51.1542C118.216 50.1439 117.552 47.5533 116.452 47.5533C115.785 47.5533 115.724 47.3168 116.173 46.479C116.536 45.804 117.143 45.5071 117.807 45.6804C118.45 45.8481 119.481 45.3871 120.436 44.5046C122.241 42.8361 122.891 42.733 124.413 43.8734C125.466 44.6619 125.412 44.7796 123.043 46.9001C120.813 48.8968 120.545 49.417 120.223 52.378L119.867 55.6497L118.299 53.7887ZM104.166 53.3662C103.512 52.7133 103.755 52.1121 104.927 51.4866C105.833 51.0031 106.136 51.0676 106.419 51.8049C106.89 53.0285 105.083 54.2807 104.166 53.3662ZM235.652 46.2876C235 44.5192 236.572 43.649 238.847 44.5195C240.125 45.0086 239.951 45.5888 238.303 46.3379C236.474 47.1689 235.974 47.1594 235.652 46.2876ZM125.79 43.6155C125.381 42.8527 125.375 42.4905 125.77 42.4905C126.092 42.4905 126.291 42.174 126.213 41.7873C126.135 41.3944 126.508 41.157 127.06 41.2494C127.602 41.3403 128.047 41.1812 128.047 40.8958C128.047 40.6103 128.808 40.0622 129.739 39.6778C130.67 39.2933 131.431 38.8115 131.431 38.6071C131.431 38.4028 132.086 38.1815 132.887 38.1154C133.688 38.0493 134.753 37.7662 135.255 37.4863C135.799 37.1825 136.71 37.1831 137.513 37.4878C138.254 37.7685 139.103 37.848 139.401 37.6645C139.699 37.4809 140.317 37.6406 140.774 38.0193C141.326 38.4758 142.66 38.5995 144.73 38.3864C147.179 38.1344 147.924 38.2445 148.174 38.8956C148.35 39.3525 148.332 39.8878 148.134 40.0852C147.59 40.6276 142.25 41.2128 141.585 40.8028C141.265 40.6056 139.675 40.6662 138.051 40.9374C136.427 41.2086 134.376 41.5023 133.494 41.59C132.612 41.6778 131.724 41.9796 131.52 42.2607C131.316 42.5418 130.515 42.8398 129.739 42.9231C128.963 43.0063 128.047 43.4493 127.702 43.9075C126.871 45.0139 126.511 44.959 125.79 43.6155ZM233.534 44.4925C233.534 44.3561 233.788 44.088 234.098 43.8968C234.409 43.7056 234.662 43.8172 234.662 44.1449C234.662 44.4725 234.409 44.7406 234.098 44.7406C233.788 44.7406 233.534 44.629 233.534 44.4925ZM15.4025 43.499C15.0913 43.099 14.6784 42.3287 14.4848 41.7873C14.2784 41.2098 13.5564 40.8028 12.7383 40.8028C11.9712 40.8028 11.1804 40.5396 10.981 40.2178C10.7458 39.8384 11.1308 39.7609 12.0759 39.9975C13.2795 40.2987 13.5334 40.1662 13.5334 39.2364C13.5334 37.2061 16.3037 37.2253 16.3453 39.2559C16.3501 39.4879 16.75 39.6778 17.2341 39.6778C17.9061 39.6778 18.0729 40.1759 17.9393 41.7826C17.755 43.9978 16.4678 44.8688 15.4025 43.499ZM228.608 42.8133C227.231 42.1776 226.062 39.5682 226.567 38.2556C226.946 37.2701 227.571 37.2161 229.107 38.0357C230.448 38.7514 231.214 38.2636 230.253 37.3057C229.179 36.2343 229.45 36.0277 232.083 35.9099C234.605 35.797 236.256 36.7837 235.524 37.9655C234.952 38.889 233.089 38.652 232.401 37.5683C231.979 36.9029 231.847 36.8573 231.995 37.4276C232.115 37.8917 232.774 38.5526 233.459 38.8962L234.704 39.521L233.132 40.5683C232.267 41.1443 231.338 41.5489 231.068 41.4675C230.797 41.386 230.717 41.6885 230.891 42.1396C231.304 43.2143 230.19 43.5431 228.608 42.8133ZM183.287 39.3408C183.93 38.143 184.457 36.8428 184.457 36.4515C184.457 36.0602 184.711 35.74 185.021 35.74C185.332 35.74 185.585 35.9931 185.585 36.3025C185.585 36.6119 185.857 36.8651 186.19 36.8651C187.172 36.8651 188.539 38.5199 188.227 39.331C188.069 39.7431 187.219 40.2368 186.339 40.428C185.459 40.6193 184.149 40.9429 183.428 41.1472L182.116 41.5187L183.287 39.3408ZM178.675 37.1059C176.746 36.0624 176.602 33.9179 178.378 32.6779C179.979 31.5596 180.722 31.5615 180.29 32.6828C180.034 33.3497 180.213 33.4807 181.029 33.2225C182.318 32.8145 183.027 33.7359 182.446 35.0638C182.216 35.5904 182.082 36.4643 182.15 37.0057C182.301 38.2238 180.82 38.2665 178.675 37.1059ZM236.725 35.3103C236.401 34.7767 237.52 33.8014 238.611 33.6665C239.077 33.609 240.09 33.3736 240.863 33.1435C242.226 32.7377 242.242 32.7644 241.399 34.0307C240.551 35.3036 237.266 36.2029 236.725 35.3103ZM175.243 33.1148C174.558 32.4315 174.854 31.8323 175.714 32.1613C176.179 32.3394 176.56 32.7112 176.56 32.9875C176.56 33.5773 175.783 33.6524 175.243 33.1148ZM176.356 30.9595C175.91 29.8009 176.903 27.8645 177.943 27.8645C178.371 27.8645 178.835 27.548 178.974 27.1613C179.31 26.2224 179.779 26.7121 180.186 28.4282C180.606 30.196 180.052 31.0502 178.182 31.5182C177.104 31.788 176.618 31.6392 176.356 30.9595ZM275.842 28.2059C275.842 28.0843 276.223 27.8391 276.688 27.661C277.154 27.4829 277.534 27.5824 277.534 27.8821C277.534 28.1818 277.154 28.427 276.688 28.427C276.223 28.427 275.842 28.3275 275.842 28.2059ZM149.734 20.5024C149.526 20.1661 149.576 19.6703 149.847 19.4008C150.514 18.7355 151.982 19.704 151.496 20.4886C151.003 21.2837 150.222 21.2898 149.734 20.5024ZM152.867 20.5515C152.867 20.2421 153.39 19.9889 154.029 19.9889C154.668 19.9889 155.033 20.2421 154.842 20.5515C154.65 20.8609 154.127 21.114 153.68 21.114C153.233 21.114 152.867 20.8609 152.867 20.5515ZM148.076 16.6201C147.879 16.3013 148.105 16.207 148.607 16.3991C149.584 16.773 149.763 17.1762 148.952 17.1762C148.66 17.1762 148.266 16.926 148.076 16.6201ZM141.303 14.3635C139.565 13.9224 139.888 13.7306 142.535 13.6322C143.367 13.6013 144.15 13.8798 144.274 14.251C144.521 14.9907 143.872 15.0153 141.303 14.3635ZM140.269 12.3009C140.062 12.0946 139.893 11.7386 139.893 11.5098C139.893 10.9689 142.074 11.5365 142.473 12.1813C142.828 12.7536 140.831 12.8619 140.269 12.3009ZM278.76 10.1333C277.82 8.076 277.935 7.17729 279.227 6.488C280.472 5.82332 280.515 5.90704 280.366 8.73815C280.229 11.3488 279.575 11.9168 278.76 10.1333Z"/>
</mask>
<path d="M287.375 181.249C288.36 180.53 288.363 180.372 287.441 177.603C286.911 176.011 286.026 174.154 285.475 173.475C284.602 172.4 284.57 172.053 285.226 170.792C285.641 169.995 286.238 169.311 286.552 169.273C286.867 169.234 287.602 169.171 288.187 169.132C289.471 169.047 290.105 167.035 289.313 165.559C288.905 164.801 288.938 164.249 289.427 163.662C290.125 162.823 290.105 162.741 288.243 158.814C287.69 157.648 287.673 157.1 288.174 156.498C288.682 155.889 288.637 155.55 287.977 155.004C287.508 154.616 287.124 153.696 287.124 152.96C287.124 152.225 286.931 151.623 286.696 151.623C286.204 151.623 284.582 153.983 284.721 154.496C284.772 154.683 284.185 155.173 283.415 155.583C282.646 155.994 281.869 156.916 281.689 157.633C281.508 158.349 281.153 158.936 280.898 158.936C280.644 158.936 280.07 159.301 279.623 159.746C278.438 160.928 276.674 160.229 275.54 158.128C274.835 156.822 274.126 156.275 273.08 156.23C272.272 156.195 270.648 156.073 269.471 155.958C268.293 155.844 267.209 155.945 267.061 156.183C266.666 156.821 264.624 156.305 263 155.158C260.991 153.737 260.477 153.444 259.201 152.992C258.13 152.613 258.139 152.576 259.393 152.245L260.712 151.896L259.252 150.324C258.448 149.46 257.791 148.512 257.791 148.219C257.791 147.925 257.526 147.685 257.202 147.685C256.878 147.685 255.926 147.04 255.087 146.251C253.658 144.909 253.289 144.836 249.329 145.11C243.262 145.53 242.561 145.651 242.553 146.279C242.549 146.588 241.661 147.413 240.579 148.112C238.342 149.557 238.113 150.479 239.739 151.492C241.001 152.278 241.273 154.931 240.202 155.999C239.835 156.365 239.512 158.37 239.481 160.471C239.433 163.825 239.238 164.479 237.853 165.95L236.279 167.619L233.787 166.726C231.742 165.992 231.117 165.961 230.309 166.55C229.505 167.136 229.043 167.123 227.793 166.478C226.416 165.768 226.059 165.808 224.253 166.87C223.148 167.52 222.098 168.635 221.919 169.347C221.689 170.26 221.048 170.744 219.744 170.988C218.726 171.178 217.445 171.829 216.895 172.435C216.346 173.04 215.636 173.375 215.317 173.178C214.998 172.982 213.277 172.874 211.491 172.938C208.792 173.035 208.053 172.848 207.1 171.829C206.354 171.03 205.547 170.708 204.788 170.906C204.003 171.111 203.433 170.859 203.045 170.136C202.324 168.792 198.332 168.66 195.945 169.902C195.056 170.364 193.86 170.744 193.286 170.746C192.104 170.75 188.97 167.656 188.97 166.485C188.97 165.649 186.18 163.999 184.765 163.999C183.368 163.999 179.714 161.841 179.286 160.764C178.969 159.964 178.888 160.028 178.856 161.105C178.834 161.834 178.182 163.182 177.406 164.101C175.939 165.84 175.555 168.397 176.603 169.443C177.037 169.876 176.793 170.465 175.748 171.508C174.56 172.692 173.94 172.902 172.46 172.623C171.457 172.434 170.33 172.039 169.956 171.747C169.582 171.454 169.045 171.357 168.762 171.531C168.18 171.89 166.759 170.415 166.213 168.885C165.943 168.126 165.379 167.91 164.012 168.041C163.002 168.138 161.921 167.914 161.611 167.543C161.179 167.025 160.322 167.142 157.944 168.044C156.238 168.691 154.12 169.193 153.237 169.16C152.087 169.116 151.718 169.319 151.932 169.877C152.267 170.748 151.384 171.196 148.403 171.666C147.29 171.842 146.205 172.093 145.991 172.223C145.777 172.354 145.016 171.839 144.299 171.079C143.515 170.248 142.216 169.627 141.039 169.52C139.376 169.369 139.004 169.069 138.56 167.515C138.272 166.509 137.693 165.686 137.273 165.686C136.798 165.686 136.508 165.042 136.508 163.99C136.508 162.603 136.146 162.121 134.528 161.351C133.117 160.68 132.374 160.583 131.942 161.014C130.987 161.967 129.208 161.193 128.292 159.427C127.408 157.722 125.79 157.223 125.79 158.655C125.79 159.119 125.41 159.498 124.944 159.498C124.281 159.498 124.098 158.729 124.098 155.944C124.098 153.989 123.7 151.053 123.213 149.419C122.727 147.786 122.446 146.332 122.59 146.189C122.734 146.045 122.243 145.274 121.5 144.474C119.827 142.674 119.816 142.298 121.418 141.785C122.522 141.432 122.397 141.322 120.461 140.946C118.857 140.634 118.02 140.727 117.468 141.278C116.697 142.047 114.551 142.018 112.628 141.212C111.82 140.873 111.757 140.677 112.343 140.316C112.931 139.953 112.851 139.672 111.967 139.006C111.348 138.539 110.532 138.15 110.154 138.14C109.776 138.13 109.613 137.742 109.791 137.278C110.029 136.661 109.721 136.434 108.645 136.434C107.24 136.434 106.68 135.428 107.583 134.528C107.807 134.304 108.046 133.249 108.115 132.184C108.216 130.598 108.04 130.246 107.143 130.246C106.54 130.246 105.553 129.754 104.949 129.152C104.071 128.276 103.511 128.155 102.149 128.544C100.29 129.076 95.236 128.179 89.4055 126.284C87.544 125.679 85.6601 125.183 85.2191 125.183C84.7782 125.184 83.9692 124.779 83.4213 124.285C82.8735 123.79 82.1858 123.533 81.893 123.714C81.025 124.249 80.7097 127.085 81.417 127.996C81.9823 128.724 81.941 128.738 81.116 128.094C79.6133 126.921 77.532 127.461 77.6937 128.983C77.8456 130.411 76.3231 130.737 75.0759 129.543C74.4756 128.969 74.398 129.252 74.6516 131.09C75.3305 136.011 75.3245 136.114 74.3433 136.312C73.8156 136.419 72.8345 135.876 72.1632 135.106C71.4919 134.336 70.6317 133.826 70.2516 133.971C69.3533 134.315 68.4105 133.143 68.1646 131.377C68.0449 130.518 67.5361 129.894 66.8472 129.763C66.23 129.646 65.3786 129.056 64.9554 128.454C64.5232 127.838 63.8209 127.498 63.3533 127.677C62.8955 127.852 61.9064 127.841 61.1555 127.654C60.113 127.393 59.79 126.935 59.79 125.718C59.79 123.77 58.9364 123.119 58.1526 124.469C57.7123 125.227 57.6188 124.822 57.7613 122.773C57.9133 120.586 57.7472 119.973 56.8769 119.509C56.2876 119.194 55.8435 118.634 55.8902 118.263C56.0984 116.608 55.7738 116.122 54.572 116.288C53.624 116.42 53.2579 116.149 53.1254 115.22C52.9676 114.114 52.7024 114.01 50.7279 114.286C49.4246 114.468 48.5079 114.364 48.5079 114.036C48.5079 113.729 47.4291 113.531 46.1105 113.598C44.1512 113.696 43.6812 113.935 43.539 114.903C43.4433 115.555 42.9895 116.232 42.5305 116.407C41.6088 116.76 40.8896 115.485 41.3441 114.304C41.8918 112.88 40.9307 112.309 38.5281 112.631C36.7028 112.875 36.115 113.225 35.8657 114.215C35.5372 115.52 33.2771 116.592 33.2771 115.443C33.2771 115.093 32.8743 115.381 32.382 116.082C31.6995 117.054 31.6399 117.54 32.1312 118.131C32.6303 118.73 32.5459 119.034 31.7571 119.476C30.8001 120.013 30.8182 120.122 32.0561 121.276C32.9554 122.114 33.2712 122.885 33.051 123.703C32.8736 124.363 32.7249 125.219 32.7207 125.606C32.7164 125.992 32.3322 126.309 31.8668 126.309C30.8474 126.309 30.7348 128.316 31.7201 128.924C33.292 129.892 29.5328 130.016 27.2773 129.07C25.2356 128.214 24.7553 128.189 23.4304 128.875C22.5977 129.305 21.7438 129.634 21.5327 129.604C19.7295 129.353 19.1641 129.782 19.2812 131.315C19.3498 132.213 19.0836 133.334 18.6896 133.808C18.0955 134.522 18.1593 134.768 19.0639 135.25C19.6636 135.57 20.3146 135.672 20.5106 135.477C20.7065 135.282 20.8668 135.417 20.8668 135.778C20.8668 136.167 19.9641 136.434 18.6552 136.434C16.2581 136.434 16.4033 136.198 15.4643 141.638C15.1891 143.232 14.8309 143.747 13.9977 143.747C11.6481 143.747 10.7129 142.71 10.7129 140.104C10.7129 138.741 10.4426 137.459 10.1121 137.256C9.78173 137.052 9.55478 136.214 9.60781 135.394C9.85961 131.5 9.58536 130.532 7.97041 129.616C6.64522 128.865 6.30919 128.226 6.05509 125.978C5.8856 124.479 5.46277 123.157 5.11547 123.042C4.26766 122.76 2.81543 119.888 2.81543 118.493C2.81543 117.876 2.33504 117.036 1.74789 116.626C0.835181 115.989 0.631013 114.879 0.340175 108.974L0 102.067L1.36217 103.533C2.56287 104.825 2.86347 104.912 3.89809 104.268C4.84117 103.68 5.29358 103.675 6.20006 104.239C7.21297 104.87 7.32827 104.801 7.32827 103.564C7.32827 102.806 7.58212 102.029 7.89238 101.838C8.20263 101.647 8.45846 101.695 8.46088 101.946C8.46528 102.401 11.1031 103.807 11.9536 103.807C12.8054 103.807 12.4054 102.176 11.418 101.623C10.5456 101.134 10.5343 101.03 11.3208 100.728C12.4304 100.302 15.2257 101.315 15.2257 102.144C15.2257 102.965 17.6256 102.209 18.2153 101.202C18.4634 100.778 19.0346 100.432 19.4846 100.432C19.9345 100.432 20.3027 100.208 20.3027 99.935C20.3027 99.6617 20.8104 99.3057 21.4309 99.1438C22.8239 98.7806 22.9684 95.8836 21.7131 93.4836C21.2517 92.6012 21.0207 91.297 21.1998 90.5853C21.4729 89.5001 21.2557 89.2322 19.8538 88.9251C18.4127 88.6095 18.2004 88.3272 18.3147 86.8781C18.3877 85.9536 18.9917 84.6914 19.6571 84.0733C21.1014 82.7315 21.1264 82.4882 19.9876 80.8668C19.1573 79.6847 19.1878 79.5851 20.536 79.0739C21.3821 78.7531 22.1194 77.9134 22.3462 77.012C22.668 75.7336 22.3925 75.1837 20.6173 73.5615L18.5057 71.6317L20.0738 69.9995C21.9289 68.0686 22.3291 67.992 22.7225 69.4923C22.9389 70.3173 23.492 70.6174 24.796 70.6174C25.9522 70.6174 26.4394 70.3996 26.1886 69.9949C25.6476 69.1219 27.0472 64.9603 28.3881 63.4547C29.0034 62.7639 29.9743 62.0507 30.5458 61.8698C31.6282 61.5272 32.0096 59.1323 31.0736 58.5554C30.7925 58.3822 30.6877 57.7629 30.8407 57.1794C30.9938 56.5958 30.843 55.9483 30.5057 55.7404C29.5899 55.176 29.7657 53.7412 30.7507 53.7412C31.2227 53.7412 31.8981 53.1084 32.2515 52.3349C32.6049 51.5614 33.2341 50.9285 33.6497 50.9285C34.0653 50.9285 34.4053 50.6843 34.4053 50.3858C34.4053 50.0873 34.9515 49.5515 35.619 49.1953C36.6529 48.6435 36.7809 48.6823 36.4829 49.4567C36.0163 50.6692 36.9728 50.6184 37.899 49.3815C38.3044 48.8401 39.8538 47.825 41.3422 47.1258C44.2831 45.7442 45.68 45.9998 46.8225 48.1287C47.8344 50.0142 48.5479 49.4073 48.1604 46.9908C47.9097 45.4274 48.004 44.7406 48.4691 44.7406C48.8373 44.7406 48.9649 44.4604 48.7526 44.1178C48.5008 43.7114 48.7343 43.6104 49.4245 43.827C51.6671 44.531 56.666 45.3032 58.9806 45.3032C61.4003 45.3032 63.5115 44.0517 62.8614 43.0026C62.2597 42.0319 63.22 40.3128 64.4705 40.122C65.154 40.0177 65.6497 39.6219 65.5721 39.2425C65.4945 38.8631 65.9388 38.5527 66.5593 38.5527C67.256 38.5527 67.6892 38.1762 67.6919 37.5683C67.6961 36.6199 69.9657 35.1775 71.4536 35.1775C71.85 35.1775 72.6209 34.4813 73.1667 33.6305C74.5352 31.4974 75.624 30.7175 77.2773 30.6864C79.253 30.6493 79.8984 30.0985 80.3386 28.0739C80.6611 26.591 81.0402 26.2628 82.7504 25.9861C84.2419 25.7447 85.1852 25.9457 86.3101 26.7445C87.1518 27.3422 87.9661 27.706 88.1196 27.553C88.273 27.3999 88.7357 27.6799 89.1478 28.175C89.6382 28.7643 89.6976 29.2062 89.3198 29.4543C88.5618 29.952 87.9587 32.3648 88.5923 32.3648C88.8626 32.3648 89.3884 32.9324 89.7607 33.6261C90.5927 35.1764 90.4455 46.9239 89.581 47.9627C89.2557 48.3535 88.0403 48.9568 86.88 49.3035C85.1424 49.8227 84.528 49.7754 83.3955 49.0354C81.3331 47.6879 79.5032 41.991 79.5215 36.9748C79.5273 35.3692 78.5647 35.8638 77.7128 37.9042C76.9047 39.8398 76.8671 39.9896 76.7837 41.6087C76.7376 42.5038 76.2741 43.11 75.4439 43.361C73.2601 44.0214 71.6362 45.9231 71.6362 47.8201C71.6362 48.7872 71.3316 49.8822 70.9593 50.2535C70.5138 50.6978 70.4913 50.9285 70.8935 50.9285C71.2296 50.9285 71.6374 51.4348 71.7997 52.0536C72.1291 53.3098 73.5808 53.5565 74.2824 52.4755C74.5334 52.0888 74.7388 51.145 74.7388 50.3782C74.7388 49.5081 75.1039 48.9123 75.7102 48.793C76.4859 48.6404 76.6672 48.9851 76.61 50.5032C76.4659 54.3253 79.119 56.2206 80.2168 53.0799C80.8075 51.3904 80.8302 51.3824 83.9585 51.7722C85.8609 52.0092 87.3778 52.5318 87.7932 53.0934C88.1778 53.6133 88.2479 54.1056 87.9523 54.2112C87.0668 54.5275 87.9883 55.4288 89.197 55.4288C90.555 55.4288 91.7446 54.3492 92.0299 52.8576C92.1461 52.2501 92.7888 51.6938 93.4898 51.594C94.1785 51.496 95.2293 50.798 95.8248 50.043C96.5095 49.175 97.2395 48.7973 97.8104 49.0158C98.8681 49.4205 98.9102 49.7762 98.1398 51.7969C97.7057 52.9355 97.3901 53.1551 96.8412 52.7008C95.5697 51.6485 93.7718 52.5656 93.5011 54.4045C93.1773 56.6047 94.4311 57.9034 96.4048 57.4125C99.9299 56.5356 104.507 56.9321 105.91 58.2358C106.613 58.8888 107.259 59.1232 107.46 58.7984C107.65 58.4921 108.338 58.2415 108.988 58.2415C110.131 58.2415 110.136 58.2787 109.159 59.3561C108.311 60.29 108.267 60.6149 108.888 61.3611C109.34 61.9043 110.11 62.1314 110.861 61.9433C111.641 61.7483 112.43 62.0056 113.008 62.6433C113.578 63.2708 114.584 63.6059 115.674 63.5307C117.249 63.422 117.391 63.542 117.093 64.7252C116.813 65.8406 116.959 66.0196 118.057 65.903C119.92 65.7048 120.713 65.0819 120.713 63.8161C120.713 61.7996 122.28 61.98 124.362 64.2362C126.336 66.3754 127.29 68.1846 126.735 68.7378C126.577 68.8949 126.943 69.5166 127.547 70.1193C128.152 70.722 128.797 71.9666 128.981 72.8851C129.165 73.8036 129.634 74.5552 130.022 74.5552C131.184 74.5552 132.115 73.0058 131.713 71.7425C131.506 71.0906 131.642 70.1981 132.018 69.7466C132.498 69.1702 132.511 68.9298 132.064 68.9298C131.069 68.9298 131.323 67.2759 132.56 65.708C133.18 64.9214 133.688 63.679 133.688 62.9473C133.688 62.0033 134.007 61.6168 134.787 61.6168C135.392 61.6168 137.096 60.4776 138.574 59.0853C140.052 57.6931 141.318 56.5539 141.387 56.5539C141.455 56.5539 142.163 56.8008 142.959 57.1025C144.913 57.8434 144.84 59.7378 142.763 62.2006C141.571 63.6138 141.199 64.5474 141.405 65.6031C141.581 66.5048 141.348 67.3985 140.791 67.9537C140.297 68.4463 139.893 69.0731 139.893 69.3465C139.893 69.6199 139.38 70.9022 138.753 72.1961C138.034 73.681 137.744 75.0665 137.967 75.953C138.222 76.9676 138.06 77.457 137.382 77.7165C136.866 77.914 136.58 78.4307 136.747 78.8648C136.934 79.3513 136.514 79.8575 135.651 80.1846C134.882 80.4764 134.252 80.9561 134.252 81.2505C134.252 81.5449 133.431 82.1942 132.427 82.6933C130.73 83.5378 130.553 83.5332 129.889 82.627C129.496 82.0914 129.175 81.8591 129.175 82.1108C129.175 82.3625 128.794 82.2533 128.329 81.8682C127.816 81.4441 127.483 81.3988 127.483 81.7533C127.483 83.1864 128.322 84.2178 130.086 84.9529C131.802 85.6677 132.238 85.6355 134.529 84.6249C137.845 83.1624 140.147 80.9932 140.289 79.1976C140.438 77.306 141.047 76.7702 142.588 77.1722C144.031 77.5483 144.879 79.9336 143.913 80.8968C143.126 81.6815 143.072 84.1183 143.842 84.1183C144.152 84.1183 144.938 84.6496 145.59 85.2989L146.774 86.4795L146.354 85.1604C146.123 84.4349 145.53 83.5468 145.036 83.1868C144.22 82.5917 144.228 82.4343 145.118 81.4528C145.657 80.859 146.098 79.8255 146.098 79.1561C146.098 77.6832 143.98 75.121 142.753 75.1091C142.266 75.1043 141.54 74.8935 141.14 74.6405C140.231 74.0651 141.096 71.4998 142.817 69.6675C143.647 68.7837 143.91 67.8961 143.749 66.5213C143.526 64.614 144.282 63.3044 145.607 63.3044C145.983 63.3044 146.819 62.8614 147.464 62.3199C148.606 61.3609 148.614 61.3646 147.76 62.4606C147.278 63.0794 146.815 64.4052 146.731 65.407C146.607 66.893 146.846 67.3498 148.031 67.8881C148.829 68.2509 149.483 68.7603 149.483 69.0201C149.483 69.2798 149.855 69.4923 150.311 69.4923C151.374 69.4923 150.792 67.8022 149.379 66.7883C148.14 65.899 148.029 64.4295 149.201 64.4295C149.666 64.4295 150.047 64.6826 150.047 64.992C150.047 65.3014 150.457 65.5545 150.959 65.5545C151.582 65.5545 151.781 65.2108 151.586 64.4692C151.378 63.6755 151.577 63.4045 152.327 63.4609C152.892 63.5033 153.229 63.7385 153.077 63.9837C152.925 64.2289 153.192 64.4295 153.669 64.4295C154.147 64.4295 154.698 65.0645 154.893 65.8407C155.109 66.696 155.779 67.3848 156.596 67.5893C158.239 68.0004 158.34 68.6952 156.816 69.0928C156.046 69.2937 155.688 69.8601 155.688 70.8792C155.688 71.821 155.917 72.2304 156.308 71.989C156.676 71.7621 156.628 72.1487 156.188 72.9403C155.781 73.6738 155.529 74.527 155.627 74.8364C155.841 75.5086 156.149 76.9206 156.209 77.5085C156.272 78.1277 157.944 78.0242 157.944 77.401C157.944 77.1099 157.7 76.7212 157.402 76.5373C157.054 76.3232 157.054 75.6909 157.402 74.7799C157.7 73.9972 157.944 72.5972 157.944 71.6689C157.944 70.7405 158.222 69.4641 158.561 68.8324C159.006 68.0018 159.006 67.5138 158.561 67.0693C158.222 66.7312 157.944 66.0901 157.944 65.6447C157.944 65.1992 157.566 64.5537 157.105 64.2102C156.502 63.7618 156.361 63.0036 156.607 61.5224L156.949 59.4593L160.831 59.5536C163.568 59.6201 164.713 59.8611 164.713 60.3708C164.713 60.9027 164.992 60.945 165.768 60.531C166.567 60.1047 166.792 59.4243 166.696 57.7274C166.611 56.2203 166.831 55.3865 167.369 55.1805C167.81 55.0121 168.029 54.6471 167.857 54.3695C167.41 53.6481 171.045 52.0536 173.137 52.0536C174.186 52.0536 175.035 51.7112 175.227 51.2098C175.588 50.2718 177.124 50.0441 177.124 50.9285C177.124 51.2379 177.581 51.4911 178.14 51.4911C179.4 51.4911 182.19 50.2336 182.196 49.6628C182.199 49.4308 182.791 49.2409 183.513 49.2409C184.638 49.2409 184.792 49.0095 184.588 47.6255C184.286 45.5739 187.005 42.6897 188.261 43.7292C188.882 44.2431 188.888 44.4475 188.292 44.8316C187.706 45.2091 187.728 45.4136 188.406 45.8571C188.871 46.1617 189.569 46.4149 189.957 46.4196C190.345 46.4244 190.662 46.9345 190.662 47.5533C190.662 48.8686 191.679 49.0607 192.151 47.8346C192.653 46.528 195.147 46.8357 197.295 48.4693C198.788 49.605 199.062 50.0639 198.476 50.4488C197.856 50.8563 197.898 51.0909 198.701 51.7044C200.119 52.7881 199.939 53.5518 197.719 55.8883C196.635 57.0279 195.747 58.2227 195.744 58.5435C195.741 58.8643 194.597 60.3327 193.201 61.8066C191.805 63.2805 190.67 64.79 190.68 65.1611C190.69 65.5395 191.027 65.4034 191.448 64.8514C191.86 64.3099 192.723 63.8669 193.366 63.8669C194.053 63.8669 194.688 63.3864 194.906 62.7012C195.125 62.0139 195.597 61.6577 196.056 61.8335C196.484 61.9974 197.205 61.7625 197.657 61.3116C198.725 60.2462 200.606 60.2596 201.02 61.3355C201.199 61.7996 201.622 62.1793 201.96 62.1793C202.298 62.1793 202.435 61.9538 202.265 61.6783C201.809 60.943 204.49 59.3666 206.196 59.3666C207.004 59.3666 208.047 59.7463 208.512 60.2104C209.602 61.2976 212.264 61.2888 214.392 60.1911C215.819 59.4551 215.978 59.1634 215.466 58.2106C214.637 56.6654 215.239 55.9709 217.088 56.3396C218.125 56.5465 218.896 56.354 219.386 55.7654C220.05 54.9668 220.286 54.9959 221.787 56.0619C222.749 56.7446 223.325 57.5735 223.152 58.024C222.98 58.4708 223.206 58.8041 223.68 58.8041C224.628 58.8041 224.788 59.6902 223.935 60.2161C223.111 60.7244 223.908 61.7512 224.848 61.3915C225.361 61.195 225.637 61.4813 225.637 62.2109C225.637 62.9055 226.227 63.5734 227.188 63.966C229.387 64.8642 231.039 64.8005 230.793 63.8271C230.682 63.3849 230.504 62.1949 230.398 61.1826C230.237 59.637 230.35 59.4223 231.104 59.8433C232.4 60.5665 234.098 59.9664 234.098 58.7853C234.098 57.4924 235.157 57.1296 236.793 57.8616C238.416 58.5873 240.001 57.4239 238.606 56.5305C237.907 56.0824 237.973 55.9344 238.997 55.6543C240.098 55.3529 240.159 55.1596 239.572 53.8261C239.211 53.0059 238.684 52.1706 238.399 51.9697C238.115 51.7689 238.087 51.1361 238.337 50.5634C238.586 49.9907 238.764 49.3734 238.731 49.1915C238.699 49.0097 239.737 48.3192 241.039 47.6571C243.009 46.6553 243.437 46.5928 243.589 47.2846C243.81 48.2948 244.794 48.393 244.873 47.4127C244.904 47.0259 245.105 47.3424 245.321 48.1158C245.929 50.2963 246.772 49.778 246.966 47.1047C247.109 45.1227 247.395 44.5907 248.554 44.1514C250.628 43.3648 251.138 43.4884 250.757 44.6854C250.442 45.6741 250.596 45.7149 252.788 45.2239C254.092 44.9317 255.537 44.8371 255.999 45.0138C256.924 45.3679 259.483 43.2677 259.483 42.1543C259.483 41.7679 260.14 40.6729 260.944 39.7209C262.158 38.2819 262.813 37.9902 264.832 37.9902C266.47 37.9902 267.366 38.2648 267.585 38.834C268.284 40.6506 272.667 39.2607 272.424 37.2996C272.233 35.7615 273.241 33.9415 274.56 33.4412C275.321 33.1526 276.236 32.1458 276.592 31.2039C277.053 29.9861 277.527 29.5661 278.233 29.7502C278.779 29.8925 279.381 29.7576 279.572 29.4503C279.762 29.143 280.388 29.014 280.962 29.1637C281.536 29.3134 282.3 29.0824 282.66 28.6502C283.593 27.5285 282.329 26.1768 280.346 26.1768C278.123 26.1768 277.889 24.8316 279.764 22.8304C280.648 21.8864 281.256 21.114 281.113 21.114C280.971 21.114 281.314 20.3018 281.874 19.3091C283.42 16.571 285.603 14.8396 290.791 12.2356C291.722 11.7684 292.911 11.0187 293.435 10.5696C293.958 10.1205 294.63 9.90294 294.927 10.0862C295.224 10.2694 295.623 10.0148 295.814 9.52036C296.024 8.97417 296.514 8.7572 297.064 8.96744C297.734 9.2239 297.875 9.07288 297.61 8.38398C297.295 7.56368 297.652 7.49059 300.65 7.76171C303.338 8.00479 304.047 7.9039 304.047 7.27847C304.047 6.81033 303.472 6.488 302.637 6.488C301 6.488 300.892 6.17934 302.105 4.96894C302.589 4.48705 302.855 3.75867 302.698 3.35031C302.534 2.92341 302.94 2.44467 303.653 2.22396C304.335 2.01283 305.592 1.34978 306.445 0.750509C308.076 -0.395225 308.016 -0.442149 308.222 2.12833C308.253 2.51507 308.532 3.02136 308.842 3.25341C309.197 3.51851 309.098 3.87301 308.577 4.20726C308.12 4.49983 307.882 4.87382 308.047 5.03835C308.346 5.33724 310.443 5.80472 311.837 5.88366C312.253 5.90722 312.398 6.21265 312.168 6.5836C311.893 7.02612 312.067 7.12405 312.698 6.88252C313.311 6.64798 313.637 6.81002 313.637 7.34946C313.637 7.80385 313.383 8.17562 313.073 8.17562C312.763 8.17562 312.561 8.36548 312.626 8.59752C312.69 8.82957 311.989 9.80448 311.068 10.764C309.714 12.1741 309.208 12.3922 308.427 11.9015C307.669 11.4245 307.282 11.5328 306.619 12.4071C306.155 13.019 305.767 14.0893 305.758 14.7854C305.744 15.7475 305.409 16.0512 304.363 16.0512C303.605 16.0512 302.829 15.798 302.637 15.4886C302.118 14.6513 301.393 14.807 300.995 15.8414C300.559 16.9745 302.264 18.3674 303.598 17.9677C304.291 17.76 304.885 18.3173 305.729 19.9674C307.01 22.4713 306.688 23.9434 304.62 25.0475C303.925 25.4184 303.654 25.965 303.877 26.5456C304.201 27.3875 304.282 27.3869 304.905 26.537C305.278 26.0295 306.125 25.6143 306.789 25.6143C307.453 25.6143 307.996 25.3441 307.996 25.0139C307.996 24.3137 310.347 24.9125 310.887 25.7502C311.109 26.094 311.379 26.0726 311.614 25.6923C312.094 24.9189 316.048 25.0314 316.573 25.8334C317.039 26.5465 314.909 28.9895 313.821 28.9895C312.891 28.9895 312.833 29.9411 313.745 30.2441C314.162 30.3829 314.473 32.0178 314.567 34.5708C314.65 36.8278 314.99 39.4959 315.322 40.5C315.655 41.5041 316.025 42.8375 316.146 43.463C316.267 44.0885 316.62 45.5179 316.93 46.6394C317.465 48.572 317.424 48.6784 316.145 48.6784C314.464 48.6784 313.103 51.083 312.978 54.2746C312.901 56.2163 312.768 56.4399 312.043 55.8433C311.309 55.2385 311.24 55.4601 311.518 57.5384C311.751 59.2788 311.64 59.9292 311.111 59.9292C309.898 59.9292 309.64 62.3153 310.695 63.7721C311.227 64.5073 312.297 66.2827 313.073 67.7174C314.478 70.3162 316.458 71.5429 316.458 69.8148C316.458 69.328 316.868 68.9298 317.37 68.9298C317.991 68.9298 318.191 69.2737 317.998 70.01C317.787 70.8146 318.094 71.197 319.202 71.5086C320.019 71.7387 320.905 71.8767 321.17 71.8153C321.435 71.7539 322.133 71.856 322.721 72.0422C323.988 72.443 324.165 73.9926 322.945 73.9926C322.479 73.9926 322.099 74.4648 322.099 75.0418C322.099 76.5524 324.246 79.0555 325.542 79.0555C326.865 79.0555 327.583 80.5617 326.686 81.4559C326.335 81.8064 326.047 83.0196 326.047 84.152C326.047 85.6683 326.404 86.4779 327.401 87.2242C328.687 88.1876 328.716 88.3439 327.99 90.397C327.382 92.1156 327.372 92.5564 327.941 92.5564C328.878 92.5564 331.124 97.7201 331.124 99.8747C331.124 102.087 329.67 102.11 327.609 99.9322C326.763 99.0386 324.991 97.7461 323.671 97.06C318.967 94.6153 310.253 86.5912 310.253 84.7054C310.253 83.206 309.074 80.7431 308.357 80.7431C308.001 80.7431 308.037 80.4772 308.447 80.068C309.449 79.0697 309.32 73.1671 308.278 72.305C307.813 71.9198 307.432 71.1443 307.432 70.5817C307.432 70.0191 307.166 69.3947 306.841 69.1942C306.428 68.9401 306.429 68.6133 306.843 68.1157C307.267 67.6064 307.158 66.6493 306.462 64.7765C305.65 62.5916 305.607 61.9575 306.209 60.9961C307.03 59.685 306.688 59.0256 303.86 56.4769C302.841 55.5585 302.214 54.4336 302.214 53.5236C302.214 51.8271 301.4 51.6185 300.32 53.038C299.274 54.4119 299.356 55.2849 300.663 56.6835C301.302 57.3673 301.791 58.6687 301.791 59.6836C301.791 60.6695 301.946 62.2489 302.135 63.1934C302.413 64.5763 302.3 64.8844 301.558 64.7757C301.05 64.7015 300.246 64.0869 299.771 63.41C298.772 61.9877 297.842 61.8012 297.842 63.0231C297.842 63.4872 297.438 63.8669 296.943 63.8669C296.449 63.8669 295.912 64.3732 295.749 64.992C295.587 65.6108 295.25 66.1171 295.001 66.1171C294.201 66.1171 293.754 69.4912 294.444 70.3203C294.802 70.7504 295.241 72.5753 295.418 74.3757C295.596 76.1761 296.106 78.368 296.551 79.2466C297.328 80.7815 297.402 80.8056 298.447 79.8626C299.084 79.2876 299.535 79.1517 299.535 79.5345C299.535 79.8939 298.9 80.7382 298.124 81.4108C297.349 82.0833 296.714 82.9847 296.714 83.4138C296.714 83.9267 296.344 84.0769 295.633 83.8521C295.039 83.6639 294.404 83.7497 294.222 84.0426C294.041 84.3355 293.385 84.4429 292.765 84.2812C291.981 84.0767 291.637 84.2642 291.637 84.8965C291.637 85.3967 291.447 85.7759 291.214 85.7393C289.537 85.4752 288.756 85.9678 288.452 87.4809C288.107 89.2041 287.334 90.087 285.231 91.161C284.566 91.5005 284.058 92.2154 284.103 92.7497C284.16 93.4214 283.985 93.5555 283.537 93.1843C283.096 92.8197 282.217 93.2609 280.796 94.5601C277.631 97.4522 276.787 99.0017 277.196 101.173C277.389 102.202 277.357 103.234 277.123 103.468C276.889 103.701 276.652 105.152 276.596 106.692C276.541 108.232 276.223 109.818 275.892 110.217C275.56 110.615 275.314 112.593 275.344 114.611C275.374 116.63 275.118 118.805 274.774 119.445C274.431 120.086 274.15 121.244 274.15 122.019C274.15 122.795 273.896 123.586 273.586 123.777C273.275 123.968 273.022 124.616 273.022 125.217C273.022 126.05 273.414 126.309 274.681 126.309C275.593 126.309 276.495 126.057 276.686 125.75C276.877 125.442 277.641 125.883 278.393 126.735C279.485 127.972 279.759 128.082 279.773 127.293C279.795 126.097 280.919 125.959 280.919 127.152C280.919 127.617 281.3 127.996 281.765 127.996C282.231 127.996 282.611 127.617 282.611 127.152C282.611 126.688 282.992 126.309 283.458 126.309C284.421 126.309 284.605 124.873 283.712 124.323C282.616 123.647 284.405 122.252 285.964 122.566C289.383 123.254 291.128 123.805 291.11 124.19C291.1 124.417 291.998 125.506 293.106 126.611C294.372 127.874 294.995 128.942 294.784 129.491C294.338 130.649 295.511 134.455 296.709 135.736C297.233 136.298 298.341 138.105 299.171 139.753C300.675 142.739 300.679 142.78 300.427 152.952C300.16 163.731 300.008 165.593 299.302 166.731C299.061 167.12 299.013 168.029 299.195 168.751C299.622 170.448 297.612 175 295.665 176.745C294.424 177.857 293.777 178.026 291.79 177.757L289.404 177.434L289.038 179.717C288.748 181.53 288.433 182 287.508 182C286.399 182 286.393 181.965 287.375 181.249ZM314.533 153.267C313.682 152.314 313.125 151.175 313.294 150.735C313.463 150.295 313.374 149.935 313.097 149.935C312.521 149.935 310.817 146.751 310.817 145.676C310.817 145.284 309.958 144.435 308.909 143.788C307.859 143.142 306.668 141.792 306.262 140.789C305.856 139.786 304.662 137.827 303.609 136.434C302.555 135.042 301.347 133.08 300.925 132.075C300.412 130.855 299.771 130.246 298.999 130.246C297.842 130.246 295.586 128.433 295.586 127.503C295.586 127.231 295.205 126.694 294.74 126.309C294.274 125.924 293.893 125.216 293.893 124.737C293.893 124.258 293.459 123.387 292.929 122.803C292.179 121.976 292.123 121.642 292.679 121.299C293.685 120.679 292.871 117.793 291.596 117.46C291.012 117.308 290.715 116.866 290.89 116.409C291.361 115.186 292.173 115.474 292.786 117.081C293.092 117.885 293.848 118.674 294.464 118.834C295.081 118.995 295.586 119.485 295.586 119.923C295.586 120.36 296.03 120.877 296.573 121.07C298.302 121.684 299.021 122.476 298.462 123.149C297.792 123.956 299.286 125.791 301.368 126.719C302.221 127.099 302.919 127.668 302.919 127.984C302.919 128.3 303.197 128.559 303.538 128.559C303.878 128.559 305.718 129.925 307.627 131.595C309.537 133.266 311.987 135.017 313.073 135.487L315.047 136.343L312.35 136.388C309.067 136.444 308.723 137.074 309.971 140.742C311.226 144.427 312.965 147.119 314.106 147.141C314.624 147.15 315.542 147.531 316.146 147.987C316.75 148.443 317.66 148.684 318.167 148.524C319.39 148.136 320.839 151.009 319.757 151.675C319.368 151.915 318.82 151.97 318.54 151.797C318.259 151.624 318.374 151.265 318.795 150.999C319.358 150.643 319.374 150.513 318.855 150.506C317.638 150.492 315.976 152.536 316.516 153.385C317.91 155.58 316.526 155.498 314.533 153.267ZM311.989 151.389C311.965 150.796 312.098 150.463 312.286 150.65C312.473 150.837 312.493 151.322 312.33 151.728C312.15 152.177 312.016 152.044 311.989 151.389ZM327.74 148.983C327.74 147.383 328.018 146.574 328.65 146.332C329.426 146.035 329.503 146.295 329.17 148.1C328.599 151.2 327.74 151.73 327.74 148.983ZM329.824 145.076C329.03 144.284 329.399 139.38 330.278 139.044C330.744 138.866 331.124 138.332 331.124 137.858C331.124 137.385 331.378 136.997 331.689 136.997C332.458 136.997 332.399 137.636 331.412 139.991C330.95 141.094 330.717 142.375 330.895 142.838C331.274 143.821 330.399 145.649 329.824 145.076ZM332.856 133.796C332.835 132.808 333.071 131.844 333.381 131.653C334.057 131.236 334.057 132.895 333.381 134.465C332.972 135.414 332.89 135.309 332.856 133.796ZM334.598 125.184C334.598 124.41 334.726 124.094 334.883 124.48C335.039 124.867 335.039 125.5 334.883 125.887C334.726 126.274 334.598 125.957 334.598 125.184ZM278.381 122.371C278.189 122.062 278.301 121.808 278.629 121.808C278.958 121.808 279.227 122.062 279.227 122.371C279.227 122.68 279.115 122.933 278.978 122.933C278.841 122.933 278.572 122.68 278.381 122.371ZM332.517 115.03C331.999 114.194 332.411 113.898 333.316 114.456C333.801 114.755 333.859 115.044 333.48 115.278C333.158 115.476 332.725 115.365 332.517 115.03ZM331.689 111.12C331.689 110.811 331.942 110.558 332.253 110.558C332.563 110.558 332.817 110.811 332.817 111.12C332.817 111.43 332.563 111.683 332.253 111.683C331.942 111.683 331.689 111.43 331.689 111.12ZM331.078 108.026C331.03 107.717 331.024 107.264 331.065 107.019C331.106 106.774 330.894 106.117 330.594 105.558C330.225 104.87 330.259 104.333 330.699 103.893C331.511 103.084 332.447 103.038 331.955 103.832C331.755 104.155 331.846 104.725 332.157 105.099C332.543 105.563 332.475 106.227 331.944 107.184C331.515 107.957 331.125 108.336 331.078 108.026ZM294.458 85.5579C294.458 85.4214 294.711 85.1533 295.022 84.9621C295.332 84.7709 295.586 84.8825 295.586 85.2102C295.586 85.5378 295.332 85.8059 295.022 85.8059C294.711 85.8059 294.458 85.6943 294.458 85.5579ZM120.713 59.9292C120.713 59.001 120.967 58.2415 121.277 58.2415C121.588 58.2415 121.842 59.001 121.842 59.9292C121.842 60.8573 121.588 61.6168 121.277 61.6168C120.967 61.6168 120.713 60.8573 120.713 59.9292ZM198.884 57.7471C198.709 57.4651 198.946 57.0892 199.409 56.9118C199.873 56.7344 200.252 56.8195 200.252 57.1009C200.252 57.8635 199.25 58.337 198.884 57.7471ZM143.358 55.4811C142.791 55.1295 142.764 54.9015 143.255 54.599C144.029 54.122 144.61 54.5443 144.323 55.3757C144.206 55.7161 143.808 55.7597 143.358 55.4811ZM118.299 53.7887C117.078 52.3397 116.874 51.7565 117.375 51.1542C118.216 50.1439 117.552 47.5533 116.452 47.5533C115.785 47.5533 115.724 47.3168 116.173 46.479C116.536 45.804 117.143 45.5071 117.807 45.6804C118.45 45.8481 119.481 45.3871 120.436 44.5046C122.241 42.8361 122.891 42.733 124.413 43.8734C125.466 44.6619 125.412 44.7796 123.043 46.9001C120.813 48.8968 120.545 49.417 120.223 52.378L119.867 55.6497L118.299 53.7887ZM104.166 53.3662C103.512 52.7133 103.755 52.1121 104.927 51.4866C105.833 51.0031 106.136 51.0676 106.419 51.8049C106.89 53.0285 105.083 54.2807 104.166 53.3662ZM235.652 46.2876C235 44.5192 236.572 43.649 238.847 44.5195C240.125 45.0086 239.951 45.5888 238.303 46.3379C236.474 47.1689 235.974 47.1594 235.652 46.2876ZM125.79 43.6155C125.381 42.8527 125.375 42.4905 125.77 42.4905C126.092 42.4905 126.291 42.174 126.213 41.7873C126.135 41.3944 126.508 41.157 127.06 41.2494C127.602 41.3403 128.047 41.1812 128.047 40.8958C128.047 40.6103 128.808 40.0622 129.739 39.6778C130.67 39.2933 131.431 38.8115 131.431 38.6071C131.431 38.4028 132.086 38.1815 132.887 38.1154C133.688 38.0493 134.753 37.7662 135.255 37.4863C135.799 37.1825 136.71 37.1831 137.513 37.4878C138.254 37.7685 139.103 37.848 139.401 37.6645C139.699 37.4809 140.317 37.6406 140.774 38.0193C141.326 38.4758 142.66 38.5995 144.73 38.3864C147.179 38.1344 147.924 38.2445 148.174 38.8956C148.35 39.3525 148.332 39.8878 148.134 40.0852C147.59 40.6276 142.25 41.2128 141.585 40.8028C141.265 40.6056 139.675 40.6662 138.051 40.9374C136.427 41.2086 134.376 41.5023 133.494 41.59C132.612 41.6778 131.724 41.9796 131.52 42.2607C131.316 42.5418 130.515 42.8398 129.739 42.9231C128.963 43.0063 128.047 43.4493 127.702 43.9075C126.871 45.0139 126.511 44.959 125.79 43.6155ZM233.534 44.4925C233.534 44.3561 233.788 44.088 234.098 43.8968C234.409 43.7056 234.662 43.8172 234.662 44.1449C234.662 44.4725 234.409 44.7406 234.098 44.7406C233.788 44.7406 233.534 44.629 233.534 44.4925ZM15.4025 43.499C15.0913 43.099 14.6784 42.3287 14.4848 41.7873C14.2784 41.2098 13.5564 40.8028 12.7383 40.8028C11.9712 40.8028 11.1804 40.5396 10.981 40.2178C10.7458 39.8384 11.1308 39.7609 12.0759 39.9975C13.2795 40.2987 13.5334 40.1662 13.5334 39.2364C13.5334 37.2061 16.3037 37.2253 16.3453 39.2559C16.3501 39.4879 16.75 39.6778 17.2341 39.6778C17.9061 39.6778 18.0729 40.1759 17.9393 41.7826C17.755 43.9978 16.4678 44.8688 15.4025 43.499ZM228.608 42.8133C227.231 42.1776 226.062 39.5682 226.567 38.2556C226.946 37.2701 227.571 37.2161 229.107 38.0357C230.448 38.7514 231.214 38.2636 230.253 37.3057C229.179 36.2343 229.45 36.0277 232.083 35.9099C234.605 35.797 236.256 36.7837 235.524 37.9655C234.952 38.889 233.089 38.652 232.401 37.5683C231.979 36.9029 231.847 36.8573 231.995 37.4276C232.115 37.8917 232.774 38.5526 233.459 38.8962L234.704 39.521L233.132 40.5683C232.267 41.1443 231.338 41.5489 231.068 41.4675C230.797 41.386 230.717 41.6885 230.891 42.1396C231.304 43.2143 230.19 43.5431 228.608 42.8133ZM183.287 39.3408C183.93 38.143 184.457 36.8428 184.457 36.4515C184.457 36.0602 184.711 35.74 185.021 35.74C185.332 35.74 185.585 35.9931 185.585 36.3025C185.585 36.6119 185.857 36.8651 186.19 36.8651C187.172 36.8651 188.539 38.5199 188.227 39.331C188.069 39.7431 187.219 40.2368 186.339 40.428C185.459 40.6193 184.149 40.9429 183.428 41.1472L182.116 41.5187L183.287 39.3408ZM178.675 37.1059C176.746 36.0624 176.602 33.9179 178.378 32.6779C179.979 31.5596 180.722 31.5615 180.29 32.6828C180.034 33.3497 180.213 33.4807 181.029 33.2225C182.318 32.8145 183.027 33.7359 182.446 35.0638C182.216 35.5904 182.082 36.4643 182.15 37.0057C182.301 38.2238 180.82 38.2665 178.675 37.1059ZM236.725 35.3103C236.401 34.7767 237.52 33.8014 238.611 33.6665C239.077 33.609 240.09 33.3736 240.863 33.1435C242.226 32.7377 242.242 32.7644 241.399 34.0307C240.551 35.3036 237.266 36.2029 236.725 35.3103ZM175.243 33.1148C174.558 32.4315 174.854 31.8323 175.714 32.1613C176.179 32.3394 176.56 32.7112 176.56 32.9875C176.56 33.5773 175.783 33.6524 175.243 33.1148ZM176.356 30.9595C175.91 29.8009 176.903 27.8645 177.943 27.8645C178.371 27.8645 178.835 27.548 178.974 27.1613C179.31 26.2224 179.779 26.7121 180.186 28.4282C180.606 30.196 180.052 31.0502 178.182 31.5182C177.104 31.788 176.618 31.6392 176.356 30.9595ZM275.842 28.2059C275.842 28.0843 276.223 27.8391 276.688 27.661C277.154 27.4829 277.534 27.5824 277.534 27.8821C277.534 28.1818 277.154 28.427 276.688 28.427C276.223 28.427 275.842 28.3275 275.842 28.2059ZM149.734 20.5024C149.526 20.1661 149.576 19.6703 149.847 19.4008C150.514 18.7355 151.982 19.704 151.496 20.4886C151.003 21.2837 150.222 21.2898 149.734 20.5024ZM152.867 20.5515C152.867 20.2421 153.39 19.9889 154.029 19.9889C154.668 19.9889 155.033 20.2421 154.842 20.5515C154.65 20.8609 154.127 21.114 153.68 21.114C153.233 21.114 152.867 20.8609 152.867 20.5515ZM148.076 16.6201C147.879 16.3013 148.105 16.207 148.607 16.3991C149.584 16.773 149.763 17.1762 148.952 17.1762C148.66 17.1762 148.266 16.926 148.076 16.6201ZM141.303 14.3635C139.565 13.9224 139.888 13.7306 142.535 13.6322C143.367 13.6013 144.15 13.8798 144.274 14.251C144.521 14.9907 143.872 15.0153 141.303 14.3635ZM140.269 12.3009C140.062 12.0946 139.893 11.7386 139.893 11.5098C139.893 10.9689 142.074 11.5365 142.473 12.1813C142.828 12.7536 140.831 12.8619 140.269 12.3009ZM278.76 10.1333C277.82 8.076 277.935 7.17729 279.227 6.488C280.472 5.82332 280.515 5.90704 280.366 8.73815C280.229 11.3488 279.575 11.9168 278.76 10.1333Z" stroke="#E26D5C" stroke-width="2" mask="url(#path-1-inside-1_1127_48264)"/>
</svg>
