<svg width="1446" height="787" viewBox="0 0 1446 787" fill="none" xmlns="http://www.w3.org/2000/svg">
<mask id="path-1-inside-1_1123_39561" fill="white">
<path d="M1240.43 783.752C1244.68 780.644 1244.7 779.961 1240.71 767.988C1238.43 761.104 1234.61 753.071 1232.23 750.136C1228.46 745.49 1228.32 743.989 1231.16 738.534C1232.95 735.088 1235.52 732.132 1236.88 731.964C1238.24 731.797 1241.41 731.523 1243.93 731.356C1249.48 730.989 1252.21 722.29 1248.79 715.908C1247.04 712.627 1247.18 710.241 1249.29 707.705C1252.3 704.074 1252.22 703.723 1244.18 686.742C1241.79 681.698 1241.72 679.329 1243.88 676.726C1246.07 674.089 1245.88 672.626 1243.03 670.264C1241.01 668.585 1239.35 664.609 1239.35 661.428C1239.35 658.247 1238.52 655.644 1237.5 655.644C1235.38 655.644 1228.37 665.848 1228.98 668.066C1229.2 668.878 1226.66 670.994 1223.34 672.769C1220.02 674.544 1216.67 678.532 1215.89 681.632C1215.11 684.731 1213.57 687.267 1212.47 687.267C1211.38 687.267 1208.9 688.844 1206.97 690.771C1201.85 695.88 1194.24 692.857 1189.34 683.772C1186.3 678.126 1183.24 675.759 1178.73 675.565C1175.24 675.414 1168.23 674.886 1163.15 674.391C1158.06 673.896 1153.39 674.334 1152.75 675.365C1151.04 678.122 1142.23 675.891 1135.22 670.929C1126.54 664.785 1124.33 663.518 1118.82 661.566C1114.2 659.927 1114.24 659.764 1119.65 658.332L1125.34 656.825L1119.04 650.028C1115.57 646.29 1112.73 642.193 1112.73 640.924C1112.73 639.655 1111.59 638.617 1110.19 638.617C1108.79 638.617 1104.68 635.826 1101.06 632.416C1094.89 626.613 1093.3 626.297 1076.21 627.481C1050.02 629.295 1046.99 629.819 1046.96 632.535C1046.94 633.873 1043.11 637.441 1038.44 640.463C1028.78 646.711 1027.79 650.699 1034.82 655.08C1040.26 658.477 1041.44 669.949 1036.81 674.568C1035.23 676.152 1033.83 684.82 1033.7 693.907C1033.49 708.409 1032.65 711.238 1026.67 717.596L1019.88 724.816L1009.12 720.951C1000.3 717.78 997.598 717.643 994.111 720.191C990.64 722.727 988.646 722.67 983.249 719.882C977.307 716.812 975.763 716.983 967.97 721.577C963.202 724.388 958.667 729.207 957.894 732.286C956.901 736.236 954.136 738.326 948.505 739.381C944.115 740.204 938.582 743.019 936.211 745.637C933.839 748.255 930.773 749.703 929.398 748.854C928.022 748.004 920.592 747.537 912.886 747.815C901.233 748.235 898.042 747.427 893.929 743.017C890.71 739.566 887.226 738.173 883.95 739.029C880.564 739.913 878.103 738.823 876.429 735.698C873.315 729.885 856.085 729.316 845.779 734.686C841.944 736.685 836.779 738.326 834.303 738.335C829.202 738.352 815.673 724.973 815.673 719.911C815.673 716.294 803.629 709.159 797.524 709.159C791.494 709.159 775.719 699.828 773.873 695.17C772.503 691.712 772.155 691.988 772.016 696.646C771.922 699.797 769.106 705.628 765.758 709.603C759.425 717.121 757.767 728.177 762.294 732.7C764.168 734.572 763.113 737.122 758.6 741.631C753.474 746.752 750.799 747.661 744.411 746.452C740.081 745.633 735.217 743.928 733.602 742.663C731.987 741.398 729.668 740.979 728.449 741.732C725.936 743.283 719.801 736.902 717.446 730.289C716.278 727.006 713.845 726.072 707.945 726.64C703.584 727.06 698.919 726.09 697.58 724.484C695.714 722.247 692.017 722.753 681.753 726.653C674.388 729.451 665.245 731.622 661.435 731.476C656.472 731.287 654.876 732.166 655.803 734.579C657.25 738.346 653.437 740.282 640.57 742.316C635.767 743.075 631.082 744.159 630.159 744.724C629.235 745.29 625.948 743.064 622.854 739.778C619.469 736.183 613.864 733.497 608.783 733.036C601.604 732.383 599.999 731.083 598.082 724.363C596.842 720.015 594.342 716.457 592.527 716.457C590.479 716.457 589.227 713.672 589.227 709.12C589.227 703.126 587.662 701.038 580.68 697.712C574.588 694.81 571.382 694.391 569.518 696.253C565.394 700.373 557.714 697.028 553.76 689.39C549.945 682.02 542.963 679.86 542.963 686.051C542.963 688.057 541.32 689.699 539.311 689.699C536.45 689.699 535.659 686.37 535.659 674.33C535.659 665.876 533.94 653.18 531.841 646.116C529.741 639.052 528.53 632.765 529.15 632.145C529.77 631.526 527.654 628.19 524.446 624.732C517.225 616.949 517.176 615.32 524.093 613.103C528.855 611.578 528.315 611.103 519.961 609.476C513.038 608.128 509.425 608.529 507.04 610.912C503.711 614.237 494.45 614.11 486.147 610.624C482.661 609.16 482.391 608.312 484.918 606.751C487.459 605.183 487.11 603.965 483.296 601.086C480.624 599.069 477.103 597.384 475.471 597.341C473.839 597.299 473.134 595.622 473.905 593.615C474.93 590.947 473.601 589.966 468.959 589.966C462.895 589.966 460.474 585.615 464.371 581.721C465.34 580.754 466.373 576.193 466.668 571.586C467.107 564.728 466.346 563.209 462.473 563.209C459.871 563.209 455.609 561.079 453.004 558.476C449.213 554.688 446.797 554.163 440.917 555.848C432.895 558.146 411.078 554.269 385.912 546.073C377.876 543.456 369.745 541.315 367.841 541.315C365.938 541.316 362.446 539.567 360.081 537.429C357.717 535.291 354.748 534.18 353.484 534.96C349.738 537.274 348.377 549.539 351.43 553.479C353.87 556.627 353.692 556.685 350.131 553.9C343.644 548.828 334.66 551.165 335.358 557.743C336.014 563.92 329.442 565.33 324.059 560.168C321.468 557.684 321.133 558.908 322.228 566.857C325.158 588.135 325.132 588.579 320.897 589.438C318.619 589.899 314.384 587.553 311.487 584.224C308.589 580.895 304.876 578.685 303.235 579.314C299.358 580.801 295.288 575.734 294.227 568.099C293.71 564.381 291.514 561.685 288.541 561.118C285.876 560.611 282.202 558.063 280.375 555.457C278.509 552.796 275.478 551.323 273.46 552.097C271.483 552.854 267.214 552.809 263.972 551.996C259.473 550.868 258.079 548.889 258.079 543.628C258.079 535.204 254.394 532.387 251.011 538.224C249.11 541.503 248.707 539.751 249.322 530.891C249.978 521.436 249.261 518.786 245.505 516.777C242.961 515.417 241.044 512.993 241.245 511.391C242.144 504.234 240.743 502.13 235.556 502.851C231.463 503.419 229.883 502.251 229.311 498.232C228.63 493.448 227.486 493.001 218.963 494.192C213.337 494.978 209.38 494.532 209.38 493.113C209.38 491.783 204.724 490.929 199.032 491.216C190.575 491.642 188.546 492.673 187.933 496.861C187.519 499.679 185.561 502.606 183.579 503.365C179.601 504.89 176.497 499.376 178.458 494.269C180.822 488.115 176.674 485.646 166.304 487.035C158.425 488.091 155.887 489.604 154.811 493.886C153.393 499.53 143.638 504.165 143.638 499.194C143.638 497.684 141.899 498.928 139.774 501.959C136.828 506.16 136.571 508.265 138.692 510.818C140.846 513.411 140.482 514.723 137.077 516.636C132.946 518.958 133.024 519.428 138.368 524.419C142.249 528.044 143.613 531.377 142.662 534.915C141.896 537.767 141.254 541.468 141.236 543.14C141.218 544.813 139.559 546.181 137.551 546.181C133.15 546.181 132.664 554.862 136.917 557.488C143.702 561.677 127.476 562.214 117.74 558.122C108.927 554.418 106.854 554.312 101.135 557.276C97.5413 559.139 93.8551 560.559 92.9439 560.432C85.1608 559.343 82.7201 561.202 83.2258 567.831C83.5218 571.712 82.3727 576.561 80.6723 578.608C78.1079 581.695 78.3833 582.759 82.2877 584.846C84.8764 586.23 87.6865 586.671 88.5321 585.826C89.3778 584.982 90.0698 585.567 90.0698 587.128C90.0698 588.808 86.1736 589.966 80.5236 589.966C70.1769 589.966 70.8037 588.942 66.7504 612.467C65.5626 619.361 64.0163 621.589 60.4198 621.589C50.2783 621.589 46.2413 617.104 46.2413 605.836C46.2413 599.941 45.0745 594.398 43.6482 593.517C42.222 592.637 41.2424 589.015 41.4713 585.468C42.5582 568.629 41.3744 564.444 34.4036 560.483C28.6835 557.233 27.2331 554.473 26.1363 544.751C25.4047 538.267 23.5796 532.553 22.0805 532.054C18.421 530.835 12.1526 518.416 12.1526 512.384C12.1526 509.718 10.079 506.086 7.54464 504.312C3.60499 501.556 2.72372 496.756 1.46834 471.222L0 441.356L5.87968 447.694C11.0624 453.281 12.3599 453.657 16.8258 450.871C20.8965 448.331 22.8493 448.307 26.7621 450.748C31.1342 453.476 31.6319 453.178 31.6319 447.828C31.6319 444.551 32.7276 441.193 34.0668 440.367C35.406 439.54 36.5102 439.749 36.5207 440.831C36.5397 442.801 47.9258 448.88 51.5966 448.88C55.2737 448.88 53.547 441.825 49.285 439.435C45.5194 437.323 45.4706 436.873 48.8651 435.566C53.6547 433.721 65.7206 438.103 65.7206 441.687C65.7206 445.237 76.0793 441.969 78.6249 437.615C79.6959 435.784 82.1612 434.285 84.1035 434.285C86.0457 434.285 87.6348 433.318 87.6348 432.136C87.6348 430.955 89.8263 429.415 92.5047 428.715C98.5176 427.145 99.1411 414.618 93.7229 404.239C91.7311 400.424 90.734 394.784 91.5072 391.707C92.6861 387.014 91.7486 385.856 85.6973 384.528C79.4768 383.163 78.5606 381.942 79.0541 375.676C79.3688 371.679 81.9762 366.221 84.8481 363.548C91.0822 357.745 91.1905 356.693 86.275 349.682C82.6911 344.571 82.8227 344.14 88.6419 341.93C92.2941 340.542 95.4764 336.911 96.4556 333.013C97.8445 327.485 96.6553 325.108 88.9931 318.093L79.8784 309.748L86.6471 302.69C94.6541 294.341 96.3818 294.009 98.08 300.497C99.0138 304.064 101.401 305.362 107.03 305.362C112.02 305.362 114.124 304.42 113.041 302.67C110.706 298.895 116.747 280.9 122.535 274.389C125.191 271.402 129.382 268.318 131.848 267.536C136.52 266.055 138.167 255.698 134.127 253.204C132.913 252.455 132.461 249.777 133.121 247.254C133.782 244.73 133.131 241.93 131.675 241.031C127.722 238.591 128.481 232.387 132.733 232.387C134.77 232.387 137.686 229.65 139.211 226.305C140.736 222.961 143.452 220.224 145.246 220.224C147.04 220.224 148.508 219.168 148.508 217.877C148.508 216.586 150.865 214.27 153.747 212.729C158.209 210.343 158.762 210.511 157.475 213.86C155.462 219.103 159.59 218.883 163.588 213.535C165.338 211.193 172.026 206.804 178.45 203.78C191.145 197.806 197.174 198.911 202.106 208.117C206.473 216.27 209.553 213.646 207.881 203.196C206.798 196.436 207.205 193.466 209.213 193.466C210.802 193.466 211.353 192.254 210.437 190.773C209.35 189.016 210.357 188.579 213.337 189.516C223.017 192.56 244.594 195.899 254.585 195.899C265.03 195.899 274.142 190.487 271.336 185.951C268.739 181.753 272.884 174.32 278.282 173.494C281.232 173.043 283.371 171.332 283.037 169.692C282.702 168.051 284.619 166.709 287.298 166.709C290.305 166.709 292.175 165.081 292.186 162.452C292.205 158.351 302.001 152.114 308.424 152.114C310.135 152.114 313.462 149.103 315.818 145.424C321.725 136.2 326.425 132.828 333.561 132.694C342.089 132.533 344.875 130.151 346.775 121.396C348.167 114.984 349.803 113.565 357.185 112.368C363.623 111.325 367.695 112.194 372.55 115.648C376.184 118.232 379.698 119.806 380.361 119.144C381.023 118.482 383.021 119.693 384.799 121.834C386.916 124.382 387.172 126.293 385.541 127.366C382.27 129.518 379.667 139.951 382.401 139.951C383.568 139.951 385.838 142.405 387.445 145.405C391.036 152.109 390.4 202.907 386.669 207.399C385.265 209.089 380.019 211.698 375.01 213.197C367.51 215.442 364.858 215.238 359.97 212.038C351.068 206.211 343.169 181.577 343.248 159.886C343.273 152.942 339.118 155.081 335.441 163.904C331.953 172.274 331.791 172.922 331.43 179.924C331.231 183.794 329.231 186.415 325.647 187.501C316.221 190.356 309.212 198.58 309.212 206.783C309.212 210.964 307.897 215.699 306.29 217.305C304.367 219.226 304.27 220.224 306.006 220.224C307.457 220.224 309.217 222.413 309.917 225.089C311.339 230.521 317.606 231.588 320.634 226.913C321.717 225.241 322.604 221.16 322.604 217.844C322.604 214.082 324.18 211.505 326.797 210.99C330.145 210.33 330.928 211.82 330.681 218.385C330.059 234.912 341.51 243.108 346.249 229.527C348.799 222.221 348.897 222.187 362.4 223.872C370.611 224.897 377.159 227.157 378.952 229.585C380.612 231.834 380.915 233.962 379.639 234.419C375.817 235.786 379.794 239.684 385.012 239.684C390.873 239.684 396.008 235.015 397.24 228.566C397.741 225.939 400.515 223.533 403.541 223.102C406.514 222.678 411.049 219.66 413.62 216.395C416.575 212.641 419.726 211.008 422.191 211.953C426.756 213.703 426.938 215.241 423.612 223.979C421.739 228.902 420.376 229.852 418.007 227.888C412.519 223.337 404.758 227.303 403.59 235.255C402.192 244.769 407.604 250.385 416.124 248.262C431.339 244.47 451.097 246.184 457.154 251.822C460.188 254.646 462.975 255.659 463.844 254.254C464.663 252.93 467.63 251.847 470.437 251.847C475.37 251.847 475.395 252.007 471.175 256.666C467.517 260.704 467.327 262.11 470.008 265.336C471.959 267.685 475.281 268.667 478.525 267.854C481.887 267.01 485.294 268.123 487.792 270.88C490.25 273.594 494.594 275.043 499.297 274.718C506.094 274.248 506.709 274.767 505.424 279.883C504.212 284.706 504.844 285.481 509.582 284.976C517.626 284.119 521.049 281.425 521.049 275.952C521.049 267.232 527.81 268.012 536.797 277.768C545.319 287.019 549.436 294.842 547.041 297.234C546.361 297.914 547.938 300.602 550.547 303.208C553.156 305.814 555.941 311.196 556.736 315.168C557.531 319.14 559.554 322.39 561.231 322.39C566.245 322.39 570.266 315.69 568.53 310.227C567.634 307.408 568.222 303.549 569.844 301.596C571.915 299.104 571.974 298.064 570.046 298.064C565.747 298.064 566.844 290.913 572.182 284.133C574.861 280.731 577.052 275.359 577.052 272.195C577.052 268.113 578.431 266.442 581.799 266.442C584.409 266.442 591.765 261.516 598.145 255.495C604.524 249.475 609.987 244.549 610.284 244.549C610.581 244.549 613.635 245.617 617.07 246.921C625.505 250.125 625.191 258.317 616.225 268.966C611.081 275.077 609.472 279.114 610.363 283.679C611.124 287.579 610.116 291.443 607.713 293.844C605.581 295.974 603.836 298.684 603.836 299.866C603.836 301.048 601.622 306.593 598.916 312.188C595.811 318.609 594.559 324.601 595.522 328.434C596.625 332.822 595.924 334.938 592.997 336.06C590.77 336.914 589.537 339.148 590.258 341.025C591.066 343.129 589.252 345.318 585.528 346.732C582.205 347.994 579.487 350.068 579.487 351.341C579.487 352.614 575.943 355.422 571.612 357.581C564.285 361.232 563.523 361.212 560.655 357.294C558.96 354.978 557.573 353.973 557.573 355.061C557.573 356.15 555.929 355.678 553.92 354.012C551.709 352.179 550.268 351.983 550.268 353.516C550.268 359.713 553.891 364.173 561.506 367.351C568.911 370.442 570.796 370.303 580.685 365.933C594.995 359.609 604.931 350.229 605.545 342.464C606.191 334.285 608.817 331.968 615.471 333.706C621.696 335.333 625.358 345.647 621.189 349.812C617.793 353.205 617.559 363.742 620.881 363.742C622.22 363.742 625.615 366.04 628.426 368.847L633.536 373.953L631.724 368.249C630.727 365.112 628.168 361.271 626.037 359.715C622.514 357.141 622.547 356.46 626.391 352.216C628.717 349.649 630.62 345.18 630.62 342.285C630.62 335.916 621.478 324.836 616.18 324.785C614.078 324.764 610.946 323.853 609.22 322.759C605.295 320.271 609.028 309.178 616.457 301.255C620.04 297.433 621.175 293.595 620.48 287.65C619.517 279.402 622.781 273.739 628.499 273.739C630.125 273.739 633.732 271.824 636.516 269.482C641.446 265.336 641.48 265.351 637.794 270.091C635.713 272.766 633.714 278.5 633.352 282.831C632.815 289.257 633.848 291.232 638.962 293.56C642.409 295.129 645.23 297.332 645.23 298.455C645.23 299.578 646.839 300.497 648.806 300.497C653.395 300.497 650.88 293.189 644.781 288.805C639.432 284.959 638.953 278.604 644.012 278.604C646.021 278.604 647.665 279.699 647.665 281.037C647.665 282.375 649.436 283.469 651.601 283.469C654.29 283.469 655.148 281.983 654.309 278.776C653.41 275.344 654.27 274.172 657.508 274.416C659.944 274.599 661.4 275.617 660.744 276.677C660.088 277.737 661.239 278.604 663.301 278.604C665.364 278.604 667.741 281.35 668.584 284.707C669.513 288.405 672.409 291.384 675.935 292.268C683.025 294.046 683.463 297.05 676.883 298.769C673.558 299.638 672.014 302.087 672.014 306.494C672.014 310.567 673.001 312.337 674.692 311.293C676.281 310.312 676.071 311.984 674.174 315.407C672.417 318.578 671.327 322.268 671.752 323.606C672.676 326.512 674.003 332.618 674.262 335.16C674.536 337.838 681.753 337.39 681.753 334.696C681.753 333.437 680.699 331.756 679.411 330.961C677.912 330.035 677.912 327.301 679.411 323.361C680.699 319.977 681.753 313.923 681.753 309.909C681.753 305.894 682.951 300.375 684.414 297.643C686.338 294.052 686.338 291.941 684.414 290.019C682.951 288.557 681.753 285.785 681.753 283.859C681.753 281.933 680.122 279.142 678.129 277.656C675.527 275.717 674.921 272.439 675.98 266.034L677.456 257.112L694.213 257.52C706.027 257.808 710.97 258.85 710.971 261.054C710.972 263.354 712.176 263.537 715.524 261.747C718.972 259.903 719.944 256.961 719.529 249.624C719.161 243.106 720.113 239.501 722.436 238.61C724.336 237.882 725.283 236.304 724.54 235.103C722.61 231.984 738.302 225.089 747.332 225.089C751.86 225.089 755.522 223.608 756.355 221.44C757.913 217.384 764.54 216.399 764.54 220.224C764.54 221.562 766.513 222.656 768.925 222.656C774.366 222.656 786.41 217.219 786.435 214.751C786.446 213.747 789.004 212.926 792.12 212.926C796.974 212.926 797.639 211.926 796.759 205.941C795.456 197.07 807.193 184.598 812.614 189.093C815.294 191.315 815.318 192.199 812.745 193.86C810.216 195.492 810.314 196.376 813.239 198.294C815.247 199.611 818.261 200.706 819.935 200.727C821.609 200.747 822.978 202.953 822.978 205.629C822.978 211.316 827.366 212.147 829.402 206.845C831.573 201.195 842.335 202.526 851.606 209.59C858.051 214.501 859.233 216.485 856.705 218.15C854.029 219.912 854.211 220.926 857.676 223.579C863.796 228.265 863.022 231.567 853.436 241.671C848.76 246.599 844.925 251.765 844.914 253.153C844.902 254.54 839.962 260.889 833.935 267.263C827.909 273.636 823.013 280.163 823.056 281.768C823.099 283.404 824.554 282.816 826.368 280.429C828.147 278.087 831.873 276.172 834.648 276.172C837.615 276.172 840.354 274.094 841.296 271.131C842.24 268.159 844.277 266.619 846.259 267.379C848.108 268.088 851.218 267.072 853.17 265.122C857.782 260.515 865.9 260.573 867.687 265.225C868.458 267.232 870.283 268.874 871.744 268.874C873.204 268.874 873.796 267.899 873.059 266.708C871.092 263.528 882.663 256.712 890.027 256.712C893.517 256.712 898.017 258.354 900.026 260.36C904.731 265.061 916.218 265.024 925.406 260.277C931.567 257.094 932.25 255.833 930.043 251.713C926.463 245.031 929.061 242.028 937.041 243.622C941.52 244.517 944.846 243.684 946.96 241.139C949.829 237.686 950.847 237.812 957.327 242.421C961.477 245.373 963.965 248.958 963.217 250.906C962.474 252.838 963.449 254.279 965.497 254.279C969.59 254.279 970.281 258.111 966.598 260.385C963.038 262.583 966.479 267.023 970.537 265.468C972.753 264.618 973.943 265.856 973.943 269.011C973.943 272.014 976.491 274.903 980.639 276.6C990.128 280.484 997.259 280.209 996.199 276C995.718 274.088 994.951 268.942 994.494 264.564C993.797 257.881 994.286 256.953 997.541 258.773C1003.13 261.9 1010.47 259.305 1010.47 254.198C1010.47 248.607 1015.03 247.039 1022.1 250.204C1029.1 253.342 1035.94 248.311 1029.93 244.448C1026.91 242.51 1027.19 241.87 1031.61 240.659C1036.36 239.355 1036.63 238.52 1034.09 232.753C1032.54 229.207 1030.26 225.595 1029.03 224.726C1027.8 223.858 1027.68 221.121 1028.76 218.645C1029.84 216.169 1030.6 213.499 1030.46 212.713C1030.32 211.927 1034.81 208.941 1040.43 206.078C1048.93 201.746 1050.77 201.476 1051.43 204.467C1052.39 208.835 1056.63 209.26 1056.97 205.021C1057.11 203.348 1057.98 204.717 1058.91 208.061C1061.53 217.49 1065.17 215.249 1066.01 203.689C1066.62 195.118 1067.86 192.818 1072.86 190.918C1081.82 187.517 1084.02 188.052 1082.37 193.228C1081.01 197.503 1081.68 197.679 1091.14 195.556C1096.77 194.293 1103 193.884 1105 194.648C1108.99 196.179 1120.04 187.097 1120.04 182.283C1120.04 180.612 1122.87 175.877 1126.34 171.76C1131.58 165.538 1134.41 164.276 1143.12 164.276C1150.19 164.276 1154.06 165.464 1155.01 167.925C1158.02 175.78 1176.95 169.77 1175.9 161.29C1175.07 154.639 1179.42 146.769 1185.12 144.606C1188.4 143.358 1192.35 139.004 1193.89 134.931C1195.88 129.665 1197.92 127.849 1200.97 128.645C1203.33 129.261 1205.93 128.677 1206.75 127.348C1207.57 126.019 1210.27 125.462 1212.75 126.109C1215.23 126.756 1218.53 125.757 1220.08 123.888C1224.11 119.038 1218.65 113.193 1210.09 113.193C1200.5 113.193 1199.49 107.376 1207.58 98.7226C1211.39 94.6405 1214.02 91.3006 1213.4 91.3006C1212.79 91.3006 1214.27 87.7885 1216.69 83.4959C1223.36 71.6558 1232.78 64.1692 1255.18 52.9088C1259.19 50.8886 1264.33 47.6468 1266.59 45.7047C1268.85 43.7627 1271.75 42.822 1273.03 43.6144C1274.31 44.4067 1276.03 43.3057 1276.85 41.1677C1277.76 38.8059 1279.88 37.8677 1282.25 38.7768C1285.14 39.8858 1285.75 39.2327 1284.61 36.2538C1283.25 32.7067 1284.79 32.3906 1297.73 33.563C1309.33 34.6141 1312.4 34.1779 1312.4 31.4734C1312.4 29.4491 1309.91 28.0553 1306.31 28.0553C1299.24 28.0553 1298.77 26.7205 1304.01 21.4866C1306.1 19.4028 1307.25 16.2531 1306.57 14.4873C1305.86 12.6413 1307.61 10.5712 1310.69 9.61679C1313.64 8.70383 1319.06 5.83667 1322.74 3.24533C1329.78 -1.70902 1329.52 -1.91193 1330.41 9.20326C1330.55 10.8756 1331.75 13.0649 1333.09 14.0683C1334.62 15.2147 1334.2 16.7476 1331.95 18.1929C1329.98 19.4581 1328.95 21.0753 1329.66 21.7867C1330.95 23.0792 1340 25.1006 1346.02 25.442C1347.82 25.5439 1348.44 26.8646 1347.45 28.4686C1346.26 30.3822 1347.01 30.8057 1349.74 29.7612C1352.38 28.747 1353.79 29.4477 1353.79 31.7804C1353.79 33.7452 1352.69 35.3528 1351.35 35.3528C1350.01 35.3528 1349.15 36.1738 1349.42 37.1772C1349.7 38.1806 1346.67 42.3963 1342.7 46.5454C1336.85 52.6431 1334.67 53.586 1331.3 51.4642C1328.03 49.4015 1326.36 49.8699 1323.5 53.6504C1321.49 56.2966 1319.82 60.9246 1319.78 63.9349C1319.72 68.0948 1318.27 69.408 1313.76 69.408C1310.49 69.408 1307.14 68.3134 1306.31 66.9755C1304.07 63.3548 1300.94 64.0282 1299.22 68.5008C1297.34 73.4009 1304.7 79.4239 1310.45 77.6954C1313.45 76.7974 1316.01 79.2073 1319.65 86.3426C1325.18 97.1697 1323.79 103.536 1314.87 108.31C1311.87 109.914 1310.7 112.277 1311.66 114.788C1313.06 118.429 1313.41 118.426 1316.1 114.751C1317.71 112.556 1321.36 110.761 1324.23 110.761C1327.1 110.761 1329.44 109.592 1329.44 108.164C1329.44 105.137 1339.59 107.726 1341.92 111.348C1342.88 112.835 1344.04 112.742 1345.06 111.098C1347.13 107.754 1364.2 108.24 1366.46 111.708C1368.47 114.792 1359.28 125.356 1354.58 125.356C1350.57 125.356 1350.32 129.47 1354.25 130.781C1356.06 131.381 1357.4 138.45 1357.8 149.49C1358.16 159.25 1359.63 170.787 1361.06 175.129C1362.5 179.471 1364.1 185.237 1364.62 187.942C1365.14 190.647 1366.66 196.827 1368 201.677C1370.31 210.034 1370.14 210.494 1364.61 210.494C1357.36 210.494 1351.48 220.892 1350.94 234.693C1350.61 243.089 1350.04 244.056 1346.91 241.476C1343.74 238.861 1343.44 239.819 1344.64 248.806C1345.65 256.332 1345.17 259.144 1342.88 259.144C1337.65 259.144 1336.54 269.462 1341.09 275.762C1343.39 278.941 1348.01 286.618 1351.35 292.822C1357.42 304.06 1365.96 309.364 1365.96 301.892C1365.96 299.787 1367.73 298.064 1369.9 298.064C1372.58 298.064 1373.45 299.552 1372.61 302.736C1371.7 306.215 1373.03 307.868 1377.81 309.216C1381.34 310.211 1385.16 310.808 1386.3 310.542C1387.45 310.276 1390.46 310.718 1393 311.523C1398.47 313.256 1399.23 319.957 1393.96 319.957C1391.96 319.957 1390.31 321.999 1390.31 324.494C1390.31 331.026 1399.58 341.85 1405.18 341.85C1410.89 341.85 1413.99 348.363 1410.12 352.23C1408.6 353.745 1407.36 358.992 1407.36 363.888C1407.36 370.445 1408.9 373.946 1413.2 377.173C1418.75 381.339 1418.88 382.015 1415.74 390.892C1413.12 398.324 1413.07 400.23 1415.53 400.23C1419.58 400.23 1429.27 422.559 1429.27 431.876C1429.27 441.441 1422.99 441.544 1414.1 432.125C1410.44 428.261 1402.8 422.671 1397.1 419.704C1376.8 409.133 1339.18 374.436 1339.18 366.281C1339.18 359.797 1334.09 349.147 1331 349.147C1329.46 349.147 1329.62 347.998 1331.39 346.228C1335.71 341.911 1335.15 316.387 1330.66 312.66C1328.65 310.994 1327 307.641 1327 305.208C1327 302.775 1325.86 300.075 1324.45 299.208C1322.67 298.109 1322.68 296.696 1324.46 294.544C1326.29 292.342 1325.82 288.203 1322.82 280.105C1319.31 270.657 1319.13 267.915 1321.73 263.758C1325.27 258.088 1323.79 255.237 1311.59 244.216C1307.19 240.245 1304.48 235.381 1304.48 231.445C1304.48 224.109 1300.97 223.208 1296.31 229.346C1291.79 235.287 1292.15 239.062 1297.79 245.109C1300.54 248.066 1302.66 253.694 1302.66 258.083C1302.66 262.346 1303.32 269.175 1304.14 273.259C1305.34 279.239 1304.85 280.572 1301.65 280.102C1299.46 279.781 1295.99 277.123 1293.94 274.196C1289.62 268.046 1285.61 267.239 1285.61 272.523C1285.61 274.53 1283.87 276.172 1281.73 276.172C1279.6 276.172 1277.28 278.361 1276.58 281.037C1275.88 283.713 1274.42 285.902 1273.35 285.902C1269.89 285.902 1267.97 300.492 1270.95 304.077C1272.49 305.937 1274.38 313.828 1275.15 321.613C1275.92 329.399 1278.12 338.877 1280.04 342.676C1283.39 349.313 1283.71 349.418 1288.22 345.34C1290.97 342.854 1292.92 342.266 1292.92 343.921C1292.92 345.475 1290.18 349.126 1286.83 352.035C1283.48 354.943 1280.74 358.84 1280.74 360.696C1280.74 362.914 1279.14 363.563 1276.08 362.591C1273.51 361.778 1270.77 362.148 1269.99 363.415C1269.2 364.682 1266.37 365.146 1263.69 364.447C1260.31 363.562 1258.83 364.373 1258.83 367.107C1258.83 369.27 1258.01 370.91 1257 370.752C1249.76 369.61 1246.39 371.74 1245.08 378.283C1243.59 385.734 1240.25 389.552 1231.17 394.196C1228.3 395.664 1226.11 398.756 1226.31 401.066C1226.55 403.971 1225.8 404.55 1223.86 402.945C1221.96 401.369 1218.17 403.277 1212.03 408.895C1198.37 421.401 1194.73 428.101 1196.49 437.489C1197.33 441.939 1197.19 446.404 1196.18 447.412C1195.17 448.42 1194.15 454.694 1193.91 461.354C1193.66 468.014 1192.3 474.873 1190.86 476.596C1189.43 478.32 1188.37 486.871 1188.5 495.6C1188.63 504.328 1187.52 513.735 1186.04 516.503C1184.56 519.271 1183.35 524.28 1183.35 527.634C1183.35 530.987 1182.25 534.408 1180.91 535.235C1179.57 536.062 1178.48 538.863 1178.48 541.459C1178.48 545.063 1180.17 546.181 1185.64 546.181C1189.57 546.181 1193.47 545.094 1194.29 543.767C1195.12 542.433 1198.42 544.339 1201.66 548.024C1206.37 553.372 1207.56 553.851 1207.62 550.438C1207.71 545.266 1212.56 544.669 1212.56 549.83C1212.56 551.837 1214.21 553.479 1216.22 553.479C1218.23 553.479 1219.87 551.837 1219.87 549.83C1219.87 547.823 1221.51 546.181 1223.52 546.181C1227.68 546.181 1228.48 539.974 1224.62 537.594C1219.89 534.673 1227.61 528.637 1234.34 529.995C1249.1 532.973 1256.63 535.354 1256.55 537.018C1256.51 538 1260.39 542.71 1265.17 547.486C1270.63 552.949 1273.32 557.57 1272.41 559.944C1270.49 564.95 1275.55 581.406 1280.72 586.948C1282.98 589.375 1287.76 597.191 1291.35 604.316C1297.84 617.23 1297.86 617.407 1296.77 661.391C1295.61 708.002 1294.96 716.054 1291.91 720.975C1290.87 722.656 1290.66 726.587 1291.45 729.71C1293.29 737.047 1284.62 756.729 1276.21 764.276C1270.86 769.086 1268.07 769.816 1259.49 768.653L1249.19 767.257L1247.61 777.129C1246.36 784.969 1245 787 1241.01 787C1236.22 787 1236.19 786.847 1240.43 783.752ZM1357.66 662.752C1353.98 658.634 1351.58 653.709 1352.31 651.806C1353.04 649.903 1352.66 648.347 1351.46 648.347C1348.97 648.347 1341.61 634.577 1341.61 629.927C1341.61 628.235 1337.91 624.563 1333.38 621.766C1328.85 618.969 1323.71 613.133 1321.96 608.797C1320.2 604.46 1315.05 595.987 1310.5 589.966C1305.95 583.946 1300.74 575.462 1298.92 571.114C1296.7 565.842 1293.94 563.209 1290.61 563.209C1285.61 563.209 1275.87 555.367 1275.87 551.344C1275.87 550.17 1274.23 547.846 1272.22 546.181C1270.21 544.515 1268.57 541.457 1268.57 539.385C1268.57 537.313 1266.69 533.549 1264.4 531.021C1261.16 527.446 1260.93 526 1263.33 524.517C1267.67 521.836 1264.15 509.357 1258.65 507.92C1256.13 507.26 1254.85 505.347 1255.6 503.372C1257.63 498.085 1261.14 499.332 1263.79 506.28C1265.11 509.754 1268.37 513.166 1271.03 513.861C1273.69 514.557 1275.87 516.674 1275.87 518.567C1275.87 520.46 1277.79 522.691 1280.13 523.526C1287.59 526.183 1290.7 529.607 1288.29 532.517C1285.39 536.006 1291.84 543.944 1300.83 547.954C1304.51 549.597 1307.53 552.06 1307.53 553.426C1307.53 554.793 1308.73 555.911 1310.2 555.911C1311.66 555.911 1319.61 561.82 1327.85 569.042C1336.09 576.264 1346.67 583.837 1351.35 585.871L1359.88 589.569L1348.23 589.768C1334.06 590.009 1332.58 592.733 1337.97 608.592C1343.38 624.529 1350.89 636.168 1355.81 636.261C1358.05 636.304 1362.01 637.951 1364.62 639.922C1367.23 641.892 1371.15 642.936 1373.34 642.242C1378.62 640.568 1384.87 652.988 1380.21 655.871C1378.53 656.908 1376.16 657.144 1374.95 656.396C1373.74 655.648 1374.23 654.095 1376.05 652.945C1378.48 651.406 1378.55 650.844 1376.31 650.816C1371.06 650.752 1363.89 659.592 1366.21 663.263C1372.23 672.756 1366.26 672.399 1357.66 662.752ZM1346.68 654.631C1346.57 652.066 1347.15 650.63 1347.96 651.438C1348.76 652.246 1348.85 654.344 1348.15 656.1C1347.37 658.041 1346.79 657.464 1346.68 654.631ZM1414.66 644.228C1414.66 637.311 1415.86 633.812 1418.59 632.766C1421.94 631.481 1422.27 632.605 1420.84 640.411C1418.37 653.815 1414.66 656.107 1414.66 644.228ZM1423.66 627.333C1420.23 623.909 1421.82 602.704 1425.62 601.249C1427.63 600.479 1429.27 598.173 1429.27 596.124C1429.27 594.075 1430.37 592.399 1431.71 592.399C1435.03 592.399 1434.77 595.161 1430.51 605.345C1428.52 610.116 1427.51 615.656 1428.28 617.656C1429.92 621.909 1426.14 629.812 1423.66 627.333ZM1436.75 578.555C1436.65 574.286 1437.67 570.117 1439.01 569.29C1441.93 567.487 1441.93 574.663 1439.01 581.452C1437.25 585.553 1436.89 585.098 1436.75 578.555ZM1444.27 541.316C1444.27 537.971 1444.82 536.603 1445.49 538.275C1446.17 539.948 1446.17 542.684 1445.49 544.357C1444.82 546.029 1444.27 544.661 1444.27 541.316ZM1201.61 529.153C1200.78 527.815 1201.26 526.721 1202.68 526.721C1204.1 526.721 1205.26 527.815 1205.26 529.153C1205.26 530.491 1204.78 531.586 1204.19 531.586C1203.59 531.586 1202.43 530.491 1201.61 529.153ZM1435.28 497.409C1433.05 493.794 1434.83 492.514 1438.73 494.926C1440.83 496.219 1441.07 497.473 1439.44 498.483C1438.05 499.341 1436.18 498.857 1435.28 497.409ZM1431.71 480.503C1431.71 479.165 1432.8 478.071 1434.14 478.071C1435.48 478.071 1436.58 479.165 1436.58 480.503C1436.58 481.841 1435.48 482.936 1434.14 482.936C1432.8 482.936 1431.71 481.841 1431.71 480.503ZM1429.07 467.124C1428.86 465.786 1428.84 463.826 1429.02 462.769C1429.19 461.711 1428.28 458.869 1426.98 456.452C1425.39 453.475 1425.53 451.153 1427.44 449.253C1430.94 445.754 1434.98 445.556 1432.86 448.987C1431.99 450.383 1432.39 452.85 1433.73 454.467C1435.4 456.471 1435.1 459.344 1432.81 463.483C1430.96 466.823 1429.28 468.462 1429.07 467.124ZM1271 369.967C1271 369.377 1272.1 368.218 1273.44 367.391C1274.78 366.564 1275.87 367.047 1275.87 368.464C1275.87 369.881 1274.78 371.04 1273.44 371.04C1272.1 371.04 1271 370.557 1271 369.967ZM521.049 259.144C521.049 255.131 522.145 251.847 523.484 251.847C524.823 251.847 525.919 255.131 525.919 259.144C525.919 263.158 524.823 266.442 523.484 266.442C522.145 266.442 521.049 263.158 521.049 259.144ZM858.467 249.709C857.712 248.489 858.732 246.864 860.733 246.097C862.734 245.329 864.372 245.697 864.372 246.914C864.372 250.212 860.045 252.259 858.467 249.709ZM618.794 239.91C616.345 238.39 616.229 237.404 618.348 236.096C621.689 234.033 624.197 235.859 622.96 239.454C622.454 240.926 620.735 241.115 618.794 239.91ZM510.629 232.592C505.359 226.326 504.476 223.804 506.64 221.2C510.269 216.831 507.402 205.629 502.655 205.629C499.776 205.629 499.511 204.606 501.452 200.983C503.016 198.064 505.638 196.781 508.506 197.53C511.281 198.255 515.729 196.262 519.85 192.446C527.643 185.231 530.449 184.785 537.019 189.716C541.562 193.126 541.332 193.635 531.107 202.804C521.478 211.438 520.321 213.688 518.932 226.492L517.397 240.639L510.629 232.592ZM449.625 230.765C446.799 227.942 447.849 225.342 452.908 222.637C456.818 220.546 458.125 220.826 459.35 224.013C461.382 229.305 453.583 234.719 449.625 230.765ZM1017.17 200.156C1014.36 192.509 1021.15 188.746 1030.96 192.51C1036.48 194.625 1035.73 197.134 1028.61 200.373C1020.72 203.967 1018.56 203.926 1017.17 200.156ZM542.963 188.601C541.196 185.303 541.169 183.736 542.878 183.736C544.264 183.736 545.124 182.368 544.79 180.696C544.449 178.997 546.061 177.97 548.442 178.37C550.786 178.763 552.703 178.075 552.703 176.84C552.703 175.606 555.99 173.236 560.008 171.574C564.025 169.911 567.312 167.828 567.312 166.944C567.312 166.06 570.14 165.103 573.596 164.818C577.052 164.532 581.651 163.308 583.817 162.097C586.166 160.784 590.096 160.786 593.564 162.104C596.76 163.318 600.427 163.662 601.712 162.868C602.998 162.074 605.666 162.765 607.641 164.402C610.021 166.376 615.778 166.911 624.717 165.989C635.285 164.9 638.5 165.376 639.582 168.191C640.341 170.167 640.262 172.482 639.408 173.335C637.06 175.681 614.012 178.211 611.141 176.439C609.76 175.586 602.894 175.848 595.885 177.02C588.875 178.193 580.024 179.463 576.217 179.843C572.41 180.222 568.575 181.527 567.695 182.743C566.815 183.958 563.356 185.247 560.008 185.607C556.66 185.967 552.704 187.883 551.217 189.864C547.627 194.648 546.076 194.411 542.963 188.601ZM1008.03 192.394C1008.03 191.804 1009.13 190.644 1010.47 189.818C1011.81 188.991 1012.9 189.473 1012.9 190.89C1012.9 192.307 1011.81 193.466 1010.47 193.466C1009.13 193.466 1008.03 192.984 1008.03 192.394ZM66.4834 188.097C65.1405 186.368 63.3581 183.037 62.5227 180.696C61.6316 178.198 58.515 176.439 54.9837 176.439C51.6726 176.439 48.2593 175.3 47.3985 173.909C46.3836 172.268 48.0451 171.933 52.1246 172.956C57.3201 174.259 58.4159 173.686 58.4159 169.665C58.4159 160.886 70.3737 160.969 70.5532 169.749C70.5737 170.753 72.3002 171.574 74.3898 171.574C77.29 171.574 78.0103 173.728 77.4335 180.675C76.6381 190.254 71.082 194.02 66.4834 188.097ZM986.769 185.132C980.823 182.383 975.778 171.1 977.958 165.424C979.595 161.163 982.292 160.929 988.921 164.473C994.709 167.568 998.015 165.459 993.868 161.317C989.231 156.684 990.4 155.79 1001.77 155.281C1012.65 154.793 1019.78 159.059 1016.62 164.17C1014.15 168.163 1006.11 167.138 1003.14 162.452C1001.32 159.575 1000.75 159.377 1001.39 161.844C1001.9 163.85 1004.75 166.708 1007.71 168.194L1013.08 170.896L1006.3 175.425C1002.56 177.915 998.553 179.665 997.384 179.313C996.216 178.96 995.873 180.268 996.622 182.219C998.407 186.866 993.597 188.288 986.769 185.132ZM791.142 170.117C793.921 164.937 796.194 159.315 796.194 157.623C796.194 155.931 797.29 154.546 798.629 154.546C799.968 154.546 801.064 155.641 801.064 156.979C801.064 158.316 802.238 159.411 803.673 159.411C807.912 159.411 813.814 166.567 812.467 170.074C811.782 171.856 808.115 173.991 804.317 174.818C800.519 175.645 794.864 177.044 791.751 177.928L786.089 179.534L791.142 170.117ZM771.236 160.452C762.911 155.94 762.289 146.667 769.952 141.305C776.863 136.469 780.071 136.478 778.208 141.326C777.1 144.21 777.874 144.776 781.395 143.66C786.959 141.896 790.02 145.88 787.513 151.622C786.519 153.899 785.943 157.678 786.233 160.019C786.886 165.287 780.497 165.471 771.236 160.452ZM1021.8 152.688C1020.4 150.38 1025.24 146.163 1029.95 145.58C1031.95 145.331 1036.33 144.313 1039.66 143.318C1045.55 141.564 1045.62 141.679 1041.98 147.155C1038.32 152.659 1024.14 156.548 1021.8 152.688ZM756.424 143.194C753.466 140.24 754.742 137.648 758.453 139.071C760.462 139.841 762.105 141.449 762.105 142.644C762.105 145.194 758.751 145.519 756.424 143.194ZM761.227 133.874C759.302 128.864 763.587 120.491 768.075 120.491C769.926 120.491 771.928 119.123 772.526 117.45C773.978 113.39 776.001 115.508 777.759 122.928C779.57 130.573 777.178 134.267 769.107 136.29C764.454 137.457 762.356 136.813 761.227 133.874ZM1190.65 121.967C1190.65 121.442 1192.29 120.381 1194.3 119.611C1196.31 118.841 1197.95 119.271 1197.95 120.567C1197.95 121.863 1196.31 122.923 1194.3 122.923C1192.29 122.923 1190.65 122.493 1190.65 121.967ZM646.316 88.6562C645.416 87.2017 645.635 85.058 646.801 83.8924C649.681 81.0155 656.019 85.2034 653.92 88.5962C651.793 92.0344 648.422 92.061 646.316 88.6562ZM659.839 88.8681C659.839 87.5303 662.095 86.4356 664.853 86.4356C667.61 86.4356 669.189 87.5303 668.361 88.8681C667.534 90.206 665.278 91.3006 663.348 91.3006C661.418 91.3006 659.839 90.206 659.839 88.8681ZM639.16 71.8684C638.307 70.4895 639.284 70.0817 641.451 70.9124C645.669 72.5295 646.441 74.273 642.938 74.273C641.678 74.273 639.978 73.1909 639.16 71.8684ZM609.923 62.1105C602.419 60.2029 603.813 59.3736 615.24 58.9482C618.833 58.8144 622.212 60.0185 622.747 61.624C623.815 64.8224 621.01 64.9288 609.923 62.1105ZM605.459 53.1912C604.567 52.2993 603.836 50.7599 603.836 49.7702C603.836 47.4315 613.25 49.8857 614.975 52.674C616.506 55.1486 607.888 55.617 605.459 53.1912ZM1203.25 43.8181C1199.19 34.922 1199.68 31.0359 1205.26 28.0553C1210.64 25.1811 1210.82 25.5431 1210.18 37.7853C1209.58 49.0744 1206.76 51.5303 1203.25 43.8181Z"/>
</mask>
<path d="M1240.43 783.752C1244.68 780.644 1244.7 779.961 1240.71 767.988C1238.43 761.104 1234.61 753.071 1232.23 750.136C1228.46 745.49 1228.32 743.989 1231.16 738.534C1232.95 735.088 1235.52 732.132 1236.88 731.964C1238.24 731.797 1241.41 731.523 1243.93 731.356C1249.48 730.989 1252.21 722.29 1248.79 715.908C1247.04 712.627 1247.18 710.241 1249.29 707.705C1252.3 704.074 1252.22 703.723 1244.18 686.742C1241.79 681.698 1241.72 679.329 1243.88 676.726C1246.07 674.089 1245.88 672.626 1243.03 670.264C1241.01 668.585 1239.35 664.609 1239.35 661.428C1239.35 658.247 1238.52 655.644 1237.5 655.644C1235.38 655.644 1228.37 665.848 1228.98 668.066C1229.2 668.878 1226.66 670.994 1223.34 672.769C1220.02 674.544 1216.67 678.532 1215.89 681.632C1215.11 684.731 1213.57 687.267 1212.47 687.267C1211.38 687.267 1208.9 688.844 1206.97 690.771C1201.85 695.88 1194.24 692.857 1189.34 683.772C1186.3 678.126 1183.24 675.759 1178.73 675.565C1175.24 675.414 1168.23 674.886 1163.15 674.391C1158.06 673.896 1153.39 674.334 1152.75 675.365C1151.04 678.122 1142.23 675.891 1135.22 670.929C1126.54 664.785 1124.33 663.518 1118.82 661.566C1114.2 659.927 1114.24 659.764 1119.65 658.332L1125.34 656.825L1119.04 650.028C1115.57 646.29 1112.73 642.193 1112.73 640.924C1112.73 639.655 1111.59 638.617 1110.19 638.617C1108.79 638.617 1104.68 635.826 1101.06 632.416C1094.89 626.613 1093.3 626.297 1076.21 627.481C1050.02 629.295 1046.99 629.819 1046.96 632.535C1046.94 633.873 1043.11 637.441 1038.44 640.463C1028.78 646.711 1027.79 650.699 1034.82 655.08C1040.26 658.477 1041.44 669.949 1036.81 674.568C1035.23 676.152 1033.83 684.82 1033.7 693.907C1033.49 708.409 1032.65 711.238 1026.67 717.596L1019.88 724.816L1009.12 720.951C1000.3 717.78 997.598 717.643 994.111 720.191C990.64 722.727 988.646 722.67 983.249 719.882C977.307 716.812 975.763 716.983 967.97 721.577C963.202 724.388 958.667 729.207 957.894 732.286C956.901 736.236 954.136 738.326 948.505 739.381C944.115 740.204 938.582 743.019 936.211 745.637C933.839 748.255 930.773 749.703 929.398 748.854C928.022 748.004 920.592 747.537 912.886 747.815C901.233 748.235 898.042 747.427 893.929 743.017C890.71 739.566 887.226 738.173 883.95 739.029C880.564 739.913 878.103 738.823 876.429 735.698C873.315 729.885 856.085 729.316 845.779 734.686C841.944 736.685 836.779 738.326 834.303 738.335C829.202 738.352 815.673 724.973 815.673 719.911C815.673 716.294 803.629 709.159 797.524 709.159C791.494 709.159 775.719 699.828 773.873 695.17C772.503 691.712 772.155 691.988 772.016 696.646C771.922 699.797 769.106 705.628 765.758 709.603C759.425 717.121 757.767 728.177 762.294 732.7C764.168 734.572 763.113 737.122 758.6 741.631C753.474 746.752 750.799 747.661 744.411 746.452C740.081 745.633 735.217 743.928 733.602 742.663C731.987 741.398 729.668 740.979 728.449 741.732C725.936 743.283 719.801 736.902 717.446 730.289C716.278 727.006 713.845 726.072 707.945 726.64C703.584 727.06 698.919 726.09 697.58 724.484C695.714 722.247 692.017 722.753 681.753 726.653C674.388 729.451 665.245 731.622 661.435 731.476C656.472 731.287 654.876 732.166 655.803 734.579C657.25 738.346 653.437 740.282 640.57 742.316C635.767 743.075 631.082 744.159 630.159 744.724C629.235 745.29 625.948 743.064 622.854 739.778C619.469 736.183 613.864 733.497 608.783 733.036C601.604 732.383 599.999 731.083 598.082 724.363C596.842 720.015 594.342 716.457 592.527 716.457C590.479 716.457 589.227 713.672 589.227 709.12C589.227 703.126 587.662 701.038 580.68 697.712C574.588 694.81 571.382 694.391 569.518 696.253C565.394 700.373 557.714 697.028 553.76 689.39C549.945 682.02 542.963 679.86 542.963 686.051C542.963 688.057 541.32 689.699 539.311 689.699C536.45 689.699 535.659 686.37 535.659 674.33C535.659 665.876 533.94 653.18 531.841 646.116C529.741 639.052 528.53 632.765 529.15 632.145C529.77 631.526 527.654 628.19 524.446 624.732C517.225 616.949 517.176 615.32 524.093 613.103C528.855 611.578 528.315 611.103 519.961 609.476C513.038 608.128 509.425 608.529 507.04 610.912C503.711 614.237 494.45 614.11 486.147 610.624C482.661 609.16 482.391 608.312 484.918 606.751C487.459 605.183 487.11 603.965 483.296 601.086C480.624 599.069 477.103 597.384 475.471 597.341C473.839 597.299 473.134 595.622 473.905 593.615C474.93 590.947 473.601 589.966 468.959 589.966C462.895 589.966 460.474 585.615 464.371 581.721C465.34 580.754 466.373 576.193 466.668 571.586C467.107 564.728 466.346 563.209 462.473 563.209C459.871 563.209 455.609 561.079 453.004 558.476C449.213 554.688 446.797 554.163 440.917 555.848C432.895 558.146 411.078 554.269 385.912 546.073C377.876 543.456 369.745 541.315 367.841 541.315C365.938 541.316 362.446 539.567 360.081 537.429C357.717 535.291 354.748 534.18 353.484 534.96C349.738 537.274 348.377 549.539 351.43 553.479C353.87 556.627 353.692 556.685 350.131 553.9C343.644 548.828 334.66 551.165 335.358 557.743C336.014 563.92 329.442 565.33 324.059 560.168C321.468 557.684 321.133 558.908 322.228 566.857C325.158 588.135 325.132 588.579 320.897 589.438C318.619 589.899 314.384 587.553 311.487 584.224C308.589 580.895 304.876 578.685 303.235 579.314C299.358 580.801 295.288 575.734 294.227 568.099C293.71 564.381 291.514 561.685 288.541 561.118C285.876 560.611 282.202 558.063 280.375 555.457C278.509 552.796 275.478 551.323 273.46 552.097C271.483 552.854 267.214 552.809 263.972 551.996C259.473 550.868 258.079 548.889 258.079 543.628C258.079 535.204 254.394 532.387 251.011 538.224C249.11 541.503 248.707 539.751 249.322 530.891C249.978 521.436 249.261 518.786 245.505 516.777C242.961 515.417 241.044 512.993 241.245 511.391C242.144 504.234 240.743 502.13 235.556 502.851C231.463 503.419 229.883 502.251 229.311 498.232C228.63 493.448 227.486 493.001 218.963 494.192C213.337 494.978 209.38 494.532 209.38 493.113C209.38 491.783 204.724 490.929 199.032 491.216C190.575 491.642 188.546 492.673 187.933 496.861C187.519 499.679 185.561 502.606 183.579 503.365C179.601 504.89 176.497 499.376 178.458 494.269C180.822 488.115 176.674 485.646 166.304 487.035C158.425 488.091 155.887 489.604 154.811 493.886C153.393 499.53 143.638 504.165 143.638 499.194C143.638 497.684 141.899 498.928 139.774 501.959C136.828 506.16 136.571 508.265 138.692 510.818C140.846 513.411 140.482 514.723 137.077 516.636C132.946 518.958 133.024 519.428 138.368 524.419C142.249 528.044 143.613 531.377 142.662 534.915C141.896 537.767 141.254 541.468 141.236 543.14C141.218 544.813 139.559 546.181 137.551 546.181C133.15 546.181 132.664 554.862 136.917 557.488C143.702 561.677 127.476 562.214 117.74 558.122C108.927 554.418 106.854 554.312 101.135 557.276C97.5413 559.139 93.8551 560.559 92.9439 560.432C85.1608 559.343 82.7201 561.202 83.2258 567.831C83.5218 571.712 82.3727 576.561 80.6723 578.608C78.1079 581.695 78.3833 582.759 82.2877 584.846C84.8764 586.23 87.6865 586.671 88.5321 585.826C89.3778 584.982 90.0698 585.567 90.0698 587.128C90.0698 588.808 86.1736 589.966 80.5236 589.966C70.1769 589.966 70.8037 588.942 66.7504 612.467C65.5626 619.361 64.0163 621.589 60.4198 621.589C50.2783 621.589 46.2413 617.104 46.2413 605.836C46.2413 599.941 45.0745 594.398 43.6482 593.517C42.222 592.637 41.2424 589.015 41.4713 585.468C42.5582 568.629 41.3744 564.444 34.4036 560.483C28.6835 557.233 27.2331 554.473 26.1363 544.751C25.4047 538.267 23.5796 532.553 22.0805 532.054C18.421 530.835 12.1526 518.416 12.1526 512.384C12.1526 509.718 10.079 506.086 7.54464 504.312C3.60499 501.556 2.72372 496.756 1.46834 471.222L0 441.356L5.87968 447.694C11.0624 453.281 12.3599 453.657 16.8258 450.871C20.8965 448.331 22.8493 448.307 26.7621 450.748C31.1342 453.476 31.6319 453.178 31.6319 447.828C31.6319 444.551 32.7276 441.193 34.0668 440.367C35.406 439.54 36.5102 439.749 36.5207 440.831C36.5397 442.801 47.9258 448.88 51.5966 448.88C55.2737 448.88 53.547 441.825 49.285 439.435C45.5194 437.323 45.4706 436.873 48.8651 435.566C53.6547 433.721 65.7206 438.103 65.7206 441.687C65.7206 445.237 76.0793 441.969 78.6249 437.615C79.6959 435.784 82.1612 434.285 84.1035 434.285C86.0457 434.285 87.6348 433.318 87.6348 432.136C87.6348 430.955 89.8263 429.415 92.5047 428.715C98.5176 427.145 99.1411 414.618 93.7229 404.239C91.7311 400.424 90.734 394.784 91.5072 391.707C92.6861 387.014 91.7486 385.856 85.6973 384.528C79.4768 383.163 78.5606 381.942 79.0541 375.676C79.3688 371.679 81.9762 366.221 84.8481 363.548C91.0822 357.745 91.1905 356.693 86.275 349.682C82.6911 344.571 82.8227 344.14 88.6419 341.93C92.2941 340.542 95.4764 336.911 96.4556 333.013C97.8445 327.485 96.6553 325.108 88.9931 318.093L79.8784 309.748L86.6471 302.69C94.6541 294.341 96.3818 294.009 98.08 300.497C99.0138 304.064 101.401 305.362 107.03 305.362C112.02 305.362 114.124 304.42 113.041 302.67C110.706 298.895 116.747 280.9 122.535 274.389C125.191 271.402 129.382 268.318 131.848 267.536C136.52 266.055 138.167 255.698 134.127 253.204C132.913 252.455 132.461 249.777 133.121 247.254C133.782 244.73 133.131 241.93 131.675 241.031C127.722 238.591 128.481 232.387 132.733 232.387C134.77 232.387 137.686 229.65 139.211 226.305C140.736 222.961 143.452 220.224 145.246 220.224C147.04 220.224 148.508 219.168 148.508 217.877C148.508 216.586 150.865 214.27 153.747 212.729C158.209 210.343 158.762 210.511 157.475 213.86C155.462 219.103 159.59 218.883 163.588 213.535C165.338 211.193 172.026 206.804 178.45 203.78C191.145 197.806 197.174 198.911 202.106 208.117C206.473 216.27 209.553 213.646 207.881 203.196C206.798 196.436 207.205 193.466 209.213 193.466C210.802 193.466 211.353 192.254 210.437 190.773C209.35 189.016 210.357 188.579 213.337 189.516C223.017 192.56 244.594 195.899 254.585 195.899C265.03 195.899 274.142 190.487 271.336 185.951C268.739 181.753 272.884 174.32 278.282 173.494C281.232 173.043 283.371 171.332 283.037 169.692C282.702 168.051 284.619 166.709 287.298 166.709C290.305 166.709 292.175 165.081 292.186 162.452C292.205 158.351 302.001 152.114 308.424 152.114C310.135 152.114 313.462 149.103 315.818 145.424C321.725 136.2 326.425 132.828 333.561 132.694C342.089 132.533 344.875 130.151 346.775 121.396C348.167 114.984 349.803 113.565 357.185 112.368C363.623 111.325 367.695 112.194 372.55 115.648C376.184 118.232 379.698 119.806 380.361 119.144C381.023 118.482 383.021 119.693 384.799 121.834C386.916 124.382 387.172 126.293 385.541 127.366C382.27 129.518 379.667 139.951 382.401 139.951C383.568 139.951 385.838 142.405 387.445 145.405C391.036 152.109 390.4 202.907 386.669 207.399C385.265 209.089 380.019 211.698 375.01 213.197C367.51 215.442 364.858 215.238 359.97 212.038C351.068 206.211 343.169 181.577 343.248 159.886C343.273 152.942 339.118 155.081 335.441 163.904C331.953 172.274 331.791 172.922 331.43 179.924C331.231 183.794 329.231 186.415 325.647 187.501C316.221 190.356 309.212 198.58 309.212 206.783C309.212 210.964 307.897 215.699 306.29 217.305C304.367 219.226 304.27 220.224 306.006 220.224C307.457 220.224 309.217 222.413 309.917 225.089C311.339 230.521 317.606 231.588 320.634 226.913C321.717 225.241 322.604 221.16 322.604 217.844C322.604 214.082 324.18 211.505 326.797 210.99C330.145 210.33 330.928 211.82 330.681 218.385C330.059 234.912 341.51 243.108 346.249 229.527C348.799 222.221 348.897 222.187 362.4 223.872C370.611 224.897 377.159 227.157 378.952 229.585C380.612 231.834 380.915 233.962 379.639 234.419C375.817 235.786 379.794 239.684 385.012 239.684C390.873 239.684 396.008 235.015 397.24 228.566C397.741 225.939 400.515 223.533 403.541 223.102C406.514 222.678 411.049 219.66 413.62 216.395C416.575 212.641 419.726 211.008 422.191 211.953C426.756 213.703 426.938 215.241 423.612 223.979C421.739 228.902 420.376 229.852 418.007 227.888C412.519 223.337 404.758 227.303 403.59 235.255C402.192 244.769 407.604 250.385 416.124 248.262C431.339 244.47 451.097 246.184 457.154 251.822C460.188 254.646 462.975 255.659 463.844 254.254C464.663 252.93 467.63 251.847 470.437 251.847C475.37 251.847 475.395 252.007 471.175 256.666C467.517 260.704 467.327 262.11 470.008 265.336C471.959 267.685 475.281 268.667 478.525 267.854C481.887 267.01 485.294 268.123 487.792 270.88C490.25 273.594 494.594 275.043 499.297 274.718C506.094 274.248 506.709 274.767 505.424 279.883C504.212 284.706 504.844 285.481 509.582 284.976C517.626 284.119 521.049 281.425 521.049 275.952C521.049 267.232 527.81 268.012 536.797 277.768C545.319 287.019 549.436 294.842 547.041 297.234C546.361 297.914 547.938 300.602 550.547 303.208C553.156 305.814 555.941 311.196 556.736 315.168C557.531 319.14 559.554 322.39 561.231 322.39C566.245 322.39 570.266 315.69 568.53 310.227C567.634 307.408 568.222 303.549 569.844 301.596C571.915 299.104 571.974 298.064 570.046 298.064C565.747 298.064 566.844 290.913 572.182 284.133C574.861 280.731 577.052 275.359 577.052 272.195C577.052 268.113 578.431 266.442 581.799 266.442C584.409 266.442 591.765 261.516 598.145 255.495C604.524 249.475 609.987 244.549 610.284 244.549C610.581 244.549 613.635 245.617 617.07 246.921C625.505 250.125 625.191 258.317 616.225 268.966C611.081 275.077 609.472 279.114 610.363 283.679C611.124 287.579 610.116 291.443 607.713 293.844C605.581 295.974 603.836 298.684 603.836 299.866C603.836 301.048 601.622 306.593 598.916 312.188C595.811 318.609 594.559 324.601 595.522 328.434C596.625 332.822 595.924 334.938 592.997 336.06C590.77 336.914 589.537 339.148 590.258 341.025C591.066 343.129 589.252 345.318 585.528 346.732C582.205 347.994 579.487 350.068 579.487 351.341C579.487 352.614 575.943 355.422 571.612 357.581C564.285 361.232 563.523 361.212 560.655 357.294C558.96 354.978 557.573 353.973 557.573 355.061C557.573 356.15 555.929 355.678 553.92 354.012C551.709 352.179 550.268 351.983 550.268 353.516C550.268 359.713 553.891 364.173 561.506 367.351C568.911 370.442 570.796 370.303 580.685 365.933C594.995 359.609 604.931 350.229 605.545 342.464C606.191 334.285 608.817 331.968 615.471 333.706C621.696 335.333 625.358 345.647 621.189 349.812C617.793 353.205 617.559 363.742 620.881 363.742C622.22 363.742 625.615 366.04 628.426 368.847L633.536 373.953L631.724 368.249C630.727 365.112 628.168 361.271 626.037 359.715C622.514 357.141 622.547 356.46 626.391 352.216C628.717 349.649 630.62 345.18 630.62 342.285C630.62 335.916 621.478 324.836 616.18 324.785C614.078 324.764 610.946 323.853 609.22 322.759C605.295 320.271 609.028 309.178 616.457 301.255C620.04 297.433 621.175 293.595 620.48 287.65C619.517 279.402 622.781 273.739 628.499 273.739C630.125 273.739 633.732 271.824 636.516 269.482C641.446 265.336 641.48 265.351 637.794 270.091C635.713 272.766 633.714 278.5 633.352 282.831C632.815 289.257 633.848 291.232 638.962 293.56C642.409 295.129 645.23 297.332 645.23 298.455C645.23 299.578 646.839 300.497 648.806 300.497C653.395 300.497 650.88 293.189 644.781 288.805C639.432 284.959 638.953 278.604 644.012 278.604C646.021 278.604 647.665 279.699 647.665 281.037C647.665 282.375 649.436 283.469 651.601 283.469C654.29 283.469 655.148 281.983 654.309 278.776C653.41 275.344 654.27 274.172 657.508 274.416C659.944 274.599 661.4 275.617 660.744 276.677C660.088 277.737 661.239 278.604 663.301 278.604C665.364 278.604 667.741 281.35 668.584 284.707C669.513 288.405 672.409 291.384 675.935 292.268C683.025 294.046 683.463 297.05 676.883 298.769C673.558 299.638 672.014 302.087 672.014 306.494C672.014 310.567 673.001 312.337 674.692 311.293C676.281 310.312 676.071 311.984 674.174 315.407C672.417 318.578 671.327 322.268 671.752 323.606C672.676 326.512 674.003 332.618 674.262 335.16C674.536 337.838 681.753 337.39 681.753 334.696C681.753 333.437 680.699 331.756 679.411 330.961C677.912 330.035 677.912 327.301 679.411 323.361C680.699 319.977 681.753 313.923 681.753 309.909C681.753 305.894 682.951 300.375 684.414 297.643C686.338 294.052 686.338 291.941 684.414 290.019C682.951 288.557 681.753 285.785 681.753 283.859C681.753 281.933 680.122 279.142 678.129 277.656C675.527 275.717 674.921 272.439 675.98 266.034L677.456 257.112L694.213 257.52C706.027 257.808 710.97 258.85 710.971 261.054C710.972 263.354 712.176 263.537 715.524 261.747C718.972 259.903 719.944 256.961 719.529 249.624C719.161 243.106 720.113 239.501 722.436 238.61C724.336 237.882 725.283 236.304 724.54 235.103C722.61 231.984 738.302 225.089 747.332 225.089C751.86 225.089 755.522 223.608 756.355 221.44C757.913 217.384 764.54 216.399 764.54 220.224C764.54 221.562 766.513 222.656 768.925 222.656C774.366 222.656 786.41 217.219 786.435 214.751C786.446 213.747 789.004 212.926 792.12 212.926C796.974 212.926 797.639 211.926 796.759 205.941C795.456 197.07 807.193 184.598 812.614 189.093C815.294 191.315 815.318 192.199 812.745 193.86C810.216 195.492 810.314 196.376 813.239 198.294C815.247 199.611 818.261 200.706 819.935 200.727C821.609 200.747 822.978 202.953 822.978 205.629C822.978 211.316 827.366 212.147 829.402 206.845C831.573 201.195 842.335 202.526 851.606 209.59C858.051 214.501 859.233 216.485 856.705 218.15C854.029 219.912 854.211 220.926 857.676 223.579C863.796 228.265 863.022 231.567 853.436 241.671C848.76 246.599 844.925 251.765 844.914 253.153C844.902 254.54 839.962 260.889 833.935 267.263C827.909 273.636 823.013 280.163 823.056 281.768C823.099 283.404 824.554 282.816 826.368 280.429C828.147 278.087 831.873 276.172 834.648 276.172C837.615 276.172 840.354 274.094 841.296 271.131C842.24 268.159 844.277 266.619 846.259 267.379C848.108 268.088 851.218 267.072 853.17 265.122C857.782 260.515 865.9 260.573 867.687 265.225C868.458 267.232 870.283 268.874 871.744 268.874C873.204 268.874 873.796 267.899 873.059 266.708C871.092 263.528 882.663 256.712 890.027 256.712C893.517 256.712 898.017 258.354 900.026 260.36C904.731 265.061 916.218 265.024 925.406 260.277C931.567 257.094 932.25 255.833 930.043 251.713C926.463 245.031 929.061 242.028 937.041 243.622C941.52 244.517 944.846 243.684 946.96 241.139C949.829 237.686 950.847 237.812 957.327 242.421C961.477 245.373 963.965 248.958 963.217 250.906C962.474 252.838 963.449 254.279 965.497 254.279C969.59 254.279 970.281 258.111 966.598 260.385C963.038 262.583 966.479 267.023 970.537 265.468C972.753 264.618 973.943 265.856 973.943 269.011C973.943 272.014 976.491 274.903 980.639 276.6C990.128 280.484 997.259 280.209 996.199 276C995.718 274.088 994.951 268.942 994.494 264.564C993.797 257.881 994.286 256.953 997.541 258.773C1003.13 261.9 1010.47 259.305 1010.47 254.198C1010.47 248.607 1015.03 247.039 1022.1 250.204C1029.1 253.342 1035.94 248.311 1029.93 244.448C1026.91 242.51 1027.19 241.87 1031.61 240.659C1036.36 239.355 1036.63 238.52 1034.09 232.753C1032.54 229.207 1030.26 225.595 1029.03 224.726C1027.8 223.858 1027.68 221.121 1028.76 218.645C1029.84 216.169 1030.6 213.499 1030.46 212.713C1030.32 211.927 1034.81 208.941 1040.43 206.078C1048.93 201.746 1050.77 201.476 1051.43 204.467C1052.39 208.835 1056.63 209.26 1056.97 205.021C1057.11 203.348 1057.98 204.717 1058.91 208.061C1061.53 217.49 1065.17 215.249 1066.01 203.689C1066.62 195.118 1067.86 192.818 1072.86 190.918C1081.82 187.517 1084.02 188.052 1082.37 193.228C1081.01 197.503 1081.68 197.679 1091.14 195.556C1096.77 194.293 1103 193.884 1105 194.648C1108.99 196.179 1120.04 187.097 1120.04 182.283C1120.04 180.612 1122.87 175.877 1126.34 171.76C1131.58 165.538 1134.41 164.276 1143.12 164.276C1150.19 164.276 1154.06 165.464 1155.01 167.925C1158.02 175.78 1176.95 169.77 1175.9 161.29C1175.07 154.639 1179.42 146.769 1185.12 144.606C1188.4 143.358 1192.35 139.004 1193.89 134.931C1195.88 129.665 1197.92 127.849 1200.97 128.645C1203.33 129.261 1205.93 128.677 1206.75 127.348C1207.57 126.019 1210.27 125.462 1212.75 126.109C1215.23 126.756 1218.53 125.757 1220.08 123.888C1224.11 119.038 1218.65 113.193 1210.09 113.193C1200.5 113.193 1199.49 107.376 1207.58 98.7226C1211.39 94.6405 1214.02 91.3006 1213.4 91.3006C1212.79 91.3006 1214.27 87.7885 1216.69 83.4959C1223.36 71.6558 1232.78 64.1692 1255.18 52.9088C1259.19 50.8886 1264.33 47.6468 1266.59 45.7047C1268.85 43.7627 1271.75 42.822 1273.03 43.6144C1274.31 44.4067 1276.03 43.3057 1276.85 41.1677C1277.76 38.8059 1279.88 37.8677 1282.25 38.7768C1285.14 39.8858 1285.75 39.2327 1284.61 36.2538C1283.25 32.7067 1284.79 32.3906 1297.73 33.563C1309.33 34.6141 1312.4 34.1779 1312.4 31.4734C1312.4 29.4491 1309.91 28.0553 1306.31 28.0553C1299.24 28.0553 1298.77 26.7205 1304.01 21.4866C1306.1 19.4028 1307.25 16.2531 1306.57 14.4873C1305.86 12.6413 1307.61 10.5712 1310.69 9.61679C1313.64 8.70383 1319.06 5.83667 1322.74 3.24533C1329.78 -1.70902 1329.52 -1.91193 1330.41 9.20326C1330.55 10.8756 1331.75 13.0649 1333.09 14.0683C1334.62 15.2147 1334.2 16.7476 1331.95 18.1929C1329.98 19.4581 1328.95 21.0753 1329.66 21.7867C1330.95 23.0792 1340 25.1006 1346.02 25.442C1347.82 25.5439 1348.44 26.8646 1347.45 28.4686C1346.26 30.3822 1347.01 30.8057 1349.74 29.7612C1352.38 28.747 1353.79 29.4477 1353.79 31.7804C1353.79 33.7452 1352.69 35.3528 1351.35 35.3528C1350.01 35.3528 1349.15 36.1738 1349.42 37.1772C1349.7 38.1806 1346.67 42.3963 1342.7 46.5454C1336.85 52.6431 1334.67 53.586 1331.3 51.4642C1328.03 49.4015 1326.36 49.8699 1323.5 53.6504C1321.49 56.2966 1319.82 60.9246 1319.78 63.9349C1319.72 68.0948 1318.27 69.408 1313.76 69.408C1310.49 69.408 1307.14 68.3134 1306.31 66.9755C1304.07 63.3548 1300.94 64.0282 1299.22 68.5008C1297.34 73.4009 1304.7 79.4239 1310.45 77.6954C1313.45 76.7974 1316.01 79.2073 1319.65 86.3426C1325.18 97.1697 1323.79 103.536 1314.87 108.31C1311.87 109.914 1310.7 112.277 1311.66 114.788C1313.06 118.429 1313.41 118.426 1316.1 114.751C1317.71 112.556 1321.36 110.761 1324.23 110.761C1327.1 110.761 1329.44 109.592 1329.44 108.164C1329.44 105.137 1339.59 107.726 1341.92 111.348C1342.88 112.835 1344.04 112.742 1345.06 111.098C1347.13 107.754 1364.2 108.24 1366.46 111.708C1368.47 114.792 1359.28 125.356 1354.58 125.356C1350.57 125.356 1350.32 129.47 1354.25 130.781C1356.06 131.381 1357.4 138.45 1357.8 149.49C1358.16 159.25 1359.63 170.787 1361.06 175.129C1362.5 179.471 1364.1 185.237 1364.62 187.942C1365.14 190.647 1366.66 196.827 1368 201.677C1370.31 210.034 1370.14 210.494 1364.61 210.494C1357.36 210.494 1351.48 220.892 1350.94 234.693C1350.61 243.089 1350.04 244.056 1346.91 241.476C1343.74 238.861 1343.44 239.819 1344.64 248.806C1345.65 256.332 1345.17 259.144 1342.88 259.144C1337.65 259.144 1336.54 269.462 1341.09 275.762C1343.39 278.941 1348.01 286.618 1351.35 292.822C1357.42 304.06 1365.96 309.364 1365.96 301.892C1365.96 299.787 1367.73 298.064 1369.9 298.064C1372.58 298.064 1373.45 299.552 1372.61 302.736C1371.7 306.215 1373.03 307.868 1377.81 309.216C1381.34 310.211 1385.16 310.808 1386.3 310.542C1387.45 310.276 1390.46 310.718 1393 311.523C1398.47 313.256 1399.23 319.957 1393.96 319.957C1391.96 319.957 1390.31 321.999 1390.31 324.494C1390.31 331.026 1399.58 341.85 1405.18 341.85C1410.89 341.85 1413.99 348.363 1410.12 352.23C1408.6 353.745 1407.36 358.992 1407.36 363.888C1407.36 370.445 1408.9 373.946 1413.2 377.173C1418.75 381.339 1418.88 382.015 1415.74 390.892C1413.12 398.324 1413.07 400.23 1415.53 400.23C1419.58 400.23 1429.27 422.559 1429.27 431.876C1429.27 441.441 1422.99 441.544 1414.1 432.125C1410.44 428.261 1402.8 422.671 1397.1 419.704C1376.8 409.133 1339.18 374.436 1339.18 366.281C1339.18 359.797 1334.09 349.147 1331 349.147C1329.46 349.147 1329.62 347.998 1331.39 346.228C1335.71 341.911 1335.15 316.387 1330.66 312.66C1328.65 310.994 1327 307.641 1327 305.208C1327 302.775 1325.86 300.075 1324.45 299.208C1322.67 298.109 1322.68 296.696 1324.46 294.544C1326.29 292.342 1325.82 288.203 1322.82 280.105C1319.31 270.657 1319.13 267.915 1321.73 263.758C1325.27 258.088 1323.79 255.237 1311.59 244.216C1307.19 240.245 1304.48 235.381 1304.48 231.445C1304.48 224.109 1300.97 223.208 1296.31 229.346C1291.79 235.287 1292.15 239.062 1297.79 245.109C1300.54 248.066 1302.66 253.694 1302.66 258.083C1302.66 262.346 1303.32 269.175 1304.14 273.259C1305.34 279.239 1304.85 280.572 1301.65 280.102C1299.46 279.781 1295.99 277.123 1293.94 274.196C1289.62 268.046 1285.61 267.239 1285.61 272.523C1285.61 274.53 1283.87 276.172 1281.73 276.172C1279.6 276.172 1277.28 278.361 1276.58 281.037C1275.88 283.713 1274.42 285.902 1273.35 285.902C1269.89 285.902 1267.97 300.492 1270.95 304.077C1272.49 305.937 1274.38 313.828 1275.15 321.613C1275.92 329.399 1278.12 338.877 1280.04 342.676C1283.39 349.313 1283.71 349.418 1288.22 345.34C1290.97 342.854 1292.92 342.266 1292.92 343.921C1292.92 345.475 1290.18 349.126 1286.83 352.035C1283.48 354.943 1280.74 358.84 1280.74 360.696C1280.74 362.914 1279.14 363.563 1276.08 362.591C1273.51 361.778 1270.77 362.148 1269.99 363.415C1269.2 364.682 1266.37 365.146 1263.69 364.447C1260.31 363.562 1258.83 364.373 1258.83 367.107C1258.83 369.27 1258.01 370.91 1257 370.752C1249.76 369.61 1246.39 371.74 1245.08 378.283C1243.59 385.734 1240.25 389.552 1231.17 394.196C1228.3 395.664 1226.11 398.756 1226.31 401.066C1226.55 403.971 1225.8 404.55 1223.86 402.945C1221.96 401.369 1218.17 403.277 1212.03 408.895C1198.37 421.401 1194.73 428.101 1196.49 437.489C1197.33 441.939 1197.19 446.404 1196.18 447.412C1195.17 448.42 1194.15 454.694 1193.91 461.354C1193.66 468.014 1192.3 474.873 1190.86 476.596C1189.43 478.32 1188.37 486.871 1188.5 495.6C1188.63 504.328 1187.52 513.735 1186.04 516.503C1184.56 519.271 1183.35 524.28 1183.35 527.634C1183.35 530.987 1182.25 534.408 1180.91 535.235C1179.57 536.062 1178.48 538.863 1178.48 541.459C1178.48 545.063 1180.17 546.181 1185.64 546.181C1189.57 546.181 1193.47 545.094 1194.29 543.767C1195.12 542.433 1198.42 544.339 1201.66 548.024C1206.37 553.372 1207.56 553.851 1207.62 550.438C1207.71 545.266 1212.56 544.669 1212.56 549.83C1212.56 551.837 1214.21 553.479 1216.22 553.479C1218.23 553.479 1219.87 551.837 1219.87 549.83C1219.87 547.823 1221.51 546.181 1223.52 546.181C1227.68 546.181 1228.48 539.974 1224.62 537.594C1219.89 534.673 1227.61 528.637 1234.34 529.995C1249.1 532.973 1256.63 535.354 1256.55 537.018C1256.51 538 1260.39 542.71 1265.17 547.486C1270.63 552.949 1273.32 557.57 1272.41 559.944C1270.49 564.95 1275.55 581.406 1280.72 586.948C1282.98 589.375 1287.76 597.191 1291.35 604.316C1297.84 617.23 1297.86 617.407 1296.77 661.391C1295.61 708.002 1294.96 716.054 1291.91 720.975C1290.87 722.656 1290.66 726.587 1291.45 729.71C1293.29 737.047 1284.62 756.729 1276.21 764.276C1270.86 769.086 1268.07 769.816 1259.49 768.653L1249.19 767.257L1247.61 777.129C1246.36 784.969 1245 787 1241.01 787C1236.22 787 1236.19 786.847 1240.43 783.752ZM1357.66 662.752C1353.98 658.634 1351.58 653.709 1352.31 651.806C1353.04 649.903 1352.66 648.347 1351.46 648.347C1348.97 648.347 1341.61 634.577 1341.61 629.927C1341.61 628.235 1337.91 624.563 1333.38 621.766C1328.85 618.969 1323.71 613.133 1321.96 608.797C1320.2 604.46 1315.05 595.987 1310.5 589.966C1305.95 583.946 1300.74 575.462 1298.92 571.114C1296.7 565.842 1293.94 563.209 1290.61 563.209C1285.61 563.209 1275.87 555.367 1275.87 551.344C1275.87 550.17 1274.23 547.846 1272.22 546.181C1270.21 544.515 1268.57 541.457 1268.57 539.385C1268.57 537.313 1266.69 533.549 1264.4 531.021C1261.16 527.446 1260.93 526 1263.33 524.517C1267.67 521.836 1264.15 509.357 1258.65 507.92C1256.13 507.26 1254.85 505.347 1255.6 503.372C1257.63 498.085 1261.14 499.332 1263.79 506.28C1265.11 509.754 1268.37 513.166 1271.03 513.861C1273.69 514.557 1275.87 516.674 1275.87 518.567C1275.87 520.46 1277.79 522.691 1280.13 523.526C1287.59 526.183 1290.7 529.607 1288.29 532.517C1285.39 536.006 1291.84 543.944 1300.83 547.954C1304.51 549.597 1307.53 552.06 1307.53 553.426C1307.53 554.793 1308.73 555.911 1310.2 555.911C1311.66 555.911 1319.61 561.82 1327.85 569.042C1336.09 576.264 1346.67 583.837 1351.35 585.871L1359.88 589.569L1348.23 589.768C1334.06 590.009 1332.58 592.733 1337.97 608.592C1343.38 624.529 1350.89 636.168 1355.81 636.261C1358.05 636.304 1362.01 637.951 1364.62 639.922C1367.23 641.892 1371.15 642.936 1373.34 642.242C1378.62 640.568 1384.87 652.988 1380.21 655.871C1378.53 656.908 1376.16 657.144 1374.95 656.396C1373.74 655.648 1374.23 654.095 1376.05 652.945C1378.48 651.406 1378.55 650.844 1376.31 650.816C1371.06 650.752 1363.89 659.592 1366.21 663.263C1372.23 672.756 1366.26 672.399 1357.66 662.752ZM1346.68 654.631C1346.57 652.066 1347.15 650.63 1347.96 651.438C1348.76 652.246 1348.85 654.344 1348.15 656.1C1347.37 658.041 1346.79 657.464 1346.68 654.631ZM1414.66 644.228C1414.66 637.311 1415.86 633.812 1418.59 632.766C1421.94 631.481 1422.27 632.605 1420.84 640.411C1418.37 653.815 1414.66 656.107 1414.66 644.228ZM1423.66 627.333C1420.23 623.909 1421.82 602.704 1425.62 601.249C1427.63 600.479 1429.27 598.173 1429.27 596.124C1429.27 594.075 1430.37 592.399 1431.71 592.399C1435.03 592.399 1434.77 595.161 1430.51 605.345C1428.52 610.116 1427.51 615.656 1428.28 617.656C1429.92 621.909 1426.14 629.812 1423.66 627.333ZM1436.75 578.555C1436.65 574.286 1437.67 570.117 1439.01 569.29C1441.93 567.487 1441.93 574.663 1439.01 581.452C1437.25 585.553 1436.89 585.098 1436.75 578.555ZM1444.27 541.316C1444.27 537.971 1444.82 536.603 1445.49 538.275C1446.17 539.948 1446.17 542.684 1445.49 544.357C1444.82 546.029 1444.27 544.661 1444.27 541.316ZM1201.61 529.153C1200.78 527.815 1201.26 526.721 1202.68 526.721C1204.1 526.721 1205.26 527.815 1205.26 529.153C1205.26 530.491 1204.78 531.586 1204.19 531.586C1203.59 531.586 1202.43 530.491 1201.61 529.153ZM1435.28 497.409C1433.05 493.794 1434.83 492.514 1438.73 494.926C1440.83 496.219 1441.07 497.473 1439.44 498.483C1438.05 499.341 1436.18 498.857 1435.28 497.409ZM1431.71 480.503C1431.71 479.165 1432.8 478.071 1434.14 478.071C1435.48 478.071 1436.58 479.165 1436.58 480.503C1436.58 481.841 1435.48 482.936 1434.14 482.936C1432.8 482.936 1431.71 481.841 1431.71 480.503ZM1429.07 467.124C1428.86 465.786 1428.84 463.826 1429.02 462.769C1429.19 461.711 1428.28 458.869 1426.98 456.452C1425.39 453.475 1425.53 451.153 1427.44 449.253C1430.94 445.754 1434.98 445.556 1432.86 448.987C1431.99 450.383 1432.39 452.85 1433.73 454.467C1435.4 456.471 1435.1 459.344 1432.81 463.483C1430.96 466.823 1429.28 468.462 1429.07 467.124ZM1271 369.967C1271 369.377 1272.1 368.218 1273.44 367.391C1274.78 366.564 1275.87 367.047 1275.87 368.464C1275.87 369.881 1274.78 371.04 1273.44 371.04C1272.1 371.04 1271 370.557 1271 369.967ZM521.049 259.144C521.049 255.131 522.145 251.847 523.484 251.847C524.823 251.847 525.919 255.131 525.919 259.144C525.919 263.158 524.823 266.442 523.484 266.442C522.145 266.442 521.049 263.158 521.049 259.144ZM858.467 249.709C857.712 248.489 858.732 246.864 860.733 246.097C862.734 245.329 864.372 245.697 864.372 246.914C864.372 250.212 860.045 252.259 858.467 249.709ZM618.794 239.91C616.345 238.39 616.229 237.404 618.348 236.096C621.689 234.033 624.197 235.859 622.96 239.454C622.454 240.926 620.735 241.115 618.794 239.91ZM510.629 232.592C505.359 226.326 504.476 223.804 506.64 221.2C510.269 216.831 507.402 205.629 502.655 205.629C499.776 205.629 499.511 204.606 501.452 200.983C503.016 198.064 505.638 196.781 508.506 197.53C511.281 198.255 515.729 196.262 519.85 192.446C527.643 185.231 530.449 184.785 537.019 189.716C541.562 193.126 541.332 193.635 531.107 202.804C521.478 211.438 520.321 213.688 518.932 226.492L517.397 240.639L510.629 232.592ZM449.625 230.765C446.799 227.942 447.849 225.342 452.908 222.637C456.818 220.546 458.125 220.826 459.35 224.013C461.382 229.305 453.583 234.719 449.625 230.765ZM1017.17 200.156C1014.36 192.509 1021.15 188.746 1030.96 192.51C1036.48 194.625 1035.73 197.134 1028.61 200.373C1020.72 203.967 1018.56 203.926 1017.17 200.156ZM542.963 188.601C541.196 185.303 541.169 183.736 542.878 183.736C544.264 183.736 545.124 182.368 544.79 180.696C544.449 178.997 546.061 177.97 548.442 178.37C550.786 178.763 552.703 178.075 552.703 176.84C552.703 175.606 555.99 173.236 560.008 171.574C564.025 169.911 567.312 167.828 567.312 166.944C567.312 166.06 570.14 165.103 573.596 164.818C577.052 164.532 581.651 163.308 583.817 162.097C586.166 160.784 590.096 160.786 593.564 162.104C596.76 163.318 600.427 163.662 601.712 162.868C602.998 162.074 605.666 162.765 607.641 164.402C610.021 166.376 615.778 166.911 624.717 165.989C635.285 164.9 638.5 165.376 639.582 168.191C640.341 170.167 640.262 172.482 639.408 173.335C637.06 175.681 614.012 178.211 611.141 176.439C609.76 175.586 602.894 175.848 595.885 177.02C588.875 178.193 580.024 179.463 576.217 179.843C572.41 180.222 568.575 181.527 567.695 182.743C566.815 183.958 563.356 185.247 560.008 185.607C556.66 185.967 552.704 187.883 551.217 189.864C547.627 194.648 546.076 194.411 542.963 188.601ZM1008.03 192.394C1008.03 191.804 1009.13 190.644 1010.47 189.818C1011.81 188.991 1012.9 189.473 1012.9 190.89C1012.9 192.307 1011.81 193.466 1010.47 193.466C1009.13 193.466 1008.03 192.984 1008.03 192.394ZM66.4834 188.097C65.1405 186.368 63.3581 183.037 62.5227 180.696C61.6316 178.198 58.515 176.439 54.9837 176.439C51.6726 176.439 48.2593 175.3 47.3985 173.909C46.3836 172.268 48.0451 171.933 52.1246 172.956C57.3201 174.259 58.4159 173.686 58.4159 169.665C58.4159 160.886 70.3737 160.969 70.5532 169.749C70.5737 170.753 72.3002 171.574 74.3898 171.574C77.29 171.574 78.0103 173.728 77.4335 180.675C76.6381 190.254 71.082 194.02 66.4834 188.097ZM986.769 185.132C980.823 182.383 975.778 171.1 977.958 165.424C979.595 161.163 982.292 160.929 988.921 164.473C994.709 167.568 998.015 165.459 993.868 161.317C989.231 156.684 990.4 155.79 1001.77 155.281C1012.65 154.793 1019.78 159.059 1016.62 164.17C1014.15 168.163 1006.11 167.138 1003.14 162.452C1001.32 159.575 1000.75 159.377 1001.39 161.844C1001.9 163.85 1004.75 166.708 1007.71 168.194L1013.08 170.896L1006.3 175.425C1002.56 177.915 998.553 179.665 997.384 179.313C996.216 178.96 995.873 180.268 996.622 182.219C998.407 186.866 993.597 188.288 986.769 185.132ZM791.142 170.117C793.921 164.937 796.194 159.315 796.194 157.623C796.194 155.931 797.29 154.546 798.629 154.546C799.968 154.546 801.064 155.641 801.064 156.979C801.064 158.316 802.238 159.411 803.673 159.411C807.912 159.411 813.814 166.567 812.467 170.074C811.782 171.856 808.115 173.991 804.317 174.818C800.519 175.645 794.864 177.044 791.751 177.928L786.089 179.534L791.142 170.117ZM771.236 160.452C762.911 155.94 762.289 146.667 769.952 141.305C776.863 136.469 780.071 136.478 778.208 141.326C777.1 144.21 777.874 144.776 781.395 143.66C786.959 141.896 790.02 145.88 787.513 151.622C786.519 153.899 785.943 157.678 786.233 160.019C786.886 165.287 780.497 165.471 771.236 160.452ZM1021.8 152.688C1020.4 150.38 1025.24 146.163 1029.95 145.58C1031.95 145.331 1036.33 144.313 1039.66 143.318C1045.55 141.564 1045.62 141.679 1041.98 147.155C1038.32 152.659 1024.14 156.548 1021.8 152.688ZM756.424 143.194C753.466 140.24 754.742 137.648 758.453 139.071C760.462 139.841 762.105 141.449 762.105 142.644C762.105 145.194 758.751 145.519 756.424 143.194ZM761.227 133.874C759.302 128.864 763.587 120.491 768.075 120.491C769.926 120.491 771.928 119.123 772.526 117.45C773.978 113.39 776.001 115.508 777.759 122.928C779.57 130.573 777.178 134.267 769.107 136.29C764.454 137.457 762.356 136.813 761.227 133.874ZM1190.65 121.967C1190.65 121.442 1192.29 120.381 1194.3 119.611C1196.31 118.841 1197.95 119.271 1197.95 120.567C1197.95 121.863 1196.31 122.923 1194.3 122.923C1192.29 122.923 1190.65 122.493 1190.65 121.967ZM646.316 88.6562C645.416 87.2017 645.635 85.058 646.801 83.8924C649.681 81.0155 656.019 85.2034 653.92 88.5962C651.793 92.0344 648.422 92.061 646.316 88.6562ZM659.839 88.8681C659.839 87.5303 662.095 86.4356 664.853 86.4356C667.61 86.4356 669.189 87.5303 668.361 88.8681C667.534 90.206 665.278 91.3006 663.348 91.3006C661.418 91.3006 659.839 90.206 659.839 88.8681ZM639.16 71.8684C638.307 70.4895 639.284 70.0817 641.451 70.9124C645.669 72.5295 646.441 74.273 642.938 74.273C641.678 74.273 639.978 73.1909 639.16 71.8684ZM609.923 62.1105C602.419 60.2029 603.813 59.3736 615.24 58.9482C618.833 58.8144 622.212 60.0185 622.747 61.624C623.815 64.8224 621.01 64.9288 609.923 62.1105ZM605.459 53.1912C604.567 52.2993 603.836 50.7599 603.836 49.7702C603.836 47.4315 613.25 49.8857 614.975 52.674C616.506 55.1486 607.888 55.617 605.459 53.1912ZM1203.25 43.8181C1199.19 34.922 1199.68 31.0359 1205.26 28.0553C1210.64 25.1811 1210.82 25.5431 1210.18 37.7853C1209.58 49.0744 1206.76 51.5303 1203.25 43.8181Z" stroke="#E26D5C" stroke-width="2" mask="url(#path-1-inside-1_1123_39561)"/>
</svg>
