<svg width="60" height="38" viewBox="0 0 60 38" fill="none" xmlns="http://www.w3.org/2000/svg">
<path d="M38.1608 4.74072H21.9883V33.7759H38.1608V4.74072Z" fill="#FF5F00"/>
<path d="M23.0153 19.2585C23.0127 16.4622 23.647 13.702 24.87 11.1868C26.0931 8.67155 27.8729 6.46732 30.0746 4.7409C27.348 2.59974 24.0735 1.26819 20.6252 0.89843C17.1769 0.528673 13.6941 1.13562 10.5748 2.64992C7.4555 4.16422 4.82556 6.52478 2.98561 9.46176C1.14565 12.3987 0.169922 15.7937 0.169922 19.2585C0.169922 22.7233 1.14565 26.1182 2.98561 29.0552C4.82556 31.9922 7.4555 34.3527 10.5748 35.867C13.6941 37.3813 17.1769 37.9883 20.6252 37.6185C24.0735 37.2488 27.348 35.9172 30.0746 33.776C27.8729 32.0496 26.0931 29.8454 24.8701 27.3302C23.647 24.815 23.0127 22.0548 23.0153 19.2585Z" fill="#EB001B"/>
<path d="M59.9779 19.2585C59.978 22.7232 59.0024 26.1181 57.1626 29.0551C55.3227 31.9921 52.6929 34.3527 49.5736 35.867C46.4544 37.3813 42.9716 37.9883 39.5234 37.6185C36.0751 37.2488 32.8006 35.9172 30.0741 33.776C32.2739 32.0479 34.0523 29.8433 35.2752 27.3285C36.498 24.8137 37.1334 22.0543 37.1334 19.2585C37.1334 16.4626 36.498 13.7033 35.2752 11.1885C34.0523 8.67365 32.2739 6.46906 30.0741 4.7409C32.8006 2.59973 36.0751 1.26818 39.5234 0.898426C42.9716 0.528672 46.4544 1.13564 49.5736 2.64996C52.6929 4.16428 55.3227 6.52484 57.1626 9.46182C59.0024 12.3988 59.978 15.7937 59.9779 19.2585Z" fill="#F79E1B"/>
<path d="M58.2148 30.7006V30.1062H58.4548V29.9851H57.8438V30.1062H58.0838V30.7006H58.2148ZM59.4011 30.7006V29.9839H59.2138L58.9984 30.4769L58.7829 29.9839H58.5955V30.7006H58.7277V30.16L58.9298 30.6261H59.0669L59.2689 30.1588V30.7006H59.4011Z" fill="#F79E1B"/>
</svg>
