<svg width="86" height="26" viewBox="0 0 86 26" fill="none" xmlns="http://www.w3.org/2000/svg">
<path fill-rule="evenodd" clip-rule="evenodd" d="M77.0295 0.714355H60.707C61.5846 6.15517 66.8499 11.245 72.6417 11.245H85.6295C85.805 10.7184 85.805 10.0164 85.805 9.48987C85.805 4.57558 81.9438 0.714355 77.0295 0.714355Z" fill="url(#paint0_linear_538_11106)"/>
<path fill-rule="evenodd" clip-rule="evenodd" d="M62.1113 12.1226V25.2858H70.0093V18.2654H77.0297C80.8909 18.2654 84.2256 15.6328 85.2787 12.1226H62.1113Z" fill="#4DB45F"/>
<path fill-rule="evenodd" clip-rule="evenodd" d="M34.0291 0.714355V25.2858H41.0495C41.0495 25.2858 42.8046 25.2858 43.6821 23.5307C48.4209 14.0531 49.825 11.245 49.825 11.245H50.7025V25.2858H58.6005V0.714355H51.5801C51.5801 0.714355 49.825 0.889866 48.9474 2.46946C44.9107 10.5429 42.8046 14.7552 42.8046 14.7552H41.927V0.714355H34.0291Z" fill="#4DB45F"/>
<path fill-rule="evenodd" clip-rule="evenodd" d="M0.681641 25.2858V0.714355H8.5796C8.5796 0.714355 10.8612 0.714355 12.0898 4.22456C15.249 13.5266 15.6 14.7552 15.6 14.7552C15.6 14.7552 16.3021 12.4735 19.1102 4.22456C20.3388 0.714355 22.6204 0.714355 22.6204 0.714355H30.5184V25.2858H22.6204V12.1225H21.7429L17.3551 25.2858H13.8449L9.45715 12.1225H8.5796V25.2858H0.681641Z" fill="#4DB45F"/>
<defs>
<linearGradient id="paint0_linear_538_11106" x1="60.6617" y1="5.97966" x2="85.805" y2="5.97966" gradientUnits="userSpaceOnUse">
<stop stop-color="#00B4E6"/>
<stop offset="1" stop-color="#088CCB"/>
</linearGradient>
</defs>
</svg>
