<svg width="40" height="40" viewBox="0 0 40 40" fill="none" xmlns="http://www.w3.org/2000/svg">
<g clip-path="url(#clip0_1438_51032)">
<path d="M40 20C40 8.9543 31.0457 0 20 0C8.9543 0 0 8.9543 0 20C0 31.0457 8.9543 40 20 40C31.0457 40 40 31.0457 40 20Z" fill="#675DA9"/>
<path d="M29.795 10.1539C29.1335 9.54575 26.4551 7.59835 20.485 7.57167C20.485 7.57167 13.4477 7.14485 10.0171 10.2927C8.10707 12.2027 7.43483 14.9931 7.36548 18.461C7.29612 21.9236 7.20542 28.4167 13.4637 30.1772H13.469L13.4637 32.8609C13.4637 32.8609 13.4264 33.9493 14.1413 34.1681C15.0056 34.4348 15.5178 33.6078 16.3448 32.7168C16.7983 32.226 17.4225 31.5111 17.8973 30.9616C22.1762 31.319 25.4681 30.4974 25.8415 30.3747C26.7059 30.0919 31.5984 29.4677 32.3933 22.9747C33.215 16.2948 31.9931 12.064 29.795 10.1539ZM30.5206 22.5052C29.8484 27.9257 25.8842 28.2673 25.1533 28.502C24.8439 28.6033 21.9521 29.3237 18.3135 29.0835C18.3135 29.0835 15.6031 32.3541 14.7602 33.2024C14.6268 33.3358 14.472 33.3891 14.3707 33.3624C14.2266 33.3251 14.184 33.1543 14.1893 32.9036C14.1893 32.5408 14.2106 28.438 14.2106 28.438C14.2053 28.438 14.2053 28.438 14.2106 28.438C8.91271 26.9707 9.22212 21.4434 9.28087 18.5517C9.33954 15.66 9.88371 13.2857 11.5003 11.6905C14.3974 9.06558 20.3782 9.455 20.3782 9.455C25.4254 9.47633 27.8423 10.9969 28.4025 11.5037C30.2645 13.1043 31.2142 16.9191 30.5206 22.5052Z" fill="white"/>
<path d="M22.9443 18.6529C22.7682 18.6529 22.6188 18.5141 22.6081 18.3327C22.5495 17.1856 22.0106 16.6255 20.9115 16.5668C20.7248 16.5561 20.5807 16.3961 20.5914 16.2093C20.602 16.0226 20.7621 15.8786 20.9489 15.8892C22.4 15.9692 23.211 16.8016 23.2857 18.2954C23.2964 18.4821 23.1524 18.6422 22.9656 18.6476C22.955 18.6529 22.9496 18.6529 22.9443 18.6529Z" fill="white"/>
<path d="M24.673 19.2293H24.6677C24.481 19.224 24.3316 19.0693 24.337 18.8826C24.3636 17.7302 24.0328 16.7965 23.3285 16.0282C22.6296 15.2599 21.664 14.8438 20.3888 14.7531C20.202 14.7371 20.0634 14.577 20.0794 14.3903C20.0954 14.2035 20.2555 14.0648 20.4422 14.0808C21.8827 14.1875 23.0191 14.689 23.83 15.5747C24.6464 16.4657 25.0412 17.5808 25.0145 18.8986C25.0092 19.0853 24.8545 19.2293 24.673 19.2293Z" fill="white"/>
<path d="M26.4441 19.9231C26.2574 19.9231 26.108 19.7737 26.108 19.587C26.092 17.5222 25.4997 15.9483 24.294 14.7692C23.1042 13.6061 21.5943 13.0139 19.8177 12.9979C19.631 12.9979 19.4815 12.8432 19.4815 12.6565C19.4815 12.4697 19.6363 12.3203 19.8177 12.3203C21.7757 12.3363 23.4403 12.9926 24.7581 14.2837C26.0813 15.5749 26.7589 17.3568 26.7802 19.5763C26.7855 19.7684 26.6361 19.9231 26.4441 19.9231C26.4495 19.9231 26.4495 19.9231 26.4441 19.9231ZM20.9915 22.8307C20.9915 22.8307 21.4663 22.8735 21.7224 22.5586L22.2185 21.9345C22.4586 21.625 23.0402 21.4276 23.6057 21.7424C23.9205 21.9184 24.4914 22.2706 24.8435 22.532C25.2223 22.8094 25.9906 23.4496 25.996 23.455C26.364 23.7645 26.4495 24.218 26.1987 24.7035C26.1987 24.7035 26.1987 24.7088 26.1987 24.7141C25.9425 25.1676 25.5958 25.5945 25.1636 25.9892C25.1583 25.9892 25.1583 25.9946 25.153 25.9946C24.7955 26.2934 24.4434 26.4641 24.1019 26.5015C24.0592 26.5121 24.0112 26.5121 23.9472 26.5121C23.7978 26.5121 23.6484 26.4908 23.499 26.4427L23.4884 26.4267C22.9548 26.2774 22.0691 25.9039 20.5966 25.0876C19.6363 24.5594 18.8413 24.0206 18.1637 23.4816C17.8063 23.1989 17.4435 22.8841 17.07 22.5106C17.0593 22.5 17.0433 22.484 17.0326 22.4733C17.022 22.4626 17.006 22.4466 16.9953 22.436C16.9846 22.4253 16.9686 22.4093 16.958 22.3986C16.9473 22.388 16.9313 22.3719 16.9206 22.3612C16.5525 21.9878 16.2324 21.625 15.9496 21.2676C15.4107 20.5953 14.8719 19.795 14.3437 18.8346C13.5274 17.3567 13.1539 16.4711 13.0045 15.9429L12.9885 15.9322C12.9405 15.7829 12.9191 15.6335 12.9191 15.4841C12.9191 15.4201 12.9191 15.3721 12.9298 15.3294C12.9725 14.9826 13.1432 14.6357 13.4367 14.2783C13.4367 14.273 13.442 14.273 13.442 14.2676C13.8368 13.8301 14.2636 13.4886 14.7171 13.2326C14.7171 13.2326 14.7225 13.2326 14.7278 13.2326C15.208 12.9818 15.6615 13.0672 15.9763 13.4353C15.9763 13.4353 16.6219 14.209 16.8993 14.5877C17.1607 14.9452 17.5128 15.5107 17.6889 15.8256C18.0037 16.3911 17.8063 16.9726 17.4968 17.2127L16.8726 17.7089C16.5578 17.965 16.6005 18.4398 16.6005 18.4398C16.6005 18.4398 17.5235 21.9505 20.9915 22.8307Z" fill="white"/>
</g>
<defs>
<clipPath id="clip0_1438_51032">
<rect width="40" height="40" fill="white"/>
</clipPath>
</defs>
</svg>
