<svg width="86" height="26" viewBox="0 0 86 26" fill="none" xmlns="http://www.w3.org/2000/svg">
<path fill-rule="evenodd" clip-rule="evenodd" d="M32.1737 0.665539L21.2794 25.3865L13.955 25.3951L7.75234 4.68877L7.24976 3.12865L7.29122 3.15078L7.35933 3.18762L7.29248 3.15362L7.29168 3.1511C7.32422 3.1682 7.35622 3.18563 7.38863 3.20285C8.50456 3.77969 13.4587 6.53614 16.5219 11.0016C16.9882 13.2727 17.4347 15.3356 18.0651 17.5608L24.8423 0.665527H32.1736L32.1737 0.665539Z" fill="#006CB5"/>
<path fill-rule="evenodd" clip-rule="evenodd" d="M61.6446 17.3152C61.5936 22.4612 56.8756 25.7839 49.6023 25.7839C46.5021 25.7512 43.5123 25.1563 41.8888 24.4618L42.861 18.9172L43.7551 19.3164C46.0324 20.241 47.5009 20.612 50.2719 20.612C52.2629 20.612 54.3915 19.8504 54.4065 18.1876C54.4154 17.1024 53.5125 16.3322 50.8191 15.119C48.1969 13.9317 44.7204 11.9484 44.7645 8.38904C44.7979 3.57339 49.6205 0.216309 56.4575 0.216309C59.1353 0.216309 61.2796 0.750305 62.6541 1.25785L61.7159 6.62466L61.0885 6.33618C59.8206 5.83722 58.1788 5.35316 55.9103 5.38755C53.208 5.38755 51.9489 6.49058 51.9489 7.52347C51.94 8.67567 53.4173 9.44835 55.8327 10.592C59.8294 12.3563 61.6799 14.5008 61.6446 17.3152H61.6446Z" fill="#006CB5"/>
<path fill-rule="evenodd" clip-rule="evenodd" d="M80.4038 0.665543H75.061C73.4022 0.665543 72.1589 1.10605 71.4383 2.72513L61.16 25.4191H68.422C68.422 25.4191 69.6117 22.3678 69.8834 21.6972C70.6728 21.6972 77.7369 21.7145 78.7444 21.7145C78.9449 22.5807 79.5785 25.4191 79.5785 25.4191H86.0001L80.4038 0.665527V0.665543ZM71.8713 16.6362C73.1148 13.5547 74.3617 10.4512 75.546 7.34572C76.227 10.4444 76.9233 13.5397 77.6146 16.6362H71.8714H71.8713Z" fill="#006CB5"/>
<path fill-rule="evenodd" clip-rule="evenodd" d="M34.9709 0.639648H41.888L37.5598 25.4106H30.6445L34.9709 0.639648Z" fill="#006CB5"/>
<path fill-rule="evenodd" clip-rule="evenodd" d="M9.01054e-06 0.420906L11.7042 0.428909C13.1473 0.478721 14.3106 0.927742 14.7198 2.43617L16.5219 11.0012C13.4587 6.53572 8.50457 3.77929 7.38863 3.20245C7.35623 3.18522 7.32422 3.1678 7.29168 3.1507L7.29248 3.15322L7.35934 3.18722L7.29122 3.15038C7.10467 3.05056 6.91607 2.95229 6.72568 2.85596C4.68135 1.82087 2.42039 0.990841 0 0.420898L9.01054e-06 0.420906Z" fill="#FAA841"/>
</svg>
