<svg width="32" height="32" viewBox="0 0 32 32" fill="none" xmlns="http://www.w3.org/2000/svg">
<g clip-path="url(#clip0_538_11074)">
<path fill-rule="evenodd" clip-rule="evenodd" d="M16 32C24.8366 32 32 24.8366 32 16C32 7.16344 24.8366 0 16 0C7.16344 0 0 7.16344 0 16C0 24.8366 7.16344 32 16 32ZM5.39875 9.73336C5.57204 18.0534 9.73107 23.0534 17.0227 23.0534H17.4359V18.2934C18.7221 18.4554 19.9318 18.9935 20.9135 19.8402C21.8953 20.687 22.6053 21.8047 22.9546 23.0534H26.7404C26.3512 21.6158 25.6617 20.2771 24.7173 19.1256C23.7729 17.9742 22.5952 17.0361 21.2617 16.3734C22.4563 15.648 23.4884 14.684 24.2935 13.5415C25.0986 12.3989 25.6593 11.1025 25.9406 9.73336H22.5014C21.7549 12.3734 19.5421 14.7734 17.4359 15V9.73336H13.9967V18.96C11.8639 18.4267 9.1712 15.84 9.05123 9.73336H5.39875Z" fill="#0077FE"/>
</g>
<defs>
<clipPath id="clip0_538_11074">
<rect width="32" height="32" fill="white"/>
</clipPath>
</defs>
</svg>
