<svg width="40" height="40" viewBox="0 0 40 40" fill="none" xmlns="http://www.w3.org/2000/svg">
<g clip-path="url(#clip0_1438_51030)">
<path fill-rule="evenodd" clip-rule="evenodd" d="M20 0C31.0383 0 40 8.96172 40 20C40 31.0383 31.0383 40 20 40C8.96172 40 0 31.0383 0 20C0 8.96172 8.96172 0 20 0ZM29.4943 10.5347C27.1001 8.13844 23.9161 6.8182 20.5238 6.81687C13.5341 6.81687 7.84539 12.5034 7.84266 19.4931C7.84172 21.7274 8.42562 23.9084 9.53531 25.8308L7.73625 32.4L14.4588 30.6372C16.3109 31.6471 18.3963 32.1793 20.5188 32.1802H20.524C27.513 32.1802 33.2022 26.493 33.205 19.5032C33.2063 16.1159 31.8885 12.9308 29.4943 10.5347ZM20.5239 30.0391H20.5197C18.6284 30.0384 16.7734 29.5305 15.1551 28.5705L14.7702 28.342L10.781 29.3882L11.8458 25.5L11.5952 25.1014C10.5401 23.4238 9.98289 21.4848 9.98367 19.4939C9.98602 13.6844 14.7143 8.95789 20.5281 8.95789C23.3434 8.95898 25.9897 10.0565 27.9797 12.048C29.9697 14.0397 31.065 16.687 31.0639 19.5024C31.0616 25.3123 26.3334 30.0391 20.5239 30.0391ZM26.3054 22.1477C25.9885 21.9892 24.4307 21.2229 24.1402 21.1172C23.8498 21.0115 23.6386 20.9586 23.4273 21.2757C23.2161 21.5928 22.6088 22.3063 22.424 22.5177C22.2392 22.7291 22.0544 22.7556 21.7375 22.597C21.4206 22.4385 20.3997 22.104 19.1895 21.0248C18.2475 20.1849 17.6116 19.1475 17.4267 18.8305C17.242 18.5134 17.407 18.342 17.5657 18.184C17.7082 18.0421 17.8825 17.8141 18.0409 17.6291C18.1994 17.4441 18.2522 17.312 18.3578 17.1006C18.4634 16.8891 18.4106 16.7042 18.3314 16.5456C18.2522 16.3871 17.6185 14.828 17.3545 14.1937C17.0973 13.5761 16.8361 13.6597 16.6416 13.65C16.457 13.6408 16.2455 13.6388 16.0343 13.6388C15.823 13.6388 15.4798 13.7181 15.1893 14.0352C14.8989 14.3523 14.0804 15.1187 14.0804 16.6777C14.0804 18.2369 15.2158 19.743 15.3742 19.9545C15.5327 20.1659 17.6085 23.3654 20.787 24.7374C21.543 25.0638 22.1332 25.2587 22.5934 25.4047C23.3524 25.6457 24.0431 25.6117 24.5891 25.5302C25.1979 25.4392 26.4638 24.7638 26.7278 24.024C26.9918 23.2841 26.9918 22.6498 26.9127 22.5177C26.8334 22.3856 26.6222 22.3063 26.3054 22.1477Z" fill="#42C552"/>
</g>
<defs>
<clipPath id="clip0_1438_51030">
<rect width="40" height="40" fill="white"/>
</clipPath>
</defs>
</svg>
