<svg width="32" height="32" viewBox="0 0 32 32" fill="none" xmlns="http://www.w3.org/2000/svg">
<g clip-path="url(#clip0_1530_55616)">
<path d="M16 32C24.8366 32 32 24.8366 32 16C32 7.16344 24.8366 0 16 0C7.16344 0 0 7.16344 0 16C0 24.8366 7.16344 32 16 32Z" fill="#FF0000"/>
<path d="M21.2358 9.98096H10.7642C10.3458 9.98096 9.9314 10.0634 9.54481 10.2236C9.15822 10.3838 8.80698 10.6186 8.51118 10.9146C8.21537 11.2106 7.98079 11.562 7.82084 11.9487C7.66089 12.3354 7.5787 12.7499 7.57898 13.1683V18.8315C7.5787 19.25 7.66089 19.6644 7.82084 20.0511C7.98079 20.4378 8.21537 20.7892 8.51118 21.0852C8.80698 21.3812 9.15822 21.616 9.54481 21.7762C9.9314 21.9364 10.3458 22.0189 10.7642 22.0189H21.2358C21.6543 22.0189 22.0687 21.9364 22.4553 21.7762C22.8418 21.616 23.1931 21.3812 23.4889 21.0852C23.7847 20.7892 24.0193 20.4378 24.1792 20.0511C24.3392 19.6644 24.4214 19.25 24.4211 18.8315V13.1683C24.4214 12.7499 24.3392 12.3354 24.1792 11.9487C24.0193 11.562 23.7847 11.2106 23.4889 10.9146C23.1931 10.6186 22.8418 10.3838 22.4553 10.2236C22.0687 10.0634 21.6543 9.98096 21.2358 9.98096ZM13.7811 18.581V13.4189L18.219 15.9999L13.7811 18.581Z" fill="white"/>
</g>
<defs>
<clipPath id="clip0_1530_55616">
<rect width="32" height="32" fill="white"/>
</clipPath>
</defs>
</svg>
