<svg xmlns="http://www.w3.org/2000/svg"><defs>
        <clipPath id="a">
            <path transform="translate(.5)" d="M0 0h24v24H0z"/>
        </clipPath>
    
        <clipPath id="a">
            <path d="M0 0h24v24H0z"/>
        </clipPath>
    
        <clipPath id="a">
            <path d="M0 0h24v24H0z"/>
        </clipPath>
    
        <clipPath id="a">
            <path d="M0 0h20v20H0z"/>
        </clipPath>
    
        <clipPath id="a">
            <path d="M0 0h24v24H0z"/>
        </clipPath>
    </defs><symbol id="arrow-back" viewBox="0 0 30 30">
    <path d="M26.25 13.75H8.018l6.616-6.616-1.767-1.768L3.233 15l9.634 9.634 1.767-1.768-6.616-6.616H26.25v-2.5z"/>
</symbol><symbol id="arrow-left" viewBox="0 0 74 6">
    <path fill-rule="evenodd" clip-rule="evenodd" d="M11 6L0 3l11-3v2h63v2H11v2z"/>
</symbol><symbol id="arrow-right" viewBox="0 0 74 6">
    <path fill-rule="evenodd" clip-rule="evenodd" d="M63 0l11 3-11 3V4H0V2h63V0z"/>
    <path fill-rule="evenodd" clip-rule="evenodd" d="M63 0l11 3-11 3V4H0V2h63V0z" fill-opacity=".2"/>
</symbol><symbol id="arrow-up" viewBox="0 0 6 16">
    <path d="M3 0L.113 5h5.774L3 0zm.5 16V4.5h-1V16h1z"/>
</symbol><symbol id="cart" viewBox="0 0 25 24">
    <path d="M8.875 21.6c0 1.32-1.088 2.4-2.417 2.4a2.405 2.405 0 0 1-2.404-2.4c0-1.32 1.075-2.4 2.404-2.4 1.33 0 2.417 1.08 2.417 2.4zm9.667-2.4a2.405 2.405 0 0 0-2.405 2.4c0 1.32 1.075 2.4 2.405 2.4 1.329 0 2.416-1.08 2.416-2.4 0-1.32-1.087-2.4-2.416-2.4zm.478-6c.55 0 1.083-.186 1.512-.528.429-.342.727-.818.847-1.351L23.375 3.6H6.458V2.4c0-.637-.254-1.247-.707-1.697A2.425 2.425 0 0 0 4.04 0H1.626v2.4h2.417v13.2c0 .636.254 1.247.707 1.697.454.45 1.068.703 1.71.703h14.5c0-.637-.255-1.247-.709-1.697a2.425 2.425 0 0 0-1.708-.703H6.458v-2.4H19.02z"/>
</symbol><symbol id="check" viewBox="0 0 171 170">
    <path d="M71.332 110.401L48.007 87.076 37.991 97.092l33.341 33.341 68.758-68.758-10.015-10.016-58.742 58.742z"/>
</symbol><symbol id="chevron" viewBox="0 0 24 24">
    <path d="M6 7.2l6 6 6-6 2.4 1.2-8.4 8.4-8.4-8.4L6 7.2z"/>
    <path d="M6 7.2l6 6 6-6 2.4 1.2-8.4 8.4-8.4-8.4L6 7.2z" fill-opacity=".2"/>
</symbol><symbol id="close" viewBox="0 0 30 30">
    <path d="M21.987 6.25L15 13.238 8.012 6.25 6.25 8.012 13.237 15 6.25 21.988l1.762 1.762L15 16.762l6.987 6.988 1.763-1.762L16.762 15l6.988-6.988-1.763-1.762z"/>
</symbol><symbol id="cube" viewBox="0 0 30 30">
    <path d="M27.624 7.136l-12.115-7a1.017 1.017 0 0 0-1.018 0l-12.115 7A1.005 1.005 0 0 0 1.875 8v14a.993.993 0 0 0 .5.864l12.116 7a1.016 1.016 0 0 0 1.018 0l12.115-7a1.005 1.005 0 0 0 .501-.864V8a.993.993 0 0 0-.5-.864zM15 2.158L25.112 8 15 13.842 4.888 8 15 2.158zM3.894 9.74l10.096 5.833V27.26L3.894 21.426V9.74zM16.01 27.26V15.574l10.096-5.833v11.685L16.01 27.26z"/>
</symbol><symbol id="email" viewBox="0 0 24 25">
    <path d="M20 4.5H4c-1.1 0-1.99.9-1.99 2L2 18.5c0 1.1.9 2 2 2h16c1.1 0 2-.9 2-2v-12c0-1.1-.9-2-2-2zm0 4l-8 5-8-5v-2l8 5 8-5v2z"/>
    <path d="M20 4.5H4c-1.1 0-1.99.9-1.99 2L2 18.5c0 1.1.9 2 2 2h16c1.1 0 2-.9 2-2v-12c0-1.1-.9-2-2-2zm0 4l-8 5-8-5v-2l8 5 8-5v2z" fill-opacity=".2"/>
</symbol><symbol id="filter" viewBox="0 0 30 30">
    <path fill-rule="evenodd" clip-rule="evenodd" d="M4.688 6.328a1.172 1.172 0 1 0 0 2.344 1.172 1.172 0 0 0 0-2.344zM2.108 7.5a2.578 2.578 0 1 1 5.157 0 2.578 2.578 0 0 1-5.157 0z"/>
    <path fill-rule="evenodd" clip-rule="evenodd" d="M4.688 6.328a1.172 1.172 0 1 0 0 2.344 1.172 1.172 0 0 0 0-2.344zM2.108 7.5a2.578 2.578 0 1 1 5.157 0 2.578 2.578 0 0 1-5.157 0z" fill-opacity=".2"/>
    <path fill-rule="evenodd" clip-rule="evenodd" d="M30 8.203H6.562V6.797H30v1.406z"/>
    <path fill-rule="evenodd" clip-rule="evenodd" d="M30 8.203H6.562V6.797H30v1.406z" fill-opacity=".2"/>
    <path fill-rule="evenodd" clip-rule="evenodd" d="M4.688 21.328a1.172 1.172 0 1 0 0 2.344 1.172 1.172 0 0 0 0-2.344zM2.108 22.5a2.578 2.578 0 1 1 5.157 0 2.578 2.578 0 0 1-5.157 0z"/>
    <path fill-rule="evenodd" clip-rule="evenodd" d="M4.688 21.328a1.172 1.172 0 1 0 0 2.344 1.172 1.172 0 0 0 0-2.344zM2.108 22.5a2.578 2.578 0 1 1 5.157 0 2.578 2.578 0 0 1-5.157 0z" fill-opacity=".2"/>
    <path fill-rule="evenodd" clip-rule="evenodd" d="M30 23.203H6.562v-1.406H30v1.406z"/>
    <path fill-rule="evenodd" clip-rule="evenodd" d="M30 23.203H6.562v-1.406H30v1.406z" fill-opacity=".2"/>
    <path fill-rule="evenodd" clip-rule="evenodd" d="M25.313 13.828a1.172 1.172 0 1 0 0 2.344 1.172 1.172 0 0 0 0-2.344zM22.733 15a2.578 2.578 0 1 1 5.156 0 2.578 2.578 0 0 1-5.156 0z"/>
    <path fill-rule="evenodd" clip-rule="evenodd" d="M25.313 13.828a1.172 1.172 0 1 0 0 2.344 1.172 1.172 0 0 0 0-2.344zM22.733 15a2.578 2.578 0 1 1 5.156 0 2.578 2.578 0 0 1-5.156 0z" fill-opacity=".2"/>
    <path fill-rule="evenodd" clip-rule="evenodd" d="M0 14.297h23.438v1.406H0v-1.406z"/>
    <path fill-rule="evenodd" clip-rule="evenodd" d="M0 14.297h23.438v1.406H0v-1.406z" fill-opacity=".2"/>
    <path fill-rule="evenodd" clip-rule="evenodd" d="M0 6.797h2.813v1.406H0V6.797z"/>
    <path fill-rule="evenodd" clip-rule="evenodd" d="M0 6.797h2.813v1.406H0V6.797z" fill-opacity=".2"/>
    <path fill-rule="evenodd" clip-rule="evenodd" d="M30 15.703h-2.813v-1.406H30v1.406z"/>
    <path fill-rule="evenodd" clip-rule="evenodd" d="M30 15.703h-2.813v-1.406H30v1.406z" fill-opacity=".2"/>
    <path fill-rule="evenodd" clip-rule="evenodd" d="M0 21.797h2.813v1.406H0v-1.406z"/>
    <path fill-rule="evenodd" clip-rule="evenodd" d="M0 21.797h2.813v1.406H0v-1.406z" fill-opacity=".2"/>
</symbol><symbol id="gear" viewBox="0 0 24 24">
    <path d="M22.266 9.778a.75.75 0 0 0-.375-.497l-2.232-1.237a6.509 6.509 0 0 0-.403-.703l.047-2.55a.776.776 0 0 0-.244-.572 10.5 10.5 0 0 0-3.853-2.222.76.76 0 0 0-.618.075l-2.185 1.312c-.272-.009-.534-.009-.806 0L9.413 2.072a.76.76 0 0 0-.62-.075 10.416 10.416 0 0 0-3.852 2.231.74.74 0 0 0-.244.563l.047 2.55c-.15.225-.281.459-.413.703L2.1 9.28a.74.74 0 0 0-.366.497 10.444 10.444 0 0 0 0 4.444.75.75 0 0 0 .375.497l2.232 1.237c.12.243.254.478.403.703l-.047 2.55a.778.778 0 0 0 .244.572 10.5 10.5 0 0 0 3.853 2.222.758.758 0 0 0 .619-.075l2.184-1.312h.806l2.194 1.312a.684.684 0 0 0 .384.113.934.934 0 0 0 .225-.038 10.415 10.415 0 0 0 3.853-2.231.741.741 0 0 0 .244-.563l-.047-2.55c.15-.225.282-.459.413-.703L21.9 14.72a.74.74 0 0 0 .366-.497c.318-1.464.318-2.98 0-4.444zM12 16.125a4.125 4.125 0 1 1 0-8.25 4.125 4.125 0 0 1 0 8.25z"/>
</symbol><symbol id="heart-stroke" viewBox="0 0 20 20">
    <path d="M3.008 4.615C3.76 3.844 4.77 3.5 5.834 3.5c1.06 0 2.066.341 2.82 1.109l.617.658.73.779.729-.779.61-.65c1.562-1.519 4.101-1.517 5.66.006 1.555 1.6 1.526 4.064-.016 5.689l-.003.002-6.98 7.396-6.982-7.396-.002-.002c-1.544-1.627-1.57-4.097-.01-5.697zm0 0l-.715-.698.715.698z" stroke-width="2"/>
</symbol><symbol id="heart" viewBox="0 0 32 32">
    <path d="M16 29.938L4.03 17.257v-.001c-2.862-3.014-2.934-7.64-.006-10.64C5.475 5.13 7.394 4.5 9.334 4.5c1.937 0 3.854.63 5.305 2.113l.996 1.062.365.39.365-.39.992-1.059c2.93-2.867 7.695-2.866 10.622.004 2.925 3 2.852 7.624-.008 10.636h-.001L16 29.939z"/>
</symbol><symbol id="icon-close" viewBox="0 0 19 19">
    <path d="M18.58.435a1.436 1.436 0 0 0-2.033 0L9.5 7.468 2.453.421A1.437 1.437 0 1 0 .42 2.453L7.468 9.5.421 16.547a1.437 1.437 0 1 0 2.032 2.032L9.5 11.532l7.047 7.047a1.437 1.437 0 0 0 2.032-2.032L11.532 9.5l7.047-7.047a1.444 1.444 0 0 0 0-2.018z"/>
</symbol><symbol id="infinity" viewBox="0 0 30 30">
    <path d="M6.9 7.969c.981 0 1.875.155 2.68.465a8.493 8.493 0 0 1 2.19 1.202c.663.49 1.26 1.025 1.79 1.602.275.258.531.53.77.814.239.276.469.547.69.814.186-.258.38-.508.584-.75.212-.25.469-.516.77-.8a13.158 13.158 0 0 1 2.852-2.326c1.097-.681 2.393-1.021 3.888-1.021 1.282 0 2.441.301 3.476.904a6.793 6.793 0 0 1 2.481 2.443c.62 1.025.929 2.166.929 3.424a6.728 6.728 0 0 1-2.003 4.845 6.953 6.953 0 0 1-2.19 1.46 6.965 6.965 0 0 1-2.693.517c-1.009 0-1.929-.163-2.76-.49a9.555 9.555 0 0 1-2.256-1.267 15.996 15.996 0 0 1-1.83-1.667c-.24-.25-.465-.5-.678-.75-.212-.25-.402-.49-.57-.723-.204.25-.416.504-.637.762-.221.25-.46.509-.716.776a14.975 14.975 0 0 1-1.818 1.64 8.966 8.966 0 0 1-2.23 1.241c-.813.32-1.715.479-2.706.479-1.3 0-2.472-.302-3.516-.905a6.895 6.895 0 0 1-2.481-2.455C.306 17.169 0 16.015 0 14.74a6.603 6.603 0 0 1 2.004-4.794 6.738 6.738 0 0 1 2.202-1.447 6.88 6.88 0 0 1 2.694-.53zm-4.605 6.77c0 .836.208 1.603.624 2.3a4.85 4.85 0 0 0 1.672 1.668c.699.413 1.473.62 2.322.62 1.052 0 1.99-.263 2.813-.788a12.2 12.2 0 0 0 2.282-1.926 13.1 13.1 0 0 0 .85-.956c.256-.31.49-.611.702-.904-.23-.302-.477-.616-.743-.944a9.395 9.395 0 0 0-.915-1.02 10.469 10.469 0 0 0-2.243-1.835c-.813-.5-1.733-.75-2.76-.75-.83 0-1.596.211-2.295.633a4.852 4.852 0 0 0-1.685 1.654 4.23 4.23 0 0 0-.624 2.249zm25.41 0c0-.818-.213-1.567-.637-2.248a4.741 4.741 0 0 0-1.672-1.654 4.288 4.288 0 0 0-2.282-.633c-.7 0-1.35.12-1.95.362a6.654 6.654 0 0 0-1.686.956c-.513.405-1 .853-1.46 1.344-.37.37-.694.732-.968 1.086-.265.353-.473.62-.624.8.204.276.425.56.664.853.239.293.513.6.822.918a12.662 12.662 0 0 0 2.31 1.977c.84.551 1.804.827 2.892.827.831 0 1.592-.207 2.282-.62a4.85 4.85 0 0 0 1.672-1.667 4.34 4.34 0 0 0 .637-2.3z"/>
</symbol><symbol id="login" viewBox="0 0 30 30">
    <path d="M12.5 13.75H5v-10A1.25 1.25 0 0 1 6.25 2.5h17.5A1.25 1.25 0 0 1 25 3.75v22.5a1.25 1.25 0 0 1-1.25 1.25H6.25A1.25 1.25 0 0 1 5 26.25v-10h7.5V20l6.25-5-6.25-5v3.75z"/>
</symbol><symbol id="logout" viewBox="0 0 20 20">
    <path d="M4.167 1.667h11.666a.833.833 0 0 1 .834.833v15a.833.833 0 0 1-.834.833H4.167a.834.834 0 0 1-.834-.833v-15a.833.833 0 0 1 .834-.833zm3.333 7.5v-2.5L3.333 10 7.5 13.333v-2.5h5V9.167h-5z"/>
</symbol><symbol id="new" viewBox="0 0 30 30">
    <path d="M7.907 9.844v9.844H6.55l-4.98-7.22h-.09v7.22H0V9.844h1.368l4.985 7.229h.09v-7.23h1.464zM10.063 19.688V9.844h6.143v1.278H11.54v3h4.344v1.273h-4.344v3.014h4.722v1.279h-6.2zM20.098 19.688l-2.717-9.844h1.555l1.908 7.623h.091l1.985-7.623h1.54l1.986 7.628h.09l1.905-7.628H30l-2.722 9.844h-1.487l-2.062-7.374h-.077l-2.062 7.373h-1.492z"/>
</symbol><symbol id="person" viewBox="0 0 25 24">
    <g clip-path="url(#a)">
        <path d="M12.5 12a6 6 0 1 0 0-12 6 6 0 0 0 0 12zM12.5 15c-9.15 0-12 6-12 6v3h24v-3s-2.85-6-12-6z"/>
    </g>
    
</symbol><symbol id="phone" viewBox="0 0 25 24">
    <path d="M13.975 13.475c-1.9 1.898-4.1 3.715-4.97 2.845-1.245-1.244-2.013-2.33-4.758-.122-2.745 2.205-.636 3.677.57 4.881 1.392 1.392 6.58.075 11.71-5.053 5.127-5.129 6.44-10.318 5.048-11.71-1.206-1.207-2.67-3.314-4.876-.57-2.207 2.745-1.123 3.513.124 4.758.866.87-.95 3.071-2.848 4.97z"/>
    <path d="M13.975 13.475c-1.9 1.898-4.1 3.715-4.97 2.845-1.245-1.244-2.013-2.33-4.758-.122-2.745 2.205-.636 3.677.57 4.881 1.392 1.392 6.58.075 11.71-5.053 5.127-5.129 6.44-10.318 5.048-11.71-1.206-1.207-2.67-3.314-4.876-.57-2.207 2.745-1.123 3.513.124 4.758.866.87-.95 3.071-2.848 4.97z" fill-opacity=".2"/>
</symbol><symbol id="pin" viewBox="0 0 24 24">
    <g clip-path="url(#a)">
        <path d="M12 0C5.373 0 0 5.373 0 12c0 5.084 3.163 9.43 7.627 11.178-.105-.95-.2-2.41.042-3.446.218-.936 1.407-5.965 1.407-5.965s-.36-.718-.36-1.781c0-1.669.968-2.915 2.172-2.915 1.024 0 1.518.77 1.518 1.69 0 1.03-.655 2.57-.994 3.996-.282 1.195.6 2.169 1.777 2.169 2.133 0 3.773-2.25 3.773-5.495 0-2.874-2.065-4.882-5.013-4.882-3.414 0-5.418 2.56-5.418 5.207 0 1.032.397 2.137.893 2.739a.36.36 0 0 1 .083.344c-.091.379-.293 1.194-.333 1.36-.053.22-.174.267-.402.161-1.498-.697-2.435-2.888-2.435-4.649 0-3.785 2.75-7.261 7.928-7.261 4.163 0 7.398 2.966 7.398 6.93 0 4.136-2.607 7.464-6.227 7.464-1.216 0-2.359-.631-2.75-1.378 0 0-.602 2.292-.748 2.853-.27 1.042-1.002 2.349-1.491 3.146C9.57 23.813 10.763 24 12 24c6.628 0 12-5.372 12-12 0-6.627-5.372-12-12-12z"/>
    </g>
    
</symbol><symbol id="replay" viewBox="0 0 20 20">
    <path d="M10 18.333a7.257 7.257 0 0 1-2.927-.593 7.619 7.619 0 0 1-2.375-1.605 7.619 7.619 0 0 1-1.605-2.375 7.257 7.257 0 0 1-.593-2.927h1.667c0 1.625.566 3.004 1.698 4.135 1.132 1.133 2.51 1.699 4.135 1.699s3.003-.566 4.135-1.699c1.132-1.131 1.698-2.51 1.698-4.135s-.566-3.003-1.698-4.135C13.003 5.566 11.625 5 10 5h-.125l1.292 1.292L10 7.5 6.667 4.167 10 .833l1.167 1.209-1.292 1.291H10c1.042 0 2.018.198 2.928.595.909.395 1.7.93 2.374 1.603a7.64 7.64 0 0 1 1.605 2.375c.395.91.593 1.886.593 2.927a7.258 7.258 0 0 1-.593 2.927 7.627 7.627 0 0 1-1.604 2.375 7.632 7.632 0 0 1-2.376 1.605 7.262 7.262 0 0 1-2.927.593z"/>
    <path d="M10 18.333a7.257 7.257 0 0 1-2.927-.593 7.619 7.619 0 0 1-2.375-1.605 7.619 7.619 0 0 1-1.605-2.375 7.257 7.257 0 0 1-.593-2.927h1.667c0 1.625.566 3.004 1.698 4.135 1.132 1.133 2.51 1.699 4.135 1.699s3.003-.566 4.135-1.699c1.132-1.131 1.698-2.51 1.698-4.135s-.566-3.003-1.698-4.135C13.003 5.566 11.625 5 10 5h-.125l1.292 1.292L10 7.5 6.667 4.167 10 .833l1.167 1.209-1.292 1.291H10c1.042 0 2.018.198 2.928.595.909.395 1.7.93 2.374 1.603a7.64 7.64 0 0 1 1.605 2.375c.395.91.593 1.886.593 2.927a7.258 7.258 0 0 1-.593 2.927 7.627 7.627 0 0 1-1.604 2.375 7.632 7.632 0 0 1-2.376 1.605 7.262 7.262 0 0 1-2.927.593z" fill-opacity=".2"/>
</symbol><symbol id="sale" viewBox="0 0 30 30">
    <path d="M16.962 24.183v-1.326c0-1.094.217-2.078.651-2.952a5.106 5.106 0 0 1 1.856-2.096c.803-.513 1.756-.77 2.861-.77 1.115 0 2.068.257 2.862.77a5.042 5.042 0 0 1 1.827 2.096c.425.874.637 1.858.637 2.951v1.326c0 1.094-.217 2.078-.651 2.952a5.162 5.162 0 0 1-1.828 2.096c-.793.513-1.742.77-2.847.77-1.123 0-2.087-.257-2.89-.77a5.265 5.265 0 0 1-1.84-2.096c-.426-.875-.638-1.858-.638-2.951zm2.224-1.326v1.326c0 1.074.26 1.991.779 2.751.529.751 1.317 1.127 2.365 1.127 1.02 0 1.79-.376 2.31-1.127.518-.76.778-1.677.778-2.752v-1.325c0-1.075-.255-1.987-.765-2.738-.51-.76-1.284-1.14-2.323-1.14-1.029 0-1.813.38-2.351 1.14-.529.75-.793 1.663-.793 2.738zM2.344 7.144V5.817c0-1.093.217-2.077.651-2.951A5.127 5.127 0 0 1 4.851.784C5.654.261 6.607 0 7.712 0c1.115 0 2.068.261 2.861.784a5.062 5.062 0 0 1 1.828 2.082c.425.874.637 1.858.637 2.951v1.327c0 1.093-.217 2.081-.651 2.965a5.062 5.062 0 0 1-1.828 2.082c-.793.513-1.742.77-2.847.77-1.124 0-2.087-.257-2.89-.77a5.163 5.163 0 0 1-1.84-2.082c-.426-.884-.638-1.872-.638-2.965zm2.224-1.327v1.327c0 1.074.26 1.991.779 2.751.529.751 1.317 1.127 2.365 1.127 1.02 0 1.79-.376 2.31-1.127.518-.76.778-1.677.778-2.751V5.817c0-1.074-.255-1.986-.765-2.737-.51-.76-1.284-1.14-2.323-1.14-1.03 0-1.813.38-2.351 1.14-.529.75-.793 1.663-.793 2.737zm-.921 23.784L23.577.399h2.507L6.154 29.601H3.647z"/>
</symbol><symbol id="search" viewBox="0 0 21 21">
    <path fill-rule="evenodd" clip-rule="evenodd" d="M8.313 14.875a6.562 6.562 0 1 0 0-13.125 6.562 6.562 0 0 0 0 13.125zm7.812-6.563a7.813 7.813 0 1 1-15.625 0 7.813 7.813 0 0 1 15.625 0z"/>
    <path fill-rule="evenodd" clip-rule="evenodd" d="M8.313 14.875a6.562 6.562 0 1 0 0-13.125 6.562 6.562 0 0 0 0 13.125zm7.812-6.563a7.813 7.813 0 1 1-15.625 0 7.813 7.813 0 0 1 15.625 0z" fill-opacity=".2"/>
    <path d="M13.57 12.688l6.912 6.91-.884.885-6.911-6.911z"/>
    <path fill-opacity=".2" d="M13.57 12.688l6.912 6.91-.884.885-6.911-6.911z"/>
</symbol><symbol id="star" viewBox="0 0 30 30">
    <path d="M29 11.836l-9.953-.868L15 1.7l-3.934 9.282L1 11.836l7.644 6.622L6.348 28.3 15 23.078l8.652 5.222-2.282-9.842zM15 20.46l-5.264 3.178 1.4-5.992-4.648-4.032 6.132-.532L15 7.44l2.394 5.656 6.132.532-4.648 4.032 1.4 5.992z"/>
</symbol><symbol id="tg" viewBox="0 0 24 24">
    <g clip-path="url(#a)">
        <path d="M24 12a12 12 0 1 1-24 0 12 12 0 0 1 24 0zM12.43 8.859a583.248 583.248 0 0 0-6.998 3.015c-.568.225-.866.447-.893.663-.045.364.413.508 1.035.705l.263.082c.612.2 1.437.433 1.864.441.39.01.824-.15 1.302-.48 3.268-2.206 4.956-3.32 5.061-3.345.075-.018.18-.038.249.024.07.062.063.18.055.212-.045.194-1.84 1.861-2.768 2.726-.29.27-.495.46-.537.504-.093.094-.187.187-.283.278-.57.55-.995.96.023 1.633.49.323.883.589 1.275.856.426.291.852.58 1.404.944.14.09.275.187.405.28.496.354.945.672 1.495.621.322-.03.653-.33.821-1.23.398-2.126 1.179-6.729 1.359-8.627a2.14 2.14 0 0 0-.02-.472.506.506 0 0 0-.17-.325.789.789 0 0 0-.465-.14c-.45.007-1.145.249-4.476 1.635z"/>
    </g>
    
</symbol><symbol id="trash" viewBox="0 0 20 20">
    <g clip-path="url(#a)">
        <path d="M3.333 5v12.222a1.628 1.628 0 0 0 1.59 1.667H15.05a1.628 1.628 0 0 0 1.617-1.667V5H3.333zm5 11.111h-1.11V7.778h1.11v8.333zm4.445 0h-1.111V7.778h1.11v8.333zM17.072 2.778h-4.294v-.556a1.111 1.111 0 0 0-1.111-1.11H8.222a1.111 1.111 0 0 0-1 1.11v.556H2.778a.556.556 0 1 0 0 1.11h14.294a.556.556 0 0 0 0-1.11z"/>
    </g>
    
</symbol><symbol id="truck" viewBox="0 0 32 32">
    <path fill-rule="evenodd" clip-rule="evenodd" d="M0 7h20v13l.996.001V16c0-.003 0-.005-.002-.008l-.002-.01.006-5.992h.5s3.475-.011 5.647-.011a.499.499 0 0 1 .375.171l4.335 5.52A.513.513 0 0 1 32 16v2h-1.512c-.676-.01-.676 1.01 0 1H32v3h-3.13A4 4 0 0 0 25 19a4 4 0 0 0-3.869 3H11.87A4 4 0 0 0 8 19a4 4 0 0 0-3.869 3H0v-3h2.479c.676.01.676-1.01 0-1H0V7zm24.492 3.98h-2.494l-.006 4.502 2.5.006V10.98zm2.426 0h-1.426v4.51l4.883.008-3.457-4.518zm-3.917 5.52h-.051c-.668.034-.617 1.034.05 1h1.015c.676.01.676-1.01 0-1h-1.014z"/>
    <path fill-rule="evenodd" clip-rule="evenodd" d="M5.879 20.879a3 3 0 1 1 4.242 4.242A3 3 0 0 1 5.88 20.88zm2.828 1.414a1 1 0 1 0-1.414 1.414 1 1 0 0 0 1.414-1.414zM22.879 20.879a3 3 0 1 1 4.242 4.242 3 3 0 0 1-4.242-4.242zm2.828 1.414a1 1 0 1 0-1.414 1.414 1 1 0 0 0 1.414-1.414z"/>
</symbol><symbol id="vk" viewBox="0 0 24 24">
    <g clip-path="url(#a)">
        <path fill-rule="evenodd" clip-rule="evenodd" d="M12 24c6.627 0 12-5.373 12-12S18.627 0 12 0 0 5.373 0 12s5.373 12 12 12zM4.05 7.3c.129 6.24 3.248 9.99 8.717 9.99h.31v-3.57a4.938 4.938 0 0 1 4.139 3.57h2.84a7.9 7.9 0 0 0-4.11-5.01 7.62 7.62 0 0 0 3.51-4.98h-2.58c-.56 1.98-2.22 3.78-3.8 3.95V7.3h-2.578v6.92c-1.6-.4-3.62-2.34-3.71-6.92H4.05z"/>
    </g>
    
</symbol></svg>