<svg width="40" height="40" viewBox="0 0 40 40" fill="none" xmlns="http://www.w3.org/2000/svg">
    <g clip-path="url(#a)">
        <path d="M40 20C40 8.954 31.046 0 20 0S0 8.954 0 20s8.954 20 20 20 20-8.954 20-20z" fill="#675DA9"/>
        <path d="M29.795 10.154c-.662-.608-3.34-2.556-9.31-2.582 0 0-7.037-.427-10.468 2.72-1.91 1.91-2.582 4.701-2.652 8.169-.069 3.463-.16 9.956 6.099 11.716h.005l-.005 2.684s-.038 1.088.677 1.307c.865.267 1.377-.56 2.204-1.451a79.778 79.778 0 0 0 1.552-1.755c4.28.357 7.571-.465 7.945-.587.864-.283 5.756-.907 6.551-7.4.822-6.68-.4-10.911-2.598-12.821zm.726 12.351c-.673 5.42-4.637 5.762-5.368 5.997-.31.101-3.2.822-6.84.582 0 0-2.71 3.27-3.553 4.118-.133.134-.288.187-.39.16-.143-.037-.186-.208-.18-.458 0-.363.02-4.466.02-4.466-.005 0-.005 0 0 0-5.297-1.467-4.988-6.995-4.93-9.886.06-2.892.604-5.266 2.22-6.861 2.897-2.625 8.878-2.236 8.878-2.236 5.047.021 7.464 1.542 8.024 2.049 1.863 1.6 2.812 5.415 2.119 11.001z" fill="#fff"/>
        <path d="M22.944 18.653a.339.339 0 0 1-.336-.32c-.059-1.147-.597-1.707-1.697-1.766a.34.34 0 0 1 .038-.678c1.451.08 2.262.913 2.337 2.406a.332.332 0 0 1-.32.353c-.011.005-.016.005-.022.005z" fill="#fff"/>
        <path d="M24.673 19.23h-.005a.34.34 0 0 1-.331-.347c.027-1.153-.304-2.086-1.009-2.855-.698-.768-1.664-1.184-2.94-1.275a.336.336 0 0 1-.309-.363.336.336 0 0 1 .363-.31c1.44.107 2.577.609 3.388 1.495.816.89 1.211 2.006 1.185 3.324a.342.342 0 0 1-.342.33z" fill="#fff"/>
        <path d="M26.444 19.923a.335.335 0 0 1-.336-.336c-.016-2.065-.608-3.639-1.814-4.818-1.19-1.163-2.7-1.755-4.476-1.771a.34.34 0 0 1 0-.678c1.958.016 3.622.673 4.94 1.964 1.323 1.29 2 3.073 2.022 5.292a.334.334 0 0 1-.336.347c.006 0 .006 0 0 0zm-5.453 2.908s.475.043.731-.272l.496-.625c.24-.309.822-.506 1.388-.192.314.176.885.529 1.237.79a32.54 32.54 0 0 1 1.153.923c.368.31.454.763.203 1.248v.011c-.257.454-.603.88-1.035 1.275-.006 0-.006.006-.011.006-.357.298-.71.47-1.051.506-.043.011-.09.011-.155.011-.15 0-.299-.021-.448-.07l-.01-.015c-.534-.15-1.42-.523-2.892-1.34a17.165 17.165 0 0 1-2.433-1.605 12.456 12.456 0 0 1-1.169-1.046l-.037-.037-.037-.038a13.404 13.404 0 0 1-.971-1.093 16.869 16.869 0 0 1-1.606-2.433c-.817-1.478-1.19-2.364-1.34-2.892l-.015-.01a1.453 1.453 0 0 1-.07-.449c0-.064 0-.112.01-.155.043-.346.214-.693.508-1.05 0-.006.005-.006.005-.011a5.082 5.082 0 0 1 1.275-1.035h.01c.481-.251.934-.166 1.25.202 0 0 .645.774.922 1.153.262.357.614.923.79 1.238.315.565.117 1.147-.192 1.387l-.624.496c-.315.256-.273.73-.273.73s.923 3.512 4.391 4.392z" fill="#fff"/>
    </g>
    <defs>
        <clipPath id="a">
            <path fill="#fff" d="M0 0h40v40H0z"/>
        </clipPath>
    </defs>
</svg>
