<svg width="86" height="26" viewBox="0 0 86 26" fill="none" xmlns="http://www.w3.org/2000/svg">
    <path fill-rule="evenodd" clip-rule="evenodd" d="M32.174.666l-10.895 24.72-7.324.01L7.752 4.688l-.502-1.56.041.022.068.037-.067-.034V3.15l.097.052c1.116.577 6.07 3.333 9.133 7.799.466 2.27.913 4.334 1.543 6.559L24.842.666h7.332zM61.645 17.315c-.051 5.146-4.77 8.469-12.043 8.469-3.1-.033-6.09-.628-7.713-1.322l.972-5.545.894.4c2.277.924 3.746 1.295 6.517 1.295 1.99 0 4.12-.762 4.135-2.424.008-1.086-.894-1.856-3.588-3.069-2.622-1.187-6.099-3.17-6.055-6.73C44.798 3.573 49.62.216 56.459.216c2.677 0 4.822.534 6.196 1.042l-.938 5.367-.627-.289a13.031 13.031 0 0 0-5.179-.948c-2.702 0-3.961 1.103-3.961 2.135-.009 1.153 1.468 1.925 3.884 3.069 3.996 1.764 5.847 3.909 5.812 6.723zM80.404.666H75.06c-1.659 0-2.902.44-3.623 2.06L61.16 25.418h7.262s1.19-3.051 1.461-3.722c.79 0 7.854.018 8.861.018.2.866.835 3.704.835 3.704H86L80.404.666zm-8.533 15.97c1.244-3.081 2.49-6.185 3.675-9.29.681 3.098 1.377 6.194 2.069 9.29H71.87zM34.97.64h6.918L37.56 25.41h-6.916L34.971.64z" fill="#006CB5"/>
    <path fill-rule="evenodd" clip-rule="evenodd" d="M0 .42L11.704.43c1.443.05 2.607.499 3.016 2.007l1.802 8.565C13.459 6.536 8.505 3.78 7.389 3.202l-.097-.051v.002l.067.034-.068-.037A30.258 30.258 0 0 0 0 .42z" fill="#FAA841"/>
</svg>
