<svg width="40" height="40" viewBox="0 0 40 40" fill="none" xmlns="http://www.w3.org/2000/svg">
    <g clip-path="url(#a)">
        <path fill-rule="evenodd" clip-rule="evenodd" d="M20 0c11.038 0 20 8.962 20 20s-8.962 20-20 20S0 31.038 0 20 8.962 0 20 0zm9.494 10.535a12.6 12.6 0 0 0-8.97-3.718c-6.99 0-12.679 5.686-12.681 12.676-.001 2.234.583 4.415 1.692 6.338L7.736 32.4l6.723-1.763a12.675 12.675 0 0 0 6.06 1.543h.005c6.989 0 12.678-5.687 12.681-12.677a12.599 12.599 0 0 0-3.71-8.968zm-8.97 19.504h-.004c-1.892 0-3.747-.509-5.365-1.469l-.385-.228-3.989 1.046 1.065-3.888-.25-.399a10.51 10.51 0 0 1-1.612-5.607c.002-5.81 4.73-10.536 10.544-10.536a10.471 10.471 0 0 1 7.452 3.09 10.472 10.472 0 0 1 3.084 7.454c-.002 5.81-4.73 10.537-10.54 10.537zm5.781-7.891c-.317-.159-1.874-.925-2.165-1.03-.29-.106-.501-.16-.713.158-.21.317-.818 1.03-1.003 1.242-.185.211-.37.238-.686.079-.317-.159-1.338-.493-2.549-1.572-.942-.84-1.577-1.877-1.762-2.194-.185-.318-.02-.489.139-.647.142-.142.317-.37.475-.555.158-.185.211-.317.317-.528.105-.212.053-.397-.027-.555-.079-.159-.712-1.718-.976-2.352-.258-.618-.519-.534-.713-.544-.185-.01-.396-.011-.608-.011-.211 0-.554.08-.845.396-.29.317-1.109 1.084-1.109 2.643 0 1.559 1.136 3.065 1.294 3.276.159.212 2.234 3.411 5.413 4.783.756.327 1.346.522 1.806.668.76.24 1.45.207 1.996.125.609-.09 1.875-.766 2.139-1.506.264-.74.264-1.374.185-1.506-.08-.132-.29-.212-.608-.37z" fill="#42C552"/>
    </g>
    <defs>
        <clipPath id="a">
            <path fill="#fff" d="M0 0h40v40H0z"/>
        </clipPath>
    </defs>
</svg>
