<svg width="100" height="100" viewBox="0 0 100 100" fill="none" xmlns="http://www.w3.org/2000/svg">
    <circle cx="50" cy="50" r="49.5" stroke="#060915"/>
    <circle cx="50" cy="50" r="49.5" stroke="#000" stroke-opacity=".2"/>
    <path d="M42.7 45.25l-5.25 5.25 5.25 5.25-1.05 2.1-7.35-7.35 7.35-7.35 1.05 2.1z" fill="#060915"/>
    <path d="M42.7 45.25l-5.25 5.25 5.25 5.25-1.05 2.1-7.35-7.35 7.35-7.35 1.05 2.1z" fill="#000" fill-opacity=".2"/>
    <path d="M57.3 55.75l5.25-5.25-5.25-5.25 1.05-2.1 7.35 7.35-7.35 7.35-1.05-2.1z" fill="#060915"/>
    <path d="M57.3 55.75l5.25-5.25-5.25-5.25 1.05-2.1 7.35 7.35-7.35 7.35-1.05-2.1z" fill="#000" fill-opacity=".2"/>
</svg>
