<svg width="201" height="60" viewBox="0 0 201 60" fill="none" xmlns="http://www.w3.org/2000/svg">
    <path d="M75.64 14.957V36.94H80v-8.755c0-2.474 2.034-4.473 4.552-4.473h8.525v-3.997h-9.493c-1.26 0-2.519.286-3.584.857v-5.044c0-2.474 2.034-4.472 4.552-4.472h12.883V7.059H83.585c-4.36.095-7.943 3.616-7.943 7.898z" fill="#060915"/>
    <path d="M75.64 14.957V36.94H80v-8.755c0-2.474 2.034-4.473 4.552-4.473h8.525v-3.997h-9.493c-1.26 0-2.519.286-3.584.857v-5.044c0-2.474 2.034-4.472 4.552-4.472h12.883V7.059H83.585c-4.36.095-7.943 3.616-7.943 7.898z" fill="#000" fill-opacity=".2"/>
    <path d="M115.162 7.154h-5.231c-4.649 0-8.33 3.71-8.33 8.183v21.697h4.359V28.47c0-2.665 2.228-4.853 4.94-4.853h3.39c2.712 0 4.94 2.188 4.94 4.853v8.565h4.359V15.337c-.097-4.567-3.778-8.183-8.427-8.183zm3.971 13.608c-1.162-.666-2.518-.952-3.971-.952h-5.231c-1.453 0-2.809.38-3.971.952v-4.949c0-2.664 2.228-4.853 4.94-4.853h3.39c2.712 0 4.94 2.189 4.94 4.853v4.949h-.097z" fill="#060915"/>
    <path d="M115.162 7.154h-5.231c-4.649 0-8.33 3.71-8.33 8.183v21.697h4.359V28.47c0-2.665 2.228-4.853 4.94-4.853h3.39c2.712 0 4.94 2.188 4.94 4.853v8.565h4.359V15.337c-.097-4.567-3.778-8.183-8.427-8.183zm3.971 13.608c-1.162-.666-2.518-.952-3.971-.952h-5.231c-1.453 0-2.809.38-3.971.952v-4.949c0-2.664 2.228-4.853 4.94-4.853h3.39c2.712 0 4.94 2.189 4.94 4.853v4.949h-.097z" fill="#000" fill-opacity=".2"/>
    <path d="M127.366 11.15h8.621v25.79h4.359V11.15h8.621V7.154h-21.601v3.996z" fill="#060915"/>
    <path d="M127.366 11.15h8.621v25.79h4.359V11.15h8.621V7.154h-21.601v3.996z" fill="#000" fill-opacity=".2"/>
    <path d="M153.231 11.15h8.621v25.79h4.359V11.15h8.621V7.154h-21.601v3.996z" fill="#060915"/>
    <path d="M153.231 11.15h8.621v25.79h4.359V11.15h8.621V7.154h-21.601v3.996z" fill="#000" fill-opacity=".2"/>
    <path d="M192.17 7.154h-5.231c-4.649 0-8.33 3.71-8.33 8.183V28.852c0 4.567 3.777 8.184 8.33 8.184h5.231c4.649 0 8.33-3.712 8.33-8.184V15.433c0-4.663-3.778-8.28-8.33-8.28zm3.971 11.134v10.087c0 2.664-2.228 4.853-4.94 4.853h-3.39c-2.712 0-4.94-2.189-4.94-4.853V15.909c0-2.665 2.228-4.854 4.94-4.854h3.39c2.712 0 4.94 2.189 4.94 4.854v2.379z" fill="#060915"/>
    <path d="M192.17 7.154h-5.231c-4.649 0-8.33 3.71-8.33 8.183V28.852c0 4.567 3.777 8.184 8.33 8.184h5.231c4.649 0 8.33-3.712 8.33-8.184V15.433c0-4.663-3.778-8.28-8.33-8.28zm3.971 11.134v10.087c0 2.664-2.228 4.853-4.94 4.853h-3.39c-2.712 0-4.94-2.189-4.94-4.853V15.909c0-2.665 2.228-4.854 4.94-4.854h3.39c2.712 0 4.94 2.189 4.94 4.854v2.379z" fill="#000" fill-opacity=".2"/>
    <path d="M.5 0v60h65.03V0H.5zm63.804 58.775H1.727V1.274l62.577-.097v57.598z" fill="#DDD"/>
    <path d="M79.225 43.697h-1.26c-1.453 0-2.615 1.141-2.615 2.569v6.566h1.162v-2.57h2.713c1.453 0 2.518-1.141 2.518-2.474v-1.522c0-1.523-1.162-2.57-2.518-2.57zm1.55 4.091c0 .667-.582 1.238-1.26 1.238H76.61V46.17c0-.666.581-1.237 1.26-1.237h1.646c.678 0 1.26.57 1.26 1.522v1.332z" fill="#060915"/>
    <path d="M79.225 43.697h-1.26c-1.453 0-2.615 1.141-2.615 2.569v6.566h1.162v-2.57h2.713c1.453 0 2.518-1.141 2.518-2.474v-1.522c0-1.523-1.162-2.57-2.518-2.57zm1.55 4.091c0 .667-.582 1.238-1.26 1.238H76.61V46.17c0-.666.581-1.237 1.26-1.237h1.646c.678 0 1.26.57 1.26 1.522v1.332z" fill="#000" fill-opacity=".2"/>
    <path d="M99.76 43.697h-2.713c-1.453 0-2.518 1.141-2.518 2.474v1.522c0 1.428 1.162 2.57 2.615 2.57h1.26c1.452 0 2.615-1.142 2.615-2.57v-6.566h-1.163v2.57h-.097zm0 3.901c0 .666-.582 1.237-1.26 1.237h-1.647c-.678 0-1.259-.57-1.259-1.522V45.98c0-.666.581-1.237 1.26-1.237h2.905v2.855z" fill="#060915"/>
    <path d="M99.76 43.697h-2.713c-1.453 0-2.518 1.141-2.518 2.474v1.522c0 1.428 1.162 2.57 2.615 2.57h1.26c1.452 0 2.615-1.142 2.615-2.57v-6.566h-1.163v2.57h-.097zm0 3.901c0 .666-.582 1.237-1.26 1.237h-1.647c-.678 0-1.259-.57-1.259-1.522V45.98c0-.666.581-1.237 1.26-1.237h2.905v2.855z" fill="#000" fill-opacity=".2"/>
    <path d="M83.099 46.17v3.997h1.162v-3.902c0-.666.582-1.237 1.26-1.237h.678v-1.237h-.581c-1.357-.095-2.519.952-2.519 2.38z" fill="#060915"/>
    <path d="M83.099 46.17v3.997h1.162v-3.902c0-.666.582-1.237 1.26-1.237h.678v-1.237h-.581c-1.357-.095-2.519.952-2.519 2.38z" fill="#000" fill-opacity=".2"/>
    <path d="M150.71 43.316V50.261h1.163v-3.996c0-.667.581-1.238 1.259-1.238h.678v-1.237h-.581c-.485 0-.969.19-1.356.381V43.506c0-.666.581-1.237 1.259-1.237h1.162v-1.237h-1.065c-1.356-.19-2.519.951-2.519 2.284z" fill="#060915"/>
    <path d="M150.71 43.316V50.261h1.163v-3.996c0-.667.581-1.238 1.259-1.238h.678v-1.237h-.581c-.485 0-.969.19-1.356.381V43.506c0-.666.581-1.237 1.259-1.237h1.162v-1.237h-1.065c-1.356-.19-2.519.951-2.519 2.284z" fill="#000" fill-opacity=".2"/>
    <path d="M140.831 43.316V50.261h1.163v-3.996c0-.667.581-1.238 1.259-1.238h.678v-1.237h-.581c-.484 0-.969.19-1.356.381V43.506c0-.666.581-1.237 1.259-1.237h1.162v-1.237h-1.065c-1.356-.19-2.519.951-2.519 2.284z" fill="#060915"/>
    <path d="M140.831 43.316V50.261h1.163v-3.996c0-.667.581-1.238 1.259-1.238h.678v-1.237h-.581c-.484 0-.969.19-1.356.381V43.506c0-.666.581-1.237 1.259-1.237h1.162v-1.237h-1.065c-1.356-.19-2.519.951-2.519 2.284z" fill="#000" fill-opacity=".2"/>
    <path d="M124.267 46.17v3.997h1.162v-3.902c0-.666.582-1.237 1.26-1.237h.678v-1.237h-.582c-1.356-.095-2.518.952-2.518 2.38z" fill="#060915"/>
    <path d="M124.267 46.17v3.997h1.162v-3.902c0-.666.582-1.237 1.26-1.237h.678v-1.237h-.582c-1.356-.095-2.518.952-2.518 2.38z" fill="#000" fill-opacity=".2"/>
    <path d="M163.11 46.17v3.997h1.162v-3.902c0-.666.581-1.237 1.259-1.237h.678v-1.237h-.581c-1.356-.095-2.518.952-2.518 2.38z" fill="#060915"/>
    <path d="M163.11 46.17v3.997h1.162v-3.902c0-.666.581-1.237 1.259-1.237h.678v-1.237h-.581c-1.356-.095-2.518.952-2.518 2.38z" fill="#000" fill-opacity=".2"/>
    <path d="M190.329 46.17v3.997h1.163v-3.902c0-.666.581-1.237 1.259-1.237h.678v-1.237h-.581c-1.356-.095-2.519.952-2.519 2.38z" fill="#060915"/>
    <path d="M190.329 46.17v3.997h1.163v-3.902c0-.666.581-1.237 1.259-1.237h.678v-1.237h-.581c-1.356-.095-2.519.952-2.519 2.38z" fill="#000" fill-opacity=".2"/>
    <path d="M90.655 43.697h-.775c-1.55 0-2.81 1.237-2.81 2.664v1.237c0 1.523 1.26 2.665 2.81 2.665h.775c1.55 0 2.809-1.237 2.809-2.665v-1.237c0-1.522-1.26-2.664-2.81-2.664zm1.646 3.52c0 1.047-.871 1.904-1.937 1.904h-.097c-1.065 0-1.937-.857-1.937-1.904v-.38c0-1.047.872-1.903 1.937-1.903h.097c1.066 0 1.937.856 1.937 1.903v.38z" fill="#060915"/>
    <path d="M90.655 43.697h-.775c-1.55 0-2.81 1.237-2.81 2.664v1.237c0 1.523 1.26 2.665 2.81 2.665h.775c1.55 0 2.809-1.237 2.809-2.665v-1.237c0-1.522-1.26-2.664-2.81-2.664zm1.646 3.52c0 1.047-.871 1.904-1.937 1.904h-.097c-1.065 0-1.937-.857-1.937-1.904v-.38c0-1.047.872-1.903 1.937-1.903h.097c1.066 0 1.937.856 1.937 1.903v.38z" fill="#000" fill-opacity=".2"/>
    <path d="M136.956 43.697h-.774c-1.55 0-2.81 1.237-2.81 2.664v1.237c0 1.523 1.26 2.665 2.81 2.665h.774c1.55 0 2.81-1.237 2.81-2.665v-1.237c0-1.522-1.26-2.664-2.81-2.664zm1.647 3.52c0 1.047-.872 1.904-1.937 1.904h-.097c-1.066 0-1.937-.857-1.937-1.904v-.38c0-1.047.871-1.903 1.937-1.903h.097c1.065 0 1.937.856 1.937 1.903v.38z" fill="#060915"/>
    <path d="M136.956 43.697h-.774c-1.55 0-2.81 1.237-2.81 2.664v1.237c0 1.523 1.26 2.665 2.81 2.665h.774c1.55 0 2.81-1.237 2.81-2.665v-1.237c0-1.522-1.26-2.664-2.81-2.664zm1.647 3.52c0 1.047-.872 1.904-1.937 1.904h-.097c-1.066 0-1.937-.857-1.937-1.904v-.38c0-1.047.871-1.903 1.937-1.903h.097c1.065 0 1.937.856 1.937 1.903v.38z" fill="#000" fill-opacity=".2"/>
    <path d="M107.218 44.934V47.598c0 .667-.581 1.238-1.259 1.238h-1.356c-.678 0-1.259-.571-1.259-1.238V43.602h-1.356v3.996c0 1.428 1.162 2.57 2.615 2.57h1.259c.485 0 .969-.19 1.356-.38v.38h1.163v-6.471h-1.163v1.237z" fill="#060915"/>
    <path d="M107.218 44.934V47.598c0 .667-.581 1.238-1.259 1.238h-1.356c-.678 0-1.259-.571-1.259-1.238V43.602h-1.356v3.996c0 1.428 1.162 2.57 2.615 2.57h1.259c.485 0 .969-.19 1.356-.38v.38h1.163v-6.471h-1.163v1.237z" fill="#000" fill-opacity=".2"/>
    <path d="M171.15 43.697h-1.259c-.484 0-.969.19-1.356.38v-.38h-1.163V50.263h1.163V46.17c0-.666.581-1.237 1.259-1.237h1.356c.678 0 1.259.57 1.259 1.237V50.168h1.357V46.17c-.097-1.428-1.163-2.474-2.616-2.474z" fill="#060915"/>
    <path d="M171.15 43.697h-1.259c-.484 0-.969.19-1.356.38v-.38h-1.163V50.263h1.163V46.17c0-.666.581-1.237 1.259-1.237h1.356c.678 0 1.259.57 1.259 1.237V50.168h1.357V46.17c-.097-1.428-1.163-2.474-2.616-2.474z" fill="#000" fill-opacity=".2"/>
    <path d="M160.687 44.934V47.598c0 .667-.581 1.238-1.259 1.238h-1.356c-.678 0-1.259-.571-1.259-1.238V43.602h-1.357v3.996c0 1.428 1.163 2.57 2.616 2.57h1.259c.484 0 .969-.19 1.356-.38v.38h1.163v-6.471h-1.163v1.237z" fill="#060915"/>
    <path d="M160.687 44.934V47.598c0 .667-.581 1.238-1.259 1.238h-1.356c-.678 0-1.259-.571-1.259-1.238V43.602h-1.357v3.996c0 1.428 1.163 2.57 2.616 2.57h1.259c.484 0 .969-.19 1.356-.38v.38h1.163v-6.471h-1.163v1.237z" fill="#000" fill-opacity=".2"/>
    <path d="M188.101 44.934V47.598c0 .667-.581 1.238-1.259 1.238h-1.356c-.678 0-1.259-.571-1.259-1.238V43.602h-1.357v3.996c0 1.428 1.163 2.57 2.616 2.57h1.259c.484 0 .969-.19 1.356-.38v.38h1.163v-6.471h-1.163v1.237z" fill="#060915"/>
    <path d="M188.101 44.934V47.598c0 .667-.581 1.238-1.259 1.238h-1.356c-.678 0-1.259-.571-1.259-1.238V43.602h-1.357v3.996c0 1.428 1.163 2.57 2.616 2.57h1.259c.484 0 .969-.19 1.356-.38v.38h1.163v-6.471h-1.163v1.237z" fill="#000" fill-opacity=".2"/>
    <path d="M112.643 44.934c.872 0 1.55.476 1.84 1.142h1.356c-.096-1.332-1.259-2.474-2.712-2.474h-.775c-1.55 0-2.712 1.237-2.712 2.664v1.142c0 1.523 1.259 2.665 2.712 2.665h.775c1.356 0 2.519-1.047 2.712-2.284h-1.259a1.914 1.914 0 0 1-1.743 1.142h-.097a1.823 1.823 0 0 1-1.841-1.808v-.381c-.193-.952.678-1.808 1.744-1.808z" fill="#060915"/>
    <path d="M112.643 44.934c.872 0 1.55.476 1.84 1.142h1.356c-.096-1.332-1.259-2.474-2.712-2.474h-.775c-1.55 0-2.712 1.237-2.712 2.664v1.142c0 1.523 1.259 2.665 2.712 2.665h.775c1.356 0 2.519-1.047 2.712-2.284h-1.259a1.914 1.914 0 0 1-1.743 1.142h-.097a1.823 1.823 0 0 1-1.841-1.808v-.381c-.193-.952.678-1.808 1.744-1.808z" fill="#000" fill-opacity=".2"/>
    <path d="M120.392 43.602h-.775c-1.55 0-2.712 1.237-2.712 2.664v1.142c0 1.523 1.259 2.665 2.712 2.665h3.1V48.93h-2.81c-1.065 0-1.84-.666-1.84-1.618v-.19h5.037V45.98c-.194-1.333-1.356-2.38-2.712-2.38zm-2.228 2.379c0-.762.969-1.333 1.743-1.333h.097c.775 0 1.744.571 1.744 1.333h-3.584z" fill="#060915"/>
    <path d="M120.392 43.602h-.775c-1.55 0-2.712 1.237-2.712 2.664v1.142c0 1.523 1.259 2.665 2.712 2.665h3.1V48.93h-2.81c-1.065 0-1.84-.666-1.84-1.618v-.19h5.037V45.98c-.194-1.333-1.356-2.38-2.712-2.38zm-2.228 2.379c0-.762.969-1.333 1.743-1.333h.097c.775 0 1.744.571 1.744 1.333h-3.584z" fill="#000" fill-opacity=".2"/>
    <path d="M200.5 47.122V45.98c-.097-1.332-1.26-2.474-2.713-2.474h-.775c-1.549 0-2.712 1.237-2.712 2.664v1.142c0 1.523 1.259 2.665 2.712 2.665h3.1v-1.142H197.4c-1.066 0-1.841-.666-1.841-1.618v-.19h4.941v.095zm-3.1-2.379c.872 0 1.84.571 1.84 1.332h-3.584c0-.761.969-1.332 1.744-1.332z" fill="#060915"/>
    <path d="M200.5 47.122V45.98c-.097-1.332-1.26-2.474-2.713-2.474h-.775c-1.549 0-2.712 1.237-2.712 2.664v1.142c0 1.523 1.259 2.665 2.712 2.665h3.1v-1.142H197.4c-1.066 0-1.841-.666-1.841-1.618v-.19h4.941v.095zm-3.1-2.379c.872 0 1.84.571 1.84 1.332h-3.584c0-.761.969-1.332 1.744-1.332z" fill="#000" fill-opacity=".2"/>
    <path d="M176.381 43.697h-1.26v6.566h1.26v-6.566z" fill="#060915"/>
    <path d="M176.381 43.697h-1.26v6.566h1.26v-6.566z" fill="#000" fill-opacity=".2"/>
    <path d="M175.799 41.984c.428 0 .775-.341.775-.762a.768.768 0 0 0-.775-.761.768.768 0 0 0-.775.761c0 .42.347.762.775.762z" fill="#060915"/>
    <path d="M175.799 41.984c.428 0 .775-.341.775-.762a.768.768 0 0 0-.775-.761.768.768 0 0 0-.775.761c0 .42.347.762.775.762z" fill="#000" fill-opacity=".2"/>
    <path d="M179.383 47.884V44.648c.388.286.872.38 1.356.38h.582v-1.236h-.678c-.678 0-1.26-.571-1.26-1.238v-1.427h-1.162v6.947c0 1.427 1.162 2.57 2.615 2.57h.969v-1.238h-1.066c-.774-.285-1.356-.856-1.356-1.522z" fill="#060915"/>
    <path d="M179.383 47.884V44.648c.388.286.872.38 1.356.38h.582v-1.236h-.678c-.678 0-1.26-.571-1.26-1.238v-1.427h-1.162v6.947c0 1.427 1.162 2.57 2.615 2.57h.969v-1.238h-1.066c-.774-.285-1.356-.856-1.356-1.522z" fill="#000" fill-opacity=".2"/>
    <path d="M24.692 15.511c1.646 1.142 3.971.571 3.971.571s-.678-1.808-2.034-2.57c-1.356-.856-3.972-.76-3.972-.76.194.475.388 1.712 2.035 2.76z" fill="#060915"/>
    <path d="M24.692 15.511c1.646 1.142 3.971.571 3.971.571s-.678-1.808-2.034-2.57c-1.356-.856-3.972-.76-3.972-.76.194.475.388 1.712 2.035 2.76z" fill="#000" fill-opacity=".2"/>
    <path d="M26.919 20.745c.774 1.713 3.1 2.474 3.1 2.474s.29-1.903-.388-3.235c-.678-1.428-3.003-2.57-3.003-2.57-.097.476-.581 1.618.29 3.331z" fill="#060915"/>
    <path d="M26.919 20.745c.774 1.713 3.1 2.474 3.1 2.474s.29-1.903-.388-3.235c-.678-1.428-3.003-2.57-3.003-2.57-.097.476-.581 1.618.29 3.331z" fill="#000" fill-opacity=".2"/>
    <path d="M35.25 21.507c.485.19 1.453.952 3.39.666 1.938-.285 3.294-2.284 3.294-2.284s-1.744-.856-3.293-.57c-1.55.38-3.39 2.188-3.39 2.188z" fill="#060915"/>
    <path d="M35.25 21.507c.485.19 1.453.952 3.39.666 1.938-.285 3.294-2.284 3.294-2.284s-1.744-.856-3.293-.57c-1.55.38-3.39 2.188-3.39 2.188z" fill="#000" fill-opacity=".2"/>
    <path d="M33.603 26.741c-.581 1.428.097 3.902.097 3.902.387-.286 1.55-.762 2.324-2.474.775-1.809-.29-3.902-.29-3.902s-1.55 1.047-2.131 2.474z" fill="#060915"/>
    <path d="M33.603 26.741c-.581 1.428.097 3.902.097 3.902.387-.286 1.55-.762 2.324-2.474.775-1.809-.29-3.902-.29-3.902s-1.55 1.047-2.131 2.474z" fill="#000" fill-opacity=".2"/>
    <path d="M38.253 27.502c.484-.095 1.744 0 3.197-1.332 1.453-1.333 1.453-3.712 1.453-3.712s-1.938.286-3.003 1.333c-1.26 1.237-1.647 3.71-1.647 3.71z" fill="#060915"/>
    <path d="M38.253 27.502c.484-.095 1.744 0 3.197-1.332 1.453-1.333 1.453-3.712 1.453-3.712s-1.938.286-3.003 1.333c-1.26 1.237-1.647 3.71-1.647 3.71z" fill="#000" fill-opacity=".2"/>
    <path d="M42.418 15.32c.968-1.712.194-3.9.194-3.9s-1.744.856-2.422 2.283c-.678 1.428-.388 3.902-.388 3.902.388-.19 1.647-.571 2.616-2.284z" fill="#060915"/>
    <path d="M42.418 15.32c.968-1.712.194-3.9.194-3.9s-1.744.856-2.422 2.283c-.678 1.428-.388 3.902-.388 3.902.388-.19 1.647-.571 2.616-2.284z" fill="#000" fill-opacity=".2"/>
    <path d="M35.25 15.892c.29-.38 1.162-1.332 1.065-3.236-.097-1.903-1.937-3.425-1.937-3.425s-.969 1.617-.872 3.14c.097 1.523 1.744 3.521 1.744 3.521z" fill="#060915"/>
    <path d="M35.25 15.892c.29-.38 1.162-1.332 1.065-3.236-.097-1.903-1.937-3.425-1.937-3.425s-.969 1.617-.872 3.14c.097 1.523 1.744 3.521 1.744 3.521z" fill="#000" fill-opacity=".2"/>
    <path d="M50.749 19.317c.387-1.903-.969-3.806-.969-3.806s-1.356 1.332-1.647 2.855c-.29 1.522.775 3.901.775 3.901.388-.38 1.453-1.046 1.84-2.95z" fill="#060915"/>
    <path d="M50.749 19.317c.387-1.903-.969-3.806-.969-3.806s-1.356 1.332-1.647 2.855c-.29 1.522.775 3.901.775 3.901.388-.38 1.453-1.046 1.84-2.95z" fill="#000" fill-opacity=".2"/>
    <path d="M51.62 25.503c-1.26.952-2.131 3.331-2.131 3.331.484 0 1.743.19 3.39-.856 1.647-1.047 1.937-3.426 1.937-3.426s-1.937 0-3.196.951z" fill="#060915"/>
    <path d="M51.62 25.503c-1.26.952-2.131 3.331-2.131 3.331.484 0 1.743.19 3.39-.856 1.647-1.047 1.937-3.426 1.937-3.426s-1.937 0-3.196.951z" fill="#000" fill-opacity=".2"/>
    <path d="M51.33 31.689c-1.454.475-3.004 2.569-3.004 2.569.485.19 1.647.761 3.488.19 1.84-.57 2.905-2.76 2.905-2.76s-1.84-.57-3.39 0z" fill="#060915"/>
    <path d="M51.33 31.689c-1.454.475-3.004 2.569-3.004 2.569.485.19 1.647.761 3.488.19 1.84-.57 2.905-2.76 2.905-2.76s-1.84-.57-3.39 0z" fill="#000" fill-opacity=".2"/>
    <path d="M39.608 35.686c-1.452-.571-3.971.095-3.971.095.29.38.775 1.522 2.519 2.284 1.84.76 3.97-.286 3.97-.286s-1.065-1.523-2.518-2.093z" fill="#060915"/>
    <path d="M39.608 35.686c-1.452-.571-3.971.095-3.971.095.29.38.775 1.522 2.519 2.284 1.84.76 3.97-.286 3.97-.286s-1.065-1.523-2.518-2.093z" fill="#000" fill-opacity=".2"/>
    <path d="M25.466 31.213c1.84.666 3.972-.476 3.972-.476s-1.163-1.522-2.616-1.998c-1.55-.476-3.971.285-3.971.285.194.38.775 1.523 2.615 2.189z" fill="#060915"/>
    <path d="M25.466 31.213c1.84.666 3.972-.476 3.972-.476s-1.163-1.522-2.616-1.998c-1.55-.476-3.971.285-3.971.285.194.38.775 1.523 2.615 2.189z" fill="#000" fill-opacity=".2"/>
    <path d="M16.943 34.734c1.937-.095 3.487-1.998 3.487-1.998s-1.646-.952-3.196-.761c-1.55.19-3.584 1.808-3.584 1.808.387.285 1.356 1.142 3.293.951z" fill="#060915"/>
    <path d="M16.943 34.734c1.937-.095 3.487-1.998 3.487-1.998s-1.646-.952-3.196-.761c-1.55.19-3.584 1.808-3.584 1.808.387.285 1.356 1.142 3.293.951z" fill="#000" fill-opacity=".2"/>
    <path d="M19.364 21.792c.097.476.097 1.713 1.453 3.14 1.356 1.428 3.777 1.333 3.777 1.333s-.29-1.903-1.453-2.95c-1.162-1.142-3.777-1.523-3.777-1.523z" fill="#060915"/>
    <path d="M19.364 21.792c.097.476.097 1.713 1.453 3.14 1.356 1.428 3.777 1.333 3.777 1.333s-.29-1.903-1.453-2.95c-1.162-1.142-3.777-1.523-3.777-1.523z" fill="#000" fill-opacity=".2"/>
    <path d="M15.198 27.026s.485-1.808-.097-3.235c-.58-1.428-2.809-2.855-2.809-2.855-.097.476-.678 1.617 0 3.425.678 1.809 2.906 2.665 2.906 2.665z" fill="#060915"/>
    <path d="M15.198 27.026s.485-1.808-.097-3.235c-.58-1.428-2.809-2.855-2.809-2.855-.097.476-.678 1.617 0 3.425.678 1.809 2.906 2.665 2.906 2.665z" fill="#000" fill-opacity=".2"/>
    <path d="M11.809 30.357c-1.163.285-2.519 1.998-2.519 1.998.388.19 1.26.666 2.81.286 1.55-.381 2.42-2.094 2.42-2.094s-1.452-.57-2.711-.19z" fill="#060915"/>
    <path d="M11.809 30.357c-1.163.285-2.519 1.998-2.519 1.998.388.19 1.26.666 2.81.286 1.55-.381 2.42-2.094 2.42-2.094s-1.452-.57-2.711-.19z" fill="#000" fill-opacity=".2"/>
    <path d="M24.885 35.782c-1.26.38-2.615 1.998-2.615 1.998.387.19 1.259.666 2.809.285 1.55-.38 2.421-2.093 2.421-2.093s-1.356-.571-2.615-.19z" fill="#060915"/>
    <path d="M24.885 35.782c-1.26.38-2.615 1.998-2.615 1.998.387.19 1.259.666 2.809.285 1.55-.38 2.421-2.093 2.421-2.093s-1.356-.571-2.615-.19z" fill="#000" fill-opacity=".2"/>
    <path d="M19.946 18.462c.29-1.237-.582-3.14-.582-3.14-.29.285-1.162.76-1.55 2.283-.387 1.523.776 3.14.776 3.14s1.065-1.046 1.356-2.283z" fill="#060915"/>
    <path d="M19.946 18.462c.29-1.237-.582-3.14-.582-3.14-.29.285-1.162.76-1.55 2.283-.387 1.523.776 3.14.776 3.14s1.065-1.046 1.356-2.283z" fill="#000" fill-opacity=".2"/>
    <path d="M41.255 32.165s1.55.285 2.712-.38c1.163-.572 2.131-2.38 2.131-2.38-.387-.095-1.356-.38-2.809.19-1.453.667-2.034 2.57-2.034 2.57z" fill="#060915"/>
    <path d="M41.255 32.165s1.55.285 2.712-.38c1.163-.572 2.131-2.38 2.131-2.38-.387-.095-1.356-.38-2.809.19-1.453.667-2.034 2.57-2.034 2.57z" fill="#000" fill-opacity=".2"/>
    <path d="M56.657 33.211s-3.197 2.95-6.49 2.76c-2.325-.19-4.165-.952-5.715-1.618 0 0-.097 0-.097-.095 2.81-1.142 4.165-3.997 4.262-4.187l-1.066-.476s-1.743 3.712-5.133 3.902l-.388-.095c-1.356-.381-3.39-.857-6.49-.476.485-.476.969-.952 1.55-1.332 1.453-1.238 3.487-1.999 5.134-2.665 1.162-.476 1.937-.856 2.422-1.237 8.524-3.14 8.814-8.66 8.814-8.85h-1.162s-.29 4.377-6.78 7.327c.774-1.903 1.452-5.043 1.646-7.422.194-3.426-1.937-7.138-2.034-7.233l-.969.571s2.131 3.521 1.84 6.566c-.193 3.331-1.452 7.518-2.13 8.184-.194.286-1.163.667-2.131 1.047-1.744.666-3.778 1.523-5.425 2.855-1.26 1.047-2.421 2.094-3.39 3.521-.29-.285-.484-.761-.484-.761-1.26-5.805-.97-6.852-.485-8.47.097-.38.194-.666.29-1.142.388-1.617 1.454-2.76 2.907-4.187.581-.666 1.356-1.332 2.034-2.189 2.131-2.474 1.937-5.138 1.744-7.137 0-.285-.097-.57-.097-.856H37.67c0 .285 0 .57.097.951.194 1.809.388 4.188-1.453 6.281-.484.571-.872 1.047-1.356 1.523-2.325-5.33-6.587-6.186-6.78-6.186l-.194 1.142s4.068.761 6.102 5.995c-1.356 1.428-2.518 2.665-2.906 4.473-.097.38-.193.761-.29 1.047-.097.285-.097.476-.194.761-7.071-2.76-8.718-9.326-8.718-9.326l-1.162.286c.097.285 1.743 7.327 9.59 10.277-.098 1.237 0 3.046.774 6.471-.775-.19-1.937-.19-3.196-.095-1.26.095-2.712.095-3.294-.19-1.162-.571-3.68-2.855-4.65-3.712l-.096-.095c-3.875-3.235-3.68-13.132-3.68-13.227h-1.163c0 .38-.194 9.23 3.196 13.323-1.162.095-2.906-.096-4.65-1.047-2.518-1.523-3.002-3.236-3.002-3.236l-.581.095-.581.095c0 .096.58 2.19 3.68 3.997 2.616 1.523 5.328 1.238 6.297 1.142.678.666 3.003 2.76 4.455 3.521-1.84.952-5.52 2.57-8.33 2.38-3.875-.191-6.296-2.57-6.296-2.57l-.775.761c.097.095 2.712 2.665 7.071 2.855h.387c3.875 0 8.718-2.57 9.59-3.14.775.095 1.647 0 2.519 0 1.162-.095 2.712-.095 3.1.19.387.19.774.571 1.065.952-.581.951-.969 2.093-1.163 3.33-.387 2.475-.871 5.425 1.26 9.517-.678 1.332-1.453 2.379-1.453 2.379l.968.57c0-.094.582-.856 1.163-1.807.387.666.872 1.427 1.453 2.188l.968-.666c-.678-.951-1.259-1.808-1.743-2.664.581-1.142 1.162-2.284 1.356-3.14.581-2.57-.097-6.377-.194-7.138a8.123 8.123 0 0 0-1.065-2.664c.193-.286.387-.571.678-.857 3.68-.761 5.908-.19 7.458.19l.485.096c.484.095 1.065.38 1.84.666 1.55.666 3.584 1.522 6.103 1.713h.484c3.68 0 6.78-2.95 6.877-3.046l-1.065-.666zm-22.86 11.61c-.097.571-.485 1.332-.872 2.094-1.55-3.426-1.162-5.9-.775-8.09a6.28 6.28 0 0 1 .775-2.378c.29.57.484 1.142.581 1.713.484 1.903.678 4.853.29 6.661z" fill="#060915"/>
    <path d="M56.657 33.211s-3.197 2.95-6.49 2.76c-2.325-.19-4.165-.952-5.715-1.618 0 0-.097 0-.097-.095 2.81-1.142 4.165-3.997 4.262-4.187l-1.066-.476s-1.743 3.712-5.133 3.902l-.388-.095c-1.356-.381-3.39-.857-6.49-.476.485-.476.969-.952 1.55-1.332 1.453-1.238 3.487-1.999 5.134-2.665 1.162-.476 1.937-.856 2.422-1.237 8.524-3.14 8.814-8.66 8.814-8.85h-1.162s-.29 4.377-6.78 7.327c.774-1.903 1.452-5.043 1.646-7.422.194-3.426-1.937-7.138-2.034-7.233l-.969.571s2.131 3.521 1.84 6.566c-.193 3.331-1.452 7.518-2.13 8.184-.194.286-1.163.667-2.131 1.047-1.744.666-3.778 1.523-5.425 2.855-1.26 1.047-2.421 2.094-3.39 3.521-.29-.285-.484-.761-.484-.761-1.26-5.805-.97-6.852-.485-8.47.097-.38.194-.666.29-1.142.388-1.617 1.454-2.76 2.907-4.187.581-.666 1.356-1.332 2.034-2.189 2.131-2.474 1.937-5.138 1.744-7.137 0-.285-.097-.57-.097-.856H37.67c0 .285 0 .57.097.951.194 1.809.388 4.188-1.453 6.281-.484.571-.872 1.047-1.356 1.523-2.325-5.33-6.587-6.186-6.78-6.186l-.194 1.142s4.068.761 6.102 5.995c-1.356 1.428-2.518 2.665-2.906 4.473-.097.38-.193.761-.29 1.047-.097.285-.097.476-.194.761-7.071-2.76-8.718-9.326-8.718-9.326l-1.162.286c.097.285 1.743 7.327 9.59 10.277-.098 1.237 0 3.046.774 6.471-.775-.19-1.937-.19-3.196-.095-1.26.095-2.712.095-3.294-.19-1.162-.571-3.68-2.855-4.65-3.712l-.096-.095c-3.875-3.235-3.68-13.132-3.68-13.227h-1.163c0 .38-.194 9.23 3.196 13.323-1.162.095-2.906-.096-4.65-1.047-2.518-1.523-3.002-3.236-3.002-3.236l-.581.095-.581.095c0 .096.58 2.19 3.68 3.997 2.616 1.523 5.328 1.238 6.297 1.142.678.666 3.003 2.76 4.455 3.521-1.84.952-5.52 2.57-8.33 2.38-3.875-.191-6.296-2.57-6.296-2.57l-.775.761c.097.095 2.712 2.665 7.071 2.855h.387c3.875 0 8.718-2.57 9.59-3.14.775.095 1.647 0 2.519 0 1.162-.095 2.712-.095 3.1.19.387.19.774.571 1.065.952-.581.951-.969 2.093-1.163 3.33-.387 2.475-.871 5.425 1.26 9.517-.678 1.332-1.453 2.379-1.453 2.379l.968.57c0-.094.582-.856 1.163-1.807.387.666.872 1.427 1.453 2.188l.968-.666c-.678-.951-1.259-1.808-1.743-2.664.581-1.142 1.162-2.284 1.356-3.14.581-2.57-.097-6.377-.194-7.138a8.123 8.123 0 0 0-1.065-2.664c.193-.286.387-.571.678-.857 3.68-.761 5.908-.19 7.458.19l.485.096c.484.095 1.065.38 1.84.666 1.55.666 3.584 1.522 6.103 1.713h.484c3.68 0 6.78-2.95 6.877-3.046l-1.065-.666zm-22.86 11.61c-.097.571-.485 1.332-.872 2.094-1.55-3.426-1.162-5.9-.775-8.09a6.28 6.28 0 0 1 .775-2.378c.29.57.484 1.142.581 1.713.484 1.903.678 4.853.29 6.661z" fill="#000" fill-opacity=".2"/>
</svg>
