<svg width="335" height="182" viewBox="0 0 335 182" fill="none" xmlns="http://www.w3.org/2000/svg">
    <mask id="a" fill="#fff">
        <path d="M287.375 181.249c.985-.719.988-.877.066-3.646-.53-1.592-1.415-3.449-1.966-4.128-.873-1.075-.905-1.422-.249-2.683.415-.797 1.012-1.481 1.326-1.519.315-.039 1.05-.102 1.635-.141 1.284-.085 1.918-2.097 1.126-3.573-.408-.758-.375-1.31.114-1.897.698-.839.678-.921-1.184-4.848-.553-1.166-.57-1.714-.069-2.316.508-.609.463-.948-.197-1.494-.469-.388-.853-1.308-.853-2.044 0-.735-.193-1.337-.428-1.337-.492 0-2.114 2.36-1.975 2.873.051.187-.536.677-1.306 1.087-.769.411-1.546 1.333-1.726 2.05-.181.716-.536 1.303-.791 1.303-.254 0-.828.365-1.275.81-1.185 1.182-2.949.483-4.083-1.618-.705-1.306-1.414-1.853-2.46-1.898a83.405 83.405 0 0 1-3.609-.272c-1.178-.114-2.262-.013-2.41.225-.395.638-2.437.122-4.061-1.025-2.009-1.421-2.523-1.714-3.799-2.166-1.071-.379-1.062-.416.192-.747l1.319-.349-1.46-1.572c-.804-.864-1.461-1.812-1.461-2.105 0-.294-.265-.534-.589-.534-.324 0-1.276-.645-2.115-1.434-1.429-1.342-1.798-1.415-5.758-1.141-6.067.42-6.768.541-6.776 1.169-.004.309-.892 1.134-1.974 1.833-2.237 1.445-2.466 2.367-.84 3.38 1.262.786 1.534 3.439.463 4.507-.367.366-.69 2.371-.721 4.472-.048 3.354-.243 4.008-1.628 5.479l-1.574 1.669-2.492-.893c-2.045-.734-2.67-.765-3.478-.176-.804.586-1.266.573-2.516-.072-1.377-.71-1.734-.67-3.54.392-1.105.65-2.155 1.765-2.334 2.477-.23.913-.871 1.397-2.175 1.641-1.018.19-2.299.841-2.849 1.447-.549.605-1.259.94-1.578.743-.319-.196-2.04-.304-3.826-.24-2.699.097-3.438-.09-4.391-1.109-.746-.799-1.553-1.121-2.312-.923-.785.205-1.355-.047-1.743-.77-.721-1.344-4.713-1.476-7.1-.234-.889.462-2.085.842-2.659.844-1.182.004-4.316-3.09-4.316-4.261 0-.836-2.79-2.486-4.205-2.486-1.397 0-5.051-2.158-5.479-3.235-.317-.8-.398-.736-.43.341-.022.729-.674 2.077-1.45 2.996-1.467 1.739-1.851 4.296-.803 5.342.434.433.19 1.022-.855 2.065-1.188 1.184-1.808 1.394-3.288 1.115-1.003-.189-2.13-.584-2.504-.876-.374-.293-.911-.39-1.194-.216-.582.359-2.003-1.116-2.549-2.646-.27-.759-.834-.975-2.201-.844-1.01.097-2.091-.127-2.401-.498-.432-.518-1.289-.401-3.667.501-1.706.647-3.824 1.149-4.707 1.116-1.15-.044-1.519.159-1.305.717.335.871-.548 1.319-3.529 1.789-1.113.176-2.198.427-2.412.557-.214.131-.975-.384-1.692-1.144-.784-.831-2.083-1.452-3.26-1.559-1.663-.151-2.035-.451-2.479-2.005-.288-1.006-.867-1.829-1.287-1.829-.475 0-.765-.644-.765-1.696 0-1.387-.362-1.869-1.98-2.639-1.411-.671-2.154-.768-2.586-.337-.955.953-2.734.179-3.65-1.587-.884-1.705-2.502-2.204-2.502-.772 0 .464-.38.843-.846.843-.663 0-.846-.769-.846-3.554 0-1.955-.398-4.891-.885-6.525-.486-1.633-.767-3.087-.623-3.23.144-.144-.347-.915-1.09-1.715-1.673-1.8-1.684-2.176-.082-2.689 1.104-.353.979-.463-.957-.839-1.604-.312-2.441-.219-2.993.332-.771.769-2.917.74-4.84-.066-.808-.339-.871-.535-.285-.896.588-.363.508-.644-.376-1.31-.619-.467-1.435-.856-1.813-.866-.378-.01-.541-.398-.363-.862.238-.617-.07-.844-1.146-.844-1.405 0-1.965-1.006-1.062-1.906.224-.224.463-1.279.532-2.344.101-1.586-.075-1.938-.972-1.938-.603 0-1.59-.492-2.194-1.094-.878-.876-1.438-.997-2.8-.608-1.859.532-6.913-.365-12.743-2.26-1.862-.605-3.746-1.101-4.187-1.101-.44.001-1.25-.404-1.798-.898-.547-.495-1.235-.752-1.528-.571-.868.535-1.183 3.371-.476 4.282.565.728.524.742-.301.098-1.503-1.173-3.584-.633-3.422.889.152 1.428-1.37 1.754-2.618.56-.6-.574-.678-.291-.424 1.547.678 4.921.672 5.024-.309 5.222-.527.107-1.508-.436-2.18-1.206-.671-.77-1.531-1.28-1.911-1.135-.899.344-1.841-.828-2.087-2.594-.12-.859-.629-1.483-1.318-1.614-.617-.117-1.468-.707-1.892-1.309-.432-.616-1.134-.956-1.602-.777-.458.175-1.447.164-2.197-.023-1.043-.261-1.366-.719-1.366-1.936 0-1.948-.854-2.599-1.637-1.249-.44.758-.534.353-.392-1.696.152-2.187-.014-2.8-.884-3.264-.59-.315-1.034-.875-.987-1.246.208-1.655-.116-2.141-1.318-1.975-.948.132-1.314-.139-1.447-1.068-.157-1.106-.423-1.21-2.397-.934-1.303.182-2.22.078-2.22-.25 0-.307-1.079-.505-2.398-.438-1.959.098-2.429.337-2.571 1.305-.096.652-.55 1.329-1.008 1.504-.922.353-1.641-.922-1.187-2.103.548-1.424-.413-1.995-2.816-1.673-1.825.244-2.413.594-2.662 1.584-.329 1.305-2.589 2.377-2.589 1.228 0-.35-.403-.062-.895.639-.682.972-.742 1.458-.25 2.049.498.599.414.903-.375 1.345-.957.537-.939.646.3 1.8.898.838 1.214 1.609.994 2.427-.177.66-.326 1.516-.33 1.903-.005.386-.389.703-.854.703-1.02 0-1.132 2.007-.147 2.615 1.572.968-2.187 1.092-4.443.146-2.041-.856-2.522-.881-3.847-.195-.832.43-1.686.759-1.897.729-1.803-.251-2.369.178-2.252 1.711.069.898-.197 2.019-.591 2.493-.595.714-.53.96.374 1.442.6.32 1.25.422 1.447.227.195-.195.356-.06.356.301 0 .389-.903.656-2.212.656-2.397 0-2.252-.236-3.19 5.204-.276 1.594-.634 2.109-1.467 2.109-2.35 0-3.285-1.037-3.285-3.643 0-1.363-.27-2.645-.6-2.848-.331-.204-.558-1.042-.505-1.862.252-3.894-.023-4.862-1.638-5.778-1.325-.751-1.66-1.39-1.915-3.638-.17-1.499-.592-2.821-.94-2.936-.847-.282-2.3-3.154-2.3-4.549 0-.617-.48-1.457-1.067-1.867-.913-.637-1.117-1.747-1.408-7.652L0 102.067l1.362 1.466c1.2 1.292 1.501 1.379 2.536.735.943-.588 1.396-.593 2.302-.029 1.013.631 1.128.562 1.128-.675 0-.758.254-1.535.564-1.726.31-.191.566-.143.569.108.004.455 2.642 1.861 3.493 1.861s.451-1.631-.536-2.184c-.872-.489-.884-.593-.097-.895 1.11-.426 3.905.587 3.905 1.416 0 .821 2.4.065 2.99-.942.247-.424.819-.77 1.269-.77.45 0 .818-.224.818-.497s.507-.63 1.128-.791c1.393-.363 1.537-3.26.282-5.66-.461-.883-.692-2.187-.513-2.899.273-1.085.056-1.353-1.346-1.66-1.441-.316-1.654-.598-1.54-2.047.074-.924.678-2.187 1.343-2.805 1.444-1.341 1.47-1.585.33-3.206-.83-1.182-.8-1.282.549-1.793.846-.32 1.583-1.16 1.81-2.062.322-1.278.046-1.828-1.729-3.45l-2.111-1.93 1.568-1.633c1.855-1.93 2.255-2.007 2.648-.507.217.825.77 1.125 2.074 1.125 1.156 0 1.643-.217 1.393-.622-.541-.873.858-5.035 2.2-6.54.614-.691 1.585-1.404 2.157-1.585 1.082-.343 1.464-2.738.528-3.315-.282-.173-.386-.792-.233-1.376.153-.583.002-1.23-.335-1.439-.916-.564-.74-1.999.245-1.999.472 0 1.147-.633 1.5-1.406.354-.774.983-1.407 1.399-1.407.415 0 .755-.244.755-.542 0-.299.547-.835 1.214-1.19 1.034-.552 1.162-.514.864.26-.467 1.213.49 1.162 1.416-.075.405-.54 1.955-1.556 3.443-2.255 2.941-1.382 4.338-1.126 5.48 1.003 1.012 1.885 1.726 1.278 1.338-1.138-.25-1.564-.156-2.25.31-2.25.367 0 .495-.28.283-.623-.252-.407-.019-.508.672-.291 2.242.704 7.241 1.476 9.556 1.476 2.42 0 4.53-1.251 3.88-2.3-.601-.971.359-2.69 1.61-2.881.683-.104 1.179-.5 1.101-.88-.078-.379.367-.69.987-.69.697 0 1.13-.376 1.133-.984.004-.948 2.274-2.39 3.762-2.39.396 0 1.167-.697 1.713-1.547 1.368-2.134 2.457-2.913 4.11-2.945 1.976-.037 2.621-.587 3.062-2.612.322-1.483.701-1.811 2.411-2.088 1.492-.241 2.435-.04 3.56.758.842.598 1.656.962 1.81.809.153-.153.616.127 1.028.622.49.59.55 1.031.172 1.28-.758.497-1.361 2.91-.728 2.91.27 0 .796.567 1.169 1.261.832 1.55.684 13.298-.18 14.337-.325.39-1.54.994-2.701 1.34-1.738.52-2.352.472-3.484-.268-2.063-1.347-3.893-7.044-3.874-12.06.005-1.606-.957-1.111-1.81.93-.807 1.935-.845 2.085-.928 3.704-.046.895-.51 1.501-1.34 1.752-2.184.66-3.808 2.562-3.808 4.46 0 .966-.304 2.061-.677 2.433-.445.444-.468.675-.066.675.337 0 .744.506.907 1.125.33 1.256 1.78 1.502 2.482.421.251-.386.457-1.33.457-2.097 0-.87.365-1.466.971-1.585.776-.153.957.192.9 1.71-.144 3.822 2.509 5.718 3.607 2.577.59-1.69.613-1.698 3.742-1.308 1.902.237 3.419.76 3.834 1.321.385.52.455 1.013.16 1.118-.886.317.035 1.218 1.244 1.218 1.358 0 2.548-1.08 2.833-2.571.116-.608.759-1.164 1.46-1.264.689-.098 1.74-.796 2.335-1.551.684-.868 1.415-1.246 1.985-1.027 1.058.404 1.1.76.33 2.78-.434 1.14-.75 1.36-1.299.905-1.271-1.053-3.07-.135-3.34 1.703-.324 2.2.93 3.5 2.904 3.008 3.525-.876 8.102-.48 9.505.824.703.653 1.349.887 1.55.562.19-.306.878-.556 1.528-.556 1.143 0 1.148.037.171 1.114-.848.934-.892 1.259-.271 2.005.452.543 1.222.77 1.973.582.78-.195 1.569.063 2.147.7.57.628 1.576.963 2.666.888 1.575-.109 1.717.011 1.419 1.194-.28 1.116-.134 1.295.964 1.178 1.863-.198 2.656-.821 2.656-2.087 0-2.016 1.567-1.836 3.649.42 1.974 2.14 2.928 3.949 2.373 4.502-.158.157.208.779.812 1.381.605.603 1.25 1.848 1.434 2.766.184.919.653 1.67 1.041 1.67 1.162 0 2.093-1.55 1.691-2.813-.207-.651-.071-1.544.305-1.995.48-.577.493-.817.046-.817-.995 0-.741-1.654.496-3.222.62-.787 1.128-2.029 1.128-2.76 0-.945.319-1.331 1.099-1.331.605 0 2.309-1.14 3.787-2.532 1.478-1.392 2.744-2.531 2.813-2.531.068 0 .776.247 1.572.548 1.954.741 1.881 2.636-.196 5.099-1.192 1.413-1.564 2.346-1.358 3.402.176.902-.057 1.796-.614 2.35-.494.493-.898 1.12-.898 1.394 0 .273-.513 1.555-1.14 2.85-.719 1.484-1.009 2.87-.786 3.756.255 1.015.093 1.504-.585 1.763-.516.198-.802.715-.635 1.149.187.486-.233.993-1.096 1.32-.769.291-1.399.771-1.399 1.066 0 .294-.821.943-1.825 1.442-1.697.845-1.874.84-2.538-.066-.393-.536-.714-.768-.714-.516 0 .251-.381.142-.846-.243-.513-.424-.846-.47-.846-.115 0 1.433.839 2.465 2.603 3.2 1.716.715 2.152.682 4.443-.328 3.316-1.463 5.618-3.632 5.76-5.427.149-1.892.758-2.428 2.299-2.026 1.443.376 2.291 2.762 1.325 3.725-.787.784-.841 3.221-.071 3.221.31 0 1.096.532 1.748 1.18l1.184 1.181-.42-1.319c-.231-.725-.824-1.613-1.318-1.973-.816-.595-.808-.753.082-1.734.539-.594.98-1.627.98-2.297 0-1.473-2.118-4.035-3.345-4.047-.487-.005-1.213-.215-1.613-.468-.909-.576-.044-3.141 1.677-4.974.83-.883 1.093-1.77.932-3.146-.223-1.907.533-3.217 1.858-3.217.376 0 1.212-.443 1.857-.984 1.142-.96 1.15-.955.296.14-.482.62-.945 1.945-1.029 2.947-.124 1.486.115 1.943 1.3 2.481.798.363 1.452.872 1.452 1.132 0 .26.372.472.828.472 1.063 0 .481-1.69-.932-2.704-1.239-.889-1.35-2.358-.178-2.358.465 0 .846.253.846.562 0 .31.41.563.912.563.623 0 .822-.344.627-1.086-.208-.793-.009-1.064.741-1.008.565.042.902.278.75.523-.152.245.115.446.592.446.478 0 1.029.634 1.224 1.41.216.856.886 1.545 1.703 1.75 1.643.41 1.744 1.105.22 1.503-.77.2-1.128.767-1.128 1.786 0 .942.229 1.351.62 1.11.368-.227.32.16-.12.951-.407.734-.659 1.587-.561 1.896.214.673.522 2.085.582 2.672.063.62 1.735.516 1.735-.107 0-.291-.244-.68-.542-.864-.348-.214-.348-.846 0-1.757.298-.783.542-2.183.542-3.111 0-.928.278-2.205.617-2.837.445-.83.445-1.318 0-1.763-.339-.338-.617-.979-.617-1.424 0-.446-.378-1.091-.839-1.435-.603-.448-.744-1.206-.498-2.688l.342-2.063 3.882.095c2.737.066 3.882.307 3.882.817 0 .532.279.574 1.055.16.799-.426 1.024-1.107.928-2.804-.085-1.507.135-2.34.673-2.546.441-.169.66-.534.488-.811-.447-.722 3.188-2.316 5.28-2.316 1.049 0 1.898-.343 2.09-.844.361-.938 1.897-1.166 1.897-.282 0 .31.457.563 1.016.563 1.26 0 4.05-1.257 4.056-1.828.003-.232.595-.422 1.317-.422 1.125 0 1.279-.231 1.075-1.615-.302-2.052 2.417-4.936 3.673-3.897.621.514.627.718.031 1.103-.586.377-.564.582.114 1.025.465.305 1.163.558 1.551.563.388.004.705.514.705 1.133 0 1.316 1.017 1.508 1.489.282.502-1.307 2.996-1 5.144.634 1.493 1.136 1.767 1.595 1.181 1.98-.62.407-.578.642.225 1.255 1.418 1.084 1.238 1.848-.982 4.184-1.084 1.14-1.972 2.335-1.975 2.656-.003.32-1.147 1.789-2.543 3.263-1.396 1.474-2.531 2.983-2.521 3.354.01.379.347.242.768-.31.412-.541 1.275-.984 1.918-.984.687 0 1.322-.48 1.54-1.166.219-.687.691-1.043 1.15-.867.428.163 1.149-.072 1.601-.522 1.068-1.066 2.949-1.052 3.363.024.179.464.602.843.94.843.338 0 .475-.225.305-.5-.456-.736 2.225-2.312 3.931-2.312.808 0 1.851.38 2.316.843 1.09 1.088 3.752 1.079 5.88-.019 1.427-.736 1.586-1.028 1.074-1.98-.829-1.546-.227-2.24 1.622-1.871 1.037.206 1.808.014 2.298-.575.664-.798.9-.77 2.401.297.962.683 1.538 1.512 1.365 1.962-.172.447.054.78.528.78.948 0 1.108.886.255 1.412-.824.508-.027 1.535.913 1.175.513-.196.789.09.789.82 0 .695.59 1.362 1.551 1.755 2.199.898 3.851.834 3.605-.139-.111-.442-.289-1.632-.395-2.644-.161-1.546-.048-1.76.706-1.34 1.296.723 2.994.123 2.994-1.058 0-1.293 1.059-1.655 2.695-.923 1.623.725 3.208-.438 1.813-1.331-.699-.449-.633-.597.391-.877 1.101-.301 1.162-.494.575-1.828-.361-.82-.888-1.655-1.173-1.856-.284-.201-.312-.834-.062-1.407.249-.572.427-1.19.394-1.372-.032-.181 1.006-.872 2.308-1.534 1.97-1.002 2.398-1.064 2.55-.372.221 1.01 1.205 1.108 1.284.128.031-.387.232-.07.448.703.608 2.18 1.451 1.662 1.645-1.011.143-1.982.429-2.514 1.588-2.954 2.074-.786 2.584-.663 2.203.534-.315.99-.161 1.03 2.031.539 1.304-.292 2.749-.387 3.211-.21.925.354 3.484-1.746 3.484-2.86 0-.386.657-1.481 1.461-2.433 1.214-1.44 1.869-1.73 3.888-1.73 1.638 0 2.534.274 2.753.843.699 1.817 5.082.427 4.839-1.534-.191-1.538.817-3.358 2.136-3.859.761-.288 1.676-1.295 2.032-2.237.461-1.218.935-1.638 1.641-1.454.546.142 1.148.008 1.339-.3.19-.307.816-.436 1.39-.286.574.15 1.338-.082 1.698-.514.933-1.121-.331-2.473-2.314-2.473-2.223 0-2.457-1.345-.582-3.347.884-.944 1.492-1.716 1.349-1.716-.142 0 .201-.812.761-1.805 1.546-2.738 3.729-4.47 8.917-7.073.931-.468 2.12-1.217 2.644-1.666.523-.45 1.195-.667 1.492-.484.297.183.696-.071.887-.566.21-.546.7-.763 1.25-.553.67.257.811.106.546-.583-.315-.82.042-.893 3.04-.622 2.688.243 3.397.142 3.397-.484 0-.468-.575-.79-1.41-.79-1.637 0-1.745-.309-.532-1.52.484-.481.75-1.21.593-1.618-.164-.427.242-.905.955-1.126.682-.211 1.939-.874 2.792-1.473 1.631-1.146 1.571-1.193 1.777 1.377.031.387.31.893.62 1.125.355.266.256.62-.265.954-.457.293-.695.667-.53.831.299.3 2.396.767 3.79.846.416.023.561.329.331.7-.275.442-.101.54.53.299.613-.235.939-.073.939.466 0 .455-.254.827-.564.827-.31 0-.512.19-.447.422.064.232-.637 1.206-1.558 2.166-1.354 1.41-1.86 1.628-2.641 1.138-.758-.477-1.145-.37-1.808.505-.464.612-.852 1.682-.861 2.378-.014.963-.349 1.266-1.395 1.266-.758 0-1.534-.253-1.726-.562-.519-.838-1.244-.682-1.642.352-.436 1.133 1.269 2.526 2.603 2.127.693-.208 1.287.35 2.131 2 1.281 2.503.959 3.975-1.109 5.08-.695.37-.966.917-.743 1.498.324.841.405.84 1.028-.009.373-.508 1.22-.923 1.884-.923.664 0 1.207-.27 1.207-.6 0-.7 2.351-.101 2.891.736.222.344.492.323.727-.058.48-.773 4.434-.66 4.959.141.466.714-1.664 3.157-2.752 3.157-.93 0-.988.951-.076 1.254.417.139.728 1.774.822 4.327.083 2.257.423 4.925.755 5.929.333 1.004.703 2.337.824 2.963.121.626.474 2.055.784 3.176.535 1.933.494 2.04-.785 2.04-1.681 0-3.042 2.404-3.167 5.596-.077 1.941-.21 2.165-.935 1.568-.734-.605-.803-.383-.525 1.695.233 1.74.122 2.391-.407 2.391-1.213 0-1.471 2.386-.416 3.843.532.735 1.602 2.51 2.378 3.945 1.405 2.6 3.385 3.826 3.385 2.098 0-.487.41-.885.912-.885.621 0 .821.344.628 1.08-.211.805.096 1.187 1.204 1.499.817.23 1.703.368 1.968.306.265-.061.963.041 1.551.227 1.267.401 1.444 1.95.224 1.95-.466 0-.846.473-.846 1.05 0 1.51 2.147 4.013 3.443 4.013 1.323 0 2.041 1.507 1.144 2.4-.351.351-.639 1.565-.639 2.697 0 1.516.357 2.326 1.354 3.072 1.286.964 1.315 1.12.589 3.173-.608 1.719-.618 2.16-.049 2.16.937 0 3.183 5.163 3.183 7.318 0 2.212-1.454 2.235-3.515.057-.846-.893-2.618-2.186-3.938-2.872-4.704-2.445-13.418-10.469-13.418-12.355 0-1.499-1.179-3.962-1.896-3.962-.356 0-.32-.266.09-.675 1.002-.998.873-6.9-.169-7.763-.465-.385-.846-1.16-.846-1.723 0-.563-.266-1.187-.591-1.388-.413-.254-.412-.58.002-1.078.424-.51.315-1.467-.381-3.34-.812-2.184-.855-2.818-.253-3.78.821-1.311.479-1.97-2.349-4.52-1.019-.917-1.646-2.042-1.646-2.952 0-1.697-.814-1.906-1.894-.486-1.046 1.374-.964 2.247.343 3.646.639.683 1.128 1.985 1.128 3 0 .986.155 2.565.344 3.51.278 1.382.165 1.69-.577 1.582-.508-.075-1.312-.69-1.787-1.366-.999-1.422-1.929-1.609-1.929-.387 0 .464-.404.844-.899.844-.494 0-1.031.506-1.194 1.125-.162.619-.499 1.125-.748 1.125-.8 0-1.247 3.374-.557 4.203.358.43.797 2.255.974 4.056.178 1.8.688 3.992 1.133 4.87.777 1.535.851 1.56 1.896.617.637-.575 1.088-.711 1.088-.329 0 .36-.635 1.204-1.411 1.877-.775.672-1.41 1.574-1.41 2.003 0 .513-.37.663-1.081.438-.594-.188-1.229-.102-1.411.19-.181.293-.837.4-1.457.24-.784-.205-1.128-.018-1.128.615 0 .5-.19.879-.423.842-1.677-.264-2.458.229-2.762 1.742-.345 1.723-1.118 2.606-3.221 3.68-.665.34-1.173 1.054-1.128 1.589.057.671-.118.805-.566.434-.441-.364-1.32.077-2.741 1.376-3.165 2.892-4.009 4.442-3.6 6.613.193 1.029.161 2.061-.073 2.295-.234.233-.471 1.684-.527 3.224-.055 1.54-.373 3.126-.704 3.525-.332.398-.578 2.376-.548 4.394.03 2.019-.226 4.194-.57 4.834-.343.641-.624 1.799-.624 2.574 0 .776-.254 1.567-.564 1.758-.311.191-.564.839-.564 1.44 0 .833.392 1.092 1.659 1.092.912 0 1.814-.252 2.005-.559.191-.308.955.133 1.707.985 1.092 1.237 1.366 1.347 1.38.558.022-1.196 1.146-1.334 1.146-.141a.847.847 0 0 0 1.692 0c0-.464.381-.843.847-.843.963 0 1.147-1.436.254-1.986-1.096-.676.693-2.071 2.252-1.757 3.419.688 5.164 1.239 5.146 1.624-.01.227.888 1.316 1.996 2.421 1.266 1.263 1.889 2.331 1.678 2.88-.446 1.158.727 4.964 1.925 6.245.524.562 1.632 2.369 2.462 4.017 1.504 2.986 1.508 3.027 1.256 13.199-.267 10.779-.419 12.641-1.125 13.779-.241.389-.289 1.298-.107 2.02.427 1.697-1.583 6.249-3.53 7.994-1.241 1.112-1.888 1.281-3.875 1.012l-2.386-.323-.366 2.283c-.29 1.813-.605 2.283-1.53 2.283-1.109 0-1.115-.035-.133-.751zm27.158-27.982c-.851-.953-1.408-2.092-1.239-2.532.169-.44.08-.8-.197-.8-.576 0-2.28-3.184-2.28-4.259 0-.392-.859-1.241-1.908-1.888-1.05-.646-2.241-1.996-2.647-2.999-.406-1.003-1.6-2.962-2.653-4.355-1.054-1.392-2.262-3.354-2.684-4.359-.513-1.22-1.154-1.829-1.926-1.829-1.157 0-3.413-1.813-3.413-2.743 0-.272-.381-.809-.846-1.194-.466-.385-.847-1.093-.847-1.572 0-.479-.434-1.35-.964-1.934-.75-.827-.806-1.161-.25-1.504 1.006-.62.192-3.506-1.083-3.839-.584-.152-.881-.594-.706-1.051.471-1.223 1.283-.935 1.896.672.306.804 1.062 1.593 1.678 1.753.617.161 1.122.651 1.122 1.089 0 .437.444.954.987 1.147 1.729.614 2.448 1.406 1.889 2.079-.67.807.824 2.642 2.906 3.57.853.38 1.551.949 1.551 1.265 0 .316.278.575.619.575.34 0 2.18 1.366 4.089 3.036 1.91 1.671 4.36 3.422 5.446 3.892l1.974.856-2.697.045c-3.283.056-3.627.686-2.379 4.354 1.255 3.685 2.994 6.377 4.135 6.399.518.009 1.436.39 2.04.846.604.456 1.514.697 2.021.537 1.223-.388 2.672 2.485 1.59 3.151-.389.24-.937.295-1.217.122-.281-.173-.166-.532.255-.798.563-.356.579-.486.06-.493-1.217-.014-2.879 2.03-2.339 2.879 1.394 2.195.01 2.113-1.983-.118zm-2.544-1.878c-.024-.593.109-.926.297-.739.187.187.207.672.044 1.078-.18.449-.314.316-.341-.339zm15.751-2.406c0-1.6.278-2.409.91-2.651.776-.297.853-.037.52 1.768-.571 3.1-1.43 3.63-1.43.883zm2.084-3.907c-.794-.792-.425-5.696.454-6.032.466-.178.846-.712.846-1.186 0-.473.254-.861.565-.861.769 0 .71.639-.277 2.994-.462 1.103-.695 2.384-.517 2.847.379.983-.496 2.811-1.071 2.238zm3.032-11.28c-.021-.988.215-1.952.525-2.143.676-.417.676 1.242 0 2.812-.409.949-.491.844-.525-.669zm1.742-8.612c0-.774.128-1.09.285-.704.156.387.156 1.02 0 1.407-.157.387-.285.07-.285-.703zm-56.217-2.813c-.192-.309-.08-.563.248-.563.329 0 .598.254.598.563 0 .309-.112.562-.249.562s-.406-.253-.597-.562zm54.136-7.341c-.518-.836-.106-1.132.799-.574.485.299.543.588.164.822-.322.198-.755.087-.963-.248zm-.828-3.91a.564.564 0 0 1 1.128 0 .565.565 0 0 1-1.128 0zm-.611-3.094a3.842 3.842 0 0 1-.013-1.007c.041-.245-.171-.902-.471-1.461-.369-.688-.335-1.225.105-1.665.812-.809 1.748-.855 1.256-.061-.2.323-.109.893.202 1.267.386.464.318 1.128-.213 2.085-.429.773-.819 1.152-.866.842zm-36.62-22.468c0-.137.253-.405.564-.596.31-.191.564-.08.564.248s-.254.596-.564.596c-.311 0-.564-.112-.564-.248zM120.713 59.929c0-.928.254-1.688.564-1.688.311 0 .565.76.565 1.688 0 .928-.254 1.688-.565 1.688-.31 0-.564-.76-.564-1.688zm78.171-2.182c-.175-.282.062-.658.525-.835.464-.178.843-.093.843.189 0 .763-1.002 1.236-1.368.646zm-55.526-2.266c-.567-.352-.594-.58-.103-.882.774-.477 1.355-.055 1.068.777-.117.34-.515.384-.965.105zm-25.059-1.692c-1.221-1.45-1.425-2.032-.924-2.635.841-1.01.177-3.6-.923-3.6-.667 0-.728-.237-.279-1.075.363-.675.97-.972 1.634-.799.643.168 1.674-.293 2.629-1.175 1.805-1.669 2.455-1.772 3.977-.632 1.053.789.999.907-1.37 3.027-2.23 1.997-2.498 2.517-2.82 5.478l-.356 3.272-1.568-1.861zm-14.133-.423c-.654-.653-.411-1.254.761-1.88.906-.483 1.209-.418 1.492.319.471 1.224-1.336 2.476-2.253 1.561zm131.486-7.078c-.652-1.769.92-2.639 3.195-1.768 1.278.489 1.104 1.069-.544 1.818-1.829.83-2.329.821-2.651-.05zM125.79 43.616c-.409-.763-.415-1.126-.02-1.126.322 0 .521-.316.443-.703-.078-.393.295-.63.847-.538.542.091.987-.068.987-.353 0-.286.761-.834 1.692-1.218.931-.385 1.692-.866 1.692-1.07 0-.205.655-.426 1.456-.493.801-.066 1.866-.349 2.368-.629.544-.303 1.455-.303 2.258.002.741.28 1.59.36 1.888.176.298-.183.916-.023 1.373.355.552.457 1.886.58 3.956.367 2.449-.252 3.194-.142 3.444.51.176.456.158.992-.04 1.19-.544.542-5.884 1.127-6.549.717-.32-.197-1.91-.137-3.534.134-1.624.272-3.675.565-4.557.653-.882.088-1.77.39-1.974.67-.204.282-1.005.58-1.781.663-.776.083-1.692.526-2.037.984-.831 1.107-1.191 1.052-1.912-.291zm107.744.877c0-.137.254-.405.564-.596.311-.191.564-.08.564.248 0 .327-.253.596-.564.596-.31 0-.564-.112-.564-.248zm-218.131-.994c-.312-.4-.725-1.17-.918-1.712-.207-.577-.929-.984-1.747-.984-.767 0-1.558-.263-1.757-.585-.235-.38.15-.457 1.095-.22 1.204.3 1.457.168 1.457-.762 0-2.03 2.77-2.01 2.812.02.005.232.405.422.89.422.671 0 .838.498.704 2.105-.184 2.215-1.471 3.086-2.537 1.716zm213.205-.686c-1.377-.635-2.546-3.245-2.041-4.557.379-.986 1.004-1.04 2.54-.22 1.341.715 2.107.228 1.146-.73-1.074-1.072-.803-1.278 1.83-1.396 2.522-.113 4.173.874 3.441 2.056-.572.923-2.435.686-3.123-.398-.422-.665-.554-.71-.406-.14.12.464.779 1.125 1.464 1.468l1.245.625-1.572 1.047c-.865.576-1.794.98-2.064.9-.271-.082-.351.22-.177.672.413 1.074-.701 1.403-2.283.673zm-45.321-3.472c.643-1.198 1.17-2.498 1.17-2.89 0-.39.254-.711.564-.711.311 0 .564.253.564.563 0 .309.272.562.605.562.982 0 2.349 1.655 2.037 2.466-.158.412-1.008.906-1.888 1.097-.88.191-2.19.515-2.911.72l-1.312.37 1.171-2.177zm-4.612-2.235c-1.929-1.044-2.073-3.188-.297-4.428 1.601-1.118 2.344-1.116 1.912.005-.256.667-.077.798.739.54 1.289-.408 1.998.513 1.417 1.84-.23.527-.364 1.401-.296 1.943.151 1.218-1.33 1.26-3.475.1zm58.05-1.796c-.324-.533.795-1.509 1.886-1.644.466-.057 1.479-.292 2.252-.522 1.363-.406 1.379-.38.536.887-.848 1.273-4.133 2.172-4.674 1.28zm-61.482-2.195c-.685-.684-.389-1.283.471-.954.465.178.846.55.846.826 0 .59-.777.665-1.317.128zm1.113-2.156c-.446-1.158.547-3.095 1.587-3.095.428 0 .892-.316 1.031-.703.336-.939.805-.449 1.212 1.267.42 1.768-.134 2.622-2.004 3.09-1.078.27-1.564.121-1.826-.559zm99.486-2.753c0-.122.381-.367.846-.545.466-.178.846-.079.846.221s-.38.545-.846.545c-.465 0-.846-.1-.846-.221zm-126.108-7.704c-.208-.336-.158-.832.113-1.101.667-.666 2.135.303 1.649 1.088-.493.795-1.274.8-1.762.013zm3.133.05c0-.31.523-.563 1.162-.563.639 0 1.004.253.813.563-.192.309-.715.562-1.162.562-.447 0-.813-.253-.813-.563zm-4.791-3.932c-.197-.319.029-.413.531-.22.977.373 1.156.776.345.776-.292 0-.686-.25-.876-.556zm-6.773-2.257c-1.738-.44-1.415-.632 1.232-.73.832-.032 1.615.247 1.739.618.247.74-.402.764-2.971.113zm-1.034-2.062c-.207-.206-.376-.562-.376-.791 0-.541 2.181.027 2.58.671.355.573-1.642.68-2.204.12zm138.491-2.168c-.94-2.057-.825-2.956.467-3.645 1.245-.665 1.288-.581 1.139 2.25-.137 2.61-.791 3.179-1.606 1.395z"/>
    </mask>
    <path d="M287.375 181.249c.985-.719.988-.877.066-3.646-.53-1.592-1.415-3.449-1.966-4.128-.873-1.075-.905-1.422-.249-2.683.415-.797 1.012-1.481 1.326-1.519.315-.039 1.05-.102 1.635-.141 1.284-.085 1.918-2.097 1.126-3.573-.408-.758-.375-1.31.114-1.897.698-.839.678-.921-1.184-4.848-.553-1.166-.57-1.714-.069-2.316.508-.609.463-.948-.197-1.494-.469-.388-.853-1.308-.853-2.044 0-.735-.193-1.337-.428-1.337-.492 0-2.114 2.36-1.975 2.873.051.187-.536.677-1.306 1.087-.769.411-1.546 1.333-1.726 2.05-.181.716-.536 1.303-.791 1.303-.254 0-.828.365-1.275.81-1.185 1.182-2.949.483-4.083-1.618-.705-1.306-1.414-1.853-2.46-1.898a83.405 83.405 0 0 1-3.609-.272c-1.178-.114-2.262-.013-2.41.225-.395.638-2.437.122-4.061-1.025-2.009-1.421-2.523-1.714-3.799-2.166-1.071-.379-1.062-.416.192-.747l1.319-.349-1.46-1.572c-.804-.864-1.461-1.812-1.461-2.105 0-.294-.265-.534-.589-.534-.324 0-1.276-.645-2.115-1.434-1.429-1.342-1.798-1.415-5.758-1.141-6.067.42-6.768.541-6.776 1.169-.004.309-.892 1.134-1.974 1.833-2.237 1.445-2.466 2.367-.84 3.38 1.262.786 1.534 3.439.463 4.507-.367.366-.69 2.371-.721 4.472-.048 3.354-.243 4.008-1.628 5.479l-1.574 1.669-2.492-.893c-2.045-.734-2.67-.765-3.478-.176-.804.586-1.266.573-2.516-.072-1.377-.71-1.734-.67-3.54.392-1.105.65-2.155 1.765-2.334 2.477-.23.913-.871 1.397-2.175 1.641-1.018.19-2.299.841-2.849 1.447-.549.605-1.259.94-1.578.743-.319-.196-2.04-.304-3.826-.24-2.699.097-3.438-.09-4.391-1.109-.746-.799-1.553-1.121-2.312-.923-.785.205-1.355-.047-1.743-.77-.721-1.344-4.713-1.476-7.1-.234-.889.462-2.085.842-2.659.844-1.182.004-4.316-3.09-4.316-4.261 0-.836-2.79-2.486-4.205-2.486-1.397 0-5.051-2.158-5.479-3.235-.317-.8-.398-.736-.43.341-.022.729-.674 2.077-1.45 2.996-1.467 1.739-1.851 4.296-.803 5.342.434.433.19 1.022-.855 2.065-1.188 1.184-1.808 1.394-3.288 1.115-1.003-.189-2.13-.584-2.504-.876-.374-.293-.911-.39-1.194-.216-.582.359-2.003-1.116-2.549-2.646-.27-.759-.834-.975-2.201-.844-1.01.097-2.091-.127-2.401-.498-.432-.518-1.289-.401-3.667.501-1.706.647-3.824 1.149-4.707 1.116-1.15-.044-1.519.159-1.305.717.335.871-.548 1.319-3.529 1.789-1.113.176-2.198.427-2.412.557-.214.131-.975-.384-1.692-1.144-.784-.831-2.083-1.452-3.26-1.559-1.663-.151-2.035-.451-2.479-2.005-.288-1.006-.867-1.829-1.287-1.829-.475 0-.765-.644-.765-1.696 0-1.387-.362-1.869-1.98-2.639-1.411-.671-2.154-.768-2.586-.337-.955.953-2.734.179-3.65-1.587-.884-1.705-2.502-2.204-2.502-.772 0 .464-.38.843-.846.843-.663 0-.846-.769-.846-3.554 0-1.955-.398-4.891-.885-6.525-.486-1.633-.767-3.087-.623-3.23.144-.144-.347-.915-1.09-1.715-1.673-1.8-1.684-2.176-.082-2.689 1.104-.353.979-.463-.957-.839-1.604-.312-2.441-.219-2.993.332-.771.769-2.917.74-4.84-.066-.808-.339-.871-.535-.285-.896.588-.363.508-.644-.376-1.31-.619-.467-1.435-.856-1.813-.866-.378-.01-.541-.398-.363-.862.238-.617-.07-.844-1.146-.844-1.405 0-1.965-1.006-1.062-1.906.224-.224.463-1.279.532-2.344.101-1.586-.075-1.938-.972-1.938-.603 0-1.59-.492-2.194-1.094-.878-.876-1.438-.997-2.8-.608-1.859.532-6.913-.365-12.743-2.26-1.862-.605-3.746-1.101-4.187-1.101-.44.001-1.25-.404-1.798-.898-.547-.495-1.235-.752-1.528-.571-.868.535-1.183 3.371-.476 4.282.565.728.524.742-.301.098-1.503-1.173-3.584-.633-3.422.889.152 1.428-1.37 1.754-2.618.56-.6-.574-.678-.291-.424 1.547.678 4.921.672 5.024-.309 5.222-.527.107-1.508-.436-2.18-1.206-.671-.77-1.531-1.28-1.911-1.135-.899.344-1.841-.828-2.087-2.594-.12-.859-.629-1.483-1.318-1.614-.617-.117-1.468-.707-1.892-1.309-.432-.616-1.134-.956-1.602-.777-.458.175-1.447.164-2.197-.023-1.043-.261-1.366-.719-1.366-1.936 0-1.948-.854-2.599-1.637-1.249-.44.758-.534.353-.392-1.696.152-2.187-.014-2.8-.884-3.264-.59-.315-1.034-.875-.987-1.246.208-1.655-.116-2.141-1.318-1.975-.948.132-1.314-.139-1.447-1.068-.157-1.106-.423-1.21-2.397-.934-1.303.182-2.22.078-2.22-.25 0-.307-1.079-.505-2.398-.438-1.959.098-2.429.337-2.571 1.305-.096.652-.55 1.329-1.008 1.504-.922.353-1.641-.922-1.187-2.103.548-1.424-.413-1.995-2.816-1.673-1.825.244-2.413.594-2.662 1.584-.329 1.305-2.589 2.377-2.589 1.228 0-.35-.403-.062-.895.639-.682.972-.742 1.458-.25 2.049.498.599.414.903-.375 1.345-.957.537-.939.646.3 1.8.898.838 1.214 1.609.994 2.427-.177.66-.326 1.516-.33 1.903-.005.386-.389.703-.854.703-1.02 0-1.132 2.007-.147 2.615 1.572.968-2.187 1.092-4.443.146-2.041-.856-2.522-.881-3.847-.195-.832.43-1.686.759-1.897.729-1.803-.251-2.369.178-2.252 1.711.069.898-.197 2.019-.591 2.493-.595.714-.53.96.374 1.442.6.32 1.25.422 1.447.227.195-.195.356-.06.356.301 0 .389-.903.656-2.212.656-2.397 0-2.252-.236-3.19 5.204-.276 1.594-.634 2.109-1.467 2.109-2.35 0-3.285-1.037-3.285-3.643 0-1.363-.27-2.645-.6-2.848-.331-.204-.558-1.042-.505-1.862.252-3.894-.023-4.862-1.638-5.778-1.325-.751-1.66-1.39-1.915-3.638-.17-1.499-.592-2.821-.94-2.936-.847-.282-2.3-3.154-2.3-4.549 0-.617-.48-1.457-1.067-1.867-.913-.637-1.117-1.747-1.408-7.652L0 102.067l1.362 1.466c1.2 1.292 1.501 1.379 2.536.735.943-.588 1.396-.593 2.302-.029 1.013.631 1.128.562 1.128-.675 0-.758.254-1.535.564-1.726.31-.191.566-.143.569.108.004.455 2.642 1.861 3.493 1.861s.451-1.631-.536-2.184c-.872-.489-.884-.593-.097-.895 1.11-.426 3.905.587 3.905 1.416 0 .821 2.4.065 2.99-.942.247-.424.819-.77 1.269-.77.45 0 .818-.224.818-.497s.507-.63 1.128-.791c1.393-.363 1.537-3.26.282-5.66-.461-.883-.692-2.187-.513-2.899.273-1.085.056-1.353-1.346-1.66-1.441-.316-1.654-.598-1.54-2.047.074-.924.678-2.187 1.343-2.805 1.444-1.341 1.47-1.585.33-3.206-.83-1.182-.8-1.282.549-1.793.846-.32 1.583-1.16 1.81-2.062.322-1.278.046-1.828-1.729-3.45l-2.111-1.93 1.568-1.633c1.855-1.93 2.255-2.007 2.648-.507.217.825.77 1.125 2.074 1.125 1.156 0 1.643-.217 1.393-.622-.541-.873.858-5.035 2.2-6.54.614-.691 1.585-1.404 2.157-1.585 1.082-.343 1.464-2.738.528-3.315-.282-.173-.386-.792-.233-1.376.153-.583.002-1.23-.335-1.439-.916-.564-.74-1.999.245-1.999.472 0 1.147-.633 1.5-1.406.354-.774.983-1.407 1.399-1.407.415 0 .755-.244.755-.542 0-.299.547-.835 1.214-1.19 1.034-.552 1.162-.514.864.26-.467 1.213.49 1.162 1.416-.075.405-.54 1.955-1.556 3.443-2.255 2.941-1.382 4.338-1.126 5.48 1.003 1.012 1.885 1.726 1.278 1.338-1.138-.25-1.564-.156-2.25.31-2.25.367 0 .495-.28.283-.623-.252-.407-.019-.508.672-.291 2.242.704 7.241 1.476 9.556 1.476 2.42 0 4.53-1.251 3.88-2.3-.601-.971.359-2.69 1.61-2.881.683-.104 1.179-.5 1.101-.88-.078-.379.367-.69.987-.69.697 0 1.13-.376 1.133-.984.004-.948 2.274-2.39 3.762-2.39.396 0 1.167-.697 1.713-1.547 1.368-2.134 2.457-2.913 4.11-2.945 1.976-.037 2.621-.587 3.062-2.612.322-1.483.701-1.811 2.411-2.088 1.492-.241 2.435-.04 3.56.758.842.598 1.656.962 1.81.809.153-.153.616.127 1.028.622.49.59.55 1.031.172 1.28-.758.497-1.361 2.91-.728 2.91.27 0 .796.567 1.169 1.261.832 1.55.684 13.298-.18 14.337-.325.39-1.54.994-2.701 1.34-1.738.52-2.352.472-3.484-.268-2.063-1.347-3.893-7.044-3.874-12.06.005-1.606-.957-1.111-1.81.93-.807 1.935-.845 2.085-.928 3.704-.046.895-.51 1.501-1.34 1.752-2.184.66-3.808 2.562-3.808 4.46 0 .966-.304 2.061-.677 2.433-.445.444-.468.675-.066.675.337 0 .744.506.907 1.125.33 1.256 1.78 1.502 2.482.421.251-.386.457-1.33.457-2.097 0-.87.365-1.466.971-1.585.776-.153.957.192.9 1.71-.144 3.822 2.509 5.718 3.607 2.577.59-1.69.613-1.698 3.742-1.308 1.902.237 3.419.76 3.834 1.321.385.52.455 1.013.16 1.118-.886.317.035 1.218 1.244 1.218 1.358 0 2.548-1.08 2.833-2.571.116-.608.759-1.164 1.46-1.264.689-.098 1.74-.796 2.335-1.551.684-.868 1.415-1.246 1.985-1.027 1.058.404 1.1.76.33 2.78-.434 1.14-.75 1.36-1.299.905-1.271-1.053-3.07-.135-3.34 1.703-.324 2.2.93 3.5 2.904 3.008 3.525-.876 8.102-.48 9.505.824.703.653 1.349.887 1.55.562.19-.306.878-.556 1.528-.556 1.143 0 1.148.037.171 1.114-.848.934-.892 1.259-.271 2.005.452.543 1.222.77 1.973.582.78-.195 1.569.063 2.147.7.57.628 1.576.963 2.666.888 1.575-.109 1.717.011 1.419 1.194-.28 1.116-.134 1.295.964 1.178 1.863-.198 2.656-.821 2.656-2.087 0-2.016 1.567-1.836 3.649.42 1.974 2.14 2.928 3.949 2.373 4.502-.158.157.208.779.812 1.381.605.603 1.25 1.848 1.434 2.766.184.919.653 1.67 1.041 1.67 1.162 0 2.093-1.55 1.691-2.813-.207-.651-.071-1.544.305-1.995.48-.577.493-.817.046-.817-.995 0-.741-1.654.496-3.222.62-.787 1.128-2.029 1.128-2.76 0-.945.319-1.331 1.099-1.331.605 0 2.309-1.14 3.787-2.532 1.478-1.392 2.744-2.531 2.813-2.531.068 0 .776.247 1.572.548 1.954.741 1.881 2.636-.196 5.099-1.192 1.413-1.564 2.346-1.358 3.402.176.902-.057 1.796-.614 2.35-.494.493-.898 1.12-.898 1.394 0 .273-.513 1.555-1.14 2.85-.719 1.484-1.009 2.87-.786 3.756.255 1.015.093 1.504-.585 1.763-.516.198-.802.715-.635 1.149.187.486-.233.993-1.096 1.32-.769.291-1.399.771-1.399 1.066 0 .294-.821.943-1.825 1.442-1.697.845-1.874.84-2.538-.066-.393-.536-.714-.768-.714-.516 0 .251-.381.142-.846-.243-.513-.424-.846-.47-.846-.115 0 1.433.839 2.465 2.603 3.2 1.716.715 2.152.682 4.443-.328 3.316-1.463 5.618-3.632 5.76-5.427.149-1.892.758-2.428 2.299-2.026 1.443.376 2.291 2.762 1.325 3.725-.787.784-.841 3.221-.071 3.221.31 0 1.096.532 1.748 1.18l1.184 1.181-.42-1.319c-.231-.725-.824-1.613-1.318-1.973-.816-.595-.808-.753.082-1.734.539-.594.98-1.627.98-2.297 0-1.473-2.118-4.035-3.345-4.047-.487-.005-1.213-.215-1.613-.468-.909-.576-.044-3.141 1.677-4.974.83-.883 1.093-1.77.932-3.146-.223-1.907.533-3.217 1.858-3.217.376 0 1.212-.443 1.857-.984 1.142-.96 1.15-.955.296.14-.482.62-.945 1.945-1.029 2.947-.124 1.486.115 1.943 1.3 2.481.798.363 1.452.872 1.452 1.132 0 .26.372.472.828.472 1.063 0 .481-1.69-.932-2.704-1.239-.889-1.35-2.358-.178-2.358.465 0 .846.253.846.562 0 .31.41.563.912.563.623 0 .822-.344.627-1.086-.208-.793-.009-1.064.741-1.008.565.042.902.278.75.523-.152.245.115.446.592.446.478 0 1.029.634 1.224 1.41.216.856.886 1.545 1.703 1.75 1.643.41 1.744 1.105.22 1.503-.77.2-1.128.767-1.128 1.786 0 .942.229 1.351.62 1.11.368-.227.32.16-.12.951-.407.734-.659 1.587-.561 1.896.214.673.522 2.085.582 2.672.063.62 1.735.516 1.735-.107 0-.291-.244-.68-.542-.864-.348-.214-.348-.846 0-1.757.298-.783.542-2.183.542-3.111 0-.928.278-2.205.617-2.837.445-.83.445-1.318 0-1.763-.339-.338-.617-.979-.617-1.424 0-.446-.378-1.091-.839-1.435-.603-.448-.744-1.206-.498-2.688l.342-2.063 3.882.095c2.737.066 3.882.307 3.882.817 0 .532.279.574 1.055.16.799-.426 1.024-1.107.928-2.804-.085-1.507.135-2.34.673-2.546.441-.169.66-.534.488-.811-.447-.722 3.188-2.316 5.28-2.316 1.049 0 1.898-.343 2.09-.844.361-.938 1.897-1.166 1.897-.282 0 .31.457.563 1.016.563 1.26 0 4.05-1.257 4.056-1.828.003-.232.595-.422 1.317-.422 1.125 0 1.279-.231 1.075-1.615-.302-2.052 2.417-4.936 3.673-3.897.621.514.627.718.031 1.103-.586.377-.564.582.114 1.025.465.305 1.163.558 1.551.563.388.004.705.514.705 1.133 0 1.316 1.017 1.508 1.489.282.502-1.307 2.996-1 5.144.634 1.493 1.136 1.767 1.595 1.181 1.98-.62.407-.578.642.225 1.255 1.418 1.084 1.238 1.848-.982 4.184-1.084 1.14-1.972 2.335-1.975 2.656-.003.32-1.147 1.789-2.543 3.263-1.396 1.474-2.531 2.983-2.521 3.354.01.379.347.242.768-.31.412-.541 1.275-.984 1.918-.984.687 0 1.322-.48 1.54-1.166.219-.687.691-1.043 1.15-.867.428.163 1.149-.072 1.601-.522 1.068-1.066 2.949-1.052 3.363.024.179.464.602.843.94.843.338 0 .475-.225.305-.5-.456-.736 2.225-2.312 3.931-2.312.808 0 1.851.38 2.316.843 1.09 1.088 3.752 1.079 5.88-.019 1.427-.736 1.586-1.028 1.074-1.98-.829-1.546-.227-2.24 1.622-1.871 1.037.206 1.808.014 2.298-.575.664-.798.9-.77 2.401.297.962.683 1.538 1.512 1.365 1.962-.172.447.054.78.528.78.948 0 1.108.886.255 1.412-.824.508-.027 1.535.913 1.175.513-.196.789.09.789.82 0 .695.59 1.362 1.551 1.755 2.199.898 3.851.834 3.605-.139-.111-.442-.289-1.632-.395-2.644-.161-1.546-.048-1.76.706-1.34 1.296.723 2.994.123 2.994-1.058 0-1.293 1.059-1.655 2.695-.923 1.623.725 3.208-.438 1.813-1.331-.699-.449-.633-.597.391-.877 1.101-.301 1.162-.494.575-1.828-.361-.82-.888-1.655-1.173-1.856-.284-.201-.312-.834-.062-1.407.249-.572.427-1.19.394-1.372-.032-.181 1.006-.872 2.308-1.534 1.97-1.002 2.398-1.064 2.55-.372.221 1.01 1.205 1.108 1.284.128.031-.387.232-.07.448.703.608 2.18 1.451 1.662 1.645-1.011.143-1.982.429-2.514 1.588-2.954 2.074-.786 2.584-.663 2.203.534-.315.99-.161 1.03 2.031.539 1.304-.292 2.749-.387 3.211-.21.925.354 3.484-1.746 3.484-2.86 0-.386.657-1.481 1.461-2.433 1.214-1.44 1.869-1.73 3.888-1.73 1.638 0 2.534.274 2.753.843.699 1.817 5.082.427 4.839-1.534-.191-1.538.817-3.358 2.136-3.859.761-.288 1.676-1.295 2.032-2.237.461-1.218.935-1.638 1.641-1.454.546.142 1.148.008 1.339-.3.19-.307.816-.436 1.39-.286.574.15 1.338-.082 1.698-.514.933-1.121-.331-2.473-2.314-2.473-2.223 0-2.457-1.345-.582-3.347.884-.944 1.492-1.716 1.349-1.716-.142 0 .201-.812.761-1.805 1.546-2.738 3.729-4.47 8.917-7.073.931-.468 2.12-1.217 2.644-1.666.523-.45 1.195-.667 1.492-.484.297.183.696-.071.887-.566.21-.546.7-.763 1.25-.553.67.257.811.106.546-.583-.315-.82.042-.893 3.04-.622 2.688.243 3.397.142 3.397-.484 0-.468-.575-.79-1.41-.79-1.637 0-1.745-.309-.532-1.52.484-.481.75-1.21.593-1.618-.164-.427.242-.905.955-1.126.682-.211 1.939-.874 2.792-1.473 1.631-1.146 1.571-1.193 1.777 1.377.031.387.31.893.62 1.125.355.266.256.62-.265.954-.457.293-.695.667-.53.831.299.3 2.396.767 3.79.846.416.023.561.329.331.7-.275.442-.101.54.53.299.613-.235.939-.073.939.466 0 .455-.254.827-.564.827-.31 0-.512.19-.447.422.064.232-.637 1.206-1.558 2.166-1.354 1.41-1.86 1.628-2.641 1.138-.758-.477-1.145-.37-1.808.505-.464.612-.852 1.682-.861 2.378-.014.963-.349 1.266-1.395 1.266-.758 0-1.534-.253-1.726-.562-.519-.838-1.244-.682-1.642.352-.436 1.133 1.269 2.526 2.603 2.127.693-.208 1.287.35 2.131 2 1.281 2.503.959 3.975-1.109 5.08-.695.37-.966.917-.743 1.498.324.841.405.84 1.028-.009.373-.508 1.22-.923 1.884-.923.664 0 1.207-.27 1.207-.6 0-.7 2.351-.101 2.891.736.222.344.492.323.727-.058.48-.773 4.434-.66 4.959.141.466.714-1.664 3.157-2.752 3.157-.93 0-.988.951-.076 1.254.417.139.728 1.774.822 4.327.083 2.257.423 4.925.755 5.929.333 1.004.703 2.337.824 2.963.121.626.474 2.055.784 3.176.535 1.933.494 2.04-.785 2.04-1.681 0-3.042 2.404-3.167 5.596-.077 1.941-.21 2.165-.935 1.568-.734-.605-.803-.383-.525 1.695.233 1.74.122 2.391-.407 2.391-1.213 0-1.471 2.386-.416 3.843.532.735 1.602 2.51 2.378 3.945 1.405 2.6 3.385 3.826 3.385 2.098 0-.487.41-.885.912-.885.621 0 .821.344.628 1.08-.211.805.096 1.187 1.204 1.499.817.23 1.703.368 1.968.306.265-.061.963.041 1.551.227 1.267.401 1.444 1.95.224 1.95-.466 0-.846.473-.846 1.05 0 1.51 2.147 4.013 3.443 4.013 1.323 0 2.041 1.507 1.144 2.4-.351.351-.639 1.565-.639 2.697 0 1.516.357 2.326 1.354 3.072 1.286.964 1.315 1.12.589 3.173-.608 1.719-.618 2.16-.049 2.16.937 0 3.183 5.163 3.183 7.318 0 2.212-1.454 2.235-3.515.057-.846-.893-2.618-2.186-3.938-2.872-4.704-2.445-13.418-10.469-13.418-12.355 0-1.499-1.179-3.962-1.896-3.962-.356 0-.32-.266.09-.675 1.002-.998.873-6.9-.169-7.763-.465-.385-.846-1.16-.846-1.723 0-.563-.266-1.187-.591-1.388-.413-.254-.412-.58.002-1.078.424-.51.315-1.467-.381-3.34-.812-2.184-.855-2.818-.253-3.78.821-1.311.479-1.97-2.349-4.52-1.019-.917-1.646-2.042-1.646-2.952 0-1.697-.814-1.906-1.894-.486-1.046 1.374-.964 2.247.343 3.646.639.683 1.128 1.985 1.128 3 0 .986.155 2.565.344 3.51.278 1.382.165 1.69-.577 1.582-.508-.075-1.312-.69-1.787-1.366-.999-1.422-1.929-1.609-1.929-.387 0 .464-.404.844-.899.844-.494 0-1.031.506-1.194 1.125-.162.619-.499 1.125-.748 1.125-.8 0-1.247 3.374-.557 4.203.358.43.797 2.255.974 4.056.178 1.8.688 3.992 1.133 4.87.777 1.535.851 1.56 1.896.617.637-.575 1.088-.711 1.088-.329 0 .36-.635 1.204-1.411 1.877-.775.672-1.41 1.574-1.41 2.003 0 .513-.37.663-1.081.438-.594-.188-1.229-.102-1.411.19-.181.293-.837.4-1.457.24-.784-.205-1.128-.018-1.128.615 0 .5-.19.879-.423.842-1.677-.264-2.458.229-2.762 1.742-.345 1.723-1.118 2.606-3.221 3.68-.665.34-1.173 1.054-1.128 1.589.057.671-.118.805-.566.434-.441-.364-1.32.077-2.741 1.376-3.165 2.892-4.009 4.442-3.6 6.613.193 1.029.161 2.061-.073 2.295-.234.233-.471 1.684-.527 3.224-.055 1.54-.373 3.126-.704 3.525-.332.398-.578 2.376-.548 4.394.03 2.019-.226 4.194-.57 4.834-.343.641-.624 1.799-.624 2.574 0 .776-.254 1.567-.564 1.758-.311.191-.564.839-.564 1.44 0 .833.392 1.092 1.659 1.092.912 0 1.814-.252 2.005-.559.191-.308.955.133 1.707.985 1.092 1.237 1.366 1.347 1.38.558.022-1.196 1.146-1.334 1.146-.141a.847.847 0 0 0 1.692 0c0-.464.381-.843.847-.843.963 0 1.147-1.436.254-1.986-1.096-.676.693-2.071 2.252-1.757 3.419.688 5.164 1.239 5.146 1.624-.01.227.888 1.316 1.996 2.421 1.266 1.263 1.889 2.331 1.678 2.88-.446 1.158.727 4.964 1.925 6.245.524.562 1.632 2.369 2.462 4.017 1.504 2.986 1.508 3.027 1.256 13.199-.267 10.779-.419 12.641-1.125 13.779-.241.389-.289 1.298-.107 2.02.427 1.697-1.583 6.249-3.53 7.994-1.241 1.112-1.888 1.281-3.875 1.012l-2.386-.323-.366 2.283c-.29 1.813-.605 2.283-1.53 2.283-1.109 0-1.115-.035-.133-.751zm27.158-27.982c-.851-.953-1.408-2.092-1.239-2.532.169-.44.08-.8-.197-.8-.576 0-2.28-3.184-2.28-4.259 0-.392-.859-1.241-1.908-1.888-1.05-.646-2.241-1.996-2.647-2.999-.406-1.003-1.6-2.962-2.653-4.355-1.054-1.392-2.262-3.354-2.684-4.359-.513-1.22-1.154-1.829-1.926-1.829-1.157 0-3.413-1.813-3.413-2.743 0-.272-.381-.809-.846-1.194-.466-.385-.847-1.093-.847-1.572 0-.479-.434-1.35-.964-1.934-.75-.827-.806-1.161-.25-1.504 1.006-.62.192-3.506-1.083-3.839-.584-.152-.881-.594-.706-1.051.471-1.223 1.283-.935 1.896.672.306.804 1.062 1.593 1.678 1.753.617.161 1.122.651 1.122 1.089 0 .437.444.954.987 1.147 1.729.614 2.448 1.406 1.889 2.079-.67.807.824 2.642 2.906 3.57.853.38 1.551.949 1.551 1.265 0 .316.278.575.619.575.34 0 2.18 1.366 4.089 3.036 1.91 1.671 4.36 3.422 5.446 3.892l1.974.856-2.697.045c-3.283.056-3.627.686-2.379 4.354 1.255 3.685 2.994 6.377 4.135 6.399.518.009 1.436.39 2.04.846.604.456 1.514.697 2.021.537 1.223-.388 2.672 2.485 1.59 3.151-.389.24-.937.295-1.217.122-.281-.173-.166-.532.255-.798.563-.356.579-.486.06-.493-1.217-.014-2.879 2.03-2.339 2.879 1.394 2.195.01 2.113-1.983-.118zm-2.544-1.878c-.024-.593.109-.926.297-.739.187.187.207.672.044 1.078-.18.449-.314.316-.341-.339zm15.751-2.406c0-1.6.278-2.409.91-2.651.776-.297.853-.037.52 1.768-.571 3.1-1.43 3.63-1.43.883zm2.084-3.907c-.794-.792-.425-5.696.454-6.032.466-.178.846-.712.846-1.186 0-.473.254-.861.565-.861.769 0 .71.639-.277 2.994-.462 1.103-.695 2.384-.517 2.847.379.983-.496 2.811-1.071 2.238zm3.032-11.28c-.021-.988.215-1.952.525-2.143.676-.417.676 1.242 0 2.812-.409.949-.491.844-.525-.669zm1.742-8.612c0-.774.128-1.09.285-.704.156.387.156 1.02 0 1.407-.157.387-.285.07-.285-.703zm-56.217-2.813c-.192-.309-.08-.563.248-.563.329 0 .598.254.598.563 0 .309-.112.562-.249.562s-.406-.253-.597-.562zm54.136-7.341c-.518-.836-.106-1.132.799-.574.485.299.543.588.164.822-.322.198-.755.087-.963-.248zm-.828-3.91a.564.564 0 0 1 1.128 0 .565.565 0 0 1-1.128 0zm-.611-3.094a3.842 3.842 0 0 1-.013-1.007c.041-.245-.171-.902-.471-1.461-.369-.688-.335-1.225.105-1.665.812-.809 1.748-.855 1.256-.061-.2.323-.109.893.202 1.267.386.464.318 1.128-.213 2.085-.429.773-.819 1.152-.866.842zm-36.62-22.468c0-.137.253-.405.564-.596.31-.191.564-.08.564.248s-.254.596-.564.596c-.311 0-.564-.112-.564-.248zM120.713 59.929c0-.928.254-1.688.564-1.688.311 0 .565.76.565 1.688 0 .928-.254 1.688-.565 1.688-.31 0-.564-.76-.564-1.688zm78.171-2.182c-.175-.282.062-.658.525-.835.464-.178.843-.093.843.189 0 .763-1.002 1.236-1.368.646zm-55.526-2.266c-.567-.352-.594-.58-.103-.882.774-.477 1.355-.055 1.068.777-.117.34-.515.384-.965.105zm-25.059-1.692c-1.221-1.45-1.425-2.032-.924-2.635.841-1.01.177-3.6-.923-3.6-.667 0-.728-.237-.279-1.075.363-.675.97-.972 1.634-.799.643.168 1.674-.293 2.629-1.175 1.805-1.669 2.455-1.772 3.977-.632 1.053.789.999.907-1.37 3.027-2.23 1.997-2.498 2.517-2.82 5.478l-.356 3.272-1.568-1.861zm-14.133-.423c-.654-.653-.411-1.254.761-1.88.906-.483 1.209-.418 1.492.319.471 1.224-1.336 2.476-2.253 1.561zm131.486-7.078c-.652-1.769.92-2.639 3.195-1.768 1.278.489 1.104 1.069-.544 1.818-1.829.83-2.329.821-2.651-.05zM125.79 43.616c-.409-.763-.415-1.126-.02-1.126.322 0 .521-.316.443-.703-.078-.393.295-.63.847-.538.542.091.987-.068.987-.353 0-.286.761-.834 1.692-1.218.931-.385 1.692-.866 1.692-1.07 0-.205.655-.426 1.456-.493.801-.066 1.866-.349 2.368-.629.544-.303 1.455-.303 2.258.002.741.28 1.59.36 1.888.176.298-.183.916-.023 1.373.355.552.457 1.886.58 3.956.367 2.449-.252 3.194-.142 3.444.51.176.456.158.992-.04 1.19-.544.542-5.884 1.127-6.549.717-.32-.197-1.91-.137-3.534.134-1.624.272-3.675.565-4.557.653-.882.088-1.77.39-1.974.67-.204.282-1.005.58-1.781.663-.776.083-1.692.526-2.037.984-.831 1.107-1.191 1.052-1.912-.291zm107.744.877c0-.137.254-.405.564-.596.311-.191.564-.08.564.248 0 .327-.253.596-.564.596-.31 0-.564-.112-.564-.248zm-218.131-.994c-.312-.4-.725-1.17-.918-1.712-.207-.577-.929-.984-1.747-.984-.767 0-1.558-.263-1.757-.585-.235-.38.15-.457 1.095-.22 1.204.3 1.457.168 1.457-.762 0-2.03 2.77-2.01 2.812.02.005.232.405.422.89.422.671 0 .838.498.704 2.105-.184 2.215-1.471 3.086-2.537 1.716zm213.205-.686c-1.377-.635-2.546-3.245-2.041-4.557.379-.986 1.004-1.04 2.54-.22 1.341.715 2.107.228 1.146-.73-1.074-1.072-.803-1.278 1.83-1.396 2.522-.113 4.173.874 3.441 2.056-.572.923-2.435.686-3.123-.398-.422-.665-.554-.71-.406-.14.12.464.779 1.125 1.464 1.468l1.245.625-1.572 1.047c-.865.576-1.794.98-2.064.9-.271-.082-.351.22-.177.672.413 1.074-.701 1.403-2.283.673zm-45.321-3.472c.643-1.198 1.17-2.498 1.17-2.89 0-.39.254-.711.564-.711.311 0 .564.253.564.563 0 .309.272.562.605.562.982 0 2.349 1.655 2.037 2.466-.158.412-1.008.906-1.888 1.097-.88.191-2.19.515-2.911.72l-1.312.37 1.171-2.177zm-4.612-2.235c-1.929-1.044-2.073-3.188-.297-4.428 1.601-1.118 2.344-1.116 1.912.005-.256.667-.077.798.739.54 1.289-.408 1.998.513 1.417 1.84-.23.527-.364 1.401-.296 1.943.151 1.218-1.33 1.26-3.475.1zm58.05-1.796c-.324-.533.795-1.509 1.886-1.644.466-.057 1.479-.292 2.252-.522 1.363-.406 1.379-.38.536.887-.848 1.273-4.133 2.172-4.674 1.28zm-61.482-2.195c-.685-.684-.389-1.283.471-.954.465.178.846.55.846.826 0 .59-.777.665-1.317.128zm1.113-2.156c-.446-1.158.547-3.095 1.587-3.095.428 0 .892-.316 1.031-.703.336-.939.805-.449 1.212 1.267.42 1.768-.134 2.622-2.004 3.09-1.078.27-1.564.121-1.826-.559zm99.486-2.753c0-.122.381-.367.846-.545.466-.178.846-.079.846.221s-.38.545-.846.545c-.465 0-.846-.1-.846-.221zm-126.108-7.704c-.208-.336-.158-.832.113-1.101.667-.666 2.135.303 1.649 1.088-.493.795-1.274.8-1.762.013zm3.133.05c0-.31.523-.563 1.162-.563.639 0 1.004.253.813.563-.192.309-.715.562-1.162.562-.447 0-.813-.253-.813-.563zm-4.791-3.932c-.197-.319.029-.413.531-.22.977.373 1.156.776.345.776-.292 0-.686-.25-.876-.556zm-6.773-2.257c-1.738-.44-1.415-.632 1.232-.73.832-.032 1.615.247 1.739.618.247.74-.402.764-2.971.113zm-1.034-2.062c-.207-.206-.376-.562-.376-.791 0-.541 2.181.027 2.58.671.355.573-1.642.68-2.204.12zm138.491-2.168c-.94-2.057-.825-2.956.467-3.645 1.245-.665 1.288-.581 1.139 2.25-.137 2.61-.791 3.179-1.606 1.395z" stroke="#E26D5C" stroke-width="2" mask="url(#a)"/>
</svg>
