<svg width="944" height="513" viewBox="0 0 944 513" fill="none" xmlns="http://www.w3.org/2000/svg">
    <mask id="a" fill="#fff">
        <path d="M809.796 510.883c2.777-2.026 2.785-2.471.186-10.276-1.494-4.487-3.987-9.723-5.54-11.637-2.459-3.028-2.549-4.006-.7-7.562 1.169-2.247 2.85-4.174 3.737-4.283.886-.109 2.959-.287 4.605-.396 3.618-.24 5.405-5.91 3.173-10.07-1.148-2.139-1.054-3.694.321-5.347 1.969-2.366 1.913-2.596-3.335-13.665-1.559-3.287-1.605-4.832-.193-6.528 1.43-1.719 1.304-2.673-.556-4.212-1.322-1.095-2.404-3.687-2.404-5.76 0-2.074-.543-3.77-1.207-3.77-1.386 0-5.957 6.651-5.564 8.097.144.529-1.512 1.908-3.68 3.065-2.167 1.158-4.357 3.757-4.865 5.777-.508 2.021-1.511 3.674-2.228 3.674-.717 0-2.334 1.028-3.594 2.284-3.338 3.33-8.308 1.36-11.506-4.563-1.986-3.68-3.985-5.222-6.93-5.349-2.277-.098-6.854-.443-10.172-.765-3.318-.323-6.373-.037-6.789.634-1.114 1.798-6.869.344-11.443-2.891-5.664-4.005-7.112-4.831-10.707-6.103-3.019-1.069-2.991-1.175.54-2.108l3.719-.982-4.116-4.431c-2.264-2.437-4.117-5.108-4.117-5.935s-.746-1.504-1.659-1.504c-.912 0-3.595-1.818-5.961-4.041-4.026-3.783-5.066-3.989-16.224-3.217-17.096 1.183-19.072 1.524-19.094 3.294-.011.872-2.515 3.198-5.564 5.168-6.303 4.073-6.948 6.673-2.365 9.528 3.555 2.214 4.323 9.692 1.304 12.703-1.035 1.033-1.945 6.683-2.031 12.606-.137 9.453-.685 11.297-4.589 15.441l-4.434 4.707-7.024-2.52c-5.761-2.067-7.522-2.156-9.799-.495-2.266 1.653-3.568 1.616-7.091-.201-3.88-2.001-4.887-1.89-9.975 1.105-3.113 1.832-6.073 4.973-6.578 6.98-.648 2.575-2.454 3.937-6.129 4.625-2.867.536-6.478 2.372-8.027 4.078-1.548 1.707-3.549 2.65-4.447 2.097-.898-.554-5.749-.859-10.78-.678-7.607.274-9.691-.252-12.376-3.127-2.101-2.25-4.376-3.158-6.514-2.6-2.211.577-3.817-.134-4.91-2.171-2.033-3.789-13.281-4.16-20.009-.66-2.504 1.303-5.876 2.374-7.492 2.379-3.331.011-12.163-8.71-12.163-12.009 0-2.358-7.862-7.009-11.848-7.009-3.936 0-14.235-6.082-15.44-9.119-.895-2.254-1.122-2.074-1.212.962-.062 2.055-1.9 5.855-4.086 8.446-4.134 4.901-5.217 12.108-2.262 15.056 1.224 1.22.535 2.882-2.411 5.821-3.347 3.338-5.093 3.931-9.263 3.143-2.827-.534-6.002-1.645-7.057-2.47-1.054-.824-2.568-1.097-3.364-.607-1.64 1.011-5.645-3.148-7.183-7.459-.762-2.14-2.351-2.748-6.202-2.378-2.848.273-5.893-.359-6.767-1.405-1.218-1.459-3.632-1.129-10.332 1.413-4.809 1.824-10.778 3.239-13.264 3.144-3.241-.123-4.283.45-3.677 2.023.944 2.455-1.545 3.717-9.945 5.043-3.136.495-6.194 1.201-6.797 1.57-.603.368-2.749-1.082-4.769-3.224-2.209-2.343-5.869-4.094-9.186-4.395-4.687-.425-5.734-1.273-6.986-5.654-.81-2.834-2.442-5.153-3.626-5.153-1.337 0-2.155-1.815-2.155-4.782 0-3.908-1.021-5.269-5.579-7.437-3.977-1.892-6.07-2.165-7.288-.95-2.692 2.685-7.705.505-10.287-4.474-2.49-4.805-7.048-6.212-7.048-2.177a2.388 2.388 0 0 1-2.385 2.378c-1.868 0-2.384-2.17-2.384-10.018 0-5.511-1.122-13.787-2.493-18.391-1.371-4.605-2.161-8.703-1.756-9.107.405-.404-.977-2.578-3.071-4.832-4.714-5.074-4.746-6.135-.231-7.58 3.109-.995 2.757-1.304-2.697-2.365-4.52-.879-6.878-.617-8.436.936-2.173 2.168-8.218 2.085-13.639-.187-2.276-.955-2.452-1.508-.802-2.525 1.658-1.022 1.431-1.816-1.059-3.693-1.744-1.314-4.043-2.413-5.109-2.441-1.065-.027-1.525-1.12-1.022-2.429.669-1.739-.198-2.378-3.229-2.378-3.959 0-5.54-2.836-2.995-5.375.632-.63 1.307-3.603 1.5-6.606.286-4.47-.211-5.461-2.739-5.461-1.699 0-4.481-1.388-6.182-3.085-2.475-2.469-4.052-2.811-7.891-1.713-5.237 1.499-19.48-1.029-35.909-6.371-5.246-1.706-10.555-3.102-11.797-3.102-1.243.001-3.522-1.139-5.066-2.533s-3.482-2.118-4.307-1.609c-2.446 1.508-3.334 9.503-1.341 12.071 1.593 2.052 1.476 2.09-.848.274-4.235-3.306-10.1-1.782-9.644 2.506.428 4.026-3.862 4.945-7.377 1.58-1.691-1.619-1.91-.821-1.195 4.361 1.913 13.869 1.896 14.159-.869 14.718-1.487.301-4.252-1.228-6.144-3.398-1.891-2.17-4.315-3.61-5.386-3.2-2.532.968-5.188-2.334-5.881-7.311-.338-2.423-1.771-4.181-3.712-4.55-1.74-.331-4.139-1.992-5.332-3.691-1.218-1.734-3.197-2.694-4.514-2.19-1.29.494-4.077.464-6.193-.065-2.938-.736-3.848-2.026-3.848-5.455 0-5.491-2.405-7.327-4.614-3.523-1.241 2.138-1.504.996-1.103-4.78.429-6.163-.039-7.89-2.492-9.2-1.661-.886-2.912-2.466-2.781-3.511.587-4.665-.327-6.036-3.714-5.566-2.671.37-3.703-.392-4.076-3.011-.445-3.119-1.192-3.41-6.756-2.634-3.673.513-6.256.222-6.256-.703 0-.867-3.04-1.424-6.756-1.237-5.521.278-6.845.95-7.246 3.68-.27 1.837-1.549 3.745-2.842 4.24-2.597.994-4.624-2.6-3.343-5.929 1.543-4.012-1.165-5.621-7.935-4.716-5.144.689-6.8 1.675-7.503 4.466-.925 3.679-7.294 6.7-7.294 3.46 0-.985-1.135-.174-2.523 1.802-1.923 2.739-2.09 4.111-.706 5.775 1.406 1.69 1.168 2.545-1.054 3.793-2.697 1.513-2.646 1.819.842 5.073 2.534 2.363 3.424 4.535 2.804 6.841-.5 1.859-.92 4.272-.931 5.362-.012 1.09-1.095 1.982-2.406 1.982-2.873 0-3.19 5.659-.414 7.37 4.43 2.731-6.163 3.081-12.519.414-5.753-2.415-7.107-2.484-10.84-.552-2.347 1.215-4.753 2.14-5.348 2.057-5.081-.709-6.674.502-6.344 4.824.193 2.529-.557 5.69-1.667 7.024-1.674 2.012-1.495 2.706 1.054 4.066 1.69.903 3.525 1.19 4.077.64.552-.551 1.004-.169 1.004.848 0 1.095-2.544 1.85-6.232 1.85-6.755 0-6.346-.667-8.992 14.667-.775 4.494-1.785 5.946-4.133 5.946-6.62 0-9.256-2.924-9.256-10.269 0-3.842-.762-7.455-1.693-8.029-.931-.574-1.57-2.935-1.421-5.247.71-10.977-.063-13.704-4.614-16.286-3.734-2.119-4.681-3.918-5.397-10.255-.478-4.227-1.67-7.951-2.648-8.277-2.39-.794-6.481-8.889-6.481-12.821 0-1.738-1.354-4.106-3.009-5.262-2.572-1.797-3.147-4.925-3.966-21.57L0 287.695l3.838 4.131c3.384 3.642 4.231 3.887 7.147 2.071 2.657-1.656 3.932-1.671 6.486-.08 2.855 1.778 3.18 1.583 3.18-1.904 0-2.136.715-4.324 1.589-4.863.874-.539 1.595-.403 1.602.302.012 1.285 7.446 5.247 9.842 5.247 2.4 0 1.273-4.599-1.509-6.157-2.458-1.376-2.49-1.67-.274-2.522 3.127-1.202 11.004 1.654 11.004 3.99 0 2.314 6.762.184 8.424-2.654.7-1.194 2.309-2.17 3.577-2.17 1.268 0 2.305-.631 2.305-1.401s1.43-1.774 3.18-2.23c3.925-1.024 4.332-9.19.795-15.955-1.3-2.487-1.952-6.163-1.447-8.169.77-3.059.158-3.814-3.793-4.679-4.06-.89-4.659-1.686-4.337-5.77.206-2.606 1.908-6.164 3.783-7.906 4.07-3.782 4.14-4.468.931-9.038-2.34-3.332-2.253-3.613 1.546-5.054 2.384-.904 4.461-3.271 5.1-5.812.907-3.603.131-5.153-4.871-9.726l-5.95-5.439 4.418-4.601c5.227-5.442 6.355-5.658 7.464-1.429.61 2.325 2.168 3.171 5.843 3.171 3.258 0 4.63-.614 3.924-1.755-1.524-2.46 2.42-14.191 6.198-18.434 1.734-1.948 4.47-3.958 6.08-4.468 3.05-.965 4.125-7.716 1.488-9.342-.793-.488-1.088-2.234-.657-3.879.432-1.644.007-3.47-.944-4.056-2.58-1.591-2.085-5.635.69-5.635 1.33 0 3.234-1.783 4.23-3.964.996-2.18 2.769-3.964 3.94-3.964 1.17 0 2.129-.688 2.129-1.53 0-.841 1.54-2.351 3.42-3.355 2.914-1.555 3.274-1.446 2.435.737-1.315 3.417 1.38 3.274 3.99-.212 1.142-1.526 5.509-4.387 9.703-6.358 8.287-3.895 12.223-3.174 15.443 2.827 2.851 5.314 4.862 3.604 3.77-3.208-.707-4.407-.441-6.342.87-6.342 1.037 0 1.397-.79.799-1.756-.71-1.145-.052-1.43 1.893-.82 6.319 1.985 20.406 4.161 26.928 4.161 6.819 0 12.768-3.527 10.936-6.484-1.696-2.737 1.01-7.582 4.534-8.12 1.926-.294 3.323-1.409 3.104-2.479-.218-1.069 1.034-1.944 2.782-1.944 1.963 0 3.184-1.061 3.192-2.775.012-2.673 6.407-6.739 10.6-6.739 1.117 0 3.289-1.962 4.827-4.36 3.857-6.013 6.925-8.211 11.583-8.299 5.568-.104 7.386-1.657 8.627-7.364.909-4.18 1.977-5.104 6.796-5.885 4.203-.68 6.861-.113 10.031 2.138 2.372 1.685 4.667 2.71 5.099 2.28.432-.432 1.736.357 2.898 1.752 1.381 1.661 1.549 2.907.484 3.606-2.136 1.403-3.835 8.204-2.05 8.204.762 0 2.243 1.6 3.293 3.555 2.344 4.37 1.929 37.483-.507 40.411-.916 1.101-4.341 2.802-7.611 3.779-4.896 1.463-6.628 1.33-9.819-.756-5.812-3.798-10.968-19.856-10.917-33.995.017-4.526-2.696-3.131-5.096 2.62-2.278 5.456-2.383 5.878-2.618 10.442-.13 2.523-1.436 4.231-3.776 4.939-6.154 1.861-10.73 7.222-10.73 12.569 0 2.726-.858 5.812-1.907 6.859-1.256 1.252-1.319 1.902-.185 1.902.947 0 2.096 1.427 2.553 3.172.928 3.54 5.019 4.236 6.996 1.189.708-1.09 1.286-3.751 1.286-5.912 0-2.452 1.029-4.132 2.738-4.468 2.185-.43 2.696.541 2.535 4.821-.406 10.773 7.07 16.115 10.164 7.262 1.664-4.762 1.728-4.784 10.543-3.686 5.361.668 9.636 2.142 10.806 3.724 1.084 1.466 1.282 2.853.449 3.151-2.495.892.101 3.432 3.507 3.432 3.827 0 7.179-3.043 7.983-7.247.328-1.713 2.139-3.281 4.114-3.562 1.941-.276 4.902-2.243 6.58-4.372 1.929-2.446 3.986-3.511 5.595-2.895 2.98 1.141 3.099 2.143.928 7.839-1.223 3.209-2.112 3.828-3.659 2.548-3.583-2.966-8.65-.381-9.412 4.802-.913 6.202 2.62 9.862 8.182 8.478 9.933-2.471 22.832-1.354 26.786 2.321 1.981 1.841 3.801 2.501 4.368 1.586.535-.863 2.471-1.57 4.304-1.57 3.221 0 3.237.105.482 3.142-2.389 2.632-2.512 3.548-.762 5.651 1.274 1.531 3.442 2.172 5.56 1.641 2.195-.549 4.419.176 6.05 1.973 1.605 1.769 4.441 2.714 7.511 2.502 4.437-.307 4.839.032 4 3.367-.791 3.144-.379 3.648 2.714 3.319 5.252-.558 7.486-2.314 7.486-5.882 0-5.684 4.414-5.175 10.281 1.184 5.563 6.03 8.251 11.13 6.688 12.689-.444.443.586 2.195 2.289 3.894 1.703 1.699 3.521 5.207 4.04 7.796.519 2.589 1.84 4.707 2.935 4.707 3.273 0 5.898-4.367 4.764-7.928-.584-1.837-.2-4.353.859-5.626 1.351-1.624 1.39-2.302.131-2.302-2.806 0-2.09-4.662 1.395-9.081 1.748-2.217 3.179-5.719 3.179-7.782 0-2.66.9-3.75 3.099-3.75 1.704 0 6.506-3.211 10.671-7.135 4.165-3.925 7.731-7.136 7.925-7.136.194 0 2.187.696 4.43 1.547 5.507 2.088 5.302 7.428-.551 14.37-3.359 3.983-4.409 6.615-3.828 9.59.497 2.542-.161 5.061-1.729 6.626-1.392 1.388-2.531 3.155-2.531 3.926 0 .77-1.446 4.385-3.212 8.032-2.027 4.185-2.845 8.091-2.216 10.589.72 2.86.262 4.24-1.648 4.971-1.455.557-2.26 2.013-1.789 3.237.528 1.371-.657 2.798-3.088 3.72-2.169.822-3.943 2.174-3.943 3.004 0 .83-2.314 2.66-5.141 4.067-4.784 2.38-5.281 2.367-7.153-.187-1.107-1.51-2.013-2.164-2.013-1.455 0 .71-1.073.402-2.384-.684-1.444-1.195-2.385-1.323-2.385-.324 0 4.04 2.365 6.947 7.337 9.019 4.834 2.015 6.065 1.924 12.521-.924 9.342-4.123 15.829-10.237 16.229-15.298.422-5.332 2.136-6.842 6.48-5.709 4.064 1.06 6.455 7.783 3.733 10.498-2.217 2.212-2.369 9.081-.201 9.081.874 0 3.091 1.497 4.926 3.327l3.336 3.328-1.183-3.718c-.651-2.045-2.322-4.548-3.713-5.563-2.3-1.677-2.279-2.121.232-4.888 1.518-1.673 2.76-4.586 2.76-6.473 0-4.152-5.968-11.374-9.427-11.407-1.372-.014-3.417-.608-4.543-1.321-2.563-1.622-.126-8.853 4.724-14.018 2.339-2.491 3.08-4.992 2.627-8.868-.63-5.376 1.502-9.067 5.235-9.067 1.061 0 3.416-1.249 5.233-2.775 3.219-2.703 3.241-2.693.834.396-1.358 1.745-2.663 5.482-2.899 8.305-.351 4.189.324 5.476 3.662 6.994 2.251 1.023 4.092 2.458 4.092 3.191 0 .732 1.05 1.331 2.334 1.331 2.996 0 1.354-4.764-2.627-7.622-3.492-2.507-3.805-6.649-.502-6.649 1.311 0 2.384.714 2.384 1.586 0 .872 1.157 1.585 2.57 1.585 1.756 0 2.316-.969 1.768-3.059-.587-2.237-.025-3.001 2.089-2.842 1.59.119 2.54.783 2.112 1.474-.428.691.323 1.256 1.67 1.256 1.346 0 2.898 1.79 3.448 3.978.607 2.411 2.498 4.352 4.8 4.929 4.628 1.158 4.914 3.117.619 4.237-2.172.567-3.18 2.163-3.18 5.036 0 2.654.645 3.808 1.749 3.128 1.037-.639.9.45-.338 2.681-1.147 2.068-1.859 4.473-1.581 5.345.603 1.895 1.469 5.875 1.638 7.532.179 1.745 4.891 1.453 4.891-.303 0-.821-.688-1.916-1.529-2.435-.979-.603-.979-2.385 0-4.953.841-2.206 1.529-6.153 1.529-8.769 0-2.617.781-6.215 1.737-7.995 1.256-2.342 1.256-3.717 0-4.97-.956-.953-1.737-2.76-1.737-4.016 0-1.255-1.065-3.075-2.366-4.043-1.699-1.264-2.095-3.401-1.403-7.576l.963-5.815 10.94.266c7.713.187 10.939.866 10.94 2.303.001 1.499.787 1.619 2.973.452 2.25-1.202 2.885-3.12 2.614-7.903-.24-4.248.381-6.598 1.898-7.179 1.24-.475 1.858-1.503 1.373-2.286-1.26-2.033 8.985-6.527 14.88-6.527 2.956 0 5.347-.966 5.89-2.379 1.017-2.644 5.344-3.286 5.344-.793 0 .872 1.288 1.586 2.862 1.586 3.553 0 11.415-3.544 11.432-5.153.007-.654 1.677-1.19 3.711-1.19 3.169 0 3.603-.652 3.029-4.553-.851-5.783 6.811-13.912 10.35-10.982 1.75 1.448 1.766 2.024.086 3.107-1.651 1.064-1.587 1.641.322 2.891 1.311.858 3.278 1.572 4.371 1.585 1.093.013 1.987 1.451 1.987 3.196 0 3.707 2.865 4.248 4.194.792 1.417-3.682 8.443-2.815 14.495 1.789 4.208 3.202 4.98 4.495 3.33 5.58-1.747 1.149-1.629 1.81.633 3.539 3.996 3.055 3.49 5.207-2.768 11.793-3.052 3.212-5.556 6.58-5.564 7.485-.007.904-3.232 5.043-7.166 9.197-3.935 4.155-7.131 8.409-7.103 9.455.028 1.067.978.683 2.162-.873 1.162-1.526 3.594-2.775 5.406-2.775 1.936 0 3.725-1.354 4.34-3.285.616-1.938 1.946-2.942 3.24-2.446 1.207.462 3.237-.2 4.512-1.471 3.01-3.003 8.31-2.965 9.477.067.503 1.308 1.695 2.379 2.648 2.379.953 0 1.34-.636.859-1.413-1.285-2.072 6.27-6.515 11.077-6.515 2.279 0 5.216 1.07 6.528 2.378 3.072 3.064 10.571 3.04 16.569-.054 4.022-2.075 4.468-2.897 3.027-5.583-2.337-4.355-.641-6.313 4.569-5.274 2.923.584 5.095.041 6.475-1.618 1.873-2.251 2.538-2.169 6.768.836 2.709 1.924 4.333 4.26 3.845 5.53-.485 1.26.151 2.199 1.489 2.199 2.672 0 3.123 2.498.719 3.98-2.324 1.433-.078 4.327 2.571 3.313 1.447-.554 2.223.253 2.223 2.31 0 1.958 1.664 3.84 4.372 4.947 6.195 2.531 10.85 2.352 10.158-.392-.314-1.246-.815-4.6-1.113-7.454-.455-4.356-.136-4.961 1.989-3.775 3.652 2.039 8.438.347 8.438-2.982 0-3.644 2.982-4.667 7.594-2.604 4.573 2.046 9.039-1.233 5.11-3.752-1.971-1.263-1.786-1.68 1.099-2.469 3.104-.85 3.276-1.395 1.622-5.153-1.017-2.312-2.504-4.667-3.305-5.233-.801-.566-.88-2.35-.177-3.964.703-1.614 1.204-3.354 1.112-3.867-.091-.512 2.835-2.459 6.504-4.325 5.55-2.823 6.756-3 7.184-1.05.624 2.848 3.397 3.124 3.618.361.087-1.09.656-.198 1.264 1.982 1.714 6.146 4.089 4.685 4.634-2.85.404-5.587 1.21-7.086 4.475-8.324 5.845-2.217 7.282-1.869 6.209 1.505-.887 2.787-.453 2.902 5.723 1.518 3.675-.824 7.746-1.09 9.047-.592 2.608.998 9.819-4.922 9.819-8.06 0-1.09 1.852-4.176 4.115-6.859 3.422-4.056 5.269-4.879 10.958-4.879 4.615 0 7.139.774 7.756 2.379 1.97 5.12 14.323 1.202 13.637-4.325-.538-4.336 2.302-9.466 6.02-10.876 2.145-.813 4.722-3.651 5.727-6.306 1.299-3.433 2.634-4.616 4.623-4.098 1.538.401 3.236.021 3.773-.845.536-.866 2.299-1.23 3.917-.808 1.618.422 3.77-.23 4.784-1.447 2.63-3.162-.932-6.972-6.519-6.972-6.264 0-6.924-3.792-1.641-9.432 2.491-2.661 4.203-4.838 3.803-4.838-.401 0 .564-2.29 2.144-5.088 4.356-7.718 10.506-12.598 25.126-19.938 2.623-1.317 5.975-3.43 7.45-4.696 1.475-1.266 3.367-1.879 4.205-1.362.838.516 1.962-.201 2.498-1.595.592-1.54 1.975-2.151 3.523-1.559 1.888.723 2.287.297 1.54-1.644-.89-2.312.116-2.518 8.566-1.754 7.574.685 9.573.4 9.573-1.362 0-1.32-1.62-2.228-3.974-2.228-4.614 0-4.918-.87-1.498-4.282 1.362-1.358 2.114-3.412 1.671-4.563-.463-1.203.68-2.552 2.69-3.174 1.923-.595 5.463-2.464 7.867-4.154 4.597-3.229 4.426-3.361 5.007 3.884.088 1.09.875 2.517 1.749 3.171.999.748.72 1.747-.749 2.689-1.286.825-1.958 1.879-1.493 2.342.845.843 6.751 2.16 10.681 2.383 1.173.067 1.579.928.931 1.973-.772 1.247-.282 1.523 1.496.843 1.727-.662 2.645-.205 2.645 1.316 0 1.28-.715 2.328-1.589 2.328s-1.442.536-1.261 1.19c.181.654-1.795 3.402-4.391 6.106-3.815 3.975-5.241 4.59-7.439 3.207-2.137-1.345-3.229-1.04-5.096 1.425-1.307 1.724-2.4 4.741-2.427 6.703-.039 2.712-.982 3.568-3.931 3.568-2.134 0-4.322-.713-4.863-1.586-1.462-2.36-3.505-1.92-4.626.995-1.229 3.194 3.575 7.12 7.333 5.993 1.953-.585 3.626.986 6.005 5.637 3.61 7.057 2.704 11.207-3.125 14.319-1.959 1.045-2.722 2.586-2.093 4.223.913 2.373 1.142 2.37 2.898-.025 1.049-1.43 3.437-2.6 5.308-2.6s3.401-.762 3.401-1.693c0-1.973 6.625-.286 8.147 2.076.625.969 1.386.908 2.05-.163 1.35-2.18 12.494-1.864 13.972.397 1.314 2.01-4.689 8.896-7.755 8.896-2.62 0-2.784 2.682-.215 3.536 1.177.392 2.053 5 2.318 12.196.234 6.362 1.192 13.882 2.128 16.713.937 2.83 1.981 6.588 2.322 8.351.34 1.764 1.334 5.793 2.209 8.954 1.508 5.447 1.393 5.747-2.214 5.747-4.736 0-8.571 6.778-8.924 15.774-.215 5.473-.59 6.103-2.633 4.422-2.07-1.705-2.264-1.081-1.481 4.777.656 4.906.344 6.739-1.147 6.739-3.417 0-4.144 6.726-1.172 10.832 1.5 2.073 4.516 7.077 6.702 11.121 3.959 7.325 9.537 10.783 9.537 5.912 0-1.372 1.157-2.495 2.57-2.495 1.752 0 2.316.969 1.772 3.045-.595 2.268.271 3.346 3.391 4.224 2.304.649 4.8 1.038 5.546.865.746-.174 2.714.114 4.372.639 3.568 1.13 4.069 5.498.63 5.498-1.312 0-2.385 1.33-2.385 2.957 0 4.258 6.051 11.313 9.703 11.313 3.728 0 5.752 4.246 3.225 6.766-.99.988-1.8 4.408-1.8 7.6 0 4.274 1.004 6.556 3.813 8.659 3.625 2.716 3.706 3.156 1.66 8.943-1.714 4.845-1.742 6.087-.137 6.087 2.641 0 8.97 14.555 8.97 20.628 0 6.235-4.098 6.302-9.907.162-2.384-2.519-7.377-6.162-11.097-8.096-13.253-6.891-37.811-29.508-37.811-34.823 0-4.227-3.321-11.169-5.342-11.169-1.002 0-.901-.749.255-1.903 2.821-2.814 2.459-19.451-.477-21.881-1.311-1.086-2.384-3.272-2.384-4.858 0-1.586-.75-3.346-1.667-3.911-1.162-.716-1.159-1.637.007-3.04 1.195-1.435.887-4.133-1.075-9.412-2.288-6.158-2.407-7.946-.711-10.655 2.314-3.696 1.348-5.555-6.62-12.739-2.872-2.588-4.638-5.759-4.638-8.324 0-4.782-2.293-5.37-5.338-1.369-2.947 3.873-2.715 6.333.967 10.276 1.8 1.927 3.179 5.595 3.179 8.456 0 2.779.437 7.231.97 9.893.782 3.898.465 4.767-1.628 4.46-1.429-.209-3.695-1.941-5.035-3.849-2.815-4.009-5.434-4.535-5.434-1.091 0 1.308-1.14 2.378-2.533 2.378-1.394 0-2.908 1.428-3.365 3.172-.457 1.744-1.407 3.171-2.109 3.171-2.254 0-3.512 9.511-1.568 11.848 1.009 1.212 2.244 6.356 2.745 11.43.501 5.075 1.936 11.253 3.19 13.73 2.19 4.326 2.399 4.394 5.344 1.736 1.795-1.621 3.064-2.003 3.064-.924 0 1.013-1.788 3.392-3.974 5.288-2.185 1.896-3.973 4.436-3.973 5.646 0 1.446-1.044 1.869-3.046 1.235-1.675-.53-3.464-.288-3.976.537-.511.826-2.36 1.129-4.107.673-2.21-.577-3.178-.048-3.178 1.734 0 1.41-.536 2.479-1.192 2.376-4.726-.745-6.927.644-7.782 4.909-.974 4.857-3.152 7.346-9.078 10.373-1.874.957-3.304 2.972-3.177 4.478.159 1.893-.334 2.271-1.597 1.225-1.242-1.028-3.718.216-7.724 3.878-8.918 8.152-11.295 12.519-10.144 18.639.546 2.9.453 5.811-.206 6.468-.658.657-1.326 4.747-1.483 9.088-.158 4.341-1.051 8.812-1.986 9.936-.934 1.123-1.629 6.697-1.543 12.387.085 5.69-.637 11.821-1.605 13.625-.968 1.805-1.76 5.07-1.76 7.256s-.716 4.416-1.59 4.955c-.874.539-1.59 2.365-1.59 4.057 0 2.349 1.108 3.078 4.675 3.078 2.572 0 5.114-.708 5.65-1.574.539-.869 2.693.373 4.813 2.775 3.076 3.486 3.847 3.798 3.887 1.574.061-3.371 3.23-3.76 3.23-.397a2.388 2.388 0 0 0 2.384 2.379 2.388 2.388 0 0 0 2.385-2.379 2.388 2.388 0 0 1 2.384-2.378c2.716 0 3.234-4.046.718-5.597-3.089-1.904 1.951-5.839 6.345-4.954 9.634 1.941 14.551 3.493 14.502 4.578-.029.64 2.501 3.71 5.622 6.824 3.57 3.561 5.324 6.573 4.729 8.12-1.256 3.263 2.05 13.99 5.424 17.603 1.478 1.582 4.6 6.676 6.939 11.321 4.239 8.418 4.25 8.533 3.539 37.203-.753 30.384-1.182 35.632-3.169 38.84-.679 1.096-.815 3.658-.303 5.694 1.203 4.782-4.461 17.612-9.947 22.532-3.496 3.135-5.319 3.611-10.919 2.853l-6.722-.91-1.032 6.434c-.819 5.111-1.706 6.435-4.311 6.435-3.125 0-3.143-.1-.377-2.117zm76.53-78.873c-2.398-2.684-3.969-5.895-3.492-7.135.477-1.24.227-2.255-.556-2.255-1.622 0-6.425-8.976-6.425-12.007 0-1.103-2.419-3.497-5.376-5.32-2.957-1.823-6.313-5.627-7.457-8.453-1.144-2.827-4.509-8.351-7.478-12.275-2.969-3.924-6.373-9.454-7.563-12.288-1.445-3.437-3.252-5.154-5.426-5.154-3.262 0-9.619-5.111-9.619-7.734 0-.765-1.073-2.279-2.384-3.365-1.311-1.086-2.384-3.079-2.384-4.43 0-1.351-1.224-3.804-2.719-5.452-2.114-2.33-2.27-3.273-.703-4.239 2.835-1.748.541-9.882-3.051-10.819-1.648-.43-2.485-1.677-1.99-2.965 1.326-3.446 3.616-2.633 5.342 1.896.863 2.264 2.991 4.488 4.729 4.941 1.738.454 3.16 1.834 3.16 3.068s1.252 2.688 2.782 3.233c4.871 1.732 6.899 3.964 5.324 5.86-1.889 2.275 2.321 7.449 8.188 10.063 2.404 1.071 4.371 2.676 4.371 3.567s.784 1.619 1.743 1.619c.958 0 6.144 3.852 11.524 8.56 5.38 4.707 12.286 9.644 15.346 10.97l5.563 2.41-7.6.13c-9.251.157-10.222 1.933-6.703 12.27 3.536 10.388 8.437 17.975 11.651 18.036 1.459.028 4.046 1.102 5.748 2.386 1.703 1.285 4.266 1.965 5.696 1.512 3.445-1.09 7.528 7.006 4.48 8.885-1.096.675-2.64.829-3.43.342-.791-.488-.468-1.5.718-2.25 1.587-1.003 1.632-1.369.17-1.387-3.43-.042-8.112 5.72-6.592 8.113 3.93 6.188.03 5.955-5.587-.333zm-7.168-5.294c-.069-1.671.307-2.608.835-2.081.528.527.585 1.894.126 3.039-.508 1.265-.885.889-.961-.958zm44.383-6.781c0-4.509.783-6.789 2.565-7.471 2.188-.838 2.404-.105 1.466 4.983-1.609 8.737-4.031 10.232-4.031 2.488zm5.873-11.013c-2.237-2.232-1.196-16.054 1.28-17.002 1.312-.502 2.385-2.006 2.385-3.341 0-1.336.715-2.428 1.59-2.428 2.167 0 2.001 1.8-.78 8.438-1.302 3.11-1.958 6.722-1.456 8.026 1.066 2.772-1.399 7.923-3.019 6.307zm8.545-31.795c-.061-2.783.604-5.501 1.478-6.04 1.907-1.175 1.907 3.503 0 7.928-1.151 2.674-1.383 2.377-1.478-1.888zm4.908-24.274c0-2.181.361-3.072.802-1.982.441 1.09.441 2.874 0 3.964-.441 1.09-.802.198-.802-1.982zm-158.415-7.928c-.541-.872-.225-1.586.701-1.586.925 0 1.683.714 1.683 1.586 0 .872-.315 1.585-.701 1.585-.386 0-1.143-.713-1.683-1.585zm152.552-20.693c-1.46-2.356-.299-3.191 2.252-1.618 1.366.843 1.529 1.66.461 2.318-.907.559-2.128.244-2.713-.7zm-2.335-11.02c0-.872.715-1.585 1.589-1.585s1.59.713 1.59 1.585-.716 1.586-1.59 1.586a1.592 1.592 0 0 1-1.589-1.586zm-1.722-8.721c-.135-.872-.15-2.149-.035-2.839.115-.689-.482-2.542-1.327-4.117-1.041-1.941-.945-3.454.297-4.693 2.286-2.281 4.924-2.41 3.538-.173-.564.91-.307 2.518.57 3.572 1.087 1.306.895 3.179-.602 5.877-1.208 2.177-2.307 3.246-2.441 2.373zM829.755 241.16c0-.384.715-1.14 1.59-1.679.874-.539 1.589-.224 1.589.699 0 .924-.715 1.68-1.589 1.68-.875 0-1.59-.315-1.59-.7zm-489.596-72.239c0-2.616.716-4.757 1.59-4.757.874 0 1.59 2.141 1.59 4.757 0 2.616-.716 4.757-1.59 4.757-.874 0-1.59-2.141-1.59-4.757zm220.278-6.15c-.492-.795.174-1.855 1.48-2.355 1.307-.5 2.375-.26 2.375.533 0 2.15-2.824 3.484-3.855 1.822zm-156.466-6.387c-1.599-.991-1.675-1.634-.292-2.487 2.182-1.344 3.819-.154 3.012 2.189-.331.96-1.453 1.083-2.72.298zm-70.614-4.771c-3.441-4.084-4.017-5.728-2.605-7.426 2.37-2.847.498-10.149-2.601-10.149-1.879 0-2.052-.667-.785-3.029 1.021-1.902 2.732-2.739 4.605-2.25 1.811.472 4.715-.827 7.406-3.315 5.087-4.703 6.919-4.993 11.208-1.779 2.966 2.223 2.816 2.555-3.86 8.531-6.286 5.629-7.041 7.095-7.948 15.441l-1.002 9.222-4.418-5.246zm-39.826-1.191c-1.845-1.84-1.159-3.535 2.143-5.298 2.553-1.363 3.406-1.181 4.206.897 1.327 3.45-3.765 6.979-6.349 4.401zm370.516-19.952c-1.838-4.985 2.593-7.437 9.003-4.984 3.601 1.379 3.112 3.014-1.535 5.126-5.153 2.342-6.563 2.315-7.468-.142zm-309.581-7.532c-1.154-2.15-1.172-3.171-.056-3.171.905 0 1.466-.892 1.248-1.982-.222-1.107.83-1.776 2.384-1.516 1.53.256 2.782-.192 2.782-.997 0-.804 2.146-2.349 4.769-3.433 2.623-1.084 4.769-2.442 4.769-3.018 0-.576 1.846-1.2 4.102-1.386 2.256-.186 5.259-.984 6.672-1.773 1.534-.856 4.099-.855 6.364.004 2.086.791 4.48 1.016 5.319.498.839-.517 2.581-.067 3.87 1 1.554 1.287 5.313 1.636 11.148 1.035 6.899-.71 8.999-.4 9.705 1.435.495 1.288.444 2.797-.114 3.353-1.533 1.529-16.579 3.179-18.454 2.023-.901-.556-5.383-.385-9.959.379-4.577.765-10.355 1.593-12.84 1.84-2.486.247-4.989 1.098-5.564 1.89-.574.793-2.832 1.633-5.018 1.868-2.186.234-4.768 1.483-5.739 2.774-2.344 3.119-3.357 2.964-5.388-.823zm303.613 2.472c0-.384.715-1.14 1.589-1.679.874-.539 1.59-.224 1.59.699 0 .924-.716 1.68-1.59 1.68-.874 0-1.589-.315-1.589-.7zm-614.676-2.8c-.877-1.128-2.04-3.299-2.586-4.825-.582-1.628-2.616-2.775-4.922-2.775-2.161 0-4.39-.742-4.952-1.649-.662-1.069.422-1.288 3.086-.621 3.392.849 4.107.476 4.107-2.145 0-5.723 7.806-5.669 7.924.055.013.654 1.14 1.189 2.504 1.189 1.894 0 2.364 1.404 1.987 5.933-.519 6.244-4.146 8.699-7.148 4.838zm600.795-1.933c-3.882-1.792-7.175-9.147-5.752-12.847 1.068-2.777 2.829-2.93 7.157-.619 3.778 2.017 5.936.642 3.23-2.058-3.028-3.02-2.265-3.602 5.157-3.935 7.106-.318 11.759 2.463 9.695 5.795-1.612 2.603-6.86 1.935-8.799-1.12-1.19-1.876-1.561-2.004-1.145-.396.338 1.308 2.194 3.17 4.125 4.139l3.51 1.761-4.431 2.952c-2.436 1.624-5.054 2.764-5.817 2.535-.763-.23-.987.623-.498 1.894 1.165 3.029-1.975 3.956-6.432 1.899zm-127.713-9.788c1.814-3.376 3.299-7.041 3.299-8.144 0-1.103.715-2.005 1.589-2.005.875 0 1.59.713 1.59 1.585s.766 1.586 1.703 1.586c2.768 0 6.621 4.664 5.741 6.95-.447 1.162-2.841 2.554-5.32 3.093-2.48.539-6.172 1.451-8.204 2.027l-3.696 1.047 3.298-6.139zm-12.995-6.299c-5.434-2.941-5.841-8.986-.838-12.481 4.511-3.152 6.606-3.147 5.39.014-.723 1.88-.218 2.248 2.08 1.52 3.632-1.15 5.631 1.448 3.995 5.19-.649 1.485-1.025 3.948-.836 5.474.426 3.434-3.745 3.554-9.791.283zm163.578-5.062c-.912-1.504 2.242-4.253 5.317-4.633 1.311-.162 4.167-.825 6.345-1.474 3.841-1.144 3.886-1.069 1.51 2.5-2.388 3.589-11.645 6.123-13.172 3.607zM493.82 93.34c-1.93-1.926-1.098-3.615 1.325-2.687 1.311.501 2.384 1.55 2.384 2.328 0 1.663-2.189 1.875-3.709.36zm3.136-6.075c-1.257-3.266 1.541-8.724 4.471-8.724 1.208 0 2.515-.892 2.906-1.982.947-2.647 2.268-1.266 3.415 3.57 1.183 4.984-.379 7.392-5.648 8.71-3.037.761-4.407.342-5.144-1.574zm280.342-7.761c0-.343 1.073-1.034 2.385-1.536 1.311-.502 2.384-.222 2.384.623s-1.073 1.536-2.384 1.536c-1.312 0-2.385-.28-2.385-.623zM421.938 57.79c-.587-.948-.445-2.346.317-3.105 1.88-1.876 6.017.854 4.647 3.066-1.388 2.24-3.589 2.258-4.964.039zm8.828.138c0-.872 1.473-1.586 3.273-1.586 1.801 0 2.831.714 2.291 1.586-.54.872-2.013 1.586-3.273 1.586-1.26 0-2.291-.714-2.291-1.586zm-13.5-11.081c-.557-.899.081-1.165 1.496-.623 2.754 1.054 3.258 2.19.971 2.19-.823 0-1.933-.705-2.467-1.567zm-19.086-6.36c-4.899-1.244-3.989-1.785 3.47-2.062 2.346-.087 4.552.698 4.901 1.744.697 2.085-1.134 2.154-8.371.317zm-2.915-5.815c-.583-.581-1.059-1.585-1.059-2.23 0-1.524 6.145.076 7.271 1.893 1 1.613-4.626 1.919-6.212.337zm390.256-6.11c-2.649-5.798-2.324-8.332 1.315-10.274 3.51-1.874 3.629-1.638 3.21 6.342-.387 7.359-2.229 8.96-4.525 3.933z"/>
    </mask>
    <path d="M809.796 510.883c2.777-2.026 2.785-2.471.186-10.276-1.494-4.487-3.987-9.723-5.54-11.637-2.459-3.028-2.549-4.006-.7-7.562 1.169-2.247 2.85-4.174 3.737-4.283.886-.109 2.959-.287 4.605-.396 3.618-.24 5.405-5.91 3.173-10.07-1.148-2.139-1.054-3.694.321-5.347 1.969-2.366 1.913-2.596-3.335-13.665-1.559-3.287-1.605-4.832-.193-6.528 1.43-1.719 1.304-2.673-.556-4.212-1.322-1.095-2.404-3.687-2.404-5.76 0-2.074-.543-3.77-1.207-3.77-1.386 0-5.957 6.651-5.564 8.097.144.529-1.512 1.908-3.68 3.065-2.167 1.158-4.357 3.757-4.865 5.777-.508 2.021-1.511 3.674-2.228 3.674-.717 0-2.334 1.028-3.594 2.284-3.338 3.33-8.308 1.36-11.506-4.563-1.986-3.68-3.985-5.222-6.93-5.349-2.277-.098-6.854-.443-10.172-.765-3.318-.323-6.373-.037-6.789.634-1.114 1.798-6.869.344-11.443-2.891-5.664-4.005-7.112-4.831-10.707-6.103-3.019-1.069-2.991-1.175.54-2.108l3.719-.982-4.116-4.431c-2.264-2.437-4.117-5.108-4.117-5.935s-.746-1.504-1.659-1.504c-.912 0-3.595-1.818-5.961-4.041-4.026-3.783-5.066-3.989-16.224-3.217-17.096 1.183-19.072 1.524-19.094 3.294-.011.872-2.515 3.198-5.564 5.168-6.303 4.073-6.948 6.673-2.365 9.528 3.555 2.214 4.323 9.692 1.304 12.703-1.035 1.033-1.945 6.683-2.031 12.606-.137 9.453-.685 11.297-4.589 15.441l-4.434 4.707-7.024-2.52c-5.761-2.067-7.522-2.156-9.799-.495-2.266 1.653-3.568 1.616-7.091-.201-3.88-2.001-4.887-1.89-9.975 1.105-3.113 1.832-6.073 4.973-6.578 6.98-.648 2.575-2.454 3.937-6.129 4.625-2.867.536-6.478 2.372-8.027 4.078-1.548 1.707-3.549 2.65-4.447 2.097-.898-.554-5.749-.859-10.78-.678-7.607.274-9.691-.252-12.376-3.127-2.101-2.25-4.376-3.158-6.514-2.6-2.211.577-3.817-.134-4.91-2.171-2.033-3.789-13.281-4.16-20.009-.66-2.504 1.303-5.876 2.374-7.492 2.379-3.331.011-12.163-8.71-12.163-12.009 0-2.358-7.862-7.009-11.848-7.009-3.936 0-14.235-6.082-15.44-9.119-.895-2.254-1.122-2.074-1.212.962-.062 2.055-1.9 5.855-4.086 8.446-4.134 4.901-5.217 12.108-2.262 15.056 1.224 1.22.535 2.882-2.411 5.821-3.347 3.338-5.093 3.931-9.263 3.143-2.827-.534-6.002-1.645-7.057-2.47-1.054-.824-2.568-1.097-3.364-.607-1.64 1.011-5.645-3.148-7.183-7.459-.762-2.14-2.351-2.748-6.202-2.378-2.848.273-5.893-.359-6.767-1.405-1.218-1.459-3.632-1.129-10.332 1.413-4.809 1.824-10.778 3.239-13.264 3.144-3.241-.123-4.283.45-3.677 2.023.944 2.455-1.545 3.717-9.945 5.043-3.136.495-6.194 1.201-6.797 1.57-.603.368-2.749-1.082-4.769-3.224-2.209-2.343-5.869-4.094-9.186-4.395-4.687-.425-5.734-1.273-6.986-5.654-.81-2.834-2.442-5.153-3.626-5.153-1.337 0-2.155-1.815-2.155-4.782 0-3.908-1.021-5.269-5.579-7.437-3.977-1.892-6.07-2.165-7.288-.95-2.692 2.685-7.705.505-10.287-4.474-2.49-4.805-7.048-6.212-7.048-2.177a2.388 2.388 0 0 1-2.385 2.378c-1.868 0-2.384-2.17-2.384-10.018 0-5.511-1.122-13.787-2.493-18.391-1.371-4.605-2.161-8.703-1.756-9.107.405-.404-.977-2.578-3.071-4.832-4.714-5.074-4.746-6.135-.231-7.58 3.109-.995 2.757-1.304-2.697-2.365-4.52-.879-6.878-.617-8.436.936-2.173 2.168-8.218 2.085-13.639-.187-2.276-.955-2.452-1.508-.802-2.525 1.658-1.022 1.431-1.816-1.059-3.693-1.744-1.314-4.043-2.413-5.109-2.441-1.065-.027-1.525-1.12-1.022-2.429.669-1.739-.198-2.378-3.229-2.378-3.959 0-5.54-2.836-2.995-5.375.632-.63 1.307-3.603 1.5-6.606.286-4.47-.211-5.461-2.739-5.461-1.699 0-4.481-1.388-6.182-3.085-2.475-2.469-4.052-2.811-7.891-1.713-5.237 1.499-19.48-1.029-35.909-6.371-5.246-1.706-10.555-3.102-11.797-3.102-1.243.001-3.522-1.139-5.066-2.533s-3.482-2.118-4.307-1.609c-2.446 1.508-3.334 9.503-1.341 12.071 1.593 2.052 1.476 2.09-.848.274-4.235-3.306-10.1-1.782-9.644 2.506.428 4.026-3.862 4.945-7.377 1.58-1.691-1.619-1.91-.821-1.195 4.361 1.913 13.869 1.896 14.159-.869 14.718-1.487.301-4.252-1.228-6.144-3.398-1.891-2.17-4.315-3.61-5.386-3.2-2.532.968-5.188-2.334-5.881-7.311-.338-2.423-1.771-4.181-3.712-4.55-1.74-.331-4.139-1.992-5.332-3.691-1.218-1.734-3.197-2.694-4.514-2.19-1.29.494-4.077.464-6.193-.065-2.938-.736-3.848-2.026-3.848-5.455 0-5.491-2.405-7.327-4.614-3.523-1.241 2.138-1.504.996-1.103-4.78.429-6.163-.039-7.89-2.492-9.2-1.661-.886-2.912-2.466-2.781-3.511.587-4.665-.327-6.036-3.714-5.566-2.671.37-3.703-.392-4.076-3.011-.445-3.119-1.192-3.41-6.756-2.634-3.673.513-6.256.222-6.256-.703 0-.867-3.04-1.424-6.756-1.237-5.521.278-6.845.95-7.246 3.68-.27 1.837-1.549 3.745-2.842 4.24-2.597.994-4.624-2.6-3.343-5.929 1.543-4.012-1.165-5.621-7.935-4.716-5.144.689-6.8 1.675-7.503 4.466-.925 3.679-7.294 6.7-7.294 3.46 0-.985-1.135-.174-2.523 1.802-1.923 2.739-2.09 4.111-.706 5.775 1.406 1.69 1.168 2.545-1.054 3.793-2.697 1.513-2.646 1.819.842 5.073 2.534 2.363 3.424 4.535 2.804 6.841-.5 1.859-.92 4.272-.931 5.362-.012 1.09-1.095 1.982-2.406 1.982-2.873 0-3.19 5.659-.414 7.37 4.43 2.731-6.163 3.081-12.519.414-5.753-2.415-7.107-2.484-10.84-.552-2.347 1.215-4.753 2.14-5.348 2.057-5.081-.709-6.674.502-6.344 4.824.193 2.529-.557 5.69-1.667 7.024-1.674 2.012-1.495 2.706 1.054 4.066 1.69.903 3.525 1.19 4.077.64.552-.551 1.004-.169 1.004.848 0 1.095-2.544 1.85-6.232 1.85-6.755 0-6.346-.667-8.992 14.667-.775 4.494-1.785 5.946-4.133 5.946-6.62 0-9.256-2.924-9.256-10.269 0-3.842-.762-7.455-1.693-8.029-.931-.574-1.57-2.935-1.421-5.247.71-10.977-.063-13.704-4.614-16.286-3.734-2.119-4.681-3.918-5.397-10.255-.478-4.227-1.67-7.951-2.648-8.277-2.39-.794-6.481-8.889-6.481-12.821 0-1.738-1.354-4.106-3.009-5.262-2.572-1.797-3.147-4.925-3.966-21.57L0 287.695l3.838 4.131c3.384 3.642 4.231 3.887 7.147 2.071 2.657-1.656 3.932-1.671 6.486-.08 2.855 1.778 3.18 1.583 3.18-1.904 0-2.136.715-4.324 1.589-4.863.874-.539 1.595-.403 1.602.302.012 1.285 7.446 5.247 9.842 5.247 2.4 0 1.273-4.599-1.509-6.157-2.458-1.376-2.49-1.67-.274-2.522 3.127-1.202 11.004 1.654 11.004 3.99 0 2.314 6.762.184 8.424-2.654.7-1.194 2.309-2.17 3.577-2.17 1.268 0 2.305-.631 2.305-1.401s1.43-1.774 3.18-2.23c3.925-1.024 4.332-9.19.795-15.955-1.3-2.487-1.952-6.163-1.447-8.169.77-3.059.158-3.814-3.793-4.679-4.06-.89-4.659-1.686-4.337-5.77.206-2.606 1.908-6.164 3.783-7.906 4.07-3.782 4.14-4.468.931-9.038-2.34-3.332-2.253-3.613 1.546-5.054 2.384-.904 4.461-3.271 5.1-5.812.907-3.603.131-5.153-4.871-9.726l-5.95-5.439 4.418-4.601c5.227-5.442 6.355-5.658 7.464-1.429.61 2.325 2.168 3.171 5.843 3.171 3.258 0 4.63-.614 3.924-1.755-1.524-2.46 2.42-14.191 6.198-18.434 1.734-1.948 4.47-3.958 6.08-4.468 3.05-.965 4.125-7.716 1.488-9.342-.793-.488-1.088-2.234-.657-3.879.432-1.644.007-3.47-.944-4.056-2.58-1.591-2.085-5.635.69-5.635 1.33 0 3.234-1.783 4.23-3.964.996-2.18 2.769-3.964 3.94-3.964 1.17 0 2.129-.688 2.129-1.53 0-.841 1.54-2.351 3.42-3.355 2.914-1.555 3.274-1.446 2.435.737-1.315 3.417 1.38 3.274 3.99-.212 1.142-1.526 5.509-4.387 9.703-6.358 8.287-3.895 12.223-3.174 15.443 2.827 2.851 5.314 4.862 3.604 3.77-3.208-.707-4.407-.441-6.342.87-6.342 1.037 0 1.397-.79.799-1.756-.71-1.145-.052-1.43 1.893-.82 6.319 1.985 20.406 4.161 26.928 4.161 6.819 0 12.768-3.527 10.936-6.484-1.696-2.737 1.01-7.582 4.534-8.12 1.926-.294 3.323-1.409 3.104-2.479-.218-1.069 1.034-1.944 2.782-1.944 1.963 0 3.184-1.061 3.192-2.775.012-2.673 6.407-6.739 10.6-6.739 1.117 0 3.289-1.962 4.827-4.36 3.857-6.013 6.925-8.211 11.583-8.299 5.568-.104 7.386-1.657 8.627-7.364.909-4.18 1.977-5.104 6.796-5.885 4.203-.68 6.861-.113 10.031 2.138 2.372 1.685 4.667 2.71 5.099 2.28.432-.432 1.736.357 2.898 1.752 1.381 1.661 1.549 2.907.484 3.606-2.136 1.403-3.835 8.204-2.05 8.204.762 0 2.243 1.6 3.293 3.555 2.344 4.37 1.929 37.483-.507 40.411-.916 1.101-4.341 2.802-7.611 3.779-4.896 1.463-6.628 1.33-9.819-.756-5.812-3.798-10.968-19.856-10.917-33.995.017-4.526-2.696-3.131-5.096 2.62-2.278 5.456-2.383 5.878-2.618 10.442-.13 2.523-1.436 4.231-3.776 4.939-6.154 1.861-10.73 7.222-10.73 12.569 0 2.726-.858 5.812-1.907 6.859-1.256 1.252-1.319 1.902-.185 1.902.947 0 2.096 1.427 2.553 3.172.928 3.54 5.019 4.236 6.996 1.189.708-1.09 1.286-3.751 1.286-5.912 0-2.452 1.029-4.132 2.738-4.468 2.185-.43 2.696.541 2.535 4.821-.406 10.773 7.07 16.115 10.164 7.262 1.664-4.762 1.728-4.784 10.543-3.686 5.361.668 9.636 2.142 10.806 3.724 1.084 1.466 1.282 2.853.449 3.151-2.495.892.101 3.432 3.507 3.432 3.827 0 7.179-3.043 7.983-7.247.328-1.713 2.139-3.281 4.114-3.562 1.941-.276 4.902-2.243 6.58-4.372 1.929-2.446 3.986-3.511 5.595-2.895 2.98 1.141 3.099 2.143.928 7.839-1.223 3.209-2.112 3.828-3.659 2.548-3.583-2.966-8.65-.381-9.412 4.802-.913 6.202 2.62 9.862 8.182 8.478 9.933-2.471 22.832-1.354 26.786 2.321 1.981 1.841 3.801 2.501 4.368 1.586.535-.863 2.471-1.57 4.304-1.57 3.221 0 3.237.105.482 3.142-2.389 2.632-2.512 3.548-.762 5.651 1.274 1.531 3.442 2.172 5.56 1.641 2.195-.549 4.419.176 6.05 1.973 1.605 1.769 4.441 2.714 7.511 2.502 4.437-.307 4.839.032 4 3.367-.791 3.144-.379 3.648 2.714 3.319 5.252-.558 7.486-2.314 7.486-5.882 0-5.684 4.414-5.175 10.281 1.184 5.563 6.03 8.251 11.13 6.688 12.689-.444.443.586 2.195 2.289 3.894 1.703 1.699 3.521 5.207 4.04 7.796.519 2.589 1.84 4.707 2.935 4.707 3.273 0 5.898-4.367 4.764-7.928-.584-1.837-.2-4.353.859-5.626 1.351-1.624 1.39-2.302.131-2.302-2.806 0-2.09-4.662 1.395-9.081 1.748-2.217 3.179-5.719 3.179-7.782 0-2.66.9-3.75 3.099-3.75 1.704 0 6.506-3.211 10.671-7.135 4.165-3.925 7.731-7.136 7.925-7.136.194 0 2.187.696 4.43 1.547 5.507 2.088 5.302 7.428-.551 14.37-3.359 3.983-4.409 6.615-3.828 9.59.497 2.542-.161 5.061-1.729 6.626-1.392 1.388-2.531 3.155-2.531 3.926 0 .77-1.446 4.385-3.212 8.032-2.027 4.185-2.845 8.091-2.216 10.589.72 2.86.262 4.24-1.648 4.971-1.455.557-2.26 2.013-1.789 3.237.528 1.371-.657 2.798-3.088 3.72-2.169.822-3.943 2.174-3.943 3.004 0 .83-2.314 2.66-5.141 4.067-4.784 2.38-5.281 2.367-7.153-.187-1.107-1.51-2.013-2.164-2.013-1.455 0 .71-1.073.402-2.384-.684-1.444-1.195-2.385-1.323-2.385-.324 0 4.04 2.365 6.947 7.337 9.019 4.834 2.015 6.065 1.924 12.521-.924 9.342-4.123 15.829-10.237 16.229-15.298.422-5.332 2.136-6.842 6.48-5.709 4.064 1.06 6.455 7.783 3.733 10.498-2.217 2.212-2.369 9.081-.201 9.081.874 0 3.091 1.497 4.926 3.327l3.336 3.328-1.183-3.718c-.651-2.045-2.322-4.548-3.713-5.563-2.3-1.677-2.279-2.121.232-4.888 1.518-1.673 2.76-4.586 2.76-6.473 0-4.152-5.968-11.374-9.427-11.407-1.372-.014-3.417-.608-4.543-1.321-2.563-1.622-.126-8.853 4.724-14.018 2.339-2.491 3.08-4.992 2.627-8.868-.63-5.376 1.502-9.067 5.235-9.067 1.061 0 3.416-1.249 5.233-2.775 3.219-2.703 3.241-2.693.834.396-1.358 1.745-2.663 5.482-2.899 8.305-.351 4.189.324 5.476 3.662 6.994 2.251 1.023 4.092 2.458 4.092 3.191 0 .732 1.05 1.331 2.334 1.331 2.996 0 1.354-4.764-2.627-7.622-3.492-2.507-3.805-6.649-.502-6.649 1.311 0 2.384.714 2.384 1.586 0 .872 1.157 1.585 2.57 1.585 1.756 0 2.316-.969 1.768-3.059-.587-2.237-.025-3.001 2.089-2.842 1.59.119 2.54.783 2.112 1.474-.428.691.323 1.256 1.67 1.256 1.346 0 2.898 1.79 3.448 3.978.607 2.411 2.498 4.352 4.8 4.929 4.628 1.158 4.914 3.117.619 4.237-2.172.567-3.18 2.163-3.18 5.036 0 2.654.645 3.808 1.749 3.128 1.037-.639.9.45-.338 2.681-1.147 2.068-1.859 4.473-1.581 5.345.603 1.895 1.469 5.875 1.638 7.532.179 1.745 4.891 1.453 4.891-.303 0-.821-.688-1.916-1.529-2.435-.979-.603-.979-2.385 0-4.953.841-2.206 1.529-6.153 1.529-8.769 0-2.617.781-6.215 1.737-7.995 1.256-2.342 1.256-3.717 0-4.97-.956-.953-1.737-2.76-1.737-4.016 0-1.255-1.065-3.075-2.366-4.043-1.699-1.264-2.095-3.401-1.403-7.576l.963-5.815 10.94.266c7.713.187 10.939.866 10.94 2.303.001 1.499.787 1.619 2.973.452 2.25-1.202 2.885-3.12 2.614-7.903-.24-4.248.381-6.598 1.898-7.179 1.24-.475 1.858-1.503 1.373-2.286-1.26-2.033 8.985-6.527 14.88-6.527 2.956 0 5.347-.966 5.89-2.379 1.017-2.644 5.344-3.286 5.344-.793 0 .872 1.288 1.586 2.862 1.586 3.553 0 11.415-3.544 11.432-5.153.007-.654 1.677-1.19 3.711-1.19 3.169 0 3.603-.652 3.029-4.553-.851-5.783 6.811-13.912 10.35-10.982 1.75 1.448 1.766 2.024.086 3.107-1.651 1.064-1.587 1.641.322 2.891 1.311.858 3.278 1.572 4.371 1.585 1.093.013 1.987 1.451 1.987 3.196 0 3.707 2.865 4.248 4.194.792 1.417-3.682 8.443-2.815 14.495 1.789 4.208 3.202 4.98 4.495 3.33 5.58-1.747 1.149-1.629 1.81.633 3.539 3.996 3.055 3.49 5.207-2.768 11.793-3.052 3.212-5.556 6.58-5.564 7.485-.007.904-3.232 5.043-7.166 9.197-3.935 4.155-7.131 8.409-7.103 9.455.028 1.067.978.683 2.162-.873 1.162-1.526 3.594-2.775 5.406-2.775 1.936 0 3.725-1.354 4.34-3.285.616-1.938 1.946-2.942 3.24-2.446 1.207.462 3.237-.2 4.512-1.471 3.01-3.003 8.31-2.965 9.477.067.503 1.308 1.695 2.379 2.648 2.379.953 0 1.34-.636.859-1.413-1.285-2.072 6.27-6.515 11.077-6.515 2.279 0 5.216 1.07 6.528 2.378 3.072 3.064 10.571 3.04 16.569-.054 4.022-2.075 4.468-2.897 3.027-5.583-2.337-4.355-.641-6.313 4.569-5.274 2.923.584 5.095.041 6.475-1.618 1.873-2.251 2.538-2.169 6.768.836 2.709 1.924 4.333 4.26 3.845 5.53-.485 1.26.151 2.199 1.489 2.199 2.672 0 3.123 2.498.719 3.98-2.324 1.433-.078 4.327 2.571 3.313 1.447-.554 2.223.253 2.223 2.31 0 1.958 1.664 3.84 4.372 4.947 6.195 2.531 10.85 2.352 10.158-.392-.314-1.246-.815-4.6-1.113-7.454-.455-4.356-.136-4.961 1.989-3.775 3.652 2.039 8.438.347 8.438-2.982 0-3.644 2.982-4.667 7.594-2.604 4.573 2.046 9.039-1.233 5.11-3.752-1.971-1.263-1.786-1.68 1.099-2.469 3.104-.85 3.276-1.395 1.622-5.153-1.017-2.312-2.504-4.667-3.305-5.233-.801-.566-.88-2.35-.177-3.964.703-1.614 1.204-3.354 1.112-3.867-.091-.512 2.835-2.459 6.504-4.325 5.55-2.823 6.756-3 7.184-1.05.624 2.848 3.397 3.124 3.618.361.087-1.09.656-.198 1.264 1.982 1.714 6.146 4.089 4.685 4.634-2.85.404-5.587 1.21-7.086 4.475-8.324 5.845-2.217 7.282-1.869 6.209 1.505-.887 2.787-.453 2.902 5.723 1.518 3.675-.824 7.746-1.09 9.047-.592 2.608.998 9.819-4.922 9.819-8.06 0-1.09 1.852-4.176 4.115-6.859 3.422-4.056 5.269-4.879 10.958-4.879 4.615 0 7.139.774 7.756 2.379 1.97 5.12 14.323 1.202 13.637-4.325-.538-4.336 2.302-9.466 6.02-10.876 2.145-.813 4.722-3.651 5.727-6.306 1.299-3.433 2.634-4.616 4.623-4.098 1.538.401 3.236.021 3.773-.845.536-.866 2.299-1.23 3.917-.808 1.618.422 3.77-.23 4.784-1.447 2.63-3.162-.932-6.972-6.519-6.972-6.264 0-6.924-3.792-1.641-9.432 2.491-2.661 4.203-4.838 3.803-4.838-.401 0 .564-2.29 2.144-5.088 4.356-7.718 10.506-12.598 25.126-19.938 2.623-1.317 5.975-3.43 7.45-4.696 1.475-1.266 3.367-1.879 4.205-1.362.838.516 1.962-.201 2.498-1.595.592-1.54 1.975-2.151 3.523-1.559 1.888.723 2.287.297 1.54-1.644-.89-2.312.116-2.518 8.566-1.754 7.574.685 9.573.4 9.573-1.362 0-1.32-1.62-2.228-3.974-2.228-4.614 0-4.918-.87-1.498-4.282 1.362-1.358 2.114-3.412 1.671-4.563-.463-1.203.68-2.552 2.69-3.174 1.923-.595 5.463-2.464 7.867-4.154 4.597-3.229 4.426-3.361 5.007 3.884.088 1.09.875 2.517 1.749 3.171.999.748.72 1.747-.749 2.689-1.286.825-1.958 1.879-1.493 2.342.845.843 6.751 2.16 10.681 2.383 1.173.067 1.579.928.931 1.973-.772 1.247-.282 1.523 1.496.843 1.727-.662 2.645-.205 2.645 1.316 0 1.28-.715 2.328-1.589 2.328s-1.442.536-1.261 1.19c.181.654-1.795 3.402-4.391 6.106-3.815 3.975-5.241 4.59-7.439 3.207-2.137-1.345-3.229-1.04-5.096 1.425-1.307 1.724-2.4 4.741-2.427 6.703-.039 2.712-.982 3.568-3.931 3.568-2.134 0-4.322-.713-4.863-1.586-1.462-2.36-3.505-1.92-4.626.995-1.229 3.194 3.575 7.12 7.333 5.993 1.953-.585 3.626.986 6.005 5.637 3.61 7.057 2.704 11.207-3.125 14.319-1.959 1.045-2.722 2.586-2.093 4.223.913 2.373 1.142 2.37 2.898-.025 1.049-1.43 3.437-2.6 5.308-2.6s3.401-.762 3.401-1.693c0-1.973 6.625-.286 8.147 2.076.625.969 1.386.908 2.05-.163 1.35-2.18 12.494-1.864 13.972.397 1.314 2.01-4.689 8.896-7.755 8.896-2.62 0-2.784 2.682-.215 3.536 1.177.392 2.053 5 2.318 12.196.234 6.362 1.192 13.882 2.128 16.713.937 2.83 1.981 6.588 2.322 8.351.34 1.764 1.334 5.793 2.209 8.954 1.508 5.447 1.393 5.747-2.214 5.747-4.736 0-8.571 6.778-8.924 15.774-.215 5.473-.59 6.103-2.633 4.422-2.07-1.705-2.264-1.081-1.481 4.777.656 4.906.344 6.739-1.147 6.739-3.417 0-4.144 6.726-1.172 10.832 1.5 2.073 4.516 7.077 6.702 11.121 3.959 7.325 9.537 10.783 9.537 5.912 0-1.372 1.157-2.495 2.57-2.495 1.752 0 2.316.969 1.772 3.045-.595 2.268.271 3.346 3.391 4.224 2.304.649 4.8 1.038 5.546.865.746-.174 2.714.114 4.372.639 3.568 1.13 4.069 5.498.63 5.498-1.312 0-2.385 1.33-2.385 2.957 0 4.258 6.051 11.313 9.703 11.313 3.728 0 5.752 4.246 3.225 6.766-.99.988-1.8 4.408-1.8 7.6 0 4.274 1.004 6.556 3.813 8.659 3.625 2.716 3.706 3.156 1.66 8.943-1.714 4.845-1.742 6.087-.137 6.087 2.641 0 8.97 14.555 8.97 20.628 0 6.235-4.098 6.302-9.907.162-2.384-2.519-7.377-6.162-11.097-8.096-13.253-6.891-37.811-29.508-37.811-34.823 0-4.227-3.321-11.169-5.342-11.169-1.002 0-.901-.749.255-1.903 2.821-2.814 2.459-19.451-.477-21.881-1.311-1.086-2.384-3.272-2.384-4.858 0-1.586-.75-3.346-1.667-3.911-1.162-.716-1.159-1.637.007-3.04 1.195-1.435.887-4.133-1.075-9.412-2.288-6.158-2.407-7.946-.711-10.655 2.314-3.696 1.348-5.555-6.62-12.739-2.872-2.588-4.638-5.759-4.638-8.324 0-4.782-2.293-5.37-5.338-1.369-2.947 3.873-2.715 6.333.967 10.276 1.8 1.927 3.179 5.595 3.179 8.456 0 2.779.437 7.231.97 9.893.782 3.898.465 4.767-1.628 4.46-1.429-.209-3.695-1.941-5.035-3.849-2.815-4.009-5.434-4.535-5.434-1.091 0 1.308-1.14 2.378-2.533 2.378-1.394 0-2.908 1.428-3.365 3.172-.457 1.744-1.407 3.171-2.109 3.171-2.254 0-3.512 9.511-1.568 11.848 1.009 1.212 2.244 6.356 2.745 11.43.501 5.075 1.936 11.253 3.19 13.73 2.19 4.326 2.399 4.394 5.344 1.736 1.795-1.621 3.064-2.003 3.064-.924 0 1.013-1.788 3.392-3.974 5.288-2.185 1.896-3.973 4.436-3.973 5.646 0 1.446-1.044 1.869-3.046 1.235-1.675-.53-3.464-.288-3.976.537-.511.826-2.36 1.129-4.107.673-2.21-.577-3.178-.048-3.178 1.734 0 1.41-.536 2.479-1.192 2.376-4.726-.745-6.927.644-7.782 4.909-.974 4.857-3.152 7.346-9.078 10.373-1.874.957-3.304 2.972-3.177 4.478.159 1.893-.334 2.271-1.597 1.225-1.242-1.028-3.718.216-7.724 3.878-8.918 8.152-11.295 12.519-10.144 18.639.546 2.9.453 5.811-.206 6.468-.658.657-1.326 4.747-1.483 9.088-.158 4.341-1.051 8.812-1.986 9.936-.934 1.123-1.629 6.697-1.543 12.387.085 5.69-.637 11.821-1.605 13.625-.968 1.805-1.76 5.07-1.76 7.256s-.716 4.416-1.59 4.955c-.874.539-1.59 2.365-1.59 4.057 0 2.349 1.108 3.078 4.675 3.078 2.572 0 5.114-.708 5.65-1.574.539-.869 2.693.373 4.813 2.775 3.076 3.486 3.847 3.798 3.887 1.574.061-3.371 3.23-3.76 3.23-.397a2.388 2.388 0 0 0 2.384 2.379 2.388 2.388 0 0 0 2.385-2.379 2.388 2.388 0 0 1 2.384-2.378c2.716 0 3.234-4.046.718-5.597-3.089-1.904 1.951-5.839 6.345-4.954 9.634 1.941 14.551 3.493 14.502 4.578-.029.64 2.501 3.71 5.622 6.824 3.57 3.561 5.324 6.573 4.729 8.12-1.256 3.263 2.05 13.99 5.424 17.603 1.478 1.582 4.6 6.676 6.939 11.321 4.239 8.418 4.25 8.533 3.539 37.203-.753 30.384-1.182 35.632-3.169 38.84-.679 1.096-.815 3.658-.303 5.694 1.203 4.782-4.461 17.612-9.947 22.532-3.496 3.135-5.319 3.611-10.919 2.853l-6.722-.91-1.032 6.434c-.819 5.111-1.706 6.435-4.311 6.435-3.125 0-3.143-.1-.377-2.117zm76.53-78.873c-2.398-2.684-3.969-5.895-3.492-7.135.477-1.24.227-2.255-.556-2.255-1.622 0-6.425-8.976-6.425-12.007 0-1.103-2.419-3.497-5.376-5.32-2.957-1.823-6.313-5.627-7.457-8.453-1.144-2.827-4.509-8.351-7.478-12.275-2.969-3.924-6.373-9.454-7.563-12.288-1.445-3.437-3.252-5.154-5.426-5.154-3.262 0-9.619-5.111-9.619-7.734 0-.765-1.073-2.279-2.384-3.365-1.311-1.086-2.384-3.079-2.384-4.43 0-1.351-1.224-3.804-2.719-5.452-2.114-2.33-2.27-3.273-.703-4.239 2.835-1.748.541-9.882-3.051-10.819-1.648-.43-2.485-1.677-1.99-2.965 1.326-3.446 3.616-2.633 5.342 1.896.863 2.264 2.991 4.488 4.729 4.941 1.738.454 3.16 1.834 3.16 3.068s1.252 2.688 2.782 3.233c4.871 1.732 6.899 3.964 5.324 5.86-1.889 2.275 2.321 7.449 8.188 10.063 2.404 1.071 4.371 2.676 4.371 3.567s.784 1.619 1.743 1.619c.958 0 6.144 3.852 11.524 8.56 5.38 4.707 12.286 9.644 15.346 10.97l5.563 2.41-7.6.13c-9.251.157-10.222 1.933-6.703 12.27 3.536 10.388 8.437 17.975 11.651 18.036 1.459.028 4.046 1.102 5.748 2.386 1.703 1.285 4.266 1.965 5.696 1.512 3.445-1.09 7.528 7.006 4.48 8.885-1.096.675-2.64.829-3.43.342-.791-.488-.468-1.5.718-2.25 1.587-1.003 1.632-1.369.17-1.387-3.43-.042-8.112 5.72-6.592 8.113 3.93 6.188.03 5.955-5.587-.333zm-7.168-5.294c-.069-1.671.307-2.608.835-2.081.528.527.585 1.894.126 3.039-.508 1.265-.885.889-.961-.958zm44.383-6.781c0-4.509.783-6.789 2.565-7.471 2.188-.838 2.404-.105 1.466 4.983-1.609 8.737-4.031 10.232-4.031 2.488zm5.873-11.013c-2.237-2.232-1.196-16.054 1.28-17.002 1.312-.502 2.385-2.006 2.385-3.341 0-1.336.715-2.428 1.59-2.428 2.167 0 2.001 1.8-.78 8.438-1.302 3.11-1.958 6.722-1.456 8.026 1.066 2.772-1.399 7.923-3.019 6.307zm8.545-31.795c-.061-2.783.604-5.501 1.478-6.04 1.907-1.175 1.907 3.503 0 7.928-1.151 2.674-1.383 2.377-1.478-1.888zm4.908-24.274c0-2.181.361-3.072.802-1.982.441 1.09.441 2.874 0 3.964-.441 1.09-.802.198-.802-1.982zm-158.415-7.928c-.541-.872-.225-1.586.701-1.586.925 0 1.683.714 1.683 1.586 0 .872-.315 1.585-.701 1.585-.386 0-1.143-.713-1.683-1.585zm152.552-20.693c-1.46-2.356-.299-3.191 2.252-1.618 1.366.843 1.529 1.66.461 2.318-.907.559-2.128.244-2.713-.7zm-2.335-11.02c0-.872.715-1.585 1.589-1.585s1.59.713 1.59 1.585-.716 1.586-1.59 1.586a1.592 1.592 0 0 1-1.589-1.586zm-1.722-8.721c-.135-.872-.15-2.149-.035-2.839.115-.689-.482-2.542-1.327-4.117-1.041-1.941-.945-3.454.297-4.693 2.286-2.281 4.924-2.41 3.538-.173-.564.91-.307 2.518.57 3.572 1.087 1.306.895 3.179-.602 5.877-1.208 2.177-2.307 3.246-2.441 2.373zM829.755 241.16c0-.384.715-1.14 1.59-1.679.874-.539 1.589-.224 1.589.699 0 .924-.715 1.68-1.589 1.68-.875 0-1.59-.315-1.59-.7zm-489.596-72.239c0-2.616.716-4.757 1.59-4.757.874 0 1.59 2.141 1.59 4.757 0 2.616-.716 4.757-1.59 4.757-.874 0-1.59-2.141-1.59-4.757zm220.278-6.15c-.492-.795.174-1.855 1.48-2.355 1.307-.5 2.375-.26 2.375.533 0 2.15-2.824 3.484-3.855 1.822zm-156.466-6.387c-1.599-.991-1.675-1.634-.292-2.487 2.182-1.344 3.819-.154 3.012 2.189-.331.96-1.453 1.083-2.72.298zm-70.614-4.771c-3.441-4.084-4.017-5.728-2.605-7.426 2.37-2.847.498-10.149-2.601-10.149-1.879 0-2.052-.667-.785-3.029 1.021-1.902 2.732-2.739 4.605-2.25 1.811.472 4.715-.827 7.406-3.315 5.087-4.703 6.919-4.993 11.208-1.779 2.966 2.223 2.816 2.555-3.86 8.531-6.286 5.629-7.041 7.095-7.948 15.441l-1.002 9.222-4.418-5.246zm-39.826-1.191c-1.845-1.84-1.159-3.535 2.143-5.298 2.553-1.363 3.406-1.181 4.206.897 1.327 3.45-3.765 6.979-6.349 4.401zm370.516-19.952c-1.838-4.985 2.593-7.437 9.003-4.984 3.601 1.379 3.112 3.014-1.535 5.126-5.153 2.342-6.563 2.315-7.468-.142zm-309.581-7.532c-1.154-2.15-1.172-3.171-.056-3.171.905 0 1.466-.892 1.248-1.982-.222-1.107.83-1.776 2.384-1.516 1.53.256 2.782-.192 2.782-.997 0-.804 2.146-2.349 4.769-3.433 2.623-1.084 4.769-2.442 4.769-3.018 0-.576 1.846-1.2 4.102-1.386 2.256-.186 5.259-.984 6.672-1.773 1.534-.856 4.099-.855 6.364.004 2.086.791 4.48 1.016 5.319.498.839-.517 2.581-.067 3.87 1 1.554 1.287 5.313 1.636 11.148 1.035 6.899-.71 8.999-.4 9.705 1.435.495 1.288.444 2.797-.114 3.353-1.533 1.529-16.579 3.179-18.454 2.023-.901-.556-5.383-.385-9.959.379-4.577.765-10.355 1.593-12.84 1.84-2.486.247-4.989 1.098-5.564 1.89-.574.793-2.832 1.633-5.018 1.868-2.186.234-4.768 1.483-5.739 2.774-2.344 3.119-3.357 2.964-5.388-.823zm303.613 2.472c0-.384.715-1.14 1.589-1.679.874-.539 1.59-.224 1.59.699 0 .924-.716 1.68-1.59 1.68-.874 0-1.589-.315-1.589-.7zm-614.676-2.8c-.877-1.128-2.04-3.299-2.586-4.825-.582-1.628-2.616-2.775-4.922-2.775-2.161 0-4.39-.742-4.952-1.649-.662-1.069.422-1.288 3.086-.621 3.392.849 4.107.476 4.107-2.145 0-5.723 7.806-5.669 7.924.055.013.654 1.14 1.189 2.504 1.189 1.894 0 2.364 1.404 1.987 5.933-.519 6.244-4.146 8.699-7.148 4.838zm600.795-1.933c-3.882-1.792-7.175-9.147-5.752-12.847 1.068-2.777 2.829-2.93 7.157-.619 3.778 2.017 5.936.642 3.23-2.058-3.028-3.02-2.265-3.602 5.157-3.935 7.106-.318 11.759 2.463 9.695 5.795-1.612 2.603-6.86 1.935-8.799-1.12-1.19-1.876-1.561-2.004-1.145-.396.338 1.308 2.194 3.17 4.125 4.139l3.51 1.761-4.431 2.952c-2.436 1.624-5.054 2.764-5.817 2.535-.763-.23-.987.623-.498 1.894 1.165 3.029-1.975 3.956-6.432 1.899zm-127.713-9.788c1.814-3.376 3.299-7.041 3.299-8.144 0-1.103.715-2.005 1.589-2.005.875 0 1.59.713 1.59 1.585s.766 1.586 1.703 1.586c2.768 0 6.621 4.664 5.741 6.95-.447 1.162-2.841 2.554-5.32 3.093-2.48.539-6.172 1.451-8.204 2.027l-3.696 1.047 3.298-6.139zm-12.995-6.299c-5.434-2.941-5.841-8.986-.838-12.481 4.511-3.152 6.606-3.147 5.39.014-.723 1.88-.218 2.248 2.08 1.52 3.632-1.15 5.631 1.448 3.995 5.19-.649 1.485-1.025 3.948-.836 5.474.426 3.434-3.745 3.554-9.791.283zm163.578-5.062c-.912-1.504 2.242-4.253 5.317-4.633 1.311-.162 4.167-.825 6.345-1.474 3.841-1.144 3.886-1.069 1.51 2.5-2.388 3.589-11.645 6.123-13.172 3.607zM493.82 93.34c-1.93-1.926-1.098-3.615 1.325-2.687 1.311.501 2.384 1.55 2.384 2.328 0 1.663-2.189 1.875-3.709.36zm3.136-6.075c-1.257-3.266 1.541-8.724 4.471-8.724 1.208 0 2.515-.892 2.906-1.982.947-2.647 2.268-1.266 3.415 3.57 1.183 4.984-.379 7.392-5.648 8.71-3.037.761-4.407.342-5.144-1.574zm280.342-7.761c0-.343 1.073-1.034 2.385-1.536 1.311-.502 2.384-.222 2.384.623s-1.073 1.536-2.384 1.536c-1.312 0-2.385-.28-2.385-.623zM421.938 57.79c-.587-.948-.445-2.346.317-3.105 1.88-1.876 6.017.854 4.647 3.066-1.388 2.24-3.589 2.258-4.964.039zm8.828.138c0-.872 1.473-1.586 3.273-1.586 1.801 0 2.831.714 2.291 1.586-.54.872-2.013 1.586-3.273 1.586-1.26 0-2.291-.714-2.291-1.586zm-13.5-11.081c-.557-.899.081-1.165 1.496-.623 2.754 1.054 3.258 2.19.971 2.19-.823 0-1.933-.705-2.467-1.567zm-19.086-6.36c-4.899-1.244-3.989-1.785 3.47-2.062 2.346-.087 4.552.698 4.901 1.744.697 2.085-1.134 2.154-8.371.317zm-2.915-5.815c-.583-.581-1.059-1.585-1.059-2.23 0-1.524 6.145.076 7.271 1.893 1 1.613-4.626 1.919-6.212.337zm390.256-6.11c-2.649-5.798-2.324-8.332 1.315-10.274 3.51-1.874 3.629-1.638 3.21 6.342-.387 7.359-2.229 8.96-4.525 3.933z" stroke="#E26D5C" stroke-width="2" mask="url(#a)"/>
</svg>
