<svg width="1446" height="787" viewBox="0 0 1446 787" fill="none" xmlns="http://www.w3.org/2000/svg">
    <mask id="a" fill="#fff">
        <path d="M1240.43 783.752c4.25-3.108 4.27-3.791.28-15.764-2.28-6.884-6.1-14.917-8.48-17.852-3.77-4.646-3.91-6.147-1.07-11.602 1.79-3.446 4.36-6.402 5.72-6.57 1.36-.167 4.53-.441 7.05-.608 5.55-.367 8.28-9.066 4.86-15.448-1.75-3.281-1.61-5.667.5-8.203 3.01-3.631 2.93-3.982-5.11-20.963-2.39-5.044-2.46-7.413-.3-10.016 2.19-2.637 2-4.1-.85-6.462-2.02-1.679-3.68-5.655-3.68-8.836s-.83-5.784-1.85-5.784c-2.12 0-9.13 10.204-8.52 12.422.22.812-2.32 2.928-5.64 4.703-3.32 1.775-6.67 5.763-7.45 8.863-.78 3.099-2.32 5.635-3.42 5.635-1.09 0-3.57 1.577-5.5 3.504-5.12 5.109-12.73 2.086-17.63-6.999-3.04-5.646-6.1-8.013-10.61-8.207-3.49-.151-10.5-.679-15.58-1.174-5.09-.495-9.76-.057-10.4.974-1.71 2.757-10.52.526-17.53-4.436-8.68-6.144-10.89-7.411-16.4-9.363-4.62-1.639-4.58-1.802.83-3.234l5.69-1.507-6.3-6.797c-3.47-3.738-6.31-7.835-6.31-9.104 0-1.269-1.14-2.307-2.54-2.307-1.4 0-5.51-2.791-9.13-6.201-6.17-5.803-7.76-6.119-24.85-4.935-26.19 1.814-29.22 2.338-29.25 5.054-.02 1.338-3.85 4.906-8.52 7.928-9.66 6.248-10.65 10.236-3.62 14.617 5.44 3.397 6.62 14.869 1.99 19.488-1.58 1.584-2.98 10.252-3.11 19.339-.21 14.502-1.05 17.331-7.03 23.689l-6.79 7.22-10.76-3.865c-8.82-3.171-11.522-3.308-15.009-.76-3.471 2.536-5.465 2.479-10.862-.309-5.942-3.07-7.486-2.899-15.279 1.695-4.768 2.811-9.303 7.63-10.076 10.709-.993 3.95-3.758 6.04-9.389 7.095-4.39.823-9.923 3.638-12.294 6.256-2.372 2.618-5.438 4.066-6.813 3.217-1.376-.85-8.806-1.317-16.512-1.039-11.653.42-14.844-.388-18.957-4.798-3.219-3.451-6.703-4.844-9.979-3.988-3.386.884-5.847-.206-7.521-3.331-3.114-5.813-20.344-6.382-30.65-1.012-3.835 1.999-9 3.64-11.476 3.649-5.101.017-18.63-13.362-18.63-18.424 0-3.617-12.044-10.752-18.149-10.752-6.03 0-21.805-9.331-23.651-13.989-1.37-3.458-1.718-3.182-1.857 1.476-.094 3.151-2.91 8.982-6.258 12.957-6.333 7.518-7.991 18.574-3.464 23.097 1.874 1.872.819 4.422-3.694 8.931-5.126 5.121-7.801 6.03-14.189 4.821-4.33-.819-9.194-2.524-10.809-3.789-1.615-1.265-3.934-1.684-5.153-.931-2.513 1.551-8.648-4.83-11.003-11.443-1.168-3.283-3.601-4.217-9.501-3.649-4.361.42-9.026-.55-10.365-2.156-1.866-2.237-5.563-1.731-15.827 2.169-7.365 2.798-16.508 4.969-20.318 4.823-4.963-.189-6.559.69-5.632 3.103 1.447 3.767-2.366 5.703-15.233 7.737-4.803.759-9.488 1.843-10.411 2.408-.924.566-4.211-1.66-7.305-4.946-3.385-3.595-8.99-6.281-14.071-6.742-7.179-.653-8.784-1.953-10.701-8.673-1.24-4.348-3.74-7.906-5.555-7.906-2.048 0-3.3-2.785-3.3-7.337 0-5.994-1.565-8.082-8.547-11.408-6.092-2.902-9.298-3.321-11.162-1.459-4.124 4.12-11.804.775-15.758-6.863-3.815-7.37-10.797-9.53-10.797-3.339a3.66 3.66 0 0 1-3.652 3.648c-2.861 0-3.652-3.329-3.652-15.369 0-8.454-1.719-21.15-3.818-28.214-2.1-7.064-3.311-13.351-2.691-13.971.62-.619-1.496-3.955-4.704-7.413-7.221-7.783-7.27-9.412-.353-11.629 4.762-1.525 4.222-2-4.132-3.627-6.923-1.348-10.536-.947-12.921 1.436-3.329 3.325-12.59 3.198-20.893-.288-3.486-1.464-3.756-2.312-1.229-3.873 2.541-1.568 2.192-2.786-1.622-5.665-2.672-2.017-6.193-3.702-7.825-3.745-1.632-.042-2.337-1.719-1.566-3.726 1.025-2.668-.304-3.649-4.946-3.649-6.064 0-8.485-4.351-4.588-8.245.969-.967 2.002-5.528 2.297-10.135.439-6.858-.322-8.377-4.195-8.377-2.602 0-6.864-2.13-9.469-4.733-3.791-3.788-6.207-4.313-12.087-2.628-8.022 2.298-29.839-1.579-55.005-9.775-8.036-2.617-16.167-4.758-18.071-4.758-1.903.001-5.395-1.748-7.76-3.886-2.364-2.138-5.333-3.249-6.597-2.469-3.746 2.314-5.107 14.579-2.054 18.519 2.44 3.148 2.262 3.206-1.299.421-6.487-5.072-15.471-2.735-14.773 3.843.656 6.177-5.916 7.587-11.299 2.425-2.591-2.484-2.926-1.26-1.831 6.689 2.93 21.278 2.904 21.722-1.331 22.581-2.278.461-6.513-1.885-9.41-5.214-2.898-3.329-6.611-5.539-8.252-4.91-3.877 1.487-7.947-3.58-9.008-11.215-.517-3.718-2.713-6.414-5.686-6.981-2.665-.507-6.339-3.055-8.166-5.661-1.866-2.661-4.897-4.134-6.915-3.36-1.977.757-6.246.712-9.488-.101-4.499-1.128-5.893-3.107-5.893-8.368 0-8.424-3.685-11.241-7.068-5.404-1.901 3.279-2.304 1.527-1.689-7.333.656-9.455-.061-12.105-3.817-14.114-2.544-1.36-4.461-3.784-4.26-5.386.899-7.157-.502-9.261-5.689-8.54-4.093.568-5.673-.6-6.245-4.619-.681-4.784-1.825-5.231-10.348-4.04-5.626.786-9.583.34-9.583-1.079 0-1.33-4.656-2.184-10.348-1.897-8.457.426-10.486 1.457-11.099 5.645-.414 2.818-2.372 5.745-4.354 6.504-3.978 1.525-7.082-3.989-5.121-9.096 2.364-6.154-1.784-8.623-12.154-7.234-7.879 1.056-10.417 2.569-11.493 6.851-1.418 5.644-11.173 10.279-11.173 5.308 0-1.51-1.739-.266-3.864 2.765-2.946 4.201-3.203 6.306-1.082 8.859 2.154 2.593 1.79 3.905-1.615 5.818-4.131 2.322-4.053 2.792 1.291 7.783 3.881 3.625 5.245 6.958 4.294 10.496-.766 2.852-1.408 6.553-1.426 8.225-.018 1.673-1.677 3.041-3.685 3.041-4.401 0-4.887 8.681-.634 11.307 6.785 4.189-9.441 4.726-19.177.634-8.813-3.704-10.886-3.81-16.605-.846-3.594 1.863-7.28 3.283-8.191 3.156-7.783-1.089-10.224.77-9.718 7.399.296 3.881-.853 8.73-2.554 10.777-2.564 3.087-2.289 4.151 1.616 6.238 2.588 1.384 5.398 1.825 6.244.98.846-.844 1.538-.259 1.538 1.302 0 1.68-3.896 2.838-9.546 2.838-10.347 0-9.72-1.024-13.774 22.501-1.187 6.894-2.734 9.122-6.33 9.122-10.142 0-14.179-4.485-14.179-15.753 0-5.895-1.166-11.438-2.593-12.319-1.426-.88-2.406-4.502-2.177-8.049 1.087-16.839-.097-21.024-7.067-24.985-5.72-3.25-7.17-6.01-8.268-15.732-.731-6.484-2.556-12.198-4.055-12.697-3.66-1.219-9.928-13.638-9.928-19.67 0-2.666-2.074-6.298-4.608-8.072-3.94-2.756-4.821-7.556-6.077-33.09L0 441.356l5.88 6.338c5.182 5.587 6.48 5.963 10.946 3.177 4.07-2.54 6.023-2.564 9.936-.123 4.372 2.728 4.87 2.43 4.87-2.92 0-3.277 1.096-6.635 2.435-7.461 1.339-.827 2.443-.618 2.454.464.019 1.97 11.405 8.049 15.076 8.049 3.677 0 1.95-7.055-2.312-9.445-3.766-2.112-3.814-2.562-.42-3.869 4.79-1.845 16.856 2.537 16.856 6.121 0 3.55 10.358.282 12.904-4.072 1.07-1.831 3.536-3.33 5.478-3.33 1.943 0 3.532-.967 3.532-2.149 0-1.181 2.191-2.721 4.87-3.421 6.013-1.57 6.636-14.097 1.218-24.476-1.992-3.815-2.989-9.455-2.216-12.532 1.18-4.693.242-5.851-5.81-7.179-6.22-1.365-7.136-2.586-6.643-8.852.315-3.997 2.922-9.455 5.794-12.128 6.234-5.803 6.343-6.855 1.427-13.866-3.584-5.111-3.452-5.542 2.367-7.752 3.652-1.388 6.834-5.019 7.814-8.917 1.388-5.528.2-7.905-7.463-14.92l-9.115-8.345 6.77-7.058c8.006-8.349 9.734-8.681 11.432-2.193.934 3.567 3.321 4.865 8.95 4.865 4.99 0 7.094-.942 6.011-2.692-2.335-3.775 3.706-21.77 9.494-28.281 2.656-2.987 6.847-6.071 9.313-6.853 4.672-1.481 6.319-11.838 2.279-14.332-1.214-.749-1.666-3.427-1.006-5.95.661-2.524.01-5.324-1.446-6.223-3.953-2.44-3.194-8.644 1.058-8.644 2.037 0 4.953-2.737 6.478-6.082 1.525-3.344 4.241-6.081 6.035-6.081 1.794 0 3.262-1.056 3.262-2.347s2.357-3.607 5.239-5.148c4.462-2.386 5.015-2.218 3.728 1.131-2.013 5.243 2.115 5.023 6.113-.325 1.75-2.342 8.438-6.731 14.862-9.755 12.695-5.974 18.724-4.869 23.656 4.337 4.367 8.153 7.447 5.529 5.775-4.921-1.083-6.76-.676-9.73 1.332-9.73 1.589 0 2.14-1.212 1.224-2.693-1.087-1.757-.08-2.194 2.9-1.257 9.68 3.044 31.257 6.383 41.248 6.383 10.445 0 19.557-5.412 16.751-9.948-2.597-4.198 1.548-11.631 6.946-12.457 2.95-.451 5.089-2.162 4.755-3.802-.335-1.641 1.582-2.983 4.261-2.983 3.007 0 4.877-1.628 4.888-4.257.019-4.101 9.815-10.338 16.238-10.338 1.711 0 5.038-3.011 7.394-6.69 5.907-9.224 10.607-12.596 17.743-12.73 8.528-.161 11.314-2.543 13.214-11.298 1.392-6.412 3.028-7.831 10.41-9.028 6.438-1.043 10.51-.174 15.365 3.28 3.634 2.584 7.148 4.158 7.811 3.496.662-.662 2.66.549 4.438 2.69 2.117 2.548 2.373 4.459.742 5.532-3.271 2.152-5.874 12.585-3.14 12.585 1.167 0 3.437 2.454 5.044 5.454 3.591 6.704 2.955 57.502-.776 61.994-1.404 1.69-6.65 4.299-11.659 5.798-7.5 2.245-10.152 2.041-15.04-1.159-8.902-5.827-16.801-30.461-16.722-52.152.025-6.944-4.13-4.805-7.807 4.018-3.488 8.37-3.65 9.018-4.011 16.02-.199 3.87-2.199 6.491-5.783 7.577-9.426 2.855-16.435 11.079-16.435 19.282 0 4.181-1.315 8.916-2.922 10.522-1.923 1.921-2.02 2.919-.284 2.919 1.451 0 3.211 2.189 3.911 4.865 1.422 5.432 7.689 6.499 10.717 1.824 1.083-1.672 1.97-5.753 1.97-9.069 0-3.762 1.576-6.339 4.193-6.854 3.348-.66 4.131.83 3.884 7.395-.622 16.527 10.829 24.723 15.568 11.142 2.55-7.306 2.648-7.34 16.151-5.655 8.211 1.025 14.759 3.285 16.552 5.713 1.66 2.249 1.963 4.377.687 4.834-3.822 1.367.155 5.265 5.373 5.265 5.861 0 10.996-4.669 12.228-11.118.501-2.627 3.275-5.033 6.301-5.464 2.973-.424 7.508-3.442 10.079-6.707 2.955-3.754 6.106-5.387 8.571-4.442 4.565 1.75 4.747 3.288 1.421 12.026-1.873 4.923-3.236 5.873-5.605 3.909-5.488-4.551-13.249-.585-14.417 7.367-1.398 9.514 4.014 15.13 12.534 13.007 15.215-3.792 34.973-2.078 41.03 3.56 3.034 2.824 5.821 3.837 6.69 2.432.819-1.324 3.786-2.407 6.593-2.407 4.933 0 4.958.16.738 4.819-3.658 4.038-3.848 5.444-1.167 8.67 1.951 2.349 5.273 3.331 8.517 2.518 3.362-.844 6.769.269 9.267 3.026 2.458 2.714 6.802 4.163 11.505 3.838 6.797-.47 7.412.049 6.127 5.165-1.212 4.823-.58 5.598 4.158 5.093 8.044-.857 11.467-3.551 11.467-9.024 0-8.72 6.761-7.94 15.748 1.816 8.522 9.251 12.639 17.074 10.244 19.466-.68.68.897 3.368 3.506 5.974 2.609 2.606 5.394 7.988 6.189 11.96.795 3.972 2.818 7.222 4.495 7.222 5.014 0 9.035-6.7 7.299-12.163-.896-2.819-.308-6.678 1.314-8.631 2.071-2.492 2.13-3.532.202-3.532-4.299 0-3.202-7.151 2.136-13.931 2.679-3.402 4.87-8.774 4.87-11.938 0-4.082 1.379-5.753 4.747-5.753 2.61 0 9.966-4.926 16.346-10.947 6.379-6.02 11.842-10.946 12.139-10.946.297 0 3.351 1.068 6.786 2.372 8.435 3.204 8.121 11.396-.845 22.045-5.144 6.111-6.753 10.148-5.862 14.713.761 3.9-.247 7.764-2.65 10.165-2.132 2.13-3.877 4.84-3.877 6.022 0 1.182-2.214 6.727-4.92 12.322-3.105 6.421-4.357 12.413-3.394 16.246 1.103 4.388.402 6.504-2.525 7.626-2.227.854-3.46 3.088-2.739 4.965.808 2.104-1.006 4.293-4.73 5.707-3.323 1.262-6.041 3.336-6.041 4.609 0 1.273-3.544 4.081-7.875 6.24-7.327 3.651-8.089 3.631-10.957-.287-1.695-2.316-3.082-3.321-3.082-2.233 0 1.089-1.644.617-3.653-1.049-2.211-1.833-3.652-2.029-3.652-.496 0 6.197 3.623 10.657 11.238 13.835 7.405 3.091 9.29 2.952 19.179-1.418 14.31-6.324 24.246-15.704 24.86-23.469.646-8.179 3.272-10.496 9.926-8.758 6.225 1.627 9.887 11.941 5.718 16.106-3.396 3.393-3.63 13.93-.308 13.93 1.339 0 4.734 2.298 7.545 5.105l5.11 5.106-1.812-5.704c-.997-3.137-3.556-6.978-5.687-8.534-3.523-2.574-3.49-3.255.354-7.499 2.326-2.567 4.229-7.036 4.229-9.931 0-6.369-9.142-17.449-14.44-17.5-2.102-.021-5.234-.932-6.96-2.026-3.925-2.488-.192-13.581 7.237-21.504 3.583-3.822 4.718-7.66 4.023-13.605-.963-8.248 2.301-13.911 8.019-13.911 1.626 0 5.233-1.915 8.017-4.257 4.93-4.146 4.964-4.131 1.278.609-2.081 2.675-4.08 8.409-4.442 12.74-.537 6.426.496 8.401 5.61 10.729 3.447 1.569 6.268 3.772 6.268 4.895 0 1.123 1.609 2.042 3.576 2.042 4.589 0 2.074-7.308-4.025-11.692-5.349-3.846-5.828-10.201-.769-10.201 2.009 0 3.653 1.095 3.653 2.433 0 1.338 1.771 2.432 3.936 2.432 2.689 0 3.547-1.486 2.708-4.693-.899-3.432-.039-4.604 3.199-4.36 2.436.183 3.892 1.201 3.236 2.261-.656 1.06.495 1.927 2.557 1.927 2.063 0 4.44 2.746 5.283 6.103.929 3.698 3.825 6.677 7.351 7.561 7.09 1.778 7.528 4.782.948 6.501-3.325.869-4.869 3.318-4.869 7.725 0 4.073.987 5.843 2.678 4.799 1.589-.981 1.379.691-.518 4.114-1.757 3.171-2.847 6.861-2.422 8.199.924 2.906 2.251 9.012 2.51 11.554.274 2.678 7.491 2.23 7.491-.464 0-1.259-1.054-2.94-2.342-3.735-1.499-.926-1.499-3.66 0-7.6 1.288-3.384 2.342-9.438 2.342-13.452 0-4.015 1.198-9.534 2.661-12.266 1.924-3.591 1.924-5.702 0-7.624-1.463-1.462-2.661-4.234-2.661-6.16 0-1.926-1.631-4.717-3.624-6.203-2.602-1.939-3.208-5.217-2.149-11.622l1.476-8.922 16.757.408c11.814.288 16.757 1.33 16.758 3.534.001 2.3 1.205 2.483 4.553.693 3.448-1.844 4.42-4.786 4.005-12.123-.368-6.518.584-10.123 2.907-11.014 1.9-.728 2.847-2.306 2.104-3.507-1.93-3.119 13.762-10.014 22.792-10.014 4.528 0 8.19-1.481 9.023-3.649 1.558-4.056 8.185-5.041 8.185-1.216 0 1.338 1.973 2.432 4.385 2.432 5.441 0 17.485-5.437 17.51-7.905.011-1.004 2.569-1.825 5.685-1.825 4.854 0 5.519-1 4.639-6.985-1.303-8.871 10.434-21.343 15.855-16.848 2.68 2.222 2.704 3.106.131 4.767-2.529 1.632-2.431 2.516.494 4.434 2.008 1.317 5.022 2.412 6.696 2.433 1.674.02 3.043 2.226 3.043 4.902 0 5.687 4.388 6.518 6.424 1.216 2.171-5.65 12.933-4.319 22.204 2.745 6.445 4.911 7.627 6.895 5.099 8.56-2.676 1.762-2.494 2.776.971 5.429 6.12 4.686 5.346 7.988-4.24 18.092-4.676 4.928-8.511 10.094-8.522 11.482-.012 1.387-4.952 7.736-10.979 14.11-6.026 6.373-10.922 12.9-10.879 14.505.043 1.636 1.498 1.048 3.312-1.339 1.779-2.342 5.505-4.257 8.28-4.257 2.967 0 5.706-2.078 6.648-5.041.944-2.972 2.981-4.512 4.963-3.752 1.849.709 4.959-.307 6.911-2.257 4.612-4.607 12.73-4.549 14.517.103.771 2.007 2.596 3.649 4.057 3.649 1.46 0 2.052-.975 1.315-2.166-1.967-3.18 9.604-9.996 16.968-9.996 3.49 0 7.99 1.642 9.999 3.648 4.705 4.701 16.192 4.664 25.38-.083 6.161-3.183 6.844-4.444 4.637-8.564-3.58-6.682-.982-9.685 6.998-8.091 4.479.895 7.805.062 9.919-2.483 2.869-3.453 3.887-3.327 10.367 1.282 4.15 2.952 6.638 6.537 5.89 8.485-.743 1.932.232 3.373 2.28 3.373 4.093 0 4.784 3.832 1.101 6.106-3.56 2.198-.119 6.638 3.939 5.083 2.216-.85 3.406.388 3.406 3.543 0 3.003 2.548 5.892 6.696 7.589 9.489 3.884 16.62 3.609 15.56-.6-.481-1.912-1.248-7.058-1.705-11.436-.697-6.683-.208-7.611 3.047-5.791 5.589 3.127 12.929.532 12.929-4.575 0-5.591 4.56-7.159 11.63-3.994 7 3.138 13.84-1.893 7.83-5.756-3.02-1.938-2.74-2.578 1.68-3.789 4.75-1.304 5.02-2.139 2.48-7.906-1.55-3.546-3.83-7.158-5.06-8.027-1.23-.868-1.35-3.605-.27-6.081 1.08-2.476 1.84-5.146 1.7-5.932-.14-.786 4.35-3.772 9.97-6.635 8.5-4.332 10.34-4.602 11-1.611.96 4.368 5.2 4.793 5.54.554.14-1.673 1.01-.304 1.94 3.04 2.62 9.429 6.26 7.188 7.1-4.372.61-8.571 1.85-10.871 6.85-12.771 8.96-3.401 11.16-2.866 9.51 2.31-1.36 4.275-.69 4.451 8.77 2.328 5.63-1.263 11.86-1.672 13.86-.908 3.99 1.531 15.04-7.551 15.04-12.365 0-1.671 2.83-6.406 6.3-10.523 5.24-6.222 8.07-7.484 16.78-7.484 7.07 0 10.94 1.188 11.89 3.649 3.01 7.855 21.94 1.845 20.89-6.635-.83-6.651 3.52-14.521 9.22-16.684 3.28-1.248 7.23-5.602 8.77-9.675 1.99-5.266 4.03-7.082 7.08-6.286 2.36.616 4.96.032 5.78-1.297.82-1.329 3.52-1.886 6-1.239 2.48.647 5.78-.352 7.33-2.221 4.03-4.85-1.43-10.695-9.99-10.695-9.59 0-10.6-5.817-2.51-14.47 3.81-4.082 6.44-7.422 5.82-7.422-.61 0 .87-3.513 3.29-7.805 6.67-11.84 16.09-19.327 38.49-30.587 4.01-2.02 9.15-5.262 11.41-7.204 2.26-1.942 5.16-2.883 6.44-2.09 1.28.792 3-.31 3.82-2.447.91-2.362 3.03-3.3 5.4-2.391 2.89 1.109 3.5.456 2.36-2.523-1.36-3.547.18-3.863 13.12-2.691 11.6 1.051 14.67.615 14.67-2.09 0-2.024-2.49-3.418-6.09-3.418-7.07 0-7.54-1.334-2.3-6.568 2.09-2.084 3.24-5.234 2.56-7-.71-1.846 1.04-3.916 4.12-4.87 2.95-.913 8.37-3.78 12.05-6.372 7.04-4.954 6.78-5.157 7.67 5.958.14 1.673 1.34 3.862 2.68 4.865 1.53 1.147 1.11 2.68-1.14 4.125-1.97 1.265-3 2.882-2.29 3.594 1.29 1.292 10.34 3.314 16.36 3.655 1.8.102 2.42 1.423 1.43 3.027-1.19 1.913-.44 2.337 2.29 1.292 2.64-1.014 4.05-.313 4.05 2.02 0 1.964-1.1 3.572-2.44 3.572-1.34 0-2.2.82-1.93 1.824.28 1.004-2.75 5.22-6.72 9.368-5.85 6.098-8.03 7.041-11.4 4.92-3.27-2.064-4.94-1.595-7.8 2.185-2.01 2.647-3.68 7.275-3.72 10.285-.06 4.16-1.51 5.473-6.02 5.473-3.27 0-6.62-1.095-7.45-2.433-2.24-3.62-5.37-2.947-7.09 1.526-1.88 4.9 5.48 10.923 11.23 9.194 3-.898 5.56 1.512 9.2 8.648 5.53 10.827 4.14 17.193-4.78 21.967-3 1.604-4.17 3.967-3.21 6.478 1.4 3.641 1.75 3.638 4.44-.037 1.61-2.195 5.26-3.99 8.13-3.99 2.87 0 5.21-1.169 5.21-2.597 0-3.027 10.15-.438 12.48 3.184.96 1.487 2.12 1.394 3.14-.25 2.07-3.344 19.14-2.858 21.4.61 2.01 3.084-7.18 13.648-11.88 13.648-4.01 0-4.26 4.114-.33 5.425 1.81.6 3.15 7.669 3.55 18.709.36 9.76 1.83 21.297 3.26 25.639 1.44 4.342 3.04 10.108 3.56 12.813s2.04 8.885 3.38 13.735c2.31 8.357 2.14 8.817-3.39 8.817-7.25 0-13.13 10.398-13.67 24.199-.33 8.396-.9 9.363-4.03 6.783-3.17-2.615-3.47-1.657-2.27 7.33 1.01 7.526.53 10.338-1.76 10.338-5.23 0-6.34 10.318-1.79 16.618 2.3 3.179 6.92 10.856 10.26 17.06 6.07 11.238 14.61 16.542 14.61 9.07 0-2.105 1.77-3.828 3.94-3.828 2.68 0 3.55 1.488 2.71 4.672-.91 3.479.42 5.132 5.2 6.48 3.53.995 7.35 1.592 8.49 1.326 1.15-.266 4.16.176 6.7.981 5.47 1.733 6.23 8.434.96 8.434-2 0-3.65 2.042-3.65 4.537 0 6.532 9.27 17.356 14.87 17.356 5.71 0 8.81 6.513 4.94 10.38-1.52 1.515-2.76 6.762-2.76 11.658 0 6.557 1.54 10.058 5.84 13.285 5.55 4.166 5.68 4.842 2.54 13.719-2.62 7.432-2.67 9.338-.21 9.338 4.05 0 13.74 22.329 13.74 31.646 0 9.565-6.28 9.668-15.17.249-3.66-3.864-11.3-9.454-17-12.421-20.3-10.571-57.92-45.268-57.92-53.423 0-6.484-5.09-17.134-8.18-17.134-1.54 0-1.38-1.149.39-2.919 4.32-4.317 3.76-29.841-.73-33.568-2.01-1.666-3.66-5.019-3.66-7.452s-1.14-5.133-2.55-6c-1.78-1.099-1.77-2.512.01-4.664 1.83-2.202 1.36-6.341-1.64-14.439-3.51-9.448-3.69-12.19-1.09-16.347 3.54-5.67 2.06-8.521-10.14-19.542-4.4-3.971-7.11-8.835-7.11-12.771 0-7.336-3.51-8.237-8.17-2.099-4.52 5.941-4.16 9.716 1.48 15.763 2.75 2.957 4.87 8.585 4.87 12.974 0 4.263.66 11.092 1.48 15.176 1.2 5.98.71 7.313-2.49 6.843-2.19-.321-5.66-2.979-7.71-5.906-4.32-6.15-8.33-6.957-8.33-1.673 0 2.007-1.74 3.649-3.88 3.649-2.13 0-4.45 2.189-5.15 4.865-.7 2.676-2.16 4.865-3.23 4.865-3.46 0-5.38 14.59-2.4 18.175 1.54 1.86 3.43 9.751 4.2 17.536.77 7.786 2.97 17.264 4.89 21.063 3.35 6.637 3.67 6.742 8.18 2.664 2.75-2.486 4.7-3.074 4.7-1.419 0 1.554-2.74 5.205-6.09 8.114-3.35 2.908-6.09 6.805-6.09 8.661 0 2.218-1.6 2.867-4.66 1.895-2.57-.813-5.31-.443-6.09.824-.79 1.267-3.62 1.731-6.3 1.032-3.38-.885-4.86-.074-4.86 2.66 0 2.163-.82 3.803-1.83 3.645-7.24-1.142-10.61.988-11.92 7.531-1.49 7.451-4.83 11.269-13.91 15.913-2.87 1.468-5.06 4.56-4.86 6.87.24 2.905-.51 3.484-2.45 1.879-1.9-1.576-5.69.332-11.83 5.95-13.66 12.506-17.3 19.206-15.54 28.594.84 4.45.7 8.915-.31 9.923-1.01 1.008-2.03 7.282-2.27 13.942-.25 6.66-1.61 13.519-3.05 15.242-1.43 1.724-2.49 10.275-2.36 19.004.13 8.728-.98 18.135-2.46 20.903-1.48 2.768-2.69 7.777-2.69 11.131 0 3.353-1.1 6.774-2.44 7.601-1.34.827-2.43 3.628-2.43 6.224 0 3.604 1.69 4.722 7.16 4.722 3.93 0 7.83-1.087 8.65-2.414.83-1.334 4.13.572 7.37 4.257 4.71 5.348 5.9 5.827 5.96 2.414.09-5.172 4.94-5.769 4.94-.608 0 2.007 1.65 3.649 3.66 3.649 2.01 0 3.65-1.642 3.65-3.649a3.659 3.659 0 0 1 3.65-3.649c4.16 0 4.96-6.207 1.1-8.587-4.73-2.921 2.99-8.957 9.72-7.599 14.76 2.978 22.29 5.359 22.21 7.023-.04.982 3.84 5.692 8.62 10.468 5.46 5.463 8.15 10.084 7.24 12.458-1.92 5.006 3.14 21.462 8.31 27.004 2.26 2.427 7.04 10.243 10.63 17.368 6.49 12.914 6.51 13.091 5.42 57.075-1.16 46.611-1.81 54.663-4.86 59.584-1.04 1.681-1.25 5.612-.46 8.735 1.84 7.337-6.83 27.019-15.24 34.566-5.35 4.81-8.14 5.54-16.72 4.377l-10.3-1.396-1.58 9.872c-1.25 7.84-2.61 9.871-6.6 9.871-4.79 0-4.82-.153-.58-3.248zm117.23-121c-3.68-4.118-6.08-9.043-5.35-10.946.73-1.903.35-3.459-.85-3.459-2.49 0-9.85-13.77-9.85-18.42 0-1.692-3.7-5.364-8.23-8.161-4.53-2.797-9.67-8.633-11.42-12.969-1.76-4.337-6.91-12.81-11.46-18.831-4.55-6.02-9.76-14.504-11.58-18.852-2.22-5.272-4.98-7.905-8.31-7.905-5 0-14.74-7.842-14.74-11.865 0-1.174-1.64-3.498-3.65-5.163-2.01-1.666-3.65-4.724-3.65-6.796s-1.88-5.836-4.17-8.364c-3.24-3.575-3.47-5.021-1.07-6.504 4.34-2.681.82-15.16-4.68-16.597-2.52-.66-3.8-2.573-3.05-4.548 2.03-5.287 5.54-4.04 8.19 2.908 1.32 3.474 4.58 6.886 7.24 7.581 2.66.696 4.84 2.813 4.84 4.706 0 1.893 1.92 4.124 4.26 4.959 7.46 2.657 10.57 6.081 8.16 8.991-2.9 3.489 3.55 11.427 12.54 15.437 3.68 1.643 6.7 4.106 6.7 5.472 0 1.367 1.2 2.485 2.67 2.485 1.46 0 9.41 5.909 17.65 13.131 8.24 7.222 18.82 14.795 23.5 16.829l8.53 3.698-11.65.199c-14.17.241-15.65 2.965-10.26 18.824 5.41 15.937 12.92 27.576 17.84 27.669 2.24.043 6.2 1.69 8.81 3.661 2.61 1.97 6.53 3.014 8.72 2.32 5.28-1.674 11.53 10.746 6.87 13.629-1.68 1.037-4.05 1.273-5.26.525-1.21-.748-.72-2.301 1.1-3.451 2.43-1.539 2.5-2.101.26-2.129-5.25-.064-12.42 8.776-10.1 12.447 6.02 9.493.05 9.136-8.55-.511zm-10.98-8.121c-.11-2.565.47-4.001 1.28-3.193.8.808.89 2.906.19 4.662-.78 1.941-1.36 1.364-1.47-1.469zm67.98-10.403c0-6.917 1.2-10.416 3.93-11.462 3.35-1.285 3.68-.161 2.25 7.645-2.47 13.404-6.18 15.696-6.18 3.817zm9-16.895c-3.43-3.424-1.84-24.629 1.96-26.084 2.01-.77 3.65-3.076 3.65-5.125s1.1-3.725 2.44-3.725c3.32 0 3.06 2.762-1.2 12.946-1.99 4.771-3 10.311-2.23 12.311 1.64 4.253-2.14 12.156-4.62 9.677zm13.09-48.778c-.1-4.269.92-8.438 2.26-9.265 2.92-1.803 2.92 5.373 0 12.162-1.76 4.101-2.12 3.646-2.26-2.897zm7.52-37.239c0-3.345.55-4.713 1.22-3.041.68 1.673.68 4.409 0 6.082-.67 1.672-1.22.304-1.22-3.041zm-242.66-12.163c-.83-1.338-.35-2.432 1.07-2.432s2.58 1.094 2.58 2.432c0 1.338-.48 2.433-1.07 2.433-.6 0-1.76-1.095-2.58-2.433zm233.67-31.744c-2.23-3.615-.45-4.895 3.45-2.483 2.1 1.293 2.34 2.547.71 3.557-1.39.858-3.26.374-4.16-1.074zm-3.57-16.906a2.436 2.436 0 0 1 2.43-2.432c1.34 0 2.44 1.094 2.44 2.432 0 1.338-1.1 2.433-2.44 2.433a2.436 2.436 0 0 1-2.43-2.433zm-2.64-13.379c-.21-1.338-.23-3.298-.05-4.355.17-1.058-.74-3.9-2.04-6.317-1.59-2.977-1.45-5.299.46-7.199 3.5-3.499 7.54-3.697 5.42-.266-.87 1.396-.47 3.863.87 5.48 1.67 2.004 1.37 4.877-.92 9.016-1.85 3.34-3.53 4.979-3.74 3.641zM1271 369.967c0-.59 1.1-1.749 2.44-2.576 1.34-.827 2.43-.344 2.43 1.073 0 1.417-1.09 2.576-2.43 2.576s-2.44-.483-2.44-1.073zM521.049 259.144c0-4.013 1.096-7.297 2.435-7.297s2.435 3.284 2.435 7.297c0 4.014-1.096 7.298-2.435 7.298s-2.435-3.284-2.435-7.298zm337.418-9.435c-.755-1.22.265-2.845 2.266-3.612 2.001-.768 3.639-.4 3.639.817 0 3.298-4.327 5.345-5.905 2.795zm-239.673-9.799c-2.449-1.52-2.565-2.506-.446-3.814 3.341-2.063 5.849-.237 4.612 3.358-.506 1.472-2.225 1.661-4.166.456zm-108.165-7.318c-5.27-6.266-6.153-8.788-3.989-11.392 3.629-4.369.762-15.571-3.985-15.571-2.879 0-3.144-1.023-1.203-4.646 1.564-2.919 4.186-4.202 7.054-3.453 2.775.725 7.223-1.268 11.344-5.084 7.793-7.215 10.599-7.661 17.169-2.73 4.543 3.41 4.313 3.919-5.912 13.088-9.629 8.634-10.786 10.884-12.175 23.688l-1.535 14.147-6.768-8.047zm-61.004-1.827c-2.826-2.823-1.776-5.423 3.283-8.128 3.91-2.091 5.217-1.811 6.442 1.376 2.032 5.292-5.767 10.706-9.725 6.752zm567.545-30.609c-2.81-7.647 3.98-11.41 13.79-7.646 5.52 2.115 4.77 4.624-2.35 7.863-7.89 3.594-10.05 3.553-11.44-.217zm-474.207-11.555c-1.767-3.298-1.794-4.865-.085-4.865 1.386 0 2.246-1.368 1.912-3.04-.341-1.699 1.271-2.726 3.652-2.326 2.344.393 4.261-.295 4.261-1.53 0-1.234 3.287-3.604 7.305-5.266 4.017-1.663 7.304-3.746 7.304-4.63 0-.884 2.828-1.841 6.284-2.126 3.456-.286 8.055-1.51 10.221-2.721 2.349-1.313 6.279-1.311 9.747.007 3.196 1.214 6.863 1.558 8.148.764 1.286-.794 3.954-.103 5.929 1.534 2.38 1.974 8.137 2.509 17.076 1.587 10.568-1.089 13.783-.613 14.865 2.202.759 1.976.68 4.291-.174 5.144-2.348 2.346-25.396 4.876-28.267 3.104-1.381-.853-8.247-.591-15.256.581-7.01 1.173-15.861 2.443-19.668 2.823-3.807.379-7.642 1.684-8.522 2.9-.88 1.215-4.339 2.504-7.687 2.864-3.348.36-7.304 2.276-8.791 4.257-3.59 4.784-5.141 4.547-8.254-1.263zm465.067 3.793c0-.59 1.1-1.75 2.44-2.576 1.34-.827 2.43-.345 2.43 1.072s-1.09 2.576-2.43 2.576-2.44-.482-2.44-1.072zm-941.547-4.297c-1.343-1.729-3.125-5.06-3.96-7.401-.891-2.498-4.008-4.257-7.54-4.257-3.31 0-6.724-1.139-7.584-2.53-1.015-1.641.646-1.976 4.726-.953 5.195 1.303 6.29.73 6.29-3.291 0-8.779 11.959-8.696 12.138.084.02 1.004 1.747 1.825 3.837 1.825 2.9 0 3.62 2.154 3.043 9.101-.795 9.579-6.351 13.345-10.95 7.422zm920.286-2.965c-5.946-2.749-10.991-14.032-8.811-19.708 1.637-4.261 4.334-4.495 10.963-.951 5.788 3.095 9.094.986 4.947-3.156-4.637-4.633-3.468-5.527 7.902-6.036 10.88-.488 18.01 3.778 14.85 8.889-2.47 3.993-10.51 2.968-13.48-1.718-1.82-2.877-2.39-3.075-1.75-.608.51 2.006 3.36 4.864 6.32 6.35l5.37 2.702-6.78 4.529c-3.74 2.49-7.747 4.24-8.916 3.888-1.168-.353-1.511.955-.762 2.906 1.785 4.647-3.025 6.069-9.853 2.913zm-195.627-15.015c2.779-5.18 5.052-10.802 5.052-12.494 0-1.692 1.096-3.077 2.435-3.077a2.441 2.441 0 0 1 2.435 2.433c0 1.337 1.174 2.432 2.609 2.432 4.239 0 10.141 7.156 8.794 10.663-.685 1.782-4.352 3.917-8.15 4.744s-9.453 2.226-12.566 3.11l-5.662 1.606 5.053-9.417zm-19.906-9.665c-8.325-4.512-8.947-13.785-1.284-19.147 6.911-4.836 10.119-4.827 8.256.021-1.108 2.884-.334 3.45 3.187 2.334 5.564-1.764 8.625 2.22 6.118 7.962-.994 2.277-1.57 6.056-1.28 8.397.653 5.268-5.736 5.452-14.997.433zm250.564-7.764c-1.4-2.308 3.44-6.525 8.15-7.108 2-.249 6.38-1.267 9.71-2.262 5.89-1.754 5.96-1.639 2.32 3.837-3.66 5.504-17.84 9.393-20.18 5.533zm-265.376-9.494c-2.958-2.954-1.682-5.546 2.029-4.123 2.009.77 3.652 2.378 3.652 3.573 0 2.55-3.354 2.875-5.681.55zm4.803-9.32c-1.925-5.01 2.36-13.383 6.848-13.383 1.851 0 3.853-1.368 4.451-3.041 1.452-4.06 3.475-1.942 5.233 5.478 1.811 7.645-.581 11.339-8.652 13.362-4.653 1.167-6.751.523-7.88-2.416zm429.423-11.907c0-.525 1.64-1.586 3.65-2.356 2.01-.77 3.65-.34 3.65.956s-1.64 2.356-3.65 2.356-3.65-.43-3.65-.956zm-544.334-33.31c-.9-1.455-.681-3.599.485-4.765 2.88-2.876 9.218 1.311 7.119 4.704-2.127 3.438-5.498 3.465-7.604.06zm13.523.211c0-1.338 2.256-2.432 5.014-2.432 2.757 0 4.336 1.094 3.508 2.432-.827 1.338-3.083 2.433-5.013 2.433-1.93 0-3.509-1.095-3.509-2.433zm-20.679-17c-.853-1.378.124-1.786 2.291-.956 4.218 1.617 4.99 3.361 1.487 3.361-1.26 0-2.96-1.082-3.778-2.405zm-29.237-9.757c-7.504-1.908-6.11-2.737 5.317-3.163 3.593-.134 6.972 1.07 7.507 2.676 1.068 3.198-1.737 3.305-12.824.486zm-4.464-8.92c-.892-.892-1.623-2.431-1.623-3.42 0-2.34 9.414.115 11.139 2.903 1.531 2.475-7.087 2.943-9.516.517zm597.791-9.373c-4.06-8.896-3.57-12.782 2.01-15.763 5.38-2.874 5.56-2.512 4.92 9.73-.6 11.29-3.42 13.745-6.93 6.033z"/>
    </mask>
    <path d="M1240.43 783.752c4.25-3.108 4.27-3.791.28-15.764-2.28-6.884-6.1-14.917-8.48-17.852-3.77-4.646-3.91-6.147-1.07-11.602 1.79-3.446 4.36-6.402 5.72-6.57 1.36-.167 4.53-.441 7.05-.608 5.55-.367 8.28-9.066 4.86-15.448-1.75-3.281-1.61-5.667.5-8.203 3.01-3.631 2.93-3.982-5.11-20.963-2.39-5.044-2.46-7.413-.3-10.016 2.19-2.637 2-4.1-.85-6.462-2.02-1.679-3.68-5.655-3.68-8.836s-.83-5.784-1.85-5.784c-2.12 0-9.13 10.204-8.52 12.422.22.812-2.32 2.928-5.64 4.703-3.32 1.775-6.67 5.763-7.45 8.863-.78 3.099-2.32 5.635-3.42 5.635-1.09 0-3.57 1.577-5.5 3.504-5.12 5.109-12.73 2.086-17.63-6.999-3.04-5.646-6.1-8.013-10.61-8.207-3.49-.151-10.5-.679-15.58-1.174-5.09-.495-9.76-.057-10.4.974-1.71 2.757-10.52.526-17.53-4.436-8.68-6.144-10.89-7.411-16.4-9.363-4.62-1.639-4.58-1.802.83-3.234l5.69-1.507-6.3-6.797c-3.47-3.738-6.31-7.835-6.31-9.104 0-1.269-1.14-2.307-2.54-2.307-1.4 0-5.51-2.791-9.13-6.201-6.17-5.803-7.76-6.119-24.85-4.935-26.19 1.814-29.22 2.338-29.25 5.054-.02 1.338-3.85 4.906-8.52 7.928-9.66 6.248-10.65 10.236-3.62 14.617 5.44 3.397 6.62 14.869 1.99 19.488-1.58 1.584-2.98 10.252-3.11 19.339-.21 14.502-1.05 17.331-7.03 23.689l-6.79 7.22-10.76-3.865c-8.82-3.171-11.522-3.308-15.009-.76-3.471 2.536-5.465 2.479-10.862-.309-5.942-3.07-7.486-2.899-15.279 1.695-4.768 2.811-9.303 7.63-10.076 10.709-.993 3.95-3.758 6.04-9.389 7.095-4.39.823-9.923 3.638-12.294 6.256-2.372 2.618-5.438 4.066-6.813 3.217-1.376-.85-8.806-1.317-16.512-1.039-11.653.42-14.844-.388-18.957-4.798-3.219-3.451-6.703-4.844-9.979-3.988-3.386.884-5.847-.206-7.521-3.331-3.114-5.813-20.344-6.382-30.65-1.012-3.835 1.999-9 3.64-11.476 3.649-5.101.017-18.63-13.362-18.63-18.424 0-3.617-12.044-10.752-18.149-10.752-6.03 0-21.805-9.331-23.651-13.989-1.37-3.458-1.718-3.182-1.857 1.476-.094 3.151-2.91 8.982-6.258 12.957-6.333 7.518-7.991 18.574-3.464 23.097 1.874 1.872.819 4.422-3.694 8.931-5.126 5.121-7.801 6.03-14.189 4.821-4.33-.819-9.194-2.524-10.809-3.789-1.615-1.265-3.934-1.684-5.153-.931-2.513 1.551-8.648-4.83-11.003-11.443-1.168-3.283-3.601-4.217-9.501-3.649-4.361.42-9.026-.55-10.365-2.156-1.866-2.237-5.563-1.731-15.827 2.169-7.365 2.798-16.508 4.969-20.318 4.823-4.963-.189-6.559.69-5.632 3.103 1.447 3.767-2.366 5.703-15.233 7.737-4.803.759-9.488 1.843-10.411 2.408-.924.566-4.211-1.66-7.305-4.946-3.385-3.595-8.99-6.281-14.071-6.742-7.179-.653-8.784-1.953-10.701-8.673-1.24-4.348-3.74-7.906-5.555-7.906-2.048 0-3.3-2.785-3.3-7.337 0-5.994-1.565-8.082-8.547-11.408-6.092-2.902-9.298-3.321-11.162-1.459-4.124 4.12-11.804.775-15.758-6.863-3.815-7.37-10.797-9.53-10.797-3.339a3.66 3.66 0 0 1-3.652 3.648c-2.861 0-3.652-3.329-3.652-15.369 0-8.454-1.719-21.15-3.818-28.214-2.1-7.064-3.311-13.351-2.691-13.971.62-.619-1.496-3.955-4.704-7.413-7.221-7.783-7.27-9.412-.353-11.629 4.762-1.525 4.222-2-4.132-3.627-6.923-1.348-10.536-.947-12.921 1.436-3.329 3.325-12.59 3.198-20.893-.288-3.486-1.464-3.756-2.312-1.229-3.873 2.541-1.568 2.192-2.786-1.622-5.665-2.672-2.017-6.193-3.702-7.825-3.745-1.632-.042-2.337-1.719-1.566-3.726 1.025-2.668-.304-3.649-4.946-3.649-6.064 0-8.485-4.351-4.588-8.245.969-.967 2.002-5.528 2.297-10.135.439-6.858-.322-8.377-4.195-8.377-2.602 0-6.864-2.13-9.469-4.733-3.791-3.788-6.207-4.313-12.087-2.628-8.022 2.298-29.839-1.579-55.005-9.775-8.036-2.617-16.167-4.758-18.071-4.758-1.903.001-5.395-1.748-7.76-3.886-2.364-2.138-5.333-3.249-6.597-2.469-3.746 2.314-5.107 14.579-2.054 18.519 2.44 3.148 2.262 3.206-1.299.421-6.487-5.072-15.471-2.735-14.773 3.843.656 6.177-5.916 7.587-11.299 2.425-2.591-2.484-2.926-1.26-1.831 6.689 2.93 21.278 2.904 21.722-1.331 22.581-2.278.461-6.513-1.885-9.41-5.214-2.898-3.329-6.611-5.539-8.252-4.91-3.877 1.487-7.947-3.58-9.008-11.215-.517-3.718-2.713-6.414-5.686-6.981-2.665-.507-6.339-3.055-8.166-5.661-1.866-2.661-4.897-4.134-6.915-3.36-1.977.757-6.246.712-9.488-.101-4.499-1.128-5.893-3.107-5.893-8.368 0-8.424-3.685-11.241-7.068-5.404-1.901 3.279-2.304 1.527-1.689-7.333.656-9.455-.061-12.105-3.817-14.114-2.544-1.36-4.461-3.784-4.26-5.386.899-7.157-.502-9.261-5.689-8.54-4.093.568-5.673-.6-6.245-4.619-.681-4.784-1.825-5.231-10.348-4.04-5.626.786-9.583.34-9.583-1.079 0-1.33-4.656-2.184-10.348-1.897-8.457.426-10.486 1.457-11.099 5.645-.414 2.818-2.372 5.745-4.354 6.504-3.978 1.525-7.082-3.989-5.121-9.096 2.364-6.154-1.784-8.623-12.154-7.234-7.879 1.056-10.417 2.569-11.493 6.851-1.418 5.644-11.173 10.279-11.173 5.308 0-1.51-1.739-.266-3.864 2.765-2.946 4.201-3.203 6.306-1.082 8.859 2.154 2.593 1.79 3.905-1.615 5.818-4.131 2.322-4.053 2.792 1.291 7.783 3.881 3.625 5.245 6.958 4.294 10.496-.766 2.852-1.408 6.553-1.426 8.225-.018 1.673-1.677 3.041-3.685 3.041-4.401 0-4.887 8.681-.634 11.307 6.785 4.189-9.441 4.726-19.177.634-8.813-3.704-10.886-3.81-16.605-.846-3.594 1.863-7.28 3.283-8.191 3.156-7.783-1.089-10.224.77-9.718 7.399.296 3.881-.853 8.73-2.554 10.777-2.564 3.087-2.289 4.151 1.616 6.238 2.588 1.384 5.398 1.825 6.244.98.846-.844 1.538-.259 1.538 1.302 0 1.68-3.896 2.838-9.546 2.838-10.347 0-9.72-1.024-13.774 22.501-1.187 6.894-2.734 9.122-6.33 9.122-10.142 0-14.179-4.485-14.179-15.753 0-5.895-1.166-11.438-2.593-12.319-1.426-.88-2.406-4.502-2.177-8.049 1.087-16.839-.097-21.024-7.067-24.985-5.72-3.25-7.17-6.01-8.268-15.732-.731-6.484-2.556-12.198-4.055-12.697-3.66-1.219-9.928-13.638-9.928-19.67 0-2.666-2.074-6.298-4.608-8.072-3.94-2.756-4.821-7.556-6.077-33.09L0 441.356l5.88 6.338c5.182 5.587 6.48 5.963 10.946 3.177 4.07-2.54 6.023-2.564 9.936-.123 4.372 2.728 4.87 2.43 4.87-2.92 0-3.277 1.096-6.635 2.435-7.461 1.339-.827 2.443-.618 2.454.464.019 1.97 11.405 8.049 15.076 8.049 3.677 0 1.95-7.055-2.312-9.445-3.766-2.112-3.814-2.562-.42-3.869 4.79-1.845 16.856 2.537 16.856 6.121 0 3.55 10.358.282 12.904-4.072 1.07-1.831 3.536-3.33 5.478-3.33 1.943 0 3.532-.967 3.532-2.149 0-1.181 2.191-2.721 4.87-3.421 6.013-1.57 6.636-14.097 1.218-24.476-1.992-3.815-2.989-9.455-2.216-12.532 1.18-4.693.242-5.851-5.81-7.179-6.22-1.365-7.136-2.586-6.643-8.852.315-3.997 2.922-9.455 5.794-12.128 6.234-5.803 6.343-6.855 1.427-13.866-3.584-5.111-3.452-5.542 2.367-7.752 3.652-1.388 6.834-5.019 7.814-8.917 1.388-5.528.2-7.905-7.463-14.92l-9.115-8.345 6.77-7.058c8.006-8.349 9.734-8.681 11.432-2.193.934 3.567 3.321 4.865 8.95 4.865 4.99 0 7.094-.942 6.011-2.692-2.335-3.775 3.706-21.77 9.494-28.281 2.656-2.987 6.847-6.071 9.313-6.853 4.672-1.481 6.319-11.838 2.279-14.332-1.214-.749-1.666-3.427-1.006-5.95.661-2.524.01-5.324-1.446-6.223-3.953-2.44-3.194-8.644 1.058-8.644 2.037 0 4.953-2.737 6.478-6.082 1.525-3.344 4.241-6.081 6.035-6.081 1.794 0 3.262-1.056 3.262-2.347s2.357-3.607 5.239-5.148c4.462-2.386 5.015-2.218 3.728 1.131-2.013 5.243 2.115 5.023 6.113-.325 1.75-2.342 8.438-6.731 14.862-9.755 12.695-5.974 18.724-4.869 23.656 4.337 4.367 8.153 7.447 5.529 5.775-4.921-1.083-6.76-.676-9.73 1.332-9.73 1.589 0 2.14-1.212 1.224-2.693-1.087-1.757-.08-2.194 2.9-1.257 9.68 3.044 31.257 6.383 41.248 6.383 10.445 0 19.557-5.412 16.751-9.948-2.597-4.198 1.548-11.631 6.946-12.457 2.95-.451 5.089-2.162 4.755-3.802-.335-1.641 1.582-2.983 4.261-2.983 3.007 0 4.877-1.628 4.888-4.257.019-4.101 9.815-10.338 16.238-10.338 1.711 0 5.038-3.011 7.394-6.69 5.907-9.224 10.607-12.596 17.743-12.73 8.528-.161 11.314-2.543 13.214-11.298 1.392-6.412 3.028-7.831 10.41-9.028 6.438-1.043 10.51-.174 15.365 3.28 3.634 2.584 7.148 4.158 7.811 3.496.662-.662 2.66.549 4.438 2.69 2.117 2.548 2.373 4.459.742 5.532-3.271 2.152-5.874 12.585-3.14 12.585 1.167 0 3.437 2.454 5.044 5.454 3.591 6.704 2.955 57.502-.776 61.994-1.404 1.69-6.65 4.299-11.659 5.798-7.5 2.245-10.152 2.041-15.04-1.159-8.902-5.827-16.801-30.461-16.722-52.152.025-6.944-4.13-4.805-7.807 4.018-3.488 8.37-3.65 9.018-4.011 16.02-.199 3.87-2.199 6.491-5.783 7.577-9.426 2.855-16.435 11.079-16.435 19.282 0 4.181-1.315 8.916-2.922 10.522-1.923 1.921-2.02 2.919-.284 2.919 1.451 0 3.211 2.189 3.911 4.865 1.422 5.432 7.689 6.499 10.717 1.824 1.083-1.672 1.97-5.753 1.97-9.069 0-3.762 1.576-6.339 4.193-6.854 3.348-.66 4.131.83 3.884 7.395-.622 16.527 10.829 24.723 15.568 11.142 2.55-7.306 2.648-7.34 16.151-5.655 8.211 1.025 14.759 3.285 16.552 5.713 1.66 2.249 1.963 4.377.687 4.834-3.822 1.367.155 5.265 5.373 5.265 5.861 0 10.996-4.669 12.228-11.118.501-2.627 3.275-5.033 6.301-5.464 2.973-.424 7.508-3.442 10.079-6.707 2.955-3.754 6.106-5.387 8.571-4.442 4.565 1.75 4.747 3.288 1.421 12.026-1.873 4.923-3.236 5.873-5.605 3.909-5.488-4.551-13.249-.585-14.417 7.367-1.398 9.514 4.014 15.13 12.534 13.007 15.215-3.792 34.973-2.078 41.03 3.56 3.034 2.824 5.821 3.837 6.69 2.432.819-1.324 3.786-2.407 6.593-2.407 4.933 0 4.958.16.738 4.819-3.658 4.038-3.848 5.444-1.167 8.67 1.951 2.349 5.273 3.331 8.517 2.518 3.362-.844 6.769.269 9.267 3.026 2.458 2.714 6.802 4.163 11.505 3.838 6.797-.47 7.412.049 6.127 5.165-1.212 4.823-.58 5.598 4.158 5.093 8.044-.857 11.467-3.551 11.467-9.024 0-8.72 6.761-7.94 15.748 1.816 8.522 9.251 12.639 17.074 10.244 19.466-.68.68.897 3.368 3.506 5.974 2.609 2.606 5.394 7.988 6.189 11.96.795 3.972 2.818 7.222 4.495 7.222 5.014 0 9.035-6.7 7.299-12.163-.896-2.819-.308-6.678 1.314-8.631 2.071-2.492 2.13-3.532.202-3.532-4.299 0-3.202-7.151 2.136-13.931 2.679-3.402 4.87-8.774 4.87-11.938 0-4.082 1.379-5.753 4.747-5.753 2.61 0 9.966-4.926 16.346-10.947 6.379-6.02 11.842-10.946 12.139-10.946.297 0 3.351 1.068 6.786 2.372 8.435 3.204 8.121 11.396-.845 22.045-5.144 6.111-6.753 10.148-5.862 14.713.761 3.9-.247 7.764-2.65 10.165-2.132 2.13-3.877 4.84-3.877 6.022 0 1.182-2.214 6.727-4.92 12.322-3.105 6.421-4.357 12.413-3.394 16.246 1.103 4.388.402 6.504-2.525 7.626-2.227.854-3.46 3.088-2.739 4.965.808 2.104-1.006 4.293-4.73 5.707-3.323 1.262-6.041 3.336-6.041 4.609 0 1.273-3.544 4.081-7.875 6.24-7.327 3.651-8.089 3.631-10.957-.287-1.695-2.316-3.082-3.321-3.082-2.233 0 1.089-1.644.617-3.653-1.049-2.211-1.833-3.652-2.029-3.652-.496 0 6.197 3.623 10.657 11.238 13.835 7.405 3.091 9.29 2.952 19.179-1.418 14.31-6.324 24.246-15.704 24.86-23.469.646-8.179 3.272-10.496 9.926-8.758 6.225 1.627 9.887 11.941 5.718 16.106-3.396 3.393-3.63 13.93-.308 13.93 1.339 0 4.734 2.298 7.545 5.105l5.11 5.106-1.812-5.704c-.997-3.137-3.556-6.978-5.687-8.534-3.523-2.574-3.49-3.255.354-7.499 2.326-2.567 4.229-7.036 4.229-9.931 0-6.369-9.142-17.449-14.44-17.5-2.102-.021-5.234-.932-6.96-2.026-3.925-2.488-.192-13.581 7.237-21.504 3.583-3.822 4.718-7.66 4.023-13.605-.963-8.248 2.301-13.911 8.019-13.911 1.626 0 5.233-1.915 8.017-4.257 4.93-4.146 4.964-4.131 1.278.609-2.081 2.675-4.08 8.409-4.442 12.74-.537 6.426.496 8.401 5.61 10.729 3.447 1.569 6.268 3.772 6.268 4.895 0 1.123 1.609 2.042 3.576 2.042 4.589 0 2.074-7.308-4.025-11.692-5.349-3.846-5.828-10.201-.769-10.201 2.009 0 3.653 1.095 3.653 2.433 0 1.338 1.771 2.432 3.936 2.432 2.689 0 3.547-1.486 2.708-4.693-.899-3.432-.039-4.604 3.199-4.36 2.436.183 3.892 1.201 3.236 2.261-.656 1.06.495 1.927 2.557 1.927 2.063 0 4.44 2.746 5.283 6.103.929 3.698 3.825 6.677 7.351 7.561 7.09 1.778 7.528 4.782.948 6.501-3.325.869-4.869 3.318-4.869 7.725 0 4.073.987 5.843 2.678 4.799 1.589-.981 1.379.691-.518 4.114-1.757 3.171-2.847 6.861-2.422 8.199.924 2.906 2.251 9.012 2.51 11.554.274 2.678 7.491 2.23 7.491-.464 0-1.259-1.054-2.94-2.342-3.735-1.499-.926-1.499-3.66 0-7.6 1.288-3.384 2.342-9.438 2.342-13.452 0-4.015 1.198-9.534 2.661-12.266 1.924-3.591 1.924-5.702 0-7.624-1.463-1.462-2.661-4.234-2.661-6.16 0-1.926-1.631-4.717-3.624-6.203-2.602-1.939-3.208-5.217-2.149-11.622l1.476-8.922 16.757.408c11.814.288 16.757 1.33 16.758 3.534.001 2.3 1.205 2.483 4.553.693 3.448-1.844 4.42-4.786 4.005-12.123-.368-6.518.584-10.123 2.907-11.014 1.9-.728 2.847-2.306 2.104-3.507-1.93-3.119 13.762-10.014 22.792-10.014 4.528 0 8.19-1.481 9.023-3.649 1.558-4.056 8.185-5.041 8.185-1.216 0 1.338 1.973 2.432 4.385 2.432 5.441 0 17.485-5.437 17.51-7.905.011-1.004 2.569-1.825 5.685-1.825 4.854 0 5.519-1 4.639-6.985-1.303-8.871 10.434-21.343 15.855-16.848 2.68 2.222 2.704 3.106.131 4.767-2.529 1.632-2.431 2.516.494 4.434 2.008 1.317 5.022 2.412 6.696 2.433 1.674.02 3.043 2.226 3.043 4.902 0 5.687 4.388 6.518 6.424 1.216 2.171-5.65 12.933-4.319 22.204 2.745 6.445 4.911 7.627 6.895 5.099 8.56-2.676 1.762-2.494 2.776.971 5.429 6.12 4.686 5.346 7.988-4.24 18.092-4.676 4.928-8.511 10.094-8.522 11.482-.012 1.387-4.952 7.736-10.979 14.11-6.026 6.373-10.922 12.9-10.879 14.505.043 1.636 1.498 1.048 3.312-1.339 1.779-2.342 5.505-4.257 8.28-4.257 2.967 0 5.706-2.078 6.648-5.041.944-2.972 2.981-4.512 4.963-3.752 1.849.709 4.959-.307 6.911-2.257 4.612-4.607 12.73-4.549 14.517.103.771 2.007 2.596 3.649 4.057 3.649 1.46 0 2.052-.975 1.315-2.166-1.967-3.18 9.604-9.996 16.968-9.996 3.49 0 7.99 1.642 9.999 3.648 4.705 4.701 16.192 4.664 25.38-.083 6.161-3.183 6.844-4.444 4.637-8.564-3.58-6.682-.982-9.685 6.998-8.091 4.479.895 7.805.062 9.919-2.483 2.869-3.453 3.887-3.327 10.367 1.282 4.15 2.952 6.638 6.537 5.89 8.485-.743 1.932.232 3.373 2.28 3.373 4.093 0 4.784 3.832 1.101 6.106-3.56 2.198-.119 6.638 3.939 5.083 2.216-.85 3.406.388 3.406 3.543 0 3.003 2.548 5.892 6.696 7.589 9.489 3.884 16.62 3.609 15.56-.6-.481-1.912-1.248-7.058-1.705-11.436-.697-6.683-.208-7.611 3.047-5.791 5.589 3.127 12.929.532 12.929-4.575 0-5.591 4.56-7.159 11.63-3.994 7 3.138 13.84-1.893 7.83-5.756-3.02-1.938-2.74-2.578 1.68-3.789 4.75-1.304 5.02-2.139 2.48-7.906-1.55-3.546-3.83-7.158-5.06-8.027-1.23-.868-1.35-3.605-.27-6.081 1.08-2.476 1.84-5.146 1.7-5.932-.14-.786 4.35-3.772 9.97-6.635 8.5-4.332 10.34-4.602 11-1.611.96 4.368 5.2 4.793 5.54.554.14-1.673 1.01-.304 1.94 3.04 2.62 9.429 6.26 7.188 7.1-4.372.61-8.571 1.85-10.871 6.85-12.771 8.96-3.401 11.16-2.866 9.51 2.31-1.36 4.275-.69 4.451 8.77 2.328 5.63-1.263 11.86-1.672 13.86-.908 3.99 1.531 15.04-7.551 15.04-12.365 0-1.671 2.83-6.406 6.3-10.523 5.24-6.222 8.07-7.484 16.78-7.484 7.07 0 10.94 1.188 11.89 3.649 3.01 7.855 21.94 1.845 20.89-6.635-.83-6.651 3.52-14.521 9.22-16.684 3.28-1.248 7.23-5.602 8.77-9.675 1.99-5.266 4.03-7.082 7.08-6.286 2.36.616 4.96.032 5.78-1.297.82-1.329 3.52-1.886 6-1.239 2.48.647 5.78-.352 7.33-2.221 4.03-4.85-1.43-10.695-9.99-10.695-9.59 0-10.6-5.817-2.51-14.47 3.81-4.082 6.44-7.422 5.82-7.422-.61 0 .87-3.513 3.29-7.805 6.67-11.84 16.09-19.327 38.49-30.587 4.01-2.02 9.15-5.262 11.41-7.204 2.26-1.942 5.16-2.883 6.44-2.09 1.28.792 3-.31 3.82-2.447.91-2.362 3.03-3.3 5.4-2.391 2.89 1.109 3.5.456 2.36-2.523-1.36-3.547.18-3.863 13.12-2.691 11.6 1.051 14.67.615 14.67-2.09 0-2.024-2.49-3.418-6.09-3.418-7.07 0-7.54-1.334-2.3-6.568 2.09-2.084 3.24-5.234 2.56-7-.71-1.846 1.04-3.916 4.12-4.87 2.95-.913 8.37-3.78 12.05-6.372 7.04-4.954 6.78-5.157 7.67 5.958.14 1.673 1.34 3.862 2.68 4.865 1.53 1.147 1.11 2.68-1.14 4.125-1.97 1.265-3 2.882-2.29 3.594 1.29 1.292 10.34 3.314 16.36 3.655 1.8.102 2.42 1.423 1.43 3.027-1.19 1.913-.44 2.337 2.29 1.292 2.64-1.014 4.05-.313 4.05 2.02 0 1.964-1.1 3.572-2.44 3.572-1.34 0-2.2.82-1.93 1.824.28 1.004-2.75 5.22-6.72 9.368-5.85 6.098-8.03 7.041-11.4 4.92-3.27-2.064-4.94-1.595-7.8 2.185-2.01 2.647-3.68 7.275-3.72 10.285-.06 4.16-1.51 5.473-6.02 5.473-3.27 0-6.62-1.095-7.45-2.433-2.24-3.62-5.37-2.947-7.09 1.526-1.88 4.9 5.48 10.923 11.23 9.194 3-.898 5.56 1.512 9.2 8.648 5.53 10.827 4.14 17.193-4.78 21.967-3 1.604-4.17 3.967-3.21 6.478 1.4 3.641 1.75 3.638 4.44-.037 1.61-2.195 5.26-3.99 8.13-3.99 2.87 0 5.21-1.169 5.21-2.597 0-3.027 10.15-.438 12.48 3.184.96 1.487 2.12 1.394 3.14-.25 2.07-3.344 19.14-2.858 21.4.61 2.01 3.084-7.18 13.648-11.88 13.648-4.01 0-4.26 4.114-.33 5.425 1.81.6 3.15 7.669 3.55 18.709.36 9.76 1.83 21.297 3.26 25.639 1.44 4.342 3.04 10.108 3.56 12.813s2.04 8.885 3.38 13.735c2.31 8.357 2.14 8.817-3.39 8.817-7.25 0-13.13 10.398-13.67 24.199-.33 8.396-.9 9.363-4.03 6.783-3.17-2.615-3.47-1.657-2.27 7.33 1.01 7.526.53 10.338-1.76 10.338-5.23 0-6.34 10.318-1.79 16.618 2.3 3.179 6.92 10.856 10.26 17.06 6.07 11.238 14.61 16.542 14.61 9.07 0-2.105 1.77-3.828 3.94-3.828 2.68 0 3.55 1.488 2.71 4.672-.91 3.479.42 5.132 5.2 6.48 3.53.995 7.35 1.592 8.49 1.326 1.15-.266 4.16.176 6.7.981 5.47 1.733 6.23 8.434.96 8.434-2 0-3.65 2.042-3.65 4.537 0 6.532 9.27 17.356 14.87 17.356 5.71 0 8.81 6.513 4.94 10.38-1.52 1.515-2.76 6.762-2.76 11.658 0 6.557 1.54 10.058 5.84 13.285 5.55 4.166 5.68 4.842 2.54 13.719-2.62 7.432-2.67 9.338-.21 9.338 4.05 0 13.74 22.329 13.74 31.646 0 9.565-6.28 9.668-15.17.249-3.66-3.864-11.3-9.454-17-12.421-20.3-10.571-57.92-45.268-57.92-53.423 0-6.484-5.09-17.134-8.18-17.134-1.54 0-1.38-1.149.39-2.919 4.32-4.317 3.76-29.841-.73-33.568-2.01-1.666-3.66-5.019-3.66-7.452s-1.14-5.133-2.55-6c-1.78-1.099-1.77-2.512.01-4.664 1.83-2.202 1.36-6.341-1.64-14.439-3.51-9.448-3.69-12.19-1.09-16.347 3.54-5.67 2.06-8.521-10.14-19.542-4.4-3.971-7.11-8.835-7.11-12.771 0-7.336-3.51-8.237-8.17-2.099-4.52 5.941-4.16 9.716 1.48 15.763 2.75 2.957 4.87 8.585 4.87 12.974 0 4.263.66 11.092 1.48 15.176 1.2 5.98.71 7.313-2.49 6.843-2.19-.321-5.66-2.979-7.71-5.906-4.32-6.15-8.33-6.957-8.33-1.673 0 2.007-1.74 3.649-3.88 3.649-2.13 0-4.45 2.189-5.15 4.865-.7 2.676-2.16 4.865-3.23 4.865-3.46 0-5.38 14.59-2.4 18.175 1.54 1.86 3.43 9.751 4.2 17.536.77 7.786 2.97 17.264 4.89 21.063 3.35 6.637 3.67 6.742 8.18 2.664 2.75-2.486 4.7-3.074 4.7-1.419 0 1.554-2.74 5.205-6.09 8.114-3.35 2.908-6.09 6.805-6.09 8.661 0 2.218-1.6 2.867-4.66 1.895-2.57-.813-5.31-.443-6.09.824-.79 1.267-3.62 1.731-6.3 1.032-3.38-.885-4.86-.074-4.86 2.66 0 2.163-.82 3.803-1.83 3.645-7.24-1.142-10.61.988-11.92 7.531-1.49 7.451-4.83 11.269-13.91 15.913-2.87 1.468-5.06 4.56-4.86 6.87.24 2.905-.51 3.484-2.45 1.879-1.9-1.576-5.69.332-11.83 5.95-13.66 12.506-17.3 19.206-15.54 28.594.84 4.45.7 8.915-.31 9.923-1.01 1.008-2.03 7.282-2.27 13.942-.25 6.66-1.61 13.519-3.05 15.242-1.43 1.724-2.49 10.275-2.36 19.004.13 8.728-.98 18.135-2.46 20.903-1.48 2.768-2.69 7.777-2.69 11.131 0 3.353-1.1 6.774-2.44 7.601-1.34.827-2.43 3.628-2.43 6.224 0 3.604 1.69 4.722 7.16 4.722 3.93 0 7.83-1.087 8.65-2.414.83-1.334 4.13.572 7.37 4.257 4.71 5.348 5.9 5.827 5.96 2.414.09-5.172 4.94-5.769 4.94-.608 0 2.007 1.65 3.649 3.66 3.649 2.01 0 3.65-1.642 3.65-3.649a3.659 3.659 0 0 1 3.65-3.649c4.16 0 4.96-6.207 1.1-8.587-4.73-2.921 2.99-8.957 9.72-7.599 14.76 2.978 22.29 5.359 22.21 7.023-.04.982 3.84 5.692 8.62 10.468 5.46 5.463 8.15 10.084 7.24 12.458-1.92 5.006 3.14 21.462 8.31 27.004 2.26 2.427 7.04 10.243 10.63 17.368 6.49 12.914 6.51 13.091 5.42 57.075-1.16 46.611-1.81 54.663-4.86 59.584-1.04 1.681-1.25 5.612-.46 8.735 1.84 7.337-6.83 27.019-15.24 34.566-5.35 4.81-8.14 5.54-16.72 4.377l-10.3-1.396-1.58 9.872c-1.25 7.84-2.61 9.871-6.6 9.871-4.79 0-4.82-.153-.58-3.248zm117.23-121c-3.68-4.118-6.08-9.043-5.35-10.946.73-1.903.35-3.459-.85-3.459-2.49 0-9.85-13.77-9.85-18.42 0-1.692-3.7-5.364-8.23-8.161-4.53-2.797-9.67-8.633-11.42-12.969-1.76-4.337-6.91-12.81-11.46-18.831-4.55-6.02-9.76-14.504-11.58-18.852-2.22-5.272-4.98-7.905-8.31-7.905-5 0-14.74-7.842-14.74-11.865 0-1.174-1.64-3.498-3.65-5.163-2.01-1.666-3.65-4.724-3.65-6.796s-1.88-5.836-4.17-8.364c-3.24-3.575-3.47-5.021-1.07-6.504 4.34-2.681.82-15.16-4.68-16.597-2.52-.66-3.8-2.573-3.05-4.548 2.03-5.287 5.54-4.04 8.19 2.908 1.32 3.474 4.58 6.886 7.24 7.581 2.66.696 4.84 2.813 4.84 4.706 0 1.893 1.92 4.124 4.26 4.959 7.46 2.657 10.57 6.081 8.16 8.991-2.9 3.489 3.55 11.427 12.54 15.437 3.68 1.643 6.7 4.106 6.7 5.472 0 1.367 1.2 2.485 2.67 2.485 1.46 0 9.41 5.909 17.65 13.131 8.24 7.222 18.82 14.795 23.5 16.829l8.53 3.698-11.65.199c-14.17.241-15.65 2.965-10.26 18.824 5.41 15.937 12.92 27.576 17.84 27.669 2.24.043 6.2 1.69 8.81 3.661 2.61 1.97 6.53 3.014 8.72 2.32 5.28-1.674 11.53 10.746 6.87 13.629-1.68 1.037-4.05 1.273-5.26.525-1.21-.748-.72-2.301 1.1-3.451 2.43-1.539 2.5-2.101.26-2.129-5.25-.064-12.42 8.776-10.1 12.447 6.02 9.493.05 9.136-8.55-.511zm-10.98-8.121c-.11-2.565.47-4.001 1.28-3.193.8.808.89 2.906.19 4.662-.78 1.941-1.36 1.364-1.47-1.469zm67.98-10.403c0-6.917 1.2-10.416 3.93-11.462 3.35-1.285 3.68-.161 2.25 7.645-2.47 13.404-6.18 15.696-6.18 3.817zm9-16.895c-3.43-3.424-1.84-24.629 1.96-26.084 2.01-.77 3.65-3.076 3.65-5.125s1.1-3.725 2.44-3.725c3.32 0 3.06 2.762-1.2 12.946-1.99 4.771-3 10.311-2.23 12.311 1.64 4.253-2.14 12.156-4.62 9.677zm13.09-48.778c-.1-4.269.92-8.438 2.26-9.265 2.92-1.803 2.92 5.373 0 12.162-1.76 4.101-2.12 3.646-2.26-2.897zm7.52-37.239c0-3.345.55-4.713 1.22-3.041.68 1.673.68 4.409 0 6.082-.67 1.672-1.22.304-1.22-3.041zm-242.66-12.163c-.83-1.338-.35-2.432 1.07-2.432s2.58 1.094 2.58 2.432c0 1.338-.48 2.433-1.07 2.433-.6 0-1.76-1.095-2.58-2.433zm233.67-31.744c-2.23-3.615-.45-4.895 3.45-2.483 2.1 1.293 2.34 2.547.71 3.557-1.39.858-3.26.374-4.16-1.074zm-3.57-16.906a2.436 2.436 0 0 1 2.43-2.432c1.34 0 2.44 1.094 2.44 2.432 0 1.338-1.1 2.433-2.44 2.433a2.436 2.436 0 0 1-2.43-2.433zm-2.64-13.379c-.21-1.338-.23-3.298-.05-4.355.17-1.058-.74-3.9-2.04-6.317-1.59-2.977-1.45-5.299.46-7.199 3.5-3.499 7.54-3.697 5.42-.266-.87 1.396-.47 3.863.87 5.48 1.67 2.004 1.37 4.877-.92 9.016-1.85 3.34-3.53 4.979-3.74 3.641zM1271 369.967c0-.59 1.1-1.749 2.44-2.576 1.34-.827 2.43-.344 2.43 1.073 0 1.417-1.09 2.576-2.43 2.576s-2.44-.483-2.44-1.073zM521.049 259.144c0-4.013 1.096-7.297 2.435-7.297s2.435 3.284 2.435 7.297c0 4.014-1.096 7.298-2.435 7.298s-2.435-3.284-2.435-7.298zm337.418-9.435c-.755-1.22.265-2.845 2.266-3.612 2.001-.768 3.639-.4 3.639.817 0 3.298-4.327 5.345-5.905 2.795zm-239.673-9.799c-2.449-1.52-2.565-2.506-.446-3.814 3.341-2.063 5.849-.237 4.612 3.358-.506 1.472-2.225 1.661-4.166.456zm-108.165-7.318c-5.27-6.266-6.153-8.788-3.989-11.392 3.629-4.369.762-15.571-3.985-15.571-2.879 0-3.144-1.023-1.203-4.646 1.564-2.919 4.186-4.202 7.054-3.453 2.775.725 7.223-1.268 11.344-5.084 7.793-7.215 10.599-7.661 17.169-2.73 4.543 3.41 4.313 3.919-5.912 13.088-9.629 8.634-10.786 10.884-12.175 23.688l-1.535 14.147-6.768-8.047zm-61.004-1.827c-2.826-2.823-1.776-5.423 3.283-8.128 3.91-2.091 5.217-1.811 6.442 1.376 2.032 5.292-5.767 10.706-9.725 6.752zm567.545-30.609c-2.81-7.647 3.98-11.41 13.79-7.646 5.52 2.115 4.77 4.624-2.35 7.863-7.89 3.594-10.05 3.553-11.44-.217zm-474.207-11.555c-1.767-3.298-1.794-4.865-.085-4.865 1.386 0 2.246-1.368 1.912-3.04-.341-1.699 1.271-2.726 3.652-2.326 2.344.393 4.261-.295 4.261-1.53 0-1.234 3.287-3.604 7.305-5.266 4.017-1.663 7.304-3.746 7.304-4.63 0-.884 2.828-1.841 6.284-2.126 3.456-.286 8.055-1.51 10.221-2.721 2.349-1.313 6.279-1.311 9.747.007 3.196 1.214 6.863 1.558 8.148.764 1.286-.794 3.954-.103 5.929 1.534 2.38 1.974 8.137 2.509 17.076 1.587 10.568-1.089 13.783-.613 14.865 2.202.759 1.976.68 4.291-.174 5.144-2.348 2.346-25.396 4.876-28.267 3.104-1.381-.853-8.247-.591-15.256.581-7.01 1.173-15.861 2.443-19.668 2.823-3.807.379-7.642 1.684-8.522 2.9-.88 1.215-4.339 2.504-7.687 2.864-3.348.36-7.304 2.276-8.791 4.257-3.59 4.784-5.141 4.547-8.254-1.263zm465.067 3.793c0-.59 1.1-1.75 2.44-2.576 1.34-.827 2.43-.345 2.43 1.072s-1.09 2.576-2.43 2.576-2.44-.482-2.44-1.072zm-941.547-4.297c-1.343-1.729-3.125-5.06-3.96-7.401-.891-2.498-4.008-4.257-7.54-4.257-3.31 0-6.724-1.139-7.584-2.53-1.015-1.641.646-1.976 4.726-.953 5.195 1.303 6.29.73 6.29-3.291 0-8.779 11.959-8.696 12.138.084.02 1.004 1.747 1.825 3.837 1.825 2.9 0 3.62 2.154 3.043 9.101-.795 9.579-6.351 13.345-10.95 7.422zm920.286-2.965c-5.946-2.749-10.991-14.032-8.811-19.708 1.637-4.261 4.334-4.495 10.963-.951 5.788 3.095 9.094.986 4.947-3.156-4.637-4.633-3.468-5.527 7.902-6.036 10.88-.488 18.01 3.778 14.85 8.889-2.47 3.993-10.51 2.968-13.48-1.718-1.82-2.877-2.39-3.075-1.75-.608.51 2.006 3.36 4.864 6.32 6.35l5.37 2.702-6.78 4.529c-3.74 2.49-7.747 4.24-8.916 3.888-1.168-.353-1.511.955-.762 2.906 1.785 4.647-3.025 6.069-9.853 2.913zm-195.627-15.015c2.779-5.18 5.052-10.802 5.052-12.494 0-1.692 1.096-3.077 2.435-3.077a2.441 2.441 0 0 1 2.435 2.433c0 1.337 1.174 2.432 2.609 2.432 4.239 0 10.141 7.156 8.794 10.663-.685 1.782-4.352 3.917-8.15 4.744s-9.453 2.226-12.566 3.11l-5.662 1.606 5.053-9.417zm-19.906-9.665c-8.325-4.512-8.947-13.785-1.284-19.147 6.911-4.836 10.119-4.827 8.256.021-1.108 2.884-.334 3.45 3.187 2.334 5.564-1.764 8.625 2.22 6.118 7.962-.994 2.277-1.57 6.056-1.28 8.397.653 5.268-5.736 5.452-14.997.433zm250.564-7.764c-1.4-2.308 3.44-6.525 8.15-7.108 2-.249 6.38-1.267 9.71-2.262 5.89-1.754 5.96-1.639 2.32 3.837-3.66 5.504-17.84 9.393-20.18 5.533zm-265.376-9.494c-2.958-2.954-1.682-5.546 2.029-4.123 2.009.77 3.652 2.378 3.652 3.573 0 2.55-3.354 2.875-5.681.55zm4.803-9.32c-1.925-5.01 2.36-13.383 6.848-13.383 1.851 0 3.853-1.368 4.451-3.041 1.452-4.06 3.475-1.942 5.233 5.478 1.811 7.645-.581 11.339-8.652 13.362-4.653 1.167-6.751.523-7.88-2.416zm429.423-11.907c0-.525 1.64-1.586 3.65-2.356 2.01-.77 3.65-.34 3.65.956s-1.64 2.356-3.65 2.356-3.65-.43-3.65-.956zm-544.334-33.31c-.9-1.455-.681-3.599.485-4.765 2.88-2.876 9.218 1.311 7.119 4.704-2.127 3.438-5.498 3.465-7.604.06zm13.523.211c0-1.338 2.256-2.432 5.014-2.432 2.757 0 4.336 1.094 3.508 2.432-.827 1.338-3.083 2.433-5.013 2.433-1.93 0-3.509-1.095-3.509-2.433zm-20.679-17c-.853-1.378.124-1.786 2.291-.956 4.218 1.617 4.99 3.361 1.487 3.361-1.26 0-2.96-1.082-3.778-2.405zm-29.237-9.757c-7.504-1.908-6.11-2.737 5.317-3.163 3.593-.134 6.972 1.07 7.507 2.676 1.068 3.198-1.737 3.305-12.824.486zm-4.464-8.92c-.892-.892-1.623-2.431-1.623-3.42 0-2.34 9.414.115 11.139 2.903 1.531 2.475-7.087 2.943-9.516.517zm597.791-9.373c-4.06-8.896-3.57-12.782 2.01-15.763 5.38-2.874 5.56-2.512 4.92 9.73-.6 11.29-3.42 13.745-6.93 6.033z" stroke="#E26D5C" stroke-width="2" mask="url(#a)"/>
</svg>
