<svg width="60" height="38" viewBox="0 0 60 38" fill="none" xmlns="http://www.w3.org/2000/svg">
    <path d="M38.16 4.74H21.989v29.036h16.173V4.74z" fill="#FF5F00"/>
    <path d="M23.015 19.259a18.42 18.42 0 0 1 7.06-14.518 18.492 18.492 0 0 0-27.09 4.72 18.453 18.453 0 0 0 7.59 26.406 18.498 18.498 0 0 0 19.5-2.091 18.436 18.436 0 0 1-7.06-14.518z" fill="#EB001B"/>
    <path d="M59.978 19.259c0 3.464-.976 6.86-2.815 9.796a18.476 18.476 0 0 1-7.59 6.812 18.497 18.497 0 0 1-19.499-2.091 18.472 18.472 0 0 0 7.06-14.518 18.454 18.454 0 0 0-7.06-14.517 18.491 18.491 0 0 1 27.089 4.72 18.453 18.453 0 0 1 2.815 9.798zM58.215 30.7v-.594h.24v-.12h-.611v.12h.24v.595h.13zm1.186 0v-.716h-.187l-.216.493-.215-.493h-.188v.717h.133v-.541l.202.466h.137l.202-.467v.542h.132z" fill="#F79E1B"/>
</svg>
