<svg width="32" height="32" viewBox="0 0 32 32" fill="none" xmlns="http://www.w3.org/2000/svg">
    <g clip-path="url(#a)">
        <path d="M16 32c8.837 0 16-7.163 16-16S24.837 0 16 0 0 7.163 0 16s7.163 16 16 16z" fill="#F00"/>
        <path d="M21.236 9.981H10.764a3.185 3.185 0 0 0-3.185 3.187v5.663a3.185 3.185 0 0 0 3.185 3.188h10.472a3.186 3.186 0 0 0 3.185-3.188v-5.663a3.184 3.184 0 0 0-3.185-3.187zm-7.455 8.6v-5.162l4.438 2.58-4.438 2.582z" fill="#fff"/>
    </g>
    <defs>
        <clipPath id="a">
            <path fill="#fff" d="M0 0h32v32H0z"/>
        </clipPath>
    </defs>
</svg>
