<svg width="25" height="24" viewBox="0 0 25 24" fill="none" xmlns="http://www.w3.org/2000/svg">
<path d="M8.875 21.6C8.875 22.92 7.7875 24 6.45833 24C5.12917 24 4.05375 22.92 4.05375 21.6C4.05375 20.28 5.12917 19.2 6.45833 19.2C7.7875 19.2 8.875 20.28 8.875 21.6ZM18.5417 19.2C17.2125 19.2 16.1371 20.28 16.1371 21.6C16.1371 22.92 17.2125 24 18.5417 24C19.8708 24 20.9583 22.92 20.9583 21.6C20.9583 20.28 19.8708 19.2 18.5417 19.2ZM19.0202 13.2C19.5699 13.1999 20.1032 13.0137 20.532 12.672C20.9608 12.3304 21.2595 11.8538 21.3788 11.3208L23.375 3.6H6.45833V2.4C6.45833 1.76348 6.20372 1.15303 5.75051 0.702944C5.2973 0.252856 4.68261 0 4.04167 0H1.625V2.4H4.04167V15.6C4.04167 16.2365 4.29628 16.847 4.74949 17.2971C5.2027 17.7471 5.81739 18 6.45833 18H20.9583C20.9583 17.3635 20.7037 16.753 20.2505 16.3029C19.7973 15.8529 19.1826 15.6 18.5417 15.6H6.45833V13.2H19.0202Z" fill="#E26D5C"/>
</svg>
