<svg width="30" height="30" viewBox="0 0 30 30" fill="none" xmlns="http://www.w3.org/2000/svg">
<path d="M27.6242 7.13616L15.5088 0.136294C15.3544 0.0470344 15.1788 0 15 0C14.8212 0 14.6456 0.0470344 14.4912 0.136294L2.37577 7.13616C2.22334 7.22425 2.09689 7.35039 2.00902 7.50198C1.92116 7.65358 1.87495 7.82534 1.875 8.00014V21.9999C1.87495 22.1747 1.92116 22.3464 2.00902 22.498C2.09689 22.6496 2.22334 22.7757 2.37577 22.8638L14.4912 29.8637C14.6456 29.953 14.8212 30 15 30C15.1788 30 15.3544 29.953 15.5088 29.8637L27.6242 22.8638C27.7767 22.7757 27.9031 22.6496 27.991 22.498C28.0788 22.3464 28.1251 22.1747 28.125 21.9999V8.00014C28.1251 7.82534 28.0788 7.65358 27.991 7.50198C27.9031 7.35039 27.7767 7.22425 27.6242 7.13616V7.13616ZM15 2.15825L25.1123 8.00014L15 13.842L4.88769 8.00014L15 2.15825ZM3.89423 9.7401L13.9904 15.573V27.2598L3.89423 21.4259V9.7401ZM16.0096 27.2598V15.574L26.1058 9.7411V21.4259L16.0096 27.2598Z" fill="#E26D5C"/>
</svg>
