<svg width="24" height="25" viewBox="0 0 24 25" fill="none" xmlns="http://www.w3.org/2000/svg">
<path d="M20.0001 4.5H4.00012C2.90012 4.5 2.01012 5.4 2.01012 6.5L2.00012 18.5C2.00012 19.6 2.90012 20.5 4.00012 20.5H20.0001C21.1001 20.5 22.0001 19.6 22.0001 18.5V6.5C22.0001 5.4 21.1001 4.5 20.0001 4.5ZM20.0001 8.5L12.0001 13.5L4.00012 8.5V6.5L12.0001 11.5L20.0001 6.5V8.5Z" fill="#060915"/>
<path d="M20.0001 4.5H4.00012C2.90012 4.5 2.01012 5.4 2.01012 6.5L2.00012 18.5C2.00012 19.6 2.90012 20.5 4.00012 20.5H20.0001C21.1001 20.5 22.0001 19.6 22.0001 18.5V6.5C22.0001 5.4 21.1001 4.5 20.0001 4.5ZM20.0001 8.5L12.0001 13.5L4.00012 8.5V6.5L12.0001 11.5L20.0001 6.5V8.5Z" fill="black" fill-opacity="0.2"/>
</svg>
