<svg width="30" height="30" viewBox="0 0 30 30" fill="none" xmlns="http://www.w3.org/2000/svg">
<path fill-rule="evenodd" clip-rule="evenodd" d="M4.6875 6.32812C4.04029 6.32812 3.51562 6.85279 3.51562 7.5C3.51562 8.14721 4.04029 8.67188 4.6875 8.67188C5.33471 8.67188 5.85938 8.14721 5.85938 7.5C5.85938 6.85279 5.33471 6.32812 4.6875 6.32812ZM2.10938 7.5C2.10938 6.07614 3.26364 4.92188 4.6875 4.92188C6.11136 4.92188 7.26562 6.07614 7.26562 7.5C7.26562 8.92386 6.11136 10.0781 4.6875 10.0781C3.26364 10.0781 2.10938 8.92386 2.10938 7.5Z" fill="#060915"/>
<path fill-rule="evenodd" clip-rule="evenodd" d="M4.6875 6.32812C4.04029 6.32812 3.51562 6.85279 3.51562 7.5C3.51562 8.14721 4.04029 8.67188 4.6875 8.67188C5.33471 8.67188 5.85938 8.14721 5.85938 7.5C5.85938 6.85279 5.33471 6.32812 4.6875 6.32812ZM2.10938 7.5C2.10938 6.07614 3.26364 4.92188 4.6875 4.92188C6.11136 4.92188 7.26562 6.07614 7.26562 7.5C7.26562 8.92386 6.11136 10.0781 4.6875 10.0781C3.26364 10.0781 2.10938 8.92386 2.10938 7.5Z" fill="black" fill-opacity="0.2"/>
<path fill-rule="evenodd" clip-rule="evenodd" d="M30 8.20312H6.5625V6.79688H30V8.20312Z" fill="#060915"/>
<path fill-rule="evenodd" clip-rule="evenodd" d="M30 8.20312H6.5625V6.79688H30V8.20312Z" fill="black" fill-opacity="0.2"/>
<path fill-rule="evenodd" clip-rule="evenodd" d="M4.6875 21.3281C4.04029 21.3281 3.51562 21.8528 3.51562 22.5C3.51562 23.1472 4.04029 23.6719 4.6875 23.6719C5.33471 23.6719 5.85938 23.1472 5.85938 22.5C5.85938 21.8528 5.33471 21.3281 4.6875 21.3281ZM2.10938 22.5C2.10938 21.0761 3.26364 19.9219 4.6875 19.9219C6.11136 19.9219 7.26562 21.0761 7.26562 22.5C7.26562 23.9239 6.11136 25.0781 4.6875 25.0781C3.26364 25.0781 2.10938 23.9239 2.10938 22.5Z" fill="#060915"/>
<path fill-rule="evenodd" clip-rule="evenodd" d="M4.6875 21.3281C4.04029 21.3281 3.51562 21.8528 3.51562 22.5C3.51562 23.1472 4.04029 23.6719 4.6875 23.6719C5.33471 23.6719 5.85938 23.1472 5.85938 22.5C5.85938 21.8528 5.33471 21.3281 4.6875 21.3281ZM2.10938 22.5C2.10938 21.0761 3.26364 19.9219 4.6875 19.9219C6.11136 19.9219 7.26562 21.0761 7.26562 22.5C7.26562 23.9239 6.11136 25.0781 4.6875 25.0781C3.26364 25.0781 2.10938 23.9239 2.10938 22.5Z" fill="black" fill-opacity="0.2"/>
<path fill-rule="evenodd" clip-rule="evenodd" d="M30 23.2031H6.5625V21.7969H30V23.2031Z" fill="#060915"/>
<path fill-rule="evenodd" clip-rule="evenodd" d="M30 23.2031H6.5625V21.7969H30V23.2031Z" fill="black" fill-opacity="0.2"/>
<path fill-rule="evenodd" clip-rule="evenodd" d="M25.3125 13.8281C24.6653 13.8281 24.1406 14.3528 24.1406 15C24.1406 15.6472 24.6653 16.1719 25.3125 16.1719C25.9597 16.1719 26.4844 15.6472 26.4844 15C26.4844 14.3528 25.9597 13.8281 25.3125 13.8281ZM22.7344 15C22.7344 13.5761 23.8886 12.4219 25.3125 12.4219C26.7364 12.4219 27.8906 13.5761 27.8906 15C27.8906 16.4239 26.7364 17.5781 25.3125 17.5781C23.8886 17.5781 22.7344 16.4239 22.7344 15Z" fill="#060915"/>
<path fill-rule="evenodd" clip-rule="evenodd" d="M25.3125 13.8281C24.6653 13.8281 24.1406 14.3528 24.1406 15C24.1406 15.6472 24.6653 16.1719 25.3125 16.1719C25.9597 16.1719 26.4844 15.6472 26.4844 15C26.4844 14.3528 25.9597 13.8281 25.3125 13.8281ZM22.7344 15C22.7344 13.5761 23.8886 12.4219 25.3125 12.4219C26.7364 12.4219 27.8906 13.5761 27.8906 15C27.8906 16.4239 26.7364 17.5781 25.3125 17.5781C23.8886 17.5781 22.7344 16.4239 22.7344 15Z" fill="black" fill-opacity="0.2"/>
<path fill-rule="evenodd" clip-rule="evenodd" d="M0 14.2969H23.4375V15.7031H0V14.2969Z" fill="#060915"/>
<path fill-rule="evenodd" clip-rule="evenodd" d="M0 14.2969H23.4375V15.7031H0V14.2969Z" fill="black" fill-opacity="0.2"/>
<path fill-rule="evenodd" clip-rule="evenodd" d="M0 6.79688H2.8125V8.20312H0V6.79688Z" fill="#060915"/>
<path fill-rule="evenodd" clip-rule="evenodd" d="M0 6.79688H2.8125V8.20312H0V6.79688Z" fill="black" fill-opacity="0.2"/>
<path fill-rule="evenodd" clip-rule="evenodd" d="M30 15.7031H27.1875V14.2969H30V15.7031Z" fill="#060915"/>
<path fill-rule="evenodd" clip-rule="evenodd" d="M30 15.7031H27.1875V14.2969H30V15.7031Z" fill="black" fill-opacity="0.2"/>
<path fill-rule="evenodd" clip-rule="evenodd" d="M0 21.7969H2.8125V23.2031H0V21.7969Z" fill="#060915"/>
<path fill-rule="evenodd" clip-rule="evenodd" d="M0 21.7969H2.8125V23.2031H0V21.7969Z" fill="black" fill-opacity="0.2"/>
</svg>
