<svg width="24" height="24" viewBox="0 0 24 24" fill="none" xmlns="http://www.w3.org/2000/svg">
<path d="M22.2656 9.77814C22.2423 9.6733 22.1968 9.57468 22.1321 9.48896C22.0674 9.40324 21.9851 9.33241 21.8906 9.28126L19.6594 8.04376C19.5398 7.80123 19.4051 7.5664 19.2563 7.34064L19.3031 4.79064C19.304 4.68368 19.2828 4.5777 19.2408 4.4793C19.1989 4.38091 19.1371 4.29221 19.0594 4.21876C17.9484 3.21148 16.6346 2.45386 15.2063 1.99689C15.1037 1.96491 14.9955 1.95505 14.8888 1.96798C14.7822 1.98091 14.6795 2.01633 14.5875 2.07189L12.4031 3.38439C12.1313 3.37501 11.8688 3.37501 11.5969 3.38439L9.41251 2.07189C9.32055 2.01633 9.21785 1.98091 9.11118 1.96798C9.00452 1.95505 8.89633 1.96491 8.79376 1.99689C7.36357 2.45421 6.04917 3.21535 4.94064 4.22814C4.86221 4.29906 4.79987 4.38596 4.75783 4.48298C4.71578 4.58001 4.695 4.68491 4.69688 4.79064L4.74376 7.34064C4.59376 7.56564 4.46251 7.80001 4.33126 8.04376L2.10001 9.28126C2.00694 9.33294 1.9261 9.40408 1.863 9.48982C1.79991 9.57557 1.75604 9.67391 1.73439 9.77814C1.41561 11.2422 1.41561 12.7578 1.73439 14.2219C1.75767 14.3267 1.8032 14.4253 1.8679 14.5111C1.9326 14.5968 2.01495 14.6676 2.10939 14.7188L4.34064 15.9563C4.46025 16.1988 4.59488 16.4336 4.74376 16.6594L4.69688 19.2094C4.69603 19.3163 4.71723 19.4223 4.75917 19.5207C4.80111 19.6191 4.86288 19.7078 4.94064 19.7813C6.05161 20.7885 7.36546 21.5462 8.79376 22.0031C8.89633 22.0351 9.00452 22.045 9.11118 22.032C9.21785 22.0191 9.32055 21.9837 9.41251 21.9281L11.5969 20.6156H12.4031L14.5969 21.9281C14.7109 22.0031 14.8448 22.0423 14.9813 22.0406C15.0575 22.0373 15.1331 22.0248 15.2063 22.0031C16.6364 21.5458 17.9509 20.7847 19.0594 19.7719C19.1378 19.701 19.2001 19.6141 19.2422 19.517C19.2842 19.42 19.305 19.3151 19.3031 19.2094L19.2563 16.6594C19.4063 16.4344 19.5375 16.2 19.6688 15.9563L21.9 14.7188C21.9931 14.6671 22.0739 14.596 22.137 14.5102C22.2001 14.4245 22.244 14.3261 22.2656 14.2219C22.5844 12.7578 22.5844 11.2422 22.2656 9.77814V9.77814ZM12 16.125C11.1842 16.125 10.3866 15.8831 9.70828 15.4298C9.02993 14.9766 8.50122 14.3323 8.18901 13.5786C7.8768 12.8248 7.79511 11.9954 7.95427 11.1953C8.11343 10.3951 8.5063 9.66009 9.08319 9.0832C9.66009 8.50631 10.3951 8.11344 11.1953 7.95427C11.9954 7.79511 12.8248 7.8768 13.5786 8.18901C14.3323 8.50122 14.9766 9.02993 15.4298 9.70829C15.8831 10.3866 16.125 11.1842 16.125 12C16.125 13.094 15.6904 14.1432 14.9168 14.9168C14.1432 15.6904 13.094 16.125 12 16.125Z" fill="#919191"/>
</svg>
