<svg width="19" height="19" viewBox="0 0 19 19" fill="none" xmlns="http://www.w3.org/2000/svg">
<path d="M18.5792 0.435253C18.4458 0.301654 18.2875 0.195662 18.1131 0.123344C17.9388 0.0510256 17.7519 0.0138008 17.5632 0.0138008C17.3744 0.0138008 17.1875 0.0510256 17.0132 0.123344C16.8388 0.195662 16.6805 0.301654 16.5472 0.435253L9.5 7.468L2.45284 0.420841C2.31942 0.287418 2.16102 0.181581 1.9867 0.109373C1.81237 0.0371646 1.62553 1.40584e-09 1.43684 0C1.24815 -1.40584e-09 1.06131 0.0371646 0.886986 0.109373C0.712661 0.181581 0.554264 0.287418 0.420841 0.420841C0.287418 0.554264 0.181581 0.712661 0.109373 0.886986C0.0371646 1.06131 -1.40584e-09 1.24815 0 1.43684C1.40584e-09 1.62553 0.0371646 1.81237 0.109373 1.9867C0.181581 2.16102 0.287418 2.31942 0.420841 2.45284L7.468 9.5L0.420841 16.5472C0.287418 16.6806 0.181581 16.839 0.109373 17.0133C0.0371646 17.1876 0 17.3745 0 17.5632C0 17.7518 0.0371646 17.9387 0.109373 18.113C0.181581 18.2873 0.287418 18.4457 0.420841 18.5792C0.554264 18.7126 0.712661 18.8184 0.886986 18.8906C1.06131 18.9628 1.24815 19 1.43684 19C1.62553 19 1.81237 18.9628 1.9867 18.8906C2.16102 18.8184 2.31942 18.7126 2.45284 18.5792L9.5 11.532L16.5472 18.5792C16.6806 18.7126 16.839 18.8184 17.0133 18.8906C17.1876 18.9628 17.3745 19 17.5632 19C17.7518 19 17.9387 18.9628 18.113 18.8906C18.2873 18.8184 18.4457 18.7126 18.5792 18.5792C18.7126 18.4457 18.8184 18.2873 18.8906 18.113C18.9628 17.9387 19 17.7518 19 17.5632C19 17.3745 18.9628 17.1876 18.8906 17.0133C18.8184 16.839 18.7126 16.6806 18.5792 16.5472L11.532 9.5L18.5792 2.45284C19.1268 1.90521 19.1268 0.982885 18.5792 0.435253Z" fill="white"/>
</svg>
