<svg width="30" height="30" viewBox="0 0 30 30" fill="none" xmlns="http://www.w3.org/2000/svg">
<path d="M6.8996 7.96875C7.88147 7.96875 8.77488 8.12381 9.57983 8.43394C10.3848 8.73544 11.1146 9.13602 11.7691 9.63566C12.4326 10.1267 13.0296 10.6608 13.5604 11.238C13.8346 11.4964 14.0911 11.7678 14.3299 12.052C14.5688 12.3277 14.7988 12.5991 15.0199 12.8661C15.2057 12.6077 15.4003 12.3579 15.6037 12.1167C15.816 11.8668 16.0725 11.5998 16.3733 11.3155C17.1782 10.4368 18.1291 9.66151 19.226 8.98957C20.3229 8.30902 21.6188 7.96875 23.1137 7.96875C24.3963 7.96875 25.5551 8.27026 26.59 8.87328C27.6338 9.4763 28.4609 10.2904 29.0712 11.3155C29.6904 12.3406 30 13.4821 30 14.7398C30 15.696 29.8231 16.5876 29.4693 17.4146C29.1154 18.2416 28.6245 18.9652 27.9965 19.5855C27.3684 20.2057 26.6387 20.6924 25.8072 21.0456C24.9757 21.3902 24.0778 21.5625 23.1137 21.5625C22.1053 21.5625 21.1853 21.3988 20.3538 21.0715C19.5312 20.7441 18.7793 20.322 18.0982 19.8051C17.4259 19.2796 16.8156 18.724 16.2671 18.1382C16.0283 17.8884 15.8027 17.6386 15.5904 17.3888C15.3782 17.1389 15.188 16.8977 15.0199 16.6651C14.8165 16.915 14.6042 17.1691 14.383 17.4275C14.1619 17.6773 13.923 17.9358 13.6665 18.2028C13.1269 18.78 12.521 19.327 11.8487 19.8439C11.1853 20.3522 10.4423 20.7657 9.61964 21.0844C8.80584 21.4031 7.90358 21.5625 6.91287 21.5625C5.61256 21.5625 4.44051 21.261 3.39673 20.658C2.35294 20.0463 1.52587 19.228 0.915524 18.2028C0.305175 17.1691 0 16.0147 0 14.7398C0 13.7922 0.176913 12.9092 0.530739 12.0908C0.884564 11.2724 1.3755 10.5574 2.00354 9.94579C2.63158 9.32554 3.36577 8.84313 4.2061 8.49854C5.04644 8.14535 5.94427 7.96875 6.8996 7.96875ZM2.29544 14.7398C2.29544 15.5754 2.50332 16.3421 2.91906 17.0399C3.33481 17.729 3.89208 18.2847 4.59089 18.7068C5.2897 19.1203 6.06369 19.327 6.91287 19.327C7.9655 19.327 8.90314 19.0643 9.72578 18.5388C10.5484 18.0047 11.3092 17.3629 12.008 16.6134C12.3264 16.2861 12.6095 15.9674 12.8571 15.6572C13.1137 15.3471 13.3481 15.0456 13.5604 14.7527C13.3304 14.4512 13.0827 14.1368 12.8173 13.8094C12.5608 13.4734 12.2556 13.1332 11.9018 12.7886C11.2295 12.065 10.4821 11.4533 9.65944 10.9537C8.84564 10.454 7.9257 10.2042 6.8996 10.2042C6.06811 10.2042 5.30296 10.4153 4.60416 10.8374C3.90535 11.2509 3.34365 11.8022 2.91906 12.4914C2.50332 13.1719 2.29544 13.9214 2.29544 14.7398ZM27.7046 14.7398C27.7046 13.9214 27.4923 13.1719 27.0677 12.4914C26.6519 11.8022 26.0946 11.2509 25.3958 10.8374C24.7059 10.4153 23.9452 10.2042 23.1137 10.2042C22.4149 10.2042 21.7647 10.3248 21.1632 10.566C20.5617 10.7986 20 11.1174 19.4781 11.5222C18.9651 11.9271 18.4786 12.3751 18.0186 12.8661C17.6471 13.2365 17.3242 13.5984 17.05 13.9516C16.7846 14.3047 16.5767 14.5718 16.4264 14.7527C16.6298 15.0284 16.851 15.3126 17.0898 15.6055C17.3286 15.8984 17.6028 16.2043 17.9124 16.523C18.6201 17.2897 19.3897 17.9487 20.2211 18.5C21.0615 19.0514 22.0257 19.327 23.1137 19.327C23.9452 19.327 24.7059 19.1203 25.3958 18.7068C26.0946 18.2847 26.6519 17.729 27.0677 17.0399C27.4923 16.3421 27.7046 15.5754 27.7046 14.7398Z" fill="#E26D5C"/>
</svg>
