<svg width="30" height="30" viewBox="0 0 30 30" fill="none" xmlns="http://www.w3.org/2000/svg">
<path d="M12.5001 13.7498H5.00012V3.74985C5.00012 3.41833 5.13182 3.10038 5.36624 2.86596C5.60066 2.63154 5.9186 2.49985 6.25012 2.49985H23.7501C24.0816 2.49985 24.3996 2.63154 24.634 2.86596C24.8684 3.10038 25.0001 3.41833 25.0001 3.74985V26.2498C25.0001 26.5814 24.8684 26.8993 24.634 27.1337C24.3996 27.3682 24.0816 27.4998 23.7501 27.4998H6.25012C5.9186 27.4998 5.60066 27.3682 5.36624 27.1337C5.13182 26.8993 5.00012 26.5814 5.00012 26.2498V16.2498H12.5001V19.9998L18.7501 14.9998L12.5001 9.99985V13.7498Z" fill="#919191"/>
</svg>
