<svg width="20" height="20" viewBox="0 0 20 20" fill="none" xmlns="http://www.w3.org/2000/svg">
<path d="M4.16677 1.66656H15.8334C16.0544 1.66656 16.2664 1.75436 16.4227 1.91064C16.579 2.06692 16.6668 2.27888 16.6668 2.4999V17.4999C16.6668 17.7209 16.579 17.9329 16.4227 18.0892C16.2664 18.2454 16.0544 18.3332 15.8334 18.3332H4.16677C3.94575 18.3332 3.73379 18.2454 3.57751 18.0892C3.42123 17.9329 3.33344 17.7209 3.33344 17.4999V2.4999C3.33344 2.27888 3.42123 2.06692 3.57751 1.91064C3.73379 1.75436 3.94575 1.66656 4.16677 1.66656ZM7.5001 9.16656V6.66656L3.33344 9.9999L7.5001 13.3332V10.8332H12.5001V9.16656H7.5001Z" fill="#919191"/>
</svg>
