<svg width="25" height="24" viewBox="0 0 25 24" fill="none" xmlns="http://www.w3.org/2000/svg">
<path d="M13.975 13.4749C12.0754 15.3733 9.87458 17.1901 9.00458 16.3201C7.76018 15.0757 6.99218 13.9909 4.24658 16.1977C1.50218 18.4033 3.61058 19.8745 4.81658 21.0793C6.20858 22.4713 11.3974 21.1537 16.5262 16.0261C21.6538 10.8973 22.9678 5.70845 21.5746 4.31645C20.3686 3.10925 18.9046 1.00205 16.699 3.74645C14.4922 6.49085 15.5758 7.25885 16.8226 8.50445C17.689 9.37445 15.8734 11.5753 13.975 13.4749Z" fill="#060915"/>
<path d="M13.975 13.4749C12.0754 15.3733 9.87458 17.1901 9.00458 16.3201C7.76018 15.0757 6.99218 13.9909 4.24658 16.1977C1.50218 18.4033 3.61058 19.8745 4.81658 21.0793C6.20858 22.4713 11.3974 21.1537 16.5262 16.0261C21.6538 10.8973 22.9678 5.70845 21.5746 4.31645C20.3686 3.10925 18.9046 1.00205 16.699 3.74645C14.4922 6.49085 15.5758 7.25885 16.8226 8.50445C17.689 9.37445 15.8734 11.5753 13.975 13.4749Z" fill="black" fill-opacity="0.2"/>
</svg>
