<svg width="20" height="20" viewBox="0 0 20 20" fill="none" xmlns="http://www.w3.org/2000/svg">
<g>
<path d="M10 18.3334C8.95833 18.3334 7.98278 18.1357 7.07333 17.7401C6.16333 17.344 5.37167 16.809 4.69833 16.1351C4.02444 15.4618 3.48944 14.6701 3.09333 13.7601C2.69778 12.8507 2.5 11.8751 2.5 10.8334H4.16667C4.16667 12.4584 4.73278 13.8368 5.865 14.9684C6.99667 16.1007 8.375 16.6668 10 16.6668C11.625 16.6668 13.0033 16.1007 14.135 14.9684C15.2672 13.8368 15.8333 12.4584 15.8333 10.8334C15.8333 9.20843 15.2672 7.82982 14.135 6.6976C13.0033 5.56593 11.625 5.0001 10 5.0001H9.875L11.1667 6.29177L10 7.5001L6.66667 4.16677L10 0.833435L11.1667 2.04177L9.875 3.33343H10C11.0417 3.33343 12.0175 3.53149 12.9275 3.9276C13.8369 4.32316 14.6286 4.8576 15.3025 5.53094C15.9758 6.20482 16.5106 6.99649 16.9067 7.90594C17.3022 8.81594 17.5 9.79177 17.5 10.8334C17.5 11.8751 17.3022 12.8507 16.9067 13.7601C16.5106 14.6701 15.9758 15.4618 15.3025 16.1351C14.6286 16.809 13.8369 17.344 12.9275 17.7401C12.0175 18.1357 11.0417 18.3334 10 18.3334Z" fill="#060915"/>
<path d="M10 18.3334C8.95833 18.3334 7.98278 18.1357 7.07333 17.7401C6.16333 17.344 5.37167 16.809 4.69833 16.1351C4.02444 15.4618 3.48944 14.6701 3.09333 13.7601C2.69778 12.8507 2.5 11.8751 2.5 10.8334H4.16667C4.16667 12.4584 4.73278 13.8368 5.865 14.9684C6.99667 16.1007 8.375 16.6668 10 16.6668C11.625 16.6668 13.0033 16.1007 14.135 14.9684C15.2672 13.8368 15.8333 12.4584 15.8333 10.8334C15.8333 9.20843 15.2672 7.82982 14.135 6.6976C13.0033 5.56593 11.625 5.0001 10 5.0001H9.875L11.1667 6.29177L10 7.5001L6.66667 4.16677L10 0.833435L11.1667 2.04177L9.875 3.33343H10C11.0417 3.33343 12.0175 3.53149 12.9275 3.9276C13.8369 4.32316 14.6286 4.8576 15.3025 5.53094C15.9758 6.20482 16.5106 6.99649 16.9067 7.90594C17.3022 8.81594 17.5 9.79177 17.5 10.8334C17.5 11.8751 17.3022 12.8507 16.9067 13.7601C16.5106 14.6701 15.9758 15.4618 15.3025 16.1351C14.6286 16.809 13.8369 17.344 12.9275 17.7401C12.0175 18.1357 11.0417 18.3334 10 18.3334Z" fill="black" fill-opacity="0.2"/>
</g>
</svg>
