<svg width="30" height="30" viewBox="0 0 30 30" fill="none" xmlns="http://www.w3.org/2000/svg">
<path d="M16.9618 24.1825V22.8565C16.9618 21.7633 17.179 20.7795 17.6134 19.9049C18.0478 19.0209 18.6663 18.3222 19.469 17.8089C20.2717 17.2956 21.2254 17.039 22.3303 17.039C23.4446 17.039 24.3983 17.2956 25.1916 17.8089C25.9848 18.3222 26.5939 19.0209 27.0188 19.9049C27.4438 20.7795 27.6562 21.7633 27.6562 22.8565V24.1825C27.6562 25.2757 27.4391 26.2595 27.0047 27.134C26.5797 28.0086 25.9706 28.7072 25.1774 29.23C24.3842 29.7433 23.4351 30 22.3303 30C21.2065 30 20.2433 29.7433 19.4407 29.23C18.6474 28.7072 18.0336 28.0086 17.5992 27.134C17.1743 26.2595 16.9618 25.2757 16.9618 24.1825ZM19.1857 22.8565V24.1825C19.1857 25.2567 19.4454 26.174 19.9648 26.9344C20.4936 27.6854 21.2821 28.0608 22.3303 28.0608C23.3502 28.0608 24.1198 27.6854 24.6391 26.9344C25.1585 26.174 25.4182 25.2567 25.4182 24.1825V22.8565C25.4182 21.7823 25.1632 20.8698 24.6533 20.1188C24.1434 19.3584 23.369 18.9781 22.3303 18.9781C21.301 18.9781 20.5172 19.3584 19.9789 20.1188C19.4501 20.8698 19.1857 21.7823 19.1857 22.8565ZM2.34375 7.14354V5.81749C2.34375 4.72434 2.56094 3.7405 2.99533 2.86597C3.42972 1.99145 4.04825 1.29753 4.85092 0.784221C5.65359 0.261407 6.60736 0 7.71221 0C8.82651 0 9.78027 0.261407 10.5735 0.784221C11.3667 1.29753 11.9758 1.99145 12.4008 2.86597C12.8257 3.7405 13.0382 4.72434 13.0382 5.81749V7.14354C13.0382 8.23669 12.821 9.22529 12.3866 10.1093C11.9616 10.9838 11.3526 11.6778 10.5593 12.1911C9.76611 12.7044 8.81706 12.961 7.71221 12.961C6.58847 12.961 5.62526 12.7044 4.82259 12.1911C4.02936 11.6778 3.41555 10.9838 2.98117 10.1093C2.55622 9.22529 2.34375 8.23669 2.34375 7.14354ZM4.56762 5.81749V7.14354C4.56762 8.21768 4.82731 9.13498 5.34669 9.89544C5.87551 10.6464 6.66401 11.0219 7.71221 11.0219C8.73208 11.0219 9.5017 10.6464 10.0211 9.89544C10.5404 9.13498 10.8001 8.21768 10.8001 7.14354V5.81749C10.8001 4.74335 10.5452 3.8308 10.0352 3.07985C9.5253 2.31939 8.75096 1.93916 7.71221 1.93916C6.6829 1.93916 5.89911 2.31939 5.36085 3.07985C4.83203 3.8308 4.56762 4.74335 4.56762 5.81749ZM3.64691 29.6008L23.5768 0.39924H26.084L6.15408 29.6008H3.64691Z" fill="#E26D5C"/>
</svg>
