<svg width="21" height="21" viewBox="0 0 21 21" fill="none" xmlns="http://www.w3.org/2000/svg">
<path fill-rule="evenodd" clip-rule="evenodd" d="M8.3125 14.875C11.9369 14.875 14.875 11.9369 14.875 8.3125C14.875 4.68813 11.9369 1.75 8.3125 1.75C4.68813 1.75 1.75 4.68813 1.75 8.3125C1.75 11.9369 4.68813 14.875 8.3125 14.875ZM16.125 8.3125C16.125 12.6272 12.6272 16.125 8.3125 16.125C3.99778 16.125 0.5 12.6272 0.5 8.3125C0.5 3.99778 3.99778 0.5 8.3125 0.5C12.6272 0.5 16.125 3.99778 16.125 8.3125Z" fill="#060915"/>
<path fill-rule="evenodd" clip-rule="evenodd" d="M8.3125 14.875C11.9369 14.875 14.875 11.9369 14.875 8.3125C14.875 4.68813 11.9369 1.75 8.3125 1.75C4.68813 1.75 1.75 4.68813 1.75 8.3125C1.75 11.9369 4.68813 14.875 8.3125 14.875ZM16.125 8.3125C16.125 12.6272 12.6272 16.125 8.3125 16.125C3.99778 16.125 0.5 12.6272 0.5 8.3125C0.5 3.99778 3.99778 0.5 8.3125 0.5C12.6272 0.5 16.125 3.99778 16.125 8.3125Z" fill="black" fill-opacity="0.2"/>
<rect x="13.5713" y="12.6875" width="9.77392" height="1.25" transform="rotate(45 13.5713 12.6875)" fill="#060915"/>
<rect x="13.5713" y="12.6875" width="9.77392" height="1.25" transform="rotate(45 13.5713 12.6875)" fill="black" fill-opacity="0.2"/>
</svg>
