<svg width="20" height="20" viewBox="0 0 20 20" fill="none" xmlns="http://www.w3.org/2000/svg">
<g clip-path="url(#clip0_1522_1233)">
<path d="M3.33348 5V17.2222C3.32831 17.436 3.36532 17.6487 3.44238 17.8482C3.51945 18.0476 3.63506 18.23 3.78261 18.3848C3.93016 18.5395 4.10677 18.6637 4.30233 18.7502C4.4979 18.8367 4.70859 18.8838 4.92237 18.8889H15.0501C15.2663 18.8875 15.48 18.843 15.6788 18.7581C15.8775 18.6733 16.0574 18.5496 16.2079 18.3945C16.3584 18.2394 16.4765 18.0558 16.5553 17.8545C16.6341 17.6533 16.672 17.4383 16.6668 17.2222V5H3.33348ZM8.33348 16.1111H7.22237V7.77778H8.33348V16.1111ZM12.7779 16.1111H11.6668V7.77778H12.7779V16.1111Z" fill="#919191"/>
<path d="M17.0722 2.77775H12.7777V2.2222C12.7777 1.92751 12.6607 1.64489 12.4523 1.43652C12.2439 1.22815 11.9613 1.11108 11.6666 1.11108H8.22217C7.94714 1.13872 7.69229 1.26788 7.50738 1.47333C7.32247 1.67879 7.22078 1.94579 7.22217 2.2222V2.77775H2.77772C2.63038 2.77775 2.48907 2.83628 2.38489 2.94047C2.2807 3.04466 2.22217 3.18596 2.22217 3.33331C2.22217 3.48065 2.2807 3.62196 2.38489 3.72614C2.48907 3.83033 2.63038 3.88886 2.77772 3.88886H17.0722C17.2195 3.88886 17.3608 3.83033 17.465 3.72614C17.5692 3.62196 17.6277 3.48065 17.6277 3.33331C17.6277 3.18596 17.5692 3.04466 17.465 2.94047C17.3608 2.83628 17.2195 2.77775 17.0722 2.77775Z" fill="#919191"/>
</g>
<defs>
<clipPath id="clip0_1522_1233">
<rect width="20" height="20" fill="white"/>
</clipPath>
</defs>
</svg>
