<svg width="32" height="32" viewBox="0 0 32 32" fill="none" xmlns="http://www.w3.org/2000/svg">
<path fill-rule="evenodd" clip-rule="evenodd" d="M0 7H20V20L20.996 20.001V16C20.996 15.9971 20.9951 15.9945 20.9941 15.9917C20.9931 15.9887 20.992 15.9856 20.992 15.982L20.998 9.99H21.498C21.498 9.99 24.973 9.979 27.145 9.979C27.2161 9.97921 27.2863 9.99458 27.3509 10.0241C27.4156 10.0536 27.4732 10.0965 27.52 10.15L31.855 15.67C31.9417 15.7588 31.9932 15.8761 32 16V18H30.488C29.812 17.99 29.812 19.01 30.488 19H32V22H28.87C28.6484 21.1419 28.1481 20.3816 27.4477 19.8386C26.7472 19.2956 25.8863 19.0007 25 19C24.1139 19.0009 23.2532 19.296 22.5529 19.8389C21.8527 20.3819 21.3525 21.142 21.131 22H11.87C11.6484 21.1419 11.1481 20.3816 10.4477 19.8386C9.74723 19.2956 8.88627 19.0007 8 19C7.1139 19.0009 6.25317 19.296 5.55292 19.8389C4.85266 20.3819 4.35252 21.142 4.131 22H0V19H2.479C3.155 19.01 3.155 17.99 2.479 18H0V7ZM24.492 10.98H21.998L21.992 15.482L24.492 15.488V10.98ZM26.918 10.98H25.492V15.49L30.375 15.498L26.918 10.98ZM23.001 16.5C22.984 16.4991 22.967 16.4991 22.95 16.5C22.282 16.534 22.333 17.534 23 17.5H24.015C24.691 17.51 24.691 16.49 24.015 16.5H23.001Z" fill="#E26D5C"/>
<path fill-rule="evenodd" clip-rule="evenodd" d="M5.87868 20.8787C6.44129 20.3161 7.20435 20 8 20C8.79565 20 9.55871 20.3161 10.1213 20.8787C10.6839 21.4413 11 22.2044 11 23C11 23.7956 10.6839 24.5587 10.1213 25.1213C9.55871 25.6839 8.79565 26 8 26C7.20435 26 6.44129 25.6839 5.87868 25.1213C5.31607 24.5587 5 23.7956 5 23C5 22.2044 5.31607 21.4413 5.87868 20.8787ZM8.70711 22.2929C8.51957 22.1054 8.26522 22 8 22C7.73478 22 7.48043 22.1054 7.29289 22.2929C7.10536 22.4804 7 22.7348 7 23C7 23.2652 7.10536 23.5196 7.29289 23.7071C7.48043 23.8946 7.73478 24 8 24C8.26522 24 8.51957 23.8946 8.70711 23.7071C8.89464 23.5196 9 23.2652 9 23C9 22.7348 8.89464 22.4804 8.70711 22.2929Z" fill="#E26D5C"/>
<path fill-rule="evenodd" clip-rule="evenodd" d="M22.8787 20.8787C23.4413 20.3161 24.2044 20 25 20C25.7956 20 26.5587 20.3161 27.1213 20.8787C27.6839 21.4413 28 22.2044 28 23C28 23.7956 27.6839 24.5587 27.1213 25.1213C26.5587 25.6839 25.7956 26 25 26C24.2044 26 23.4413 25.6839 22.8787 25.1213C22.3161 24.5587 22 23.7956 22 23C22 22.2044 22.3161 21.4413 22.8787 20.8787ZM25.7071 22.2929C25.5196 22.1054 25.2652 22 25 22C24.7348 22 24.4804 22.1054 24.2929 22.2929C24.1054 22.4804 24 22.7348 24 23C24 23.2652 24.1054 23.5196 24.2929 23.7071C24.4804 23.8946 24.7348 24 25 24C25.2652 24 25.5196 23.8946 25.7071 23.7071C25.8946 23.5196 26 23.2652 26 23C26 22.7348 25.8946 22.4804 25.7071 22.2929Z" fill="#E26D5C"/>
</svg>
