<svg width="24" height="24" viewBox="0 0 24 24" fill="none" xmlns="http://www.w3.org/2000/svg">
<g clip-path="url(#clip0_1130_46123)">
<path fill-rule="evenodd" clip-rule="evenodd" d="M12 24C18.6274 24 24 18.6274 24 12C24 5.37258 18.6274 0 12 0C5.37258 0 0 5.37258 0 12C0 18.6274 5.37258 24 12 24ZM4.04906 7.30002C4.17903 13.54 7.2983 17.29 12.767 17.29H13.0769V13.72C14.0416 13.8415 14.9489 14.2451 15.6852 14.8802C16.4214 15.5152 16.954 16.3535 17.216 17.29H20.0553C19.7634 16.2118 19.2463 15.2078 18.538 14.3442C17.8297 13.4806 16.9464 12.7771 15.9463 12.28C16.8422 11.736 17.6163 11.013 18.2201 10.1561C18.8239 9.2992 19.2445 8.3269 19.4555 7.30002H16.8761C16.3162 9.28002 14.6566 11.08 13.0769 11.25V7.30002H10.4976V14.22C8.89793 13.82 6.8784 11.88 6.78842 7.30002H4.04906Z" fill="#E26D5C"/>
</g>
<defs>
<clipPath id="clip0_1130_46123">
<rect width="24" height="24" fill="white"/>
</clipPath>
</defs>
</svg>
